<svg preserveAspectRatio="xMidYMin meet" class="floor-plan" id="svg8" width="300" height="300" version="1.1" viewBox="0 0 127.71 127.35" xmlns="http://www.w3.org/2000/svg" xmlns:xlink="http://www.w3.org/1999/xlink">
    <g id="layer1" transform="translate(-31.397 -89.026)">
    <image id="image20" x="31.397" y="89.026" width="127.71" height="127.35" xlink:href="./assets/images/test-floor.jpg"/>
    <a xlink:href="flat?id=1"><path fill="#fff" data-info-path data-section="1" data-rooms="2" data-all_room="34" data-live_room="25" data-commerce="1 поверх" id="path24" d="m35.744 92.428h81.265v45.735l-12.379 12.379 6.8981 6.8981-7.843 7.843-18.993-18.993-11.717 11.717-4.4412-4.4412h-33.545z" /></a>
    <a xlink:href="flat?id=2"><path fill="#fff" data-info-path data-section="1" data-rooms="3" data-all_room="45" data-live_room="36" data-commerce="1 поверх" id="path26" d="m117.01 92.428h21.356l0.68678-2.5631h18.401l1.4878 2.577-0.92086 101.09h-10.205l-24.285-24.285 6.7091-6.7091-18.71-18.71 6.0476-6.0476z" /></a>
    <a xlink:href="flat?id=3"><path fill="#fff" data-info-path data-section="1" data-rooms="4" data-all_room="56" data-live_room="47" data-commerce="1 поверх" id="path28" d="m137.23 213.76v-9.0714l-24.663-24.663-5.9531 5.9531-14.269-14.269-2.7403 2.7403-21.167-21.167h-33.451v41.577l-2.7394 0.73402v20.055h11.244l0.5577-2.0814z" /></a>
    </g>
    </svg>