<svg width="142" height="33" viewBox="0 0 142 33" fill="none" xmlns="http://www.w3.org/2000/svg">
<path d="M0.314941 0.275635V19.1923H11.1735V16.4347H2.83285V0.275635H0.314941Z" fill="white"/>
<path d="M20.3011 0L13.167 19.1372H15.9472C16.5242 17.593 21.2453 4.35689 21.2453 4.35689L26.5434 19.1372H29.2712L22.1371 0H20.3011Z" fill="white"/>
<path d="M65.4661 0L58.332 19.1372H61.1122C61.6892 17.593 66.4103 4.35689 66.4103 4.35689L71.7085 19.1372H74.4362L67.3021 0H65.4661Z" fill="white"/>
<path d="M47.8404 9.43062L42.0177 0.275635H39.9194V19.1923H42.4898V5.84584L47.106 13.1809H48.5748L53.1909 5.84584V19.1923H55.7089V0.275635H53.7155L47.8404 9.43062Z" fill="white"/>
<path d="M87.8127 13.5671L79.1574 0.275857L77.1641 0.220703V19.1925H79.7344V5.95637L88.2848 19.1925H90.3307V0.275857H87.8127V13.5671Z" fill="white"/>
<path d="M102.291 16.6004C100.612 16.6004 99.0383 15.8283 97.9367 14.5598C96.8351 13.2913 96.1007 11.6368 96.1007 9.76171C96.1007 7.83145 96.8351 6.12177 97.9367 4.90846C99.0383 3.64 100.612 2.8679 102.291 2.8679C104.913 2.8679 107.064 4.3018 108.008 7.11448H110.526C109.53 2.86789 106.33 0.165527 102.291 0.165527C99.8776 0.165527 97.7269 1.26852 96.1532 2.97819C94.6319 4.68786 93.6353 7.05934 93.6353 9.76171C93.6353 12.4089 94.6319 14.7804 96.1532 16.4901C97.6744 18.1997 99.8776 19.3027 102.291 19.3027C106.435 19.3027 109.635 16.3798 110.684 12.078H108.166C107.274 14.9459 104.966 16.6004 102.291 16.6004Z" fill="white"/>
<path d="M124.06 8.27246H116.559V0.275635H114.041V19.1923H116.559V10.9748H124.06V19.1923H126.631V0.275635H124.06V8.27246Z" fill="white"/>
<path d="M130.512 0.275635V19.1923H141.318V16.4347H133.135V11.0851H141.161V8.32761H133.135V3.03316H141.318V0.275635H130.512Z" fill="white"/>
<path d="M17.468 17.3724L17.4155 17.4275L18.5696 19.3026L18.622 19.2475C20.2482 18.0893 22.3464 18.0893 23.9726 19.2475L24.0251 19.3026L25.1791 17.4275L25.1266 17.3724C22.7661 15.773 19.7761 15.773 17.468 17.3724Z" fill="white"/>
<path d="M69.0854 16.3244C67.4592 17.4826 65.361 17.4826 63.7348 16.3244L63.6824 16.2693L62.5283 18.1444L62.5808 18.1996C63.7348 19.0268 65.0462 19.4129 66.4101 19.4129C67.7215 19.4129 69.0329 19.0268 70.2394 18.1996L70.2919 18.1444L69.1378 16.2693L69.0854 16.3244Z" fill="white"/>
<path d="M4.77355 28.3474C4.77355 29.671 3.82933 30.4983 2.30809 30.4983H0.839309V32.3734H0V26.1965H2.30809C3.88178 26.1965 4.77355 27.0238 4.77355 28.3474ZM3.93424 28.3474C3.93424 27.465 3.35722 26.9686 2.30809 26.9686H0.89176V29.7262H2.30809C3.40967 29.7262 3.93424 29.2298 3.93424 28.3474Z" fill="white"/>
<path d="M13.4811 31.6013V32.3734H9.17969V26.1965H13.3238V26.9686H10.019V28.8438H12.9566V29.6159H10.019V31.6013H13.4811Z" fill="white"/>
<path d="M21.9269 32.3734L20.668 30.4983C20.563 30.4983 20.4057 30.4983 20.3008 30.4983H18.832V32.3734H17.9927V26.1965H20.3008C21.822 26.1965 22.7662 27.0238 22.7662 28.3474C22.7662 29.285 22.2941 30.0019 21.4548 30.2777L22.8711 32.3734H21.9269ZM21.9269 28.3474C21.9269 27.465 21.3499 26.9686 20.3008 26.9686H18.8844V29.7262H20.3008C21.3499 29.7262 21.9269 29.2298 21.9269 28.3474Z" fill="white"/>
<path d="M28.1167 26.9686V29.1195H31.0542V29.8916H28.1167V32.3734H27.2773V26.1965H31.4214V26.9686H28.1167Z" fill="white"/>
<path d="M40.0766 31.6013V32.3734H35.8276V26.1965H39.9717V26.9686H36.6669V28.8438H39.6045V29.6159H36.6669V31.6013H40.0766Z" fill="white"/>
<path d="M44.1162 29.2849C44.1162 27.465 45.4276 26.1414 47.2112 26.1414C48.1029 26.1414 48.8898 26.4723 49.4668 27.0789L48.9422 27.6304C48.4701 27.1341 47.9455 26.9135 47.2636 26.9135C45.9522 26.9135 44.9555 27.9062 44.9555 29.2849C44.9555 30.6637 45.9522 31.6564 47.2636 31.6564C47.8931 31.6564 48.4701 31.4358 48.9422 30.9395L49.4668 31.491C48.9422 32.1528 48.1554 32.4837 47.2112 32.4837C45.4276 32.4285 44.1162 31.1049 44.1162 29.2849Z" fill="white"/>
<path d="M54.9221 26.9686H52.9287V26.1965H57.8072V26.9686H55.8138V32.3734H54.9745V26.9686H54.9221Z" fill="white"/>
<path d="M71.236 32.3734L69.977 30.4983C69.8721 30.4983 69.7148 30.4983 69.6099 30.4983H68.1411V32.3734H67.3018V26.1965H69.6099C71.1311 26.1965 72.0753 27.0238 72.0753 28.3474C72.0753 29.285 71.6032 30.0019 70.7639 30.2777L72.1802 32.3734H71.236ZM71.236 28.3474C71.236 27.465 70.659 26.9686 69.6099 26.9686H68.1935V29.7262H69.6099C70.659 29.7262 71.236 29.2298 71.236 28.3474Z" fill="white"/>
<path d="M80.8354 31.6013V32.3734H76.5864V26.1965H80.7305V26.9686H77.4257V28.8438H80.3633V29.6159H77.4257V31.6013H80.8354Z" fill="white"/>
<path d="M84.875 31.6564L85.1897 30.9946C85.6094 31.4358 86.3963 31.7116 87.1306 31.7116C88.1273 31.7116 88.5994 31.2704 88.5994 30.774C88.5994 29.2849 85.0324 30.2225 85.0324 27.9062C85.0324 26.9686 85.7143 26.1414 87.288 26.1414C87.9699 26.1414 88.7043 26.362 89.1765 26.6929L88.9142 27.4098C88.3896 27.0789 87.8126 26.9135 87.288 26.9135C86.2913 26.9135 85.8717 27.3547 85.8717 27.9062C85.8717 29.3952 89.4387 28.4577 89.4387 30.7189C89.4387 31.6564 88.7043 32.4837 87.1831 32.4837C86.1864 32.4285 85.3471 32.1528 84.875 31.6564Z" fill="white"/>
<path d="M93.7925 26.1965H94.6318V32.3734H93.7925V26.1965Z" fill="white"/>
<path d="M99.5625 26.1965H102.028C103.916 26.1965 105.228 27.465 105.228 29.285C105.228 31.1049 103.969 32.3734 102.028 32.3734H99.5625V26.1965ZM101.976 31.6013C103.444 31.6013 104.336 30.6637 104.336 29.285C104.336 27.9062 103.392 26.9686 101.976 26.9686H100.402V31.6013H101.976Z" fill="white"/>
<path d="M113.936 31.6013V32.3734H109.687V26.1965H113.831V26.9686H110.526V28.8438H113.463V29.6159H110.526V31.6013H113.936Z" fill="white"/>
<path d="M123.535 26.1965V32.3734H122.853L119.339 27.7408V32.3734H118.5V26.1965H119.181L122.696 30.8292V26.1965H123.535Z" fill="white"/>
<path d="M127.994 29.2849C127.994 27.465 129.306 26.1414 131.089 26.1414C131.981 26.1414 132.768 26.4723 133.345 27.0789L132.82 27.6304C132.348 27.1341 131.823 26.9135 131.142 26.9135C129.83 26.9135 128.833 27.9062 128.833 29.2849C128.833 30.6637 129.83 31.6564 131.142 31.6564C131.771 31.6564 132.348 31.4358 132.82 30.9395L133.345 31.491C132.82 32.1528 132.033 32.4837 131.089 32.4837C129.306 32.4285 127.994 31.1049 127.994 29.2849Z" fill="white"/>
<path d="M142 31.6013V32.3734H137.751V26.1965H141.895V26.9686H138.59V28.8438H141.528V29.6159H138.59V31.6013H142Z" fill="white"/>
</svg>
