<svg width="102" height="48" viewBox="0 0 102 48" fill="none" xmlns="http://www.w3.org/2000/svg">
<path d="M3.23379 34.1972C3.171 34.1972 3.10821 34.1972 2.98263 34.1972C2.85704 34.1972 2.76285 34.1972 2.63727 34.1972V36.5492C2.63727 36.8587 2.63727 37.1063 2.63727 37.3229C2.63727 37.5396 2.60587 37.6943 2.60587 37.849L4.11288 37.7562V38.468H0.0627912V37.9419C0.376752 37.9419 0.596524 37.88 0.753505 37.7871C0.910485 37.6943 1.00467 37.5396 1.06747 37.3848C1.13026 37.1991 1.16165 37.0134 1.16165 36.7659C1.16165 36.5183 1.16165 36.2707 1.16165 35.9922V28.998C1.16165 28.7813 1.16165 28.5647 1.16165 28.379C1.16165 28.1933 1.19305 28.0077 1.19305 27.822L0 27.8839V27.1721C0.565129 27.1721 1.16165 27.1411 1.78957 27.1411C2.3861 27.1411 3.01402 27.1411 3.67334 27.1411C5.27454 27.1411 6.46759 27.4196 7.31528 27.9458C8.19437 28.5338 8.63392 29.3694 8.63392 30.4835C8.63392 30.7001 8.60252 30.9477 8.57112 31.2262C8.50833 31.5047 8.41414 31.7833 8.25716 32.0618C8.10018 32.3403 7.88041 32.6189 7.62924 32.8974C7.34668 33.1759 7.03272 33.3926 6.62457 33.6092C6.21642 33.7949 5.71408 33.9806 5.14895 34.0734C4.64662 34.1353 3.9873 34.1972 3.23379 34.1972ZM2.63727 33.5163C2.82564 33.5473 3.01402 33.5473 3.171 33.5782C3.32798 33.5782 3.51636 33.5782 3.70474 33.5782C4.17568 33.5782 4.61522 33.5163 5.02337 33.3616C5.43152 33.2378 5.80827 33.0212 6.12223 32.7736C6.43619 32.526 6.68736 32.1856 6.84434 31.8142C7.03272 31.4429 7.12691 31.0096 7.12691 30.5454C7.12691 30.0193 7.03272 29.586 6.87574 29.2456C6.71876 28.8742 6.46759 28.5957 6.18502 28.379C5.87106 28.1624 5.52571 28.0077 5.11756 27.8839C4.70941 27.791 4.23847 27.7291 3.73613 27.7291C3.45357 27.7291 3.23379 27.7601 3.07681 27.8529C2.91983 27.9458 2.82565 28.0695 2.76285 28.2552C2.70006 28.41 2.66867 28.6266 2.66867 28.8742C2.66867 29.1218 2.66867 29.3694 2.66867 29.6479V33.5163H2.63727Z" fill="#383E41"/>
<path d="M16.1987 33.6711L10.4218 33.764C10.4218 34.3829 10.4532 34.94 10.5788 35.4661C10.673 35.9613 10.83 36.3945 11.0497 36.7659C11.2695 37.1373 11.5521 37.4158 11.8974 37.6015C12.2428 37.7872 12.6509 37.88 13.1533 37.88C13.4044 37.88 13.687 37.8491 13.9382 37.7872C14.2207 37.7253 14.4719 37.6324 14.7231 37.5086C14.9742 37.3849 15.194 37.2611 15.4138 37.0754C15.6336 36.9206 15.7905 36.735 15.9475 36.5493L16.3557 36.8587C16.1359 37.1992 15.8847 37.4777 15.5708 37.7253C15.2882 37.9729 14.9742 38.1585 14.6603 38.3133C14.3463 38.468 14.0324 38.5609 13.687 38.6228C13.373 38.6847 13.0591 38.7156 12.7765 38.7156C12.2114 38.7156 11.6776 38.6228 11.2067 38.4061C10.7044 38.2204 10.2962 37.911 9.91947 37.5396C9.57411 37.1682 9.29155 36.704 9.07177 36.1779C8.852 35.6518 8.75781 35.0638 8.75781 34.3829C8.75781 33.8259 8.852 33.2688 9.04038 32.7427C9.22875 32.2166 9.51132 31.7524 9.88807 31.35C10.2648 30.9477 10.673 30.6382 11.2067 30.3907C11.709 30.1431 12.2742 30.0193 12.9021 30.0193C13.3416 30.0193 13.7812 30.0812 14.1893 30.2359C14.5975 30.3907 14.9428 30.6073 15.2568 30.8858C15.5708 31.1953 15.7905 31.5667 15.9789 31.9999C16.1359 32.557 16.1987 33.0831 16.1987 33.6711ZM12.9021 30.7311C12.2742 30.7311 11.7404 30.9168 11.3009 31.2881C10.8927 31.6595 10.6102 32.2475 10.4846 33.0831H14.6603C14.6603 32.8046 14.6289 32.5261 14.5661 32.2475C14.5033 31.969 14.4091 31.7214 14.2521 31.5048C14.0951 31.2881 13.9382 31.1025 13.687 30.9477C13.4986 30.793 13.2161 30.7311 12.9021 30.7311Z" fill="#383E41"/>
<path d="M21.7894 30.9786C21.5696 30.9786 21.3812 31.0095 21.1615 31.1024C20.9417 31.1952 20.7219 31.319 20.5335 31.4738C20.3138 31.6285 20.1254 31.8142 19.937 32.0308C19.7486 32.2475 19.5917 32.495 19.4347 32.7736L19.4661 36.7658C19.4661 36.9825 19.4661 37.1681 19.4661 37.3538C19.4661 37.5086 19.4347 37.6943 19.4033 37.8799L20.4394 37.818V38.468H17.0486V37.9728C17.2998 37.9728 17.4881 37.9109 17.6137 37.818C17.7393 37.7252 17.8335 37.5705 17.8963 37.4157C17.9591 37.23 17.9905 37.0444 17.9905 36.7968C17.9905 36.5492 17.9905 36.3016 17.9905 35.9921V32.2784C17.9905 32.1237 17.9905 31.938 17.9905 31.7832C17.9905 31.5976 18.0219 31.4428 18.0533 31.2571L16.8916 31.319V30.6691H17.3939C17.6137 30.6691 17.8335 30.6691 17.9905 30.6382C18.1474 30.6072 18.273 30.5763 18.3672 30.5453C18.4614 30.5144 18.5556 30.4525 18.6184 30.4215C18.6812 30.3596 18.744 30.3287 18.8068 30.2668H19.2777C19.3091 30.4215 19.3091 30.6382 19.3091 30.8858C19.3091 31.1333 19.3405 31.4738 19.3405 31.8451C19.4661 31.6594 19.6231 31.4428 19.8114 31.2262C19.9998 31.0095 20.2196 30.8548 20.4708 30.6691C20.7219 30.5144 20.9731 30.3906 21.2557 30.2668C21.5382 30.174 21.8208 30.1121 22.1033 30.1121C22.2603 30.1121 22.3859 30.143 22.5429 30.174C22.6999 30.2049 22.7941 30.2668 22.9196 30.3596C23.0138 30.4525 23.108 30.5453 23.1708 30.6691C23.2336 30.7929 23.265 30.9477 23.265 31.1333C23.265 31.1952 23.265 31.2881 23.2336 31.3809C23.2022 31.4738 23.1708 31.5666 23.0766 31.6285C23.0138 31.7213 22.9196 31.7832 22.8255 31.8142C22.7313 31.8761 22.6057 31.907 22.4487 31.907C22.3231 31.907 22.2289 31.8761 22.1033 31.8142C22.0092 31.7523 21.915 31.6904 21.8522 31.5976C21.7894 31.5047 21.7266 31.4119 21.6952 31.319C21.7894 31.1952 21.758 31.1024 21.7894 30.9786Z" fill="#383E41"/>
<path d="M28.9472 26.9865C28.853 26.8937 28.7588 26.8009 28.6332 26.7699C28.5076 26.739 28.382 26.708 28.2564 26.708C28.0053 26.708 27.7855 26.7699 27.6285 26.8937C27.4715 27.0175 27.346 27.1413 27.2204 27.327C27.1262 27.5127 27.0634 27.7293 27.0006 27.9459C26.9692 28.1626 26.9378 28.4101 26.9378 28.6268V30.3289H29.1669V30.9478L26.9378 30.9788L26.9692 36.7041C26.9692 36.9208 26.9692 37.1064 26.9692 37.2921C26.9692 37.4469 26.9378 37.6326 26.9064 37.8182L27.9425 37.7564V38.4063H24.5831V37.9111C24.8343 37.9111 25.0226 37.8492 25.1482 37.7564C25.2738 37.6635 25.368 37.5088 25.4308 37.354C25.4936 37.1683 25.525 36.9827 25.525 36.7351C25.525 36.4875 25.525 36.2399 25.525 35.9304L25.4936 30.9788L24.1436 31.0097V30.267H25.4936V29.9266C25.4936 29.3386 25.5564 28.7815 25.6506 28.3173C25.7448 27.8531 25.9331 27.4198 26.1529 27.1103C26.3727 26.7699 26.6866 26.5223 27.0634 26.3366C27.4401 26.151 27.9111 26.0581 28.4448 26.0581C28.6332 26.0581 28.8216 26.0891 29.0099 26.12C29.2297 26.151 29.4181 26.2438 29.5751 26.3366C29.7635 26.4295 29.889 26.5533 30.0146 26.708C30.1402 26.8627 30.203 27.0484 30.203 27.2651C30.203 27.4817 30.1402 27.6674 30.0146 27.7912C29.889 27.915 29.7321 28.0078 29.5123 28.0078C29.3867 28.0078 29.2611 27.9769 29.1669 27.9459C29.0727 27.915 29.0099 27.8531 28.9472 27.7912C28.8844 27.7293 28.853 27.6364 28.8216 27.5745C28.7902 27.4817 28.7902 27.4198 28.7902 27.3579C28.7902 27.296 28.7902 27.2341 28.8216 27.1722C28.8844 27.1413 28.9158 27.0794 28.9472 26.9865Z" fill="#383E41"/>
<path d="M37.1119 33.6711L31.335 33.764C31.335 34.3829 31.3664 34.94 31.492 35.4661C31.5862 35.9613 31.7432 36.3945 31.963 36.7659C32.1827 37.1373 32.4653 37.4158 32.8106 37.6015C33.156 37.7872 33.5642 37.88 34.0665 37.88C34.3177 37.88 34.6002 37.8491 34.8514 37.7872C35.134 37.7253 35.3851 37.6324 35.6363 37.5086C35.8875 37.3849 36.1072 37.2611 36.327 37.0754C36.5468 36.9206 36.7038 36.735 36.8607 36.5493L37.2689 36.8587C37.0491 37.1992 36.798 37.4777 36.484 37.7253C36.2014 37.9729 35.8875 38.1585 35.5735 38.3133C35.2595 38.468 34.9456 38.5609 34.6002 38.6228C34.2863 38.6847 33.9723 38.7156 33.6897 38.7156C33.1246 38.7156 32.5909 38.6228 32.0885 38.4061C31.5862 38.2204 31.1781 37.911 30.8013 37.5396C30.4559 37.1682 30.1734 36.704 29.9536 36.1779C29.7338 35.6518 29.6396 35.0638 29.6396 34.3829C29.6396 33.8259 29.7338 33.2688 29.9222 32.7427C30.1106 32.2166 30.3932 31.7524 30.7699 31.35C31.1467 30.9477 31.5548 30.6382 32.0885 30.3907C32.5909 30.1431 33.156 30.0193 33.7839 30.0193C34.2235 30.0193 34.663 30.0812 35.0712 30.2359C35.4793 30.3907 35.8247 30.6073 36.1386 30.8858C36.4526 31.1953 36.6724 31.5667 36.8607 31.9999C37.0177 32.557 37.1119 33.0831 37.1119 33.6711ZM33.7839 30.7311C33.156 30.7311 32.6223 30.9168 32.1827 31.2881C31.7746 31.6595 31.492 32.2475 31.3664 33.0831H35.5421C35.5421 32.8046 35.5107 32.5261 35.4479 32.2475C35.3851 31.969 35.2909 31.7214 35.134 31.5048C34.977 31.2881 34.82 31.1025 34.5688 30.9477C34.3805 30.793 34.0979 30.7311 33.7839 30.7311Z" fill="#383E41"/>
<path d="M43.8913 31.5976C43.8285 31.4119 43.7029 31.2572 43.5774 31.1334C43.4204 31.0096 43.2634 30.9168 43.1064 30.8549C42.9494 30.793 42.7611 30.762 42.6041 30.7311C42.4471 30.7001 42.2901 30.7001 42.1959 30.7001C41.8192 30.7001 41.4738 30.762 41.1599 30.9168C40.8459 31.0715 40.5633 31.2881 40.3122 31.5667C40.061 31.8452 39.904 32.2166 39.747 32.6498C39.6215 33.0831 39.5273 33.5783 39.5273 34.1353C39.5273 34.6614 39.5901 35.1566 39.747 35.6208C39.8726 36.085 40.061 36.4564 40.3122 36.7968C40.5633 37.1373 40.8459 37.3849 41.1913 37.5705C41.5366 37.7562 41.9134 37.8491 42.3529 37.8491C42.6041 37.8491 42.8553 37.8181 43.1064 37.7562C43.3576 37.6943 43.6088 37.6015 43.8285 37.4467C44.0483 37.323 44.2681 37.1682 44.4565 37.0135C44.6448 36.8587 44.8018 36.6731 44.9274 36.4564L45.3669 36.7659C45.1472 37.1063 44.896 37.3849 44.6134 37.6324C44.3309 37.88 44.0483 38.0657 43.7343 38.2204C43.4204 38.3752 43.1064 38.499 42.7925 38.5609C42.4785 38.6228 42.1959 38.6847 41.9134 38.6847C41.3482 38.6847 40.8459 38.5918 40.3436 38.4061C39.8412 38.2204 39.4331 37.9419 39.0563 37.6015C38.6796 37.2301 38.397 36.7968 38.1772 36.3017C37.9575 35.7756 37.8633 35.1876 37.8633 34.5377C37.8633 34.1663 37.8947 33.7949 37.9889 33.4235C38.0831 33.0522 38.2086 32.7117 38.397 32.3713C38.5854 32.0309 38.7738 31.7214 39.0249 31.4429C39.2761 31.1644 39.5587 30.9168 39.8726 30.7001C40.1866 30.4835 40.5319 30.3288 40.9087 30.205C41.2855 30.0812 41.6936 30.0193 42.1017 30.0193C42.5413 30.0193 42.9808 30.0812 43.3576 30.174C43.7343 30.2978 44.0483 30.4216 44.3309 30.6073C44.6134 30.793 44.8018 31.0096 44.9588 31.2572C45.1158 31.5048 45.1786 31.7524 45.1786 31.9999C45.1786 32.2475 45.1158 32.4332 44.9902 32.588C44.8646 32.7427 44.6762 32.8355 44.4251 32.8355C44.2681 32.8355 44.1739 32.8046 44.0483 32.7736C43.9541 32.7117 43.8599 32.6498 43.8285 32.588C43.7657 32.5261 43.7343 32.4332 43.703 32.3404C43.6716 32.2475 43.6716 32.1856 43.6716 32.0928C43.6716 31.9999 43.7029 31.8762 43.7343 31.7524C43.7029 31.7833 43.7971 31.6905 43.8913 31.5976Z" fill="#383E41"/>
<path d="M45.8691 30.3597C46.1517 30.3597 46.4343 30.2669 46.654 30.1121C46.9052 29.9574 47.0936 29.7717 47.282 29.5551C47.4703 29.3384 47.6273 29.0909 47.7215 28.8123C47.8471 28.5338 47.9413 28.2862 48.0041 28.0696H48.5692C48.5692 28.5028 48.5692 28.9052 48.5692 29.2765C48.5692 29.6479 48.5692 30.0193 48.5692 30.3288H51.3321V30.9477L48.5692 30.9787C48.5692 31.6905 48.5692 32.2785 48.5692 32.7736C48.5692 33.2688 48.5692 33.6711 48.5692 34.0116C48.5692 34.352 48.5692 34.5996 48.5692 34.7852C48.5692 34.9709 48.5692 35.1257 48.5692 35.2185C48.5692 35.3114 48.5692 35.3733 48.5692 35.4042C48.5692 35.4351 48.5692 35.4351 48.5692 35.4661C48.5692 35.8375 48.6006 36.1469 48.632 36.4564C48.6634 36.735 48.7262 36.9825 48.8518 37.1682C48.946 37.3539 49.0715 37.5086 49.2285 37.6015C49.3855 37.6943 49.5739 37.7562 49.825 37.7562C50.1076 37.7562 50.3902 37.6634 50.6727 37.5086C50.9553 37.3539 51.2065 37.1063 51.4262 36.7968L51.8658 37.1682C51.6146 37.5396 51.3948 37.8181 51.1437 38.0038C50.8925 38.2204 50.6727 38.3752 50.453 38.468C50.2332 38.5609 50.0448 38.6228 49.8564 38.6537C49.6681 38.6847 49.5111 38.6847 49.3855 38.6847C49.2285 38.6847 49.0401 38.6847 48.8832 38.6537C48.6948 38.6228 48.5378 38.5609 48.3808 38.499C48.2238 38.4371 48.0669 38.3133 47.9099 38.1895C47.7529 38.0348 47.6273 37.88 47.5331 37.6324C47.4075 37.4158 47.3448 37.1373 47.282 36.8278C47.2192 36.5183 47.1878 36.1469 47.1878 35.7137L47.125 31.0406H45.8691V30.3597Z" fill="#383E41"/>
<path d="M60.6242 11.0793C60.2474 11.0793 59.9648 10.8008 59.9648 10.4294C59.9648 10.0581 60.2474 9.77954 60.6242 9.77954C61.0009 9.77954 61.2835 10.089 61.2835 10.4294C61.2835 10.7699 61.0009 11.0793 60.6242 11.0793Z" fill="#383E41"/>
<path d="M41.2853 11.0793C40.9085 11.0793 40.626 10.8008 40.626 10.4294C40.626 10.0581 40.9085 9.77954 41.2853 9.77954C41.662 9.77954 41.9446 10.089 41.9446 10.4294C41.9446 10.7699 41.6306 11.0793 41.2853 11.0793Z" fill="#383E41"/>
<path d="M50.9542 9.87231C50.5775 9.87231 50.2949 9.59378 50.2949 9.22241C50.2949 8.85104 50.5775 8.57251 50.9542 8.57251C51.331 8.57251 51.6136 8.88199 51.6136 9.22241C51.6136 9.59378 51.331 9.87231 50.9542 9.87231Z" fill="#383E41"/>
<path d="M74.345 7.21083C74.1881 6.99419 72.0845 7.48935 71.4566 7.39651C70.9229 7.21082 70.6403 6.62282 70.1694 6.62282C69.5414 6.59187 69.1019 6.99419 69.1019 7.5822C69.1019 7.64409 69.1019 7.73694 69.1333 7.79883C68.7251 8.882 66.9042 9.77949 65.7425 9.5938C64.0157 9.34622 63.6704 7.98452 63.3564 6.8704C63.1994 6.34429 64.0471 6.46808 64.1727 5.72533C64.2669 5.10638 63.9215 4.58027 63.0738 4.36363C63.5134 4.23984 63.796 3.89942 63.796 3.4971C63.796 3.00193 63.7018 2.32108 62.9797 2.19729C62.3203 2.0735 61.6296 3.00193 61.6296 3.4971C61.6296 3.80657 61.818 4.0851 62.1006 4.23984C60.8447 4.27079 59.9028 4.64216 59.997 5.44681C60.0284 5.72533 60.2482 5.97291 60.154 6.18955C60.0598 6.40618 57.9877 8.2321 56.6063 8.2321C55.1306 8.2321 53.0271 6.37524 52.8701 5.69439C52.8387 5.69439 53.7806 5.16827 53.8748 4.61121C54.0004 3.58994 53.0899 2.81625 51.991 2.50677C52.1166 2.32108 52.1794 2.10445 52.1794 1.88781C52.1794 1.26886 51.6457 0 51.0492 0C51.0178 0 51.0178 0 50.9864 0C50.955 0 50.955 0 50.9236 0C50.327 0 49.7933 1.26886 49.7933 1.88781C49.7933 2.10445 49.8561 2.32108 49.9817 2.50677C48.8828 2.81625 47.9723 3.58994 48.0979 4.61121C48.1607 5.16827 49.134 5.69439 49.1026 5.69439C48.9456 6.37524 46.8421 8.2321 45.3665 8.2321C43.985 8.2321 41.9129 6.40618 41.8187 6.18955C41.7245 5.97291 41.9443 5.75628 41.9757 5.44681C42.0699 4.64216 41.128 4.27079 39.8722 4.23984C40.1547 4.0851 40.3431 3.80657 40.3431 3.4971C40.3431 3.00193 39.6524 2.0735 38.9931 2.19729C38.271 2.32108 38.1768 3.00193 38.1768 3.4971C38.1768 3.89942 38.4907 4.23984 38.8989 4.36363C38.0512 4.58027 37.7058 5.10638 37.8 5.72533C37.9256 6.49903 38.7733 6.34429 38.6163 6.8704C38.3023 7.98452 37.9256 9.34622 36.2302 9.5938C35.0686 9.77949 33.2476 8.85106 32.8394 7.79883C32.8394 7.73694 32.8708 7.67504 32.8708 7.5822C32.8708 6.99419 32.4313 6.59187 31.8034 6.62282C31.3324 6.65377 31.0499 7.21082 30.5161 7.39651C29.8882 7.48935 27.7847 7.02514 27.6277 7.21083C27.6277 7.21083 27.4707 7.36556 27.4707 7.5822C27.4707 7.73694 35.1313 13.9884 35.7279 14.7621C36.293 15.5048 37.0151 20.147 37.3291 21.1064C37.3605 21.2302 37.3919 21.323 37.4547 21.4158C38.3337 22.499 45.1153 23.2108 50.9236 23.2108C50.955 23.2108 50.9864 23.2108 51.0178 23.2108C51.0492 23.2108 51.0805 23.2108 51.1119 23.2108C56.9202 23.2108 63.7018 22.499 64.5809 21.4158C64.675 21.323 64.7064 21.1992 64.7064 21.1064C65.0204 20.147 65.7425 15.5048 66.3076 14.7621C66.9042 13.9884 74.5648 7.73694 74.5648 7.5822C74.4706 7.36556 74.345 7.21083 74.345 7.21083ZM51.0492 22.4062C51.0178 22.4062 50.9864 22.4062 50.955 22.4062C50.9236 22.4062 50.8922 22.4062 50.8608 22.4062C44.2362 22.4062 39.2442 21.5706 38.2082 21.0135C38.8675 20.3946 44.0478 19.0948 50.8608 19.0948C50.8922 19.0948 50.9236 19.0948 50.955 19.0948C50.9864 19.0948 51.0178 19.0948 51.0492 19.0948C57.8621 19.0948 63.0425 20.3946 63.7018 21.0135C62.6343 21.5706 57.6737 22.4062 51.0492 22.4062ZM65.2088 15.381C65.0204 16 64.7378 19.4042 64.3925 20.1779C63.5762 19.528 57.7365 18.0735 50.955 18.0735C50.955 18.0735 50.955 18.0735 50.9236 18.0735C50.9236 18.0735 50.9236 18.0735 50.8922 18.0735C44.0792 18.0735 38.271 19.528 37.4547 20.1779C37.1093 19.4042 36.8581 15.969 36.6384 15.381C36.5442 15.1025 36.7325 14.8549 36.7325 14.8549C37.6744 13.5861 43.6083 12.1006 50.8294 12.1006C50.8608 12.1006 50.9864 12.1006 51.0178 12.1006C58.2075 12.1006 64.1727 13.5861 65.1146 14.8549C65.146 14.8549 65.303 15.1334 65.2088 15.381ZM66.0565 13.7408C66.0565 13.7408 64.5809 13.1218 61.9436 12.441C58.961 11.6673 54.7539 11.3269 50.9864 11.3269C47.2188 11.3269 43.0118 11.7911 40.0291 12.441C37.5488 12.9671 35.9162 13.7408 35.9162 13.7408L32.9336 10.646C32.9336 10.646 36.1674 11.0793 37.8 10.4294C39.4326 9.77949 40.1861 6.83945 40.1861 6.83945C40.1861 6.83945 43.7967 9.56285 45.9002 9.43906C48.0351 9.31527 50.9864 5.32301 50.9864 5.32301C50.9864 5.32301 53.969 9.31527 56.0725 9.43906C58.1761 9.56285 61.7866 6.83945 61.7866 6.83945C61.7866 6.83945 62.5715 9.74854 64.1727 10.4294C65.8053 11.0793 69.0391 10.646 69.0391 10.646L66.0565 13.7408Z" fill="#383E41"/>
<path d="M50.9557 12.998C49.9511 12.998 49.1348 13.9265 49.1348 15.0406C49.1348 16.1857 49.9511 17.0832 50.9557 17.0832C51.9604 17.0832 52.7767 16.1547 52.7767 15.0406C52.7453 13.9265 51.9604 12.998 50.9557 12.998Z" fill="#383E41"/>
<path d="M58.9951 17.9807C59.8114 18.1973 60.7219 17.6093 61.0045 16.6499C61.287 15.6905 60.8475 14.7002 59.9998 14.4836C59.1835 14.2669 58.273 14.855 57.9904 15.8143C57.7393 16.8047 58.1788 17.764 58.9951 17.9807Z" fill="#383E41"/>
<path d="M42.8878 17.9807C42.0715 18.1973 41.161 17.6093 40.8784 16.6499C40.5958 15.6905 41.0354 14.7002 41.8831 14.4836C42.6994 14.2669 43.6099 14.855 43.8924 15.8143C44.175 16.8047 43.7355 17.764 42.8878 17.9807Z" fill="#383E41"/>
<path d="M67.5016 37.8799H67.062C66.8737 37.8799 66.6539 37.9108 66.3399 37.9727C66.026 38.0346 65.6806 38.1584 65.3038 38.2822C65.1469 38.3441 64.9585 38.406 64.7387 38.4679C64.5503 38.5298 64.3306 38.5607 64.1108 38.5917C63.891 38.6226 63.7027 38.6536 63.4829 38.6845C63.2631 38.7155 63.0747 38.7155 62.8864 38.7155C62.0701 38.7155 61.3165 38.5917 60.6258 38.3132C59.9351 38.0656 59.3386 37.6633 58.8677 37.199C58.3653 36.7039 57.9886 36.1159 57.706 35.4041C57.4234 34.6923 57.2979 33.9186 57.2979 33.0211C57.2979 32.5259 57.3606 31.9998 57.4548 31.5047C57.549 31.0095 57.706 30.5143 57.9258 30.0501C58.1455 29.5859 58.3967 29.1836 58.7107 28.7813C59.0246 28.3789 59.4014 28.0385 59.8095 27.76C60.2491 27.4814 60.72 27.2339 61.2538 27.0791C61.7875 26.9244 62.384 26.8315 63.0119 26.8315C63.2945 26.8315 63.6085 26.8625 63.9224 26.8934C64.2364 26.9244 64.5189 26.9863 64.8329 27.0791C65.1155 27.141 65.398 27.2339 65.6806 27.3577C65.9632 27.4814 66.2143 27.6052 66.4341 27.729L66.3713 26.9553H67.2818V30.6691H66.6853C66.6539 30.1739 66.5283 29.7097 66.3399 29.3074C66.1515 28.905 65.9004 28.5646 65.5864 28.317C65.2725 28.0385 64.8957 27.8528 64.4876 27.6981C64.0794 27.5433 63.6399 27.4814 63.1375 27.4814C62.541 27.4814 62.0073 27.6052 61.5049 27.8528C61.0026 28.1004 60.5316 28.4718 60.1549 28.936C59.7781 29.4002 59.4642 29.9263 59.2444 30.5762C59.0246 31.1952 58.8991 31.907 58.8991 32.6497C58.8991 33.4234 58.9932 34.1352 59.213 34.7542C59.4328 35.4041 59.7153 35.9611 60.1235 36.4253C60.5003 36.8896 60.9712 37.2609 61.5049 37.5085C62.0387 37.787 62.6352 37.9108 63.2945 37.9108C63.5143 37.9108 63.734 37.8799 63.9852 37.8489C64.2364 37.818 64.4562 37.7561 64.7073 37.6942C64.9585 37.6323 65.1783 37.5395 65.4294 37.4466C65.6806 37.3538 65.9004 37.23 66.1201 37.0752V33.5163L64.9585 33.5782V32.8664H68.6632V33.3925C68.4749 33.3925 68.2865 33.4234 68.1609 33.5163C68.0353 33.5782 67.9097 33.7019 67.8155 33.7948C67.7213 33.9186 67.6586 34.0424 67.6272 34.1971C67.5958 34.3518 67.5644 34.4756 67.533 34.6304C67.5016 34.7851 67.5016 34.9089 67.5016 35.0327C67.5016 35.1565 67.5016 35.2493 67.5016 35.3422V37.8799Z" fill="#383E41"/>
<path d="M74.1574 31.0096C73.9376 31.0096 73.7493 31.0406 73.5295 31.1334C73.3097 31.2262 73.0899 31.35 72.9016 31.5048C72.6818 31.6595 72.4934 31.8452 72.305 32.0618C72.1167 32.2785 71.9597 32.526 71.8027 32.8046L71.8341 36.7968C71.8341 37.0135 71.8341 37.1992 71.8341 37.3848C71.8341 37.5396 71.8027 37.7253 71.7713 37.9109L72.8074 37.8491V38.499H69.448V38.0038C69.6992 38.0038 69.8875 37.9419 70.0131 37.8491C70.1387 37.7562 70.2329 37.6015 70.2957 37.4467C70.3585 37.261 70.3899 37.0754 70.3899 36.8278C70.3899 36.5802 70.3899 36.3326 70.3899 36.0231V32.3094C70.3899 32.1547 70.3899 31.969 70.3899 31.8142C70.3899 31.6286 70.4213 31.4738 70.4527 31.2881L69.291 31.35V30.7001H69.7934C70.0131 30.7001 70.2329 30.7001 70.3899 30.6692C70.5469 30.6382 70.6724 30.6073 70.7666 30.5763C70.8608 30.5454 70.955 30.4835 71.0178 30.4525C71.0806 30.3906 71.1434 30.3597 71.2062 30.2978H71.6771C71.7085 30.4525 71.7085 30.6692 71.7085 30.9168C71.7085 31.1643 71.7399 31.5048 71.7399 31.8761C71.8655 31.6905 72.0225 31.4738 72.2108 31.2572C72.3992 31.0405 72.619 30.8858 72.8702 30.7001C73.1213 30.5454 73.3725 30.4216 73.6551 30.2978C73.9376 30.205 74.2202 30.1431 74.5028 30.1431C74.6597 30.1431 74.7853 30.174 74.9423 30.205C75.0993 30.2359 75.1935 30.2978 75.3191 30.3906C75.4132 30.4835 75.5074 30.5763 75.5702 30.7001C75.633 30.8239 75.6644 30.9787 75.6644 31.1643C75.6644 31.2262 75.6644 31.3191 75.633 31.4119C75.6016 31.5048 75.5702 31.5976 75.476 31.6595C75.4132 31.7523 75.3191 31.8142 75.2249 31.8452C75.1307 31.9071 75.0051 31.938 74.8481 31.938C74.7225 31.938 74.6283 31.9071 74.5028 31.8452C74.4086 31.7833 74.3144 31.7214 74.2516 31.6286C74.1888 31.5357 74.126 31.4429 74.0946 31.35C74.1574 31.2262 74.1574 31.1334 74.1574 31.0096Z" fill="#383E41"/>
<path d="M79.6218 30.1121C80.187 30.1121 80.7521 30.2049 81.2544 30.4215C81.7568 30.6382 82.1963 30.9167 82.5731 31.2881C82.9498 31.6594 83.2324 32.0927 83.4521 32.5879C83.6719 33.083 83.7661 33.6401 83.7661 34.2281C83.7661 34.8471 83.6719 35.4351 83.4521 35.9921C83.2324 36.5492 82.9498 37.0134 82.5731 37.4157C82.1963 37.8181 81.7568 38.1275 81.2544 38.3751C80.7521 38.6227 80.2183 38.7155 79.6218 38.7155C79.0567 38.7155 78.4916 38.6227 77.9892 38.4061C77.4869 38.1894 77.0473 37.9109 76.6706 37.5705C76.2938 37.1991 76.0113 36.7658 75.7915 36.2707C75.5717 35.7755 75.4775 35.2184 75.4775 34.5995C75.4775 33.9496 75.5717 33.3616 75.7915 32.8045C76.0113 32.2475 76.2938 31.7832 76.6706 31.3809C77.0473 30.9786 77.4869 30.6691 77.9892 30.4215C78.4916 30.2359 79.0253 30.1121 79.6218 30.1121ZM79.6218 30.731C79.1823 30.731 78.8055 30.8239 78.523 31.0095C78.209 31.1952 77.9578 31.4428 77.7695 31.7832C77.5811 32.0927 77.4241 32.4641 77.3299 32.8664C77.2357 33.2687 77.2043 33.702 77.2043 34.1353C77.2043 34.6304 77.2671 35.1256 77.3613 35.5898C77.4555 36.054 77.6125 36.4873 77.8322 36.8587C78.052 37.23 78.3032 37.5086 78.6485 37.7562C78.9625 37.9728 79.3393 38.0966 79.7788 38.0966C80.2183 38.0966 80.5637 38.0037 80.8777 37.818C81.1602 37.6324 81.4114 37.3848 81.5998 37.0444C81.7881 36.7349 81.9137 36.3635 82.0079 35.9612C82.1021 35.5589 82.1335 35.1256 82.1335 34.7233C82.1335 34.2281 82.1021 33.7639 82.0079 33.2687C81.9137 32.8045 81.7568 32.3712 81.5684 31.9999C81.38 31.6285 81.1288 31.319 80.8149 31.1024C80.4067 30.8548 80.0614 30.731 79.6218 30.731Z" fill="#383E41"/>
<path d="M90.64 32.4953C90.64 32.2168 90.64 32.0002 90.6714 31.8145C90.6714 31.6288 90.7028 31.4431 90.7342 31.2574L89.5411 31.3193V30.6694H90.0435C90.2947 30.6694 90.483 30.6694 90.64 30.6385C90.797 30.6075 90.954 30.5766 91.0796 30.5456C91.2051 30.5147 91.2993 30.4528 91.3621 30.4218C91.4249 30.3599 91.5191 30.329 91.5819 30.2671H92.0528L92.0214 36.3947C92.0214 36.4876 92.0214 36.5804 92.0214 36.7042C92.0214 36.828 92.0214 36.9828 92.0214 37.1065C92.0214 37.2613 92.0214 37.3851 91.99 37.5398C91.99 37.6945 91.9586 37.8183 91.9586 37.9112L93.1517 37.8493V38.5301H90.797C90.7656 38.3444 90.7342 38.1897 90.7342 38.035C90.7028 37.8802 90.7028 37.7255 90.7028 37.5708C90.5458 37.7255 90.326 37.9112 90.1377 38.035C89.9179 38.1897 89.6981 38.3135 89.4784 38.4373C89.2586 38.5611 89.0074 38.623 88.7562 38.7158C88.5051 38.7777 88.2539 38.8087 88.0341 38.8087C87.5946 38.8087 87.1864 38.7468 86.8411 38.623C86.4957 38.4992 86.2132 38.3135 85.9934 38.035C85.7736 37.7564 85.5852 37.3851 85.4911 36.9518C85.3655 36.4876 85.3341 35.9305 85.3341 35.2806V32.4025C85.3341 32.2477 85.3341 32.0621 85.3341 31.8764C85.3341 31.6907 85.3655 31.5359 85.3969 31.3503L84.2666 31.4122V30.7623H84.7689C84.9887 30.7623 85.2085 30.7623 85.3655 30.7313C85.5224 30.7004 85.6794 30.6694 85.805 30.6385C85.9306 30.6075 86.0248 30.5456 86.0876 30.5147C86.1504 30.4528 86.2446 30.4218 86.3073 30.3599H86.7783V35.3116C86.7783 35.7758 86.8097 36.1781 86.8725 36.5495C86.9353 36.8899 87.0295 37.1684 87.1864 37.416C87.3434 37.6327 87.5004 37.8183 87.7516 37.9112C87.9713 38.004 88.2539 38.0659 88.5679 38.0659C88.7876 38.0659 88.976 38.035 89.1958 37.9731C89.3842 37.9112 89.5725 37.8183 89.7609 37.6945C89.9493 37.5708 90.1063 37.447 90.2633 37.2922C90.4202 37.1375 90.5458 36.9827 90.6714 36.828V35.9924V32.4953H90.64Z" fill="#383E41"/>
<path d="M94.2834 32.3094C94.2834 32.1547 94.2834 31.969 94.2834 31.7833C94.2834 31.5976 94.3148 31.4429 94.3462 31.2572L93.1846 31.3191V30.6382C93.5299 30.6382 93.8439 30.6382 94.0637 30.6073C94.2834 30.5763 94.4718 30.5454 94.5974 30.5144C94.723 30.4835 94.8486 30.4216 94.9114 30.3906C94.9741 30.3287 95.0683 30.2978 95.0997 30.2359H95.5707C95.5707 30.3287 95.6021 30.4525 95.6021 30.6073C95.6021 30.762 95.6335 30.9168 95.6335 31.1024C95.7904 30.9477 95.9788 30.8239 96.1986 30.7001C96.387 30.5763 96.6067 30.4835 96.8265 30.3906C97.0463 30.2978 97.2661 30.2359 97.5172 30.205C97.737 30.1431 97.9882 30.1431 98.2079 30.1431C98.6789 30.1431 99.1498 30.2359 99.5894 30.4216C100.029 30.6073 100.406 30.8858 100.751 31.2262C101.096 31.5667 101.348 31.9999 101.536 32.4951C101.724 32.9903 101.818 33.5473 101.818 34.1972C101.818 34.6614 101.756 35.0947 101.662 35.497C101.567 35.8993 101.41 36.2707 101.222 36.6111C101.034 36.9516 100.814 37.261 100.563 37.5396C100.311 37.8181 100.029 38.0347 99.7149 38.2204C99.401 38.4061 99.087 38.5609 98.7103 38.6537C98.3649 38.7465 97.9882 38.8084 97.6428 38.8084C96.8893 38.8084 96.23 38.6227 95.6649 38.2823V40.9748C95.6649 41.1914 95.6649 41.3771 95.6649 41.5628C95.6649 41.7175 95.6335 41.9032 95.6021 42.0889L96.6381 42.027V42.6769H93.2788V42.1817C93.5299 42.1817 93.7183 42.1198 93.8439 42.027C93.9695 41.9342 94.0637 41.7794 94.1265 41.6247C94.1892 41.439 94.2206 41.2533 94.2206 41.0057C94.2206 40.7581 94.2206 40.5106 94.252 40.2011L94.2834 32.3094ZM97.6428 30.9168C97.4544 30.9168 97.2661 30.9477 97.0777 30.9787C96.8893 31.0406 96.7323 31.1024 96.5439 31.1643C96.387 31.2572 96.23 31.35 96.073 31.4429C95.916 31.5667 95.7904 31.6595 95.6963 31.7833C95.6963 31.8142 95.6963 31.8761 95.6963 31.938C95.6963 31.9999 95.6963 32.0928 95.6963 32.2166C95.6963 32.3404 95.6963 32.526 95.6963 32.7736C95.6963 33.0212 95.6963 33.3307 95.6963 33.733C95.6963 34.1353 95.6963 34.6305 95.6963 35.2494C95.6963 35.8375 95.6963 36.5802 95.6963 37.4467C95.9788 37.6324 96.2614 37.8181 96.6067 37.9109C96.9207 38.0347 97.2661 38.0657 97.6428 38.0657C98.0196 38.0657 98.3963 37.9728 98.6789 37.7872C98.9928 37.6015 99.244 37.3539 99.4638 37.0135C99.6836 36.673 99.8405 36.3017 99.9661 35.8375C100.092 35.3732 100.154 34.8781 100.154 34.352C100.154 33.9187 100.123 33.4854 100.029 33.0831C99.9347 32.6808 99.7777 32.2785 99.5894 31.969C99.401 31.6286 99.1184 31.381 98.8045 31.1953C98.4591 31.0096 98.0824 30.9168 97.6428 30.9168Z" fill="#383E41"/>
<path d="M72.3683 47.1334C72.2113 47.1334 72.0857 47.1334 71.8974 47.1334C71.8974 46.6692 71.8974 46.174 71.8974 45.7098C71.8974 45.2456 71.8974 44.7814 71.8974 44.3172C71.866 44.3172 71.866 44.2862 71.8346 44.2862C71.7718 44.3481 71.7404 44.41 71.6776 44.4719C70.9555 45.3075 70.045 46.2978 69.3229 47.1334H68.9775C68.9775 45.9264 68.9775 44.6576 68.9775 43.4197C69.1345 43.4197 69.2601 43.4197 69.4485 43.4197C69.4485 44.3481 69.4485 45.3075 69.4485 46.2978C69.5427 46.2359 69.4171 46.3288 69.4485 46.2978C70.202 45.4622 71.2695 44.2862 71.9916 43.4197H72.3369C72.3683 44.6576 72.3683 45.8955 72.3683 47.1334Z" fill="#383E41"/>
<path d="M36.4205 47.1644C36.4518 47.1953 35.8553 46.1431 35.8553 46.1431H33.5948C33.5948 46.1431 33.1553 47.0096 33.0611 47.1644H32.5273C32.5901 47.0406 33.9402 44.5028 34.5053 43.4197C34.6309 43.4197 34.9134 43.4197 34.9134 43.4197C35.5414 44.5957 36.2949 45.9883 36.9228 47.1644H36.4205ZM35.6356 45.7098C35.3216 45.1527 35.039 44.6266 34.7251 44.0386C34.4111 44.6266 34.1285 45.1527 33.846 45.7098C34.4739 45.7098 35.039 45.7098 35.6356 45.7098Z" fill="#383E41"/>
<path d="M88.8521 47.1038C88.8835 47.1348 88.287 46.0825 88.287 46.0825H86.0264C86.0264 46.0825 85.5869 46.9491 85.4927 47.1038H84.959C85.0218 46.98 86.3718 44.4423 86.9369 43.3591C87.0625 43.3591 87.3451 43.3591 87.3451 43.3591C87.973 44.5351 88.7265 45.9278 89.3544 47.1038H88.8521ZM88.0672 45.6493C87.7532 45.0922 87.4707 44.5661 87.1567 43.9781C86.8427 44.5661 86.5602 45.0922 86.2776 45.6493C86.8741 45.6493 87.4707 45.6493 88.0672 45.6493Z" fill="#383E41"/>
<path d="M19.1523 43.2649C19.3407 43.3268 19.529 43.3577 19.7174 43.4196C20.0942 43.5744 20.4081 43.8219 20.6593 44.1624C20.5337 44.2552 20.4081 44.3481 20.2826 44.4409C19.529 43.6053 18.5872 43.4815 17.8965 44.1624C17.2685 44.7813 17.3313 45.9264 17.9906 46.4835C18.7127 47.1024 19.686 46.8858 20.3767 45.9883C20.5023 46.0811 20.6279 46.174 20.7535 46.2668C20.3767 46.9477 19.8116 47.2881 19.0267 47.2881C18.022 47.2881 17.2371 46.731 17.0488 45.7717C16.7662 44.5338 17.5197 43.4506 18.6814 43.3268C18.7127 43.3268 18.7441 43.2958 18.7441 43.2958C18.8697 43.2649 18.9953 43.2649 19.1523 43.2649Z" fill="#383E41"/>
<path d="M42.5107 47.1966C42.3851 47.1966 42.2595 47.1966 42.1025 47.1966C42.1025 45.9278 42.1025 44.6589 42.1025 43.3591C42.2281 43.3591 42.3851 43.3591 42.5107 43.3591C42.5107 44.628 42.5107 45.8968 42.5107 47.1966Z" fill="#383E41"/>
<path d="M15.6053 45.0313C16.0448 45.2789 16.2646 45.6812 16.2018 46.1763C16.139 46.7953 15.6995 47.1667 15.0402 47.1667C14.1925 47.1976 13.3762 47.1667 12.4971 47.1667C12.4971 45.8978 12.4971 44.629 12.4971 43.3601C12.5913 43.3601 12.6541 43.3601 12.7482 43.3601C13.5017 43.3601 14.2552 43.3601 15.0088 43.3911C15.3855 43.3911 15.7309 43.5458 15.8565 43.9481C15.982 44.3195 15.9506 44.7218 15.6053 45.0003C15.6367 45.0003 15.6053 45.0003 15.6053 45.0313ZM12.9994 45.3098C12.9994 45.774 12.9994 46.2382 12.9994 46.7334C13.6901 46.7334 14.3808 46.7334 15.0715 46.7334C15.4797 46.7334 15.6995 46.4549 15.6995 46.0526C15.6995 45.6502 15.4797 45.3408 15.0715 45.3408C14.4122 45.3098 13.7215 45.3098 12.9994 45.3098ZM12.9994 44.8765C13.6587 44.8765 14.2866 44.8765 14.946 44.8765C15.2913 44.8765 15.5111 44.6599 15.4797 44.3195C15.4797 43.9791 15.2599 43.8243 14.9146 43.7934C14.4436 43.7934 13.9727 43.7934 13.5331 43.7934C13.3762 43.7934 13.2192 43.7934 13.0308 43.7934C12.9994 44.1647 12.9994 44.5052 12.9994 44.8765Z" fill="#383E41"/>
<path d="M29.2314 43.3885C30.0791 43.3885 30.8954 43.3576 31.7117 43.3885C32.3083 43.4195 32.6536 43.8527 32.6222 44.4407C32.5908 45.0287 32.1827 45.462 31.6175 45.493C31.0524 45.5239 30.5187 45.493 29.9536 45.493C29.8908 45.493 29.7966 45.493 29.7024 45.493C29.7024 46.05 29.7024 46.6071 29.7024 47.1641C29.5454 47.1641 29.3884 47.1641 29.2314 47.1641C29.2314 45.8953 29.2314 44.6574 29.2314 43.3885ZM29.7024 43.8218C29.7024 44.2551 29.7024 44.6574 29.7024 45.0597C30.3303 45.0597 30.9582 45.0597 31.5548 45.0597C31.9315 45.0597 32.1199 44.8121 32.1199 44.4717C32.1199 44.1313 31.9315 43.8527 31.5862 43.8527C30.9582 43.7908 30.3303 43.8218 29.7024 43.8218Z" fill="#383E41"/>
<path d="M38.0852 44.8742C38.8701 44.8742 39.5922 44.8742 40.3771 44.8742C40.3771 44.379 40.3771 43.8838 40.3771 43.3887C40.5341 43.3887 40.6911 43.3887 40.8481 43.3887C40.8481 44.6575 40.8481 45.8954 40.8481 47.1643C40.6911 47.1643 40.5341 47.1643 40.3771 47.1643C40.3771 46.5453 40.3771 45.9573 40.3771 45.3384C39.6236 45.3384 38.8701 45.3384 38.0852 45.3384C38.0852 45.9573 38.0852 46.5453 38.0852 47.1643C37.9282 47.1643 37.7712 47.1643 37.6143 47.1643C37.6143 45.8954 37.6143 44.6575 37.6143 43.3887C37.7712 43.3887 37.8968 43.3887 38.0852 43.3887C38.0852 43.8838 38.0852 44.379 38.0852 44.8742Z" fill="#383E41"/>
<path d="M26.218 47.1657C26.0296 47.1657 25.9041 47.1657 25.7471 47.1657C25.7471 45.8968 25.7471 44.6589 25.7471 43.3591C26.7203 43.3591 27.6622 43.3591 28.6355 43.3591C28.6355 43.4829 28.6355 43.6377 28.6355 43.7924C27.8192 43.7924 27.0343 43.7924 26.218 43.7924C26.218 44.9375 26.218 46.0516 26.218 47.1657Z" fill="#383E41"/>
<path d="M22.136 47.1657C21.979 47.1657 21.822 47.1657 21.665 47.1657C21.665 45.8968 21.665 44.628 21.665 43.3591C21.822 43.3591 21.979 43.3591 22.136 43.3591C22.136 44.628 22.136 45.8968 22.136 47.1657Z" fill="#383E41"/>
<path d="M45.9658 43.3887C46.8763 43.3887 47.8182 43.3887 48.7287 43.4196C48.8543 43.4196 48.9798 43.4196 49.1054 43.4196C49.1054 43.5744 49.1054 43.6981 49.1054 43.8529C48.2263 43.8529 47.3472 43.8529 46.4682 43.8529C46.4682 44.2243 46.4682 44.5337 46.4682 44.9051C46.8135 44.9051 47.1903 44.9051 47.5356 44.9051C47.8182 44.9051 48.0694 44.9051 48.3519 44.9051C49.1054 44.9361 49.4822 45.3384 49.4822 46.0192C49.4822 46.7001 49.0112 47.1643 48.3205 47.1643C47.5356 47.1952 46.7507 47.1643 45.9972 47.1643C45.9658 45.8954 45.9658 44.6266 45.9658 43.3887ZM46.4368 46.731C47.0333 46.731 47.5984 46.731 48.1321 46.731C48.2577 46.731 48.3833 46.731 48.5089 46.6691C48.7915 46.5763 48.9484 46.3906 48.9484 46.0502C48.9484 45.6788 48.8229 45.4931 48.5403 45.3693C48.4775 45.3384 48.4147 45.3074 48.3833 45.3074C47.724 45.3074 47.0961 45.3074 46.4368 45.3074C46.4368 45.8026 46.4368 46.2668 46.4368 46.731Z" fill="#383E41"/>
<path d="M60.0322 47.1643C60.0322 45.8954 60.0322 44.6575 60.0322 43.4505C60.9427 43.4505 61.8218 43.4196 62.7009 43.4505C63.0149 43.4505 63.266 43.6672 63.3602 43.9766C63.4858 44.348 63.4544 44.7194 63.0776 45.0289C63.4544 45.2764 63.6742 45.6169 63.6742 46.0811C63.6428 46.6691 63.266 47.1024 62.6067 47.1333C61.759 47.1952 60.9113 47.1643 60.0322 47.1643ZM60.5032 45.3383C60.5032 45.8335 60.5032 46.2668 60.5032 46.731C61.2253 46.731 61.916 46.731 62.6067 46.731C62.6695 46.731 62.7637 46.7 62.8265 46.6691C63.109 46.5453 63.2346 46.2358 63.1718 45.8954C63.109 45.5859 62.8893 45.3383 62.6067 45.3383C61.916 45.3074 61.2253 45.3383 60.5032 45.3383ZM60.5032 43.8528C60.5032 44.2242 60.5032 44.5337 60.5032 44.8741C61.1625 44.8741 61.8218 44.9051 62.4811 44.8741C62.7951 44.8741 62.9521 44.6265 62.9207 44.3171C62.8893 44.0385 62.7323 43.8528 62.4183 43.8528C61.7904 43.8219 61.1625 43.8528 60.5032 43.8528Z" fill="#383E41"/>
<path d="M83.9868 45.0289C84.3008 45.2455 84.5206 45.4931 84.5833 45.8645C84.6775 46.6072 84.238 47.1334 83.4531 47.1643C82.6368 47.1952 81.7891 47.1643 80.9414 47.1643C80.9414 45.9264 80.9414 44.6885 80.9414 43.3887C81.0984 43.3887 81.2554 43.3887 81.3809 43.3887C82.0403 43.3887 82.731 43.3887 83.3903 43.4196C83.767 43.4196 84.081 43.5744 84.238 43.9148C84.395 44.3171 84.3636 44.7194 83.9868 45.0289ZM81.4123 46.731C82.1345 46.731 82.7938 46.762 83.4845 46.731C83.8926 46.731 84.1438 46.4216 84.1124 45.9883C84.1124 45.555 83.8612 45.3384 83.4217 45.3074C82.8252 45.3074 82.2286 45.3074 81.6321 45.3074C81.5693 45.3074 81.5065 45.3384 81.4437 45.3384C81.4123 45.8026 81.4123 46.2668 81.4123 46.731ZM81.4123 43.8529C81.4123 44.1933 81.4123 44.5337 81.4123 44.8742C82.1031 44.8742 82.7624 44.9051 83.4217 44.8742C83.7357 44.8742 83.8612 44.6266 83.8612 44.3481C83.8298 44.0695 83.7043 43.8838 83.4217 43.8838C82.731 43.8529 82.0717 43.8529 81.4123 43.8529Z" fill="#383E41"/>
<path d="M53.9091 47.9999C53.7521 47.9999 53.658 47.9999 53.501 47.9999C53.501 47.5976 53.501 46.731 53.501 46.731H53.9719L55.4161 43.3887H55.7929L57.2999 46.731H57.8022C57.8022 46.731 57.8022 47.5666 57.8022 47.9999C57.6767 47.9999 57.5511 47.9999 57.3941 47.9999C57.3941 47.7523 57.3941 47.4738 57.3941 47.1952C56.201 47.1952 55.0708 47.1952 53.8777 47.1952C53.9091 47.4428 53.9091 47.6904 53.9091 47.9999ZM55.6359 44.0386C55.2278 44.967 54.8824 45.8335 54.5056 46.731C55.2906 46.731 56.0441 46.731 56.8604 46.731C56.4522 45.8335 56.0441 44.967 55.6359 44.0386Z" fill="#383E41"/>
<path d="M76.5146 46.7311C76.7029 46.7311 76.8913 46.7621 77.0483 46.7621C77.0483 47.1644 77.0483 47.5667 77.0483 48C76.9227 48 76.7971 48 76.6401 48C76.6401 47.7215 76.6401 47.4739 76.6401 47.1954C75.6041 47.1954 74.5994 47.1954 73.5947 47.1954C73.5947 45.9265 73.5947 44.6886 73.5947 43.4507C73.7517 43.4507 73.8773 43.4507 74.0657 43.4507C74.0657 44.5648 74.0657 45.648 74.0657 46.7621C74.725 46.7621 75.3843 46.7621 76.0436 46.7621C76.0436 45.648 76.0436 44.5648 76.0436 43.4507C76.2006 43.4507 76.3576 43.4507 76.5146 43.4507C76.5146 44.5029 76.5146 45.617 76.5146 46.7311Z" fill="#383E41"/>
<path d="M64.708 43.4197C64.865 43.4197 64.9906 43.4197 65.1789 43.4197C65.1789 43.9148 65.1789 44.3791 65.1789 44.8742C65.9325 44.8742 66.686 44.8742 67.4395 44.8742C67.4395 44.3791 67.4395 43.9148 67.4395 43.4197C67.5964 43.4197 67.7534 43.4197 67.879 43.4197C67.879 44.6576 67.879 45.8955 67.879 47.1644C67.722 47.1644 67.5964 47.1644 67.4395 47.1644C67.4395 46.5763 67.4395 45.9574 67.4395 45.3694C66.686 45.3694 65.9325 45.3694 65.1789 45.3694C65.1789 45.9574 65.1789 46.5454 65.1789 47.1644C65.022 47.1644 64.865 47.1644 64.708 47.1644C64.708 45.8955 64.708 44.6576 64.708 43.4197Z" fill="#383E41"/>
<path d="M51.9625 45.4622C52.3392 44.8742 53.2497 43.3887 53.2497 43.3887H53.8148C53.8148 43.3887 52.0881 46.1121 51.4601 47.1643H50.895C51.0834 46.8548 51.6485 45.9264 51.6485 45.9264C51.1776 45.2765 49.9531 43.3887 49.9531 43.3887H50.5496C50.5496 43.3887 51.5543 44.8742 51.9625 45.4622Z" fill="#383E41"/>
<path d="M78.5856 43.8529C78.0204 43.8529 77.5181 43.8529 76.9844 43.8529C76.9844 43.6982 76.9844 43.5744 76.9844 43.4197C78.2088 43.4197 79.4019 43.4197 80.6263 43.4197C80.6263 43.5435 80.6263 43.6673 80.6263 43.822C80.124 43.822 79.5902 43.822 79.0251 43.822C79.0251 44.9361 79.0251 46.0502 79.0251 47.1334C78.8681 47.1334 78.7112 47.1334 78.5542 47.1334C78.5856 46.0502 78.5856 44.9671 78.5856 43.8529Z" fill="#383E41"/>
<path d="M58.3994 43.3887C58.5564 43.3887 58.682 43.3887 58.839 43.3887C58.839 44.6575 58.839 45.8954 58.839 47.1643C58.682 47.1643 58.5564 47.1643 58.3994 47.1643C58.3994 45.8954 58.3994 44.6575 58.3994 43.3887Z" fill="#383E41"/>
</svg>
