<svg width="22" height="19" viewBox="0 0 22 19" fill="none" xmlns="http://www.w3.org/2000/svg">
<path d="M0.463396 5.27121L11.2667 0.331858C13.1024 -0.507467 15.2709 0.300166 16.1102 2.13582C16.9495 3.97147 16.1419 6.13998 14.3062 6.9793L11.9407 8.06109L12.0765 8.35746C12.3216 8.89488 12.3528 9.50549 12.1636 10.0651L12.887 11.6466C13.1405 12.198 13.6913 12.5518 14.2982 12.5532H17.8815V12.0028C17.8833 10.6272 18.998 9.51242 20.3736 9.51054H20.8359C21.071 9.51042 21.2616 9.70081 21.2617 9.93586V9.93635V18.5741C21.2618 18.8092 21.0714 18.9998 20.8364 18.9999H20.8359H20.3736C18.9981 18.9981 17.8836 17.8836 17.8815 16.5081V15.9575H14.5053C12.4397 15.9541 10.5646 14.7497 9.70266 12.8725L9.06736 11.4834C8.51965 11.2598 8.07772 10.8358 7.83155 10.2979L7.69675 10.0013L5.39009 11.0563C5.1761 11.1539 4.92347 11.0597 4.8256 10.8459L4.70224 10.5758C4.5091 10.6257 4.31049 10.6515 4.11097 10.6524C2.94986 10.6107 1.9174 9.90192 1.46124 8.83339C1.12972 8.13087 1.07181 7.33005 1.29871 6.58707L0.410839 6.01674C0.212839 5.88991 0.155111 5.62652 0.28194 5.42852C0.326042 5.35966 0.389002 5.30497 0.463396 5.27097V5.27121ZM18.7332 16.5081C18.7344 17.4136 19.4681 18.1475 20.3736 18.1488H20.4101V10.3626H20.3736C19.4678 10.3636 18.7336 11.0975 18.7324 12.0033V16.5081H18.7332ZM14.5053 15.1061H17.8808V13.4053H14.2977C13.3576 13.404 12.5042 12.8558 12.112 12.0014L11.6307 10.949C11.2233 11.3729 10.6696 11.6253 10.0825 11.6547L10.4774 12.5179C11.2 14.0927 12.7727 15.1032 14.5053 15.1061ZM8.60603 9.94413C8.94637 10.6884 9.8256 11.0159 10.5698 10.6755C11.3141 10.3352 11.6416 9.45598 11.3013 8.71173L11.1657 8.41488L8.47026 9.64753L8.60603 9.94413ZM5.42197 10.1047L7.72789 9.05018L11.1988 7.46278L13.9517 6.20385C15.3596 5.56003 15.9789 3.89683 15.3351 2.48899C14.6913 1.08116 13.0281 0.46179 11.6202 1.10561L1.52718 5.72135L2.04666 6.05518L2.0508 6.05737L4.09929 7.37348C4.16791 7.41746 4.22241 7.48036 4.25623 7.55451L5.42197 10.1047ZM2.23597 8.4796C2.6496 9.38596 3.52969 9.90617 4.3392 9.78451L3.53382 8.02314L2.05202 7.07128C1.96728 7.54848 2.03152 8.04023 2.23597 8.4796Z" fill="#383E41"/>
<path d="M4.9719 5.04727L8.82485 3.28589C9.04067 3.19246 9.29135 3.29167 9.38478 3.50743C9.47542 3.71681 9.38497 3.96043 9.17961 4.05988L5.32666 5.82199C5.11272 5.91975 4.86004 5.82558 4.76228 5.61164C4.66453 5.39771 4.75869 5.14502 4.97263 5.04727H4.9719Z" fill="black"/>
</svg>
