<svg width="28" height="35" viewBox="0 0 28 35" fill="none" xmlns="http://www.w3.org/2000/svg">
<path d="M6 30.7858C6 30.7858 10.9932 33.5889 16.9301 31.9982C22.867 30.4074 
26.2844 25.3506 26.2844 25.3506" stroke="#EFC47F" stroke-width="2" fill="transparent"/>
<path d="M23 8.21623C23 7.26464 22.8425 6.31305 22.4488 5.36146C22.0551 
4.48917 21.5826 3.69617 20.9527 3.06178C20.3228 2.42739 19.5353 1.87229 18.6692 1.4758C17.803 
1.1586 16.8581 1 15.9132 1C14.9683 1 14.0234 1.1586 13.1572 1.55509C12.291 1.95159 11.5824 2.42739 10.8737 
3.14108C10.2437 3.77547 9.69255 4.56847 9.37758 5.44076C8.98387 6.31305 8.82638 7.26464 8.82638 8.29553C8.82638 9.48502
 9.14135 10.7538 9.69255 11.7847L1.18838 20.4283C1.03089 20.6662 0.952149 20.9041 1.03089 21.2213C1.03089 21.3006 1.10963 
 21.3006 1.10963 21.3799L2.99945 23.3624C3.07819 23.4417 3.07819 23.4417 3.15693 23.4417C3.4719 23.6003 3.70813 23.521 
 3.94436 23.2831L5.12549 22.0936L6.85782 23.8382C6.93657 23.9175 6.93657 23.9175 7.01531 23.9175C7.33028 24.0761 7.5665 
 23.9968 7.80273 23.7589L9.69255 21.8557C9.77129 21.7764 9.77129 21.7764 9.77129 21.6971C9.92877 21.3799 9.85003 21.142 
 9.6138 20.9041L7.96022 19.2388L12.4485 14.6395C13.4722 15.1946 14.6533 15.5118 15.8344 15.5118C16.7794 15.5118 17.7243 
 15.3532 18.5904 14.9567C19.4566 14.5602 20.1653 14.0844 20.874 13.3707C21.5039 12.7363 22.0551 11.9433 
 22.3701 11.071C22.8425 10.1987 23 9.24712 23 8.21623V8.21623ZM18.3542 10.8331C17.7243 11.5468 16.7794 
 11.864 15.8344 11.864C14.8895 11.864 14.0234 11.4675 13.3147 10.8331C12.6848 10.1194 12.291 9.24712 12.291 
 8.29553C12.291 7.34394 12.6848 6.39235 13.3147 5.75796C13.9446 5.04426 14.8895 4.72707 15.8344 
 4.72707C16.7794 4.72707 17.6455 5.12356 18.3542 5.75796C18.9841 6.47165 19.3779 7.34394 19.3779 
 8.29553C19.4566 9.24712 19.0629 10.1194 18.3542 10.8331Z" stroke="#383E41" fill="transparent"/>
</svg>
