<svg width="17" height="15" viewBox="0 0 17 15" fill="none" xmlns="http://www.w3.org/2000/svg">
<path d="M15.1818 4.99988H14.5757V0.62487C14.5756 0.279677 14.3042 -7.32284e-05 13.9695 1.43787e-08C13.8923 1.43787e-08 13.8158 0.0152344 13.7442 0.0448611L4.7921 3.74988H1.81817C0.814024 3.74988 0 4.58935 0 5.6249V8.12492C0 9.16047 0.814024 9.99994 1.81817 9.99994H1.84847V14.375C1.84847 14.7202 2.11981 15 2.45454 15H4.87878C5.21351 15 5.48485 14.7202 5.48485 14.375V10.2862L13.7442 13.705C13.8158 13.735 13.8924 13.7503 13.9697 13.75C14.3044 13.75 14.5758 13.4702 14.5758 13.125V8.74991H15.1818C16.186 8.74991 17 7.91043 17 6.87489C17 5.83935 16.1859 4.99988 15.1818 4.99988ZM4.27271 13.75H3.06061V9.99994H4.27271V13.75ZM4.303 8.74991H1.81817C1.48345 8.74991 1.2121 8.47008 1.2121 8.12489V5.62486C1.2121 5.27966 1.48345 4.99984 1.81817 4.99984H4.303V8.74991ZM13.3636 12.2006L5.51514 8.95055V4.7974L13.3636 1.54923V12.2006ZM15.1818 7.49991H14.5757V6.24991H15.1818C15.5165 6.24991 15.7878 6.52974 15.7878 6.87493C15.7878 7.22012 15.5165 7.49991 15.1818 7.49991Z" fill="#EFC47F"/>
</svg>
