<svg class="genplan-svg" id="svg8" width="447.53" height="365.32" version="1.1" viewBox="0 0 118.41 96.657" xmlns="http://www.w3.org/2000/svg">
 <g id="layer1" transform="translate(1615.5 114.54)" fill="none">
  
  <g stroke="#000" stroke-width=".26458px">
   <a href="choose-flat?section=1"><path data-info-path data-name="1" data-section="1" data-floors="9" data-flats="34" data-ceil="2.5m" data-commerce="1 поверх" data-link id="sec-1" d="m-1615.2-46.308h16.55v7.0239h1.2431v3.7144h-1.1901v13.533h1.1824v4.0239h-17.907z"/></a>
   <a href="choose-flat?section=2"><path data-info-path data-name="2" data-section="2" data-floors="10" data-flats="34" data-ceil="2.5m" data-commerce="1 поверх" data-link id="sec-2" d="m-1613.9-81.095h15.481v3.1738h1.2347v7.4042h-1.2222v13.234h1.0607v7.5128h-1.2069v3.4662h-15.347v-10.386h-1.2321v-14.449h1.2321z"/></a>
   <a href="choose-flat?section=3"><path data-info-path data-name="3" data-section="3" data-floors="11" data-flats="34" data-ceil="2.5m" data-commerce="2 поверх" data-link id="sec-3" d="m-1615.2-102.87h16.985l0.025 1.547h2.8853v15.214l-0.7516-0.7517-4.3098 4.3097 0.6014 0.60136h1.55v0.85192h-15.753v-3.7237h-1.2321z"/></a>
   <a href="choose-flat?section=4"><path data-info-path data-name="4" data-section="4" data-floors="12" data-flats="34" data-ceil="2.5m" data-commerce="3 поверх" data-link id="sec-4" d="m-1595.3-101.32h9.5546v-1.547h13.848v1.5119h9.605v16.368h-3.09v1.5385h-7.1254v-1.2212h-12.369v1.2212h-7.1328v-1.2225h-3.274v-16.684l0.026-0.12691"/></a>
   <a href="choose-flat?section=5"><path data-info-path data-name="5" data-section="5" data-floors="13" data-flats="34" data-ceil="2.5m" data-commerce="4 поверх" data-link id="sec-5" d="m-1562.3-101.36h9.6092v-1.1631h13.927v1.1631h9.5047v16.675h-3.0169v1.2314h-7.1196v-1.2225h-12.671v1.1576h-6.8272v-1.4971h-3.3841z"/></a>
   <a href="choose-flat?section=6"><path data-info-path data-name="6" data-section="6" data-floors="14" data-flats="34" data-ceil="2.5m" data-commerce="5 поверх" data-link id="sec-6" d="m-1529.2-101.36h3.1636v-1.5119h17.004v18.166h-1.5363v3.6056h-15.468v-0.81803h1.4764l0.6497-0.64965-4.4412-4.4412-0.4607 0.46066v1.8751h-0.3986z"/></a>
   <a href="choose-flat?section=7"><path data-info-path data-name="7" data-section="7" data-floors="15" data-flats="34" data-ceil="2.5m" data-commerce="6 поверх" data-link id="sec-7" d="m-1526.1-81.095h15.468v2.8815h1.5311v21.524h-18.218v-4.293h1.2194v-12.954h-1.2194v-4.2763h1.2194z"/></a>
  </g>
  <g stroke="#383e41" stroke-miterlimit="10">
    <path id="path76" d="m77.41 56.526v64.869"/>
    <path id="path78" d="m326.85 56.526v64.869"/>
    <path id="path80" d="m202.05 56.525v61.656"/>
    <path id="path82" d="m338.53 133.64h58.557"/>
    <path id="path84" d="m1.4844 372h67.779v-15.147h-4.6108v-51.253h4.6108v-13.922h-4.6108v-39.626h4.6108v-28.456h-3.9961v-50.03h4.6108v-27.997h-4.6108v-15.147h-4.7644l-2.3054-2.295 16.445-16.217 2.3054 2.295v5.814h12.756v4.589h26.896v-4.589h46.877v4.589h26.896v-5.813h24.437v5.813h25.821v-4.589h47.952v4.589h26.896v-4.589h12.757v-7.038l1.844-1.683 16.906 16.829-2.305 2.295h-5.841v14.076h-4.61v16.217h4.61v48.958h-4.61v16.217h68.854v-81.392h-5.84v-24.479h5.84v-68.695h-64.244v5.8138h-47.952v-4.5898h-52.563v4.5898h-72.543v-5.8138h-52.563v5.8138h-46.876v-5.8138h-64.244l1e-5 68.695h4.6108v51.253h-4.6108v54.618h4.6108v38.402h-4.6108z"/>
    <path id="path86" d="m6.5562 133.64h58.557"/>
    <path id="path88" d="m1.9448 265.06h62.553"/>
   </g>
   <g id="g133" transform="matrix(.26458 0 0 .26458 -1615.7 -116.44)">
   <!-- <path id="path74" d="m2.2534 372h67.932v-15.146h-4.7645v-51.253h4.7645v-13.923h-4.7645v-39.625h4.7645v-28.457h-4.1497v-50.029h4.6108v-27.998h-4.6108v-15.147h-4.7645l-2.3054-2.294 16.445-16.218 2.3054 2.295v5.814h12.91v4.59h26.896v-4.59h46.723v4.59h26.896v-5.814h24.591v5.814h25.667v-4.59h47.952v4.59h26.896v-4.59h12.91v-7.038l1.691-1.683 16.906 16.829-2.305 2.295h-5.841v14.076h-4.61v16.217h4.61v48.958h-4.61v16.218h69.008v-81.393h-5.841v-24.479h5.841v-68.694h-64.398v5.8138h-47.952v-4.5899h-52.563v4.5899h-72.543v-5.8138h-52.563v5.8138h-46.722v-5.8138h-64.397v68.694h4.7645v51.253h-4.7645v54.619h4.7645l1e-5 38.401h-4.7645z" fill="#fff"/> -->
   
   <g fill="#000">
    <path id="path90" d="m38.946 204.99v1.008h-8.298c0.024-0.336 0.06-0.648 0.108-0.936 0.06-0.3 0.156-0.582 0.288-0.846 0.144-0.264 0.264-0.492 0.36-0.684 0.108-0.192 0.282-0.408 0.522-0.648 0.252-0.24 0.438-0.42 0.558-0.54s0.342-0.294 0.666-0.522c0.336-0.24 0.564-0.396 0.684-0.468 0.12-0.084 0.378-0.258 0.774-0.522 0.432-0.288 0.732-0.486 0.9-0.594 0.168-0.12 0.432-0.324 0.792-0.612 0.36-0.3 0.618-0.564 0.774-0.792s0.306-0.51 0.45-0.846c0.144-0.348 0.216-0.708 0.216-1.08 0-0.78-0.258-1.404-0.774-1.872-0.504-0.48-1.176-0.72-2.016-0.72-1.02 0-1.758 0.318-2.214 0.954-0.444 0.636-0.666 1.47-0.666 2.502h-1.116v-0.162c0-1.332 0.36-2.376 1.08-3.132 0.72-0.768 1.71-1.152 2.97-1.152 1.176 0 2.118 0.324 2.826 0.972s1.062 1.512 1.062 2.592c0 0.348-0.054 0.69-0.162 1.026-0.096 0.324-0.198 0.606-0.306 0.846s-0.3 0.51-0.576 0.81c-0.276 0.288-0.492 0.51-0.648 0.666-0.144 0.144-0.408 0.354-0.792 0.63-0.384 0.264-0.642 0.438-0.774 0.522s-0.408 0.264-0.828 0.54c-0.468 0.3-0.792 0.51-0.972 0.63-0.168 0.12-0.432 0.33-0.792 0.63-0.348 0.288-0.606 0.576-0.774 0.864s-0.282 0.606-0.342 0.954h0.162c0.072-0.012 0.12-0.018 0.144-0.018z"/>
    <path id="path92" d="m36.21 314.44v12.564h-1.188v-9.36h-3.258v-0.864c0.456-0.012 0.786-0.024 0.99-0.036 0.204-0.024 0.456-0.06 0.756-0.108s0.516-0.12 0.648-0.216c0.144-0.096 0.3-0.228 0.468-0.396s0.3-0.378 0.396-0.63c0.096-0.264 0.186-0.582 0.27-0.954z"/>
    <path id="path94" d="m32.9 88.45c0.012-1.296 0.378-2.304 1.098-3.024s1.716-1.08 2.988-1.08c1.128 0 2.04 0.3 2.736 0.9 0.696 0.588 1.044 1.362 1.044 2.322 0 0.684-0.192 1.272-0.576 1.764-0.372 0.492-0.888 0.816-1.548 0.972 0.828 0.168 1.464 0.522 1.908 1.062 0.444 0.528 0.666 1.2 0.666 2.016 0 1.164-0.402 2.106-1.206 2.826-0.792 0.72-1.836 1.08-3.132 1.08-1.308 0-2.352-0.36-3.132-1.08-0.768-0.732-1.152-1.71-1.152-2.934v-0.288h1.098v0.054c0 1.02 0.282 1.818 0.846 2.394 0.576 0.576 1.368 0.864 2.376 0.864 0.924 0 1.68-0.258 2.268-0.774 0.588-0.528 0.882-1.2 0.882-2.016 0-0.948-0.312-1.626-0.936-2.034-0.612-0.408-1.404-0.612-2.376-0.612-0.228 0-0.432 6e-3 -0.612 0.018v-0.954h0.468c0.624 0 1.128-0.066 1.512-0.198 0.996-0.372 1.494-1.074 1.494-2.106 0-0.708-0.246-1.272-0.738-1.692-0.48-0.42-1.128-0.63-1.944-0.63-0.912 0-1.626 0.276-2.142 0.828-0.516 0.54-0.792 1.314-0.828 2.322z"/>
    <path id="path96" d="m143.31 92.932v0.936h-1.908v3.132h-1.044v-3.132h-5.814v-1.062l5.904-8.406h0.954v8.532zm-2.952 0v-4.968c0-0.804 6e-3 -1.494 0.018-2.07-1.32 2.052-2.958 4.398-4.914 7.038z"/>
    <path id="path98" d="m267.53 84.562v1.008h-5.454l-0.9 4.356c0.66-0.84 1.614-1.26 2.862-1.26 1.2 0 2.184 0.396 2.952 1.188 0.78 0.792 1.17 1.806 1.17 3.042 0 1.248-0.408 2.292-1.224 3.132-0.816 0.828-1.854 1.242-3.114 1.242-1.248 0-2.25-0.348-3.006-1.044-0.756-0.708-1.146-1.65-1.17-2.826h1.116c0.048 0.888 0.342 1.596 0.882 2.124 0.552 0.528 1.278 0.792 2.178 0.792 0.912 0 1.668-0.318 2.268-0.954 0.612-0.636 0.918-1.434 0.918-2.394 0-0.984-0.3-1.782-0.9-2.394-0.6-0.624-1.368-0.936-2.304-0.936-1.212 0-2.142 0.486-2.79 1.458l-1.008-0.036 1.242-6.498z"/>
    <path id="path100" d="m374.05 87.604h-1.134c-0.108-0.72-0.396-1.284-0.864-1.692-0.456-0.42-1.05-0.63-1.782-0.63-0.576 0-1.08 0.132-1.512 0.396s-0.762 0.582-0.99 0.954-0.42 0.846-0.576 1.422c-0.144 0.564-0.24 1.062-0.288 1.494-0.036 0.42-0.066 0.912-0.09 1.476 0.336-0.708 0.804-1.248 1.404-1.62 0.612-0.384 1.314-0.576 2.106-0.576 1.176 0 2.142 0.39 2.898 1.17s1.134 1.77 1.134 2.97c0 1.248-0.396 2.28-1.188 3.096s-1.8 1.224-3.024 1.224c-0.756 0-1.44-0.168-2.052-0.504s-1.11-0.81-1.494-1.422c-0.576-0.936-0.864-2.358-0.864-4.266 0-2.184 0.39-3.858 1.17-5.022 0.792-1.176 1.926-1.764 3.402-1.764 1.056 0 1.908 0.288 2.556 0.864 0.66 0.564 1.056 1.374 1.188 2.43zm-3.942 2.178c-0.876 0-1.602 0.306-2.178 0.918-0.576 0.6-0.864 1.362-0.864 2.286 0 0.96 0.288 1.752 0.864 2.376 0.588 0.624 1.326 0.936 2.214 0.936s1.614-0.306 2.178-0.918c0.576-0.612 0.864-1.392 0.864-2.34 0-0.96-0.288-1.74-0.864-2.34-0.564-0.612-1.302-0.918-2.214-0.918z"/>
    <path id="path102" d="m374.04 175.56v1.026c-1.476 1.56-2.658 3.312-3.546 5.256s-1.41 3.996-1.566 6.156h-1.224c0.108-2.04 0.636-4.074 1.584-6.102s2.166-3.786 3.654-5.274h-7.02v-1.062z"/>
   </g>
   <!-- <path id="path104" d="m442.41 288.27c0.84 0 1.482 0.288 1.926 0.864s0.666 1.398 0.666 2.466v4.338h-9.252v-4.338c0-0.948 0.192-1.68 0.576-2.196 0.372-0.516 0.912-0.774 1.62-0.774 1.116 0 1.824 0.534 2.124 1.602h0.036c0.228-1.308 0.996-1.962 2.304-1.962zm-4.176 1.494c-1.02 0-1.53 0.654-1.53 1.962v3.078h3.024v-3.078c0-0.636-0.132-1.122-0.396-1.458s-0.63-0.504-1.098-0.504zm4.05-0.36c-1.116 0-1.674 0.774-1.674 2.322v3.078h3.438v-3.078c0-1.548-0.588-2.322-1.764-2.322zm-6.534-10.018 9.594 3.636c1.224 0.456 2.058 0.852 2.502 1.188s0.666 0.852 0.666 1.548c0 0.3-0.03 0.63-0.09 0.99h-0.99c0.084-0.336 0.126-0.606 0.126-0.81 0-0.456-0.168-0.798-0.504-1.026-0.336-0.24-0.918-0.51-1.746-0.81-0.048-0.012-0.084-0.024-0.108-0.036-0.012-0.012-0.036-0.024-0.072-0.036l-0.108-0.036c-0.024-0.012-0.054-0.024-0.09-0.036l-9.18 3.726v-1.242l6.372-2.502c0.252-0.096 0.798-0.282 1.638-0.558-1.02-0.312-1.608-0.498-1.764-0.558l-6.246-2.286zm9.252-7.936v1.134h-8.298v3.78l4.644 0.162c1.344 0.048 2.322 0.27 2.934 0.666s0.918 0.978 0.918 1.746c0 0.336-0.066 0.666-0.198 0.99h-0.918c0.108-0.216 0.162-0.552 0.162-1.008 0-0.78-0.984-1.206-2.952-1.278l-5.544-0.18v-6.012zm-1.854-4.286h1.854v1.476h-1.854zm-10.962-18.138h12.816v1.224h-6.192v7.65h6.192v1.224h-12.816v-1.224h5.58v-7.65h-5.58zm11.898-10.495h0.864c0.096 0.276 0.144 0.576 0.144 0.9 0 0.492-0.15 0.816-0.45 0.972s-0.714 0.234-1.242 0.234c1.236 0.78 1.854 1.944 1.854 3.492 0 0.948-0.228 1.692-0.684 2.232-0.456 0.528-1.092 0.792-1.908 0.792-1.668 0-2.622-1.146-2.862-3.438-0.012-0.12-0.024-0.288-0.036-0.504-0.024-0.216-0.042-0.372-0.054-0.468-0.012-0.108-0.024-0.24-0.036-0.396-0.024-0.168-0.042-0.288-0.054-0.36-0.012-0.084-0.03-0.18-0.054-0.288-0.024-0.12-0.048-0.21-0.072-0.27l-0.072-0.216c-0.036-0.072-0.072-0.138-0.108-0.198-0.144-0.216-0.438-0.324-0.882-0.324-0.732 0-1.248 0.204-1.548 0.612s-0.45 1.008-0.45 1.8c0 0.78 0.18 1.38 0.54 1.8 0.348 0.408 0.894 0.648 1.638 0.72v1.08c-0.996-0.048-1.764-0.396-2.304-1.044s-0.81-1.542-0.81-2.682c0-1.056 0.228-1.884 0.684-2.484 0.456-0.612 1.116-0.918 1.98-0.918h5.04c0.24 0 0.414-6e-3 0.522-0.018 0.096-0.012 0.192-0.06 0.288-0.144 0.084-0.096 0.126-0.246 0.126-0.45 0-0.156-0.018-0.3-0.054-0.432zm-4.122 2.16c0.12 0.108 0.222 0.288 0.306 0.54 0.072 0.24 0.126 0.462 0.162 0.666s0.084 0.552 0.144 1.044c0.012 0.12 0.024 0.21 0.036 0.27 0.048 0.384 0.102 0.702 0.162 0.954 0.06 0.24 0.162 0.522 0.306 0.846 0.132 0.312 0.324 0.552 0.576 0.72 0.24 0.156 0.54 0.234 0.9 0.234 0.54 0 0.972-0.192 1.296-0.576 0.312-0.384 0.468-0.9 0.468-1.548 0-0.876-0.258-1.62-0.774-2.232-0.528-0.612-1.218-0.918-2.07-0.918zm-2.97-10.522c0.852-0.768 2.004-1.152 3.456-1.152s2.622 0.396 3.51 1.188c0.876 0.792 1.314 1.83 1.314 3.114 0 0.816-0.15 1.518-0.45 2.106-0.312 0.576-0.738 1.02-1.278 1.332-0.552 0.312-1.14 0.534-1.764 0.666-0.636 0.132-1.338 0.198-2.106 0.198-2.388 0-4.176-0.384-5.364-1.152-0.624-0.408-1.08-0.906-1.368-1.494s-0.462-1.332-0.522-2.232l-0.054-0.864c-0.024-0.456-0.072-0.774-0.144-0.954s-0.186-0.306-0.342-0.378v-1.26c0.528 0.096 0.894 0.33 1.098 0.702 0.204 0.36 0.336 0.96 0.396 1.8l0.09 1.368c0.072 1.044 0.456 1.848 1.152 2.412 0.684 0.552 1.74 0.93 3.168 1.134v-0.054c-0.624-0.312-1.128-0.774-1.512-1.386-0.384-0.624-0.576-1.308-0.576-2.052 0-1.26 0.432-2.274 1.296-3.042zm3.456-0.018c-1.116 0-2.028 0.294-2.736 0.882s-1.062 1.332-1.062 2.232c0 0.96 0.348 1.74 1.044 2.34 0.684 0.588 1.602 0.882 2.754 0.882 1.14 0 2.07-0.294 2.79-0.882 0.72-0.6 1.08-1.362 1.08-2.286s-0.36-1.68-1.08-2.268c-0.72-0.6-1.65-0.9-2.79-0.9zm1.512-10.542c1.044 0.204 1.866 0.648 2.466 1.332 0.588 0.684 0.882 1.56 0.882 2.628 0 1.284-0.438 2.316-1.314 3.096-0.876 0.768-2.046 1.152-3.51 1.152s-2.658-0.39-3.582-1.17c-0.936-0.792-1.404-1.812-1.404-3.06 0-1.308 0.462-2.31 1.386-3.006 0.924-0.708 2.07-1.062 3.438-1.062h0.324v7.146c1.068 0 1.962-0.258 2.682-0.774 0.708-0.528 1.062-1.314 1.062-2.358 0-1.524-0.81-2.466-2.43-2.826zm-2.232 1.044c-1.032 0.06-1.836 0.354-2.412 0.882-0.588 0.528-0.882 1.224-0.882 2.088 0 0.936 0.306 1.65 0.918 2.142 0.612 0.48 1.404 0.78 2.376 0.9zm-3.978-3.754h1.782c-1.368-0.672-2.052-1.776-2.052-3.312 0-1.26 0.45-2.268 1.35-3.024 0.9-0.768 2.094-1.152 3.582-1.152 1.464 0 2.646 0.378 3.546 1.134 0.888 0.756 1.332 1.758 1.332 3.006 0 1.56-0.666 2.652-1.998 3.276h5.166v1.098h-12.708zm1.764-5.472c-0.732 0.564-1.098 1.332-1.098 2.304s0.354 1.74 1.062 2.304c0.708 0.552 1.68 0.828 2.916 0.828 1.212 0 2.172-0.282 2.88-0.846 0.708-0.576 1.062-1.35 1.062-2.322 0-0.948-0.354-1.704-1.062-2.268-0.72-0.576-1.674-0.864-2.862-0.864-1.212 0-2.178 0.288-2.898 0.864zm4.446-11.488c1.044 0.204 1.866 0.648 2.466 1.332 0.588 0.684 0.882 1.56 0.882 2.628 0 1.284-0.438 2.316-1.314 3.096-0.876 0.768-2.046 1.152-3.51 1.152s-2.658-0.39-3.582-1.17c-0.936-0.792-1.404-1.812-1.404-3.06 0-1.308 0.462-2.31 1.386-3.006 0.924-0.708 2.07-1.062 3.438-1.062h0.324v7.146c1.068 0 1.962-0.258 2.682-0.774 0.708-0.528 1.062-1.314 1.062-2.358 0-1.524-0.81-2.466-2.43-2.826zm-2.232 1.044c-1.032 0.06-1.836 0.354-2.412 0.882-0.588 0.528-0.882 1.224-0.882 2.088 0 0.936 0.306 1.65 0.918 2.142 0.612 0.48 1.404 0.78 2.376 0.9zm0.63-5.994 4.644 3.42v1.386l-5.4-4.014-3.852 3.618v-1.53l4.716-4.266h-4.716v-1.134h4.698l-4.698-4.266v-1.53l3.852 3.618 5.4-4.014v1.386l-4.644 3.42 1.44 1.386h3.204v1.134h-3.204zm4.644-17.23v1.134h-4.356v5.274h4.356v1.134h-9.252v-1.134h3.942v-5.274h-3.942v-1.134zm-9.522-6.086c0-1.332 0.444-2.388 1.332-3.168 0.888-0.792 2.088-1.188 3.6-1.188 1.5 0 2.688 0.39 3.564 1.17 0.864 0.78 1.296 1.842 1.296 3.186s-0.438 2.418-1.314 3.222c-0.888 0.792-2.082 1.188-3.582 1.188-1.488 0-2.676-0.396-3.564-1.188-0.888-0.804-1.332-1.878-1.332-3.222zm2.034-2.34c-0.72 0.588-1.08 1.374-1.08 2.358s0.36 1.77 1.08 2.358c0.708 0.588 1.662 0.882 2.862 0.882 1.224 0 2.19-0.288 2.898-0.864 0.708-0.588 1.062-1.392 1.062-2.412 0-0.984-0.354-1.764-1.062-2.34s-1.668-0.864-2.88-0.864-2.172 0.294-2.88 0.882zm1.998-8.238h1.098v4.518h-1.098zm-7.326-11.306 6.228 4.374 6.588-4.626v1.476l-4.59 3.204c-0.36 0.252-0.606 0.414-0.738 0.486-0.144 0.072-0.264 0.138-0.36 0.198 0.06 0.06 0.156 0.138 0.288 0.234 0.132 0.084 0.282 0.18 0.45 0.288s0.282 0.18 0.342 0.216l4.608 3.24v1.404l-6.588-4.662-6.228 4.374v-1.44l4.104-2.862c0.156-0.108 0.384-0.246 0.684-0.414 0.288-0.18 0.486-0.306 0.594-0.378-0.432-0.3-0.864-0.576-1.296-0.828l-4.086-2.934zm3.564-2.254h1.782c-1.368-0.672-2.052-1.776-2.052-3.312 0-1.26 0.45-2.268 1.35-3.024 0.9-0.768 2.094-1.152 3.582-1.152 1.464 0 2.646 0.378 3.546 1.134 0.888 0.756 1.332 1.758 1.332 3.006 0 1.56-0.666 2.652-1.998 3.276h5.166v1.098h-12.708zm1.764-5.472c-0.732 0.564-1.098 1.332-1.098 2.304s0.354 1.74 1.062 2.304c0.708 0.552 1.68 0.828 2.916 0.828 1.212 0 2.172-0.282 2.88-0.846 0.708-0.576 1.062-1.35 1.062-2.322 0-0.948-0.354-1.704-1.062-2.268-0.72-0.576-1.674-0.864-2.862-0.864-1.212 0-2.178 0.288-2.898 0.864zm4.446-11.488c1.044 0.204 1.866 0.648 2.466 1.332 0.588 0.684 0.882 1.56 0.882 2.628 0 1.284-0.438 2.316-1.314 3.096-0.876 0.768-2.046 1.152-3.51 1.152s-2.658-0.39-3.582-1.17c-0.936-0.792-1.404-1.812-1.404-3.06 0-1.308 0.462-2.31 1.386-3.006 0.924-0.708 2.07-1.062 3.438-1.062h0.324v7.146c1.068 0 1.962-0.258 2.682-0.774 0.708-0.528 1.062-1.314 1.062-2.358 0-1.524-0.81-2.466-2.43-2.826zm-2.232 1.044c-1.032 0.06-1.836 0.354-2.412 0.882-0.588 0.528-0.882 1.224-0.882 2.088 0 0.936 0.306 1.65 0.918 2.142 0.612 0.48 1.404 0.78 2.376 0.9zm5.274-2.602h-9.252v-1.134h8.298v-4.338h-8.298v-1.134h8.298v-4.338h-8.298v-1.134h8.298v-1.278h3.906v1.134h-2.952zm-0.918-22.727h0.864c0.096 0.276 0.144 0.576 0.144 0.9 0 0.492-0.15 0.816-0.45 0.972s-0.714 0.234-1.242 0.234c1.236 0.78 1.854 1.944 1.854 3.492 0 0.948-0.228 1.692-0.684 2.232-0.456 0.528-1.092 0.792-1.908 0.792-1.668 0-2.622-1.146-2.862-3.438-0.012-0.12-0.024-0.288-0.036-0.504-0.024-0.216-0.042-0.372-0.054-0.468-0.012-0.108-0.024-0.24-0.036-0.396-0.024-0.168-0.042-0.288-0.054-0.36-0.012-0.084-0.03-0.18-0.054-0.288-0.024-0.12-0.048-0.21-0.072-0.27l-0.072-0.216c-0.036-0.072-0.072-0.138-0.108-0.198-0.144-0.216-0.438-0.324-0.882-0.324-0.732 0-1.248 0.204-1.548 0.612s-0.45 1.008-0.45 1.8c0 0.78 0.18 1.38 0.54 1.8 0.348 0.408 0.894 0.648 1.638 0.72v1.08c-0.996-0.048-1.764-0.396-2.304-1.044s-0.81-1.542-0.81-2.682c0-1.056 0.228-1.884 0.684-2.484 0.456-0.612 1.116-0.918 1.98-0.918h5.04c0.24 0 0.414-6e-3 0.522-0.018 0.096-0.012 0.192-0.06 0.288-0.144 0.084-0.096 0.126-0.246 0.126-0.45 0-0.156-0.018-0.3-0.054-0.432zm-4.122 2.16c0.12 0.108 0.222 0.288 0.306 0.54 0.072 0.24 0.126 0.462 0.162 0.666s0.084 0.552 0.144 1.044c0.012 0.12 0.024 0.21 0.036 0.27 0.048 0.384 0.102 0.702 0.162 0.954 0.06 0.24 0.162 0.522 0.306 0.846 0.132 0.312 0.324 0.552 0.576 0.72 0.24 0.156 0.54 0.234 0.9 0.234 0.54 0 0.972-0.192 1.296-0.576 0.312-0.384 0.468-0.9 0.468-1.548 0-0.876-0.258-1.62-0.774-2.232-0.528-0.612-1.218-0.918-2.07-0.918zm-3.258-10.306v3.4377h8.298v1.134h-8.298v3.438h-0.954v-8.0097zm8.298-8.5921v1.134h-7.92l7.92 5.004v1.404h-9.252v-1.134h7.92l-7.92-5.004v-1.404zm2.952-10.892v1.134h-2.952v7.686h-9.252v-1.134h8.298v-5.274h-8.298v-1.134h8.298v-1.278zm-12.204-1.236v-1.134h3.636v-3.51c0-0.9 0.252-1.614 0.756-2.142s1.188-0.792 2.052-0.792c0.876 0 1.566 0.264 2.07 0.792 0.492 0.528 0.738 1.242 0.738 2.142v4.644zm6.444-6.444c-0.588 0-1.044 0.186-1.368 0.558-0.324 0.36-0.486 0.864-0.486 1.512v3.24h3.708v-3.24c0-0.66-0.156-1.17-0.468-1.53-0.324-0.36-0.786-0.54-1.386-0.54zm-2.844-6.426 5.652-4.176v1.422l-4.878 3.582 1.746 1.89h3.132v1.134h-9.252v-1.134h4.734l-4.734-5.148v-1.512zm4.734-13.266h0.864c0.096 0.276 0.144 0.576 0.144 0.9 0 0.492-0.15 0.816-0.45 0.972s-0.714 0.234-1.242 0.234c1.236 0.78 1.854 1.944 1.854 3.492 0 0.948-0.228 1.692-0.684 2.232-0.456 0.528-1.092 0.792-1.908 0.792-1.668 0-2.622-1.146-2.862-3.438-0.012-0.12-0.024-0.288-0.036-0.504-0.024-0.216-0.042-0.372-0.054-0.468-0.012-0.108-0.024-0.24-0.036-0.396-0.024-0.168-0.042-0.288-0.054-0.36-0.012-0.084-0.03-0.18-0.054-0.288-0.024-0.12-0.048-0.21-0.072-0.27l-0.072-0.216c-0.036-0.072-0.072-0.138-0.108-0.198-0.144-0.216-0.438-0.324-0.882-0.324-0.732 0-1.248 0.204-1.548 0.612s-0.45 1.008-0.45 1.8c0 0.78 0.18 1.38 0.54 1.8 0.348 0.408 0.894 0.648 1.638 0.72v1.08c-0.996-0.048-1.764-0.396-2.304-1.044s-0.81-1.542-0.81-2.682c0-1.056 0.228-1.884 0.684-2.484 0.456-0.612 1.116-0.918 1.98-0.918h5.04c0.24 0 0.414-6e-3 0.522-0.018 0.096-0.012 0.192-0.06 0.288-0.144 0.084-0.096 0.126-0.246 0.126-0.45 0-0.156-0.018-0.3-0.054-0.432zm-4.122 2.16c0.12 0.108 0.222 0.288 0.306 0.54 0.072 0.24 0.126 0.462 0.162 0.666s0.084 0.552 0.144 1.044c0.012 0.12 0.024 0.21 0.036 0.27 0.048 0.384 0.102 0.702 0.162 0.954 0.06 0.24 0.162 0.522 0.306 0.846 0.132 0.312 0.324 0.552 0.576 0.72 0.24 0.156 0.54 0.234 0.9 0.234 0.54 0 0.972-0.192 1.296-0.576 0.312-0.384 0.468-0.9 0.468-1.548 0-0.876-0.258-1.62-0.774-2.232-0.528-0.612-1.218-0.918-2.07-0.918z" fill="#383e41"/> -->
   <text class="vertical-svg-text" x="430" y="320" style="writing-mode: tb;glyph-orientation-vertical: 0;transform: rotate(180deg);transform-origin: top;transform-box: fill-box;">
            вул. Набережно-Хрещатицька
        </text>
   <!-- <path id="path106" d="m9.73 17.408c0 0.84-0.288 1.482-0.864 1.926s-1.398 0.666-2.466 0.666h-4.338v-9.252h4.338c0.948 0 1.68 0.192 2.196 0.576 0.516 0.372 0.774 0.912 0.774 1.62 0 1.116-0.534 1.824-1.602 2.124v0.036c1.308 0.228 1.962 0.996 1.962 2.304zm-1.494-4.176c0-1.02-0.654-1.53-1.962-1.53h-3.078v3.024h3.078c0.636 0 1.122-0.132 1.458-0.396s0.504-0.63 0.504-1.098zm0.36 4.05c0-1.116-0.774-1.674-2.322-1.674h-3.078v3.438h3.078c1.548 0 2.322-0.588 2.322-1.764zm10.018-6.534-3.636 9.594c-0.456 1.224-0.852 2.058-1.188 2.502s-0.852 0.666-1.548 0.666c-0.3 0-0.63-0.03-0.99-0.09v-0.99c0.336 0.084 0.606 0.126 0.81 0.126 0.456 0 0.798-0.168 1.026-0.504 0.24-0.336 0.51-0.918 0.81-1.746 0.012-0.048 0.024-0.084 0.036-0.108 0.012-0.012 0.024-0.036 0.036-0.072l0.036-0.108c0.012-0.024 0.024-0.054 0.036-0.09l-3.726-9.18h1.242l2.502 6.372c0.096 0.252 0.282 0.798 0.558 1.638 0.312-1.02 0.498-1.608 0.558-1.764l2.286-6.246zm7.9362 9.252h-1.134v-8.298h-3.78l-0.162 4.644c-0.048 1.344-0.27 2.322-0.666 2.934s-0.978 0.918-1.746 0.918c-0.336 0-0.666-0.066-0.99-0.198v-0.918c0.216 0.108 0.552 0.162 1.008 0.162 0.78 0 1.206-0.984 1.278-2.952l0.18-5.544h6.012zm4.2859-1.854v1.854h-1.476v-1.854zm8.0576 1.854v-12.816h1.224v11.772h6.264v-11.772h1.224v11.772h6.264v-11.772h1.224v11.772h1.35v4.5h-1.224v-3.456zm26.595-3.042c-0.204 1.044-0.648 1.866-1.332 2.466-0.684 0.588-1.56 0.882-2.628 0.882-1.284 0-2.316-0.438-3.096-1.314-0.768-0.876-1.152-2.046-1.152-3.51s0.39-2.658 1.17-3.582c0.792-0.936 1.812-1.404 3.06-1.404 1.308 0 2.31 0.462 3.006 1.386 0.708 0.924 1.062 2.07 1.062 3.438v0.324h-7.146c0 1.068 0.258 1.962 0.774 2.682 0.528 0.708 1.314 1.062 2.358 1.062 1.524 0 2.466-0.81 2.826-2.43zm-1.044-2.232c-0.06-1.032-0.354-1.836-0.882-2.412-0.528-0.588-1.224-0.882-2.088-0.882-0.936 0-1.65 0.306-2.142 0.918-0.48 0.612-0.78 1.404-0.9 2.376zm6.526-0.378 4.176 5.652h-1.422l-3.582-4.878-1.89 1.746v3.132h-1.134v-9.252h1.134v4.734l5.148-4.734h1.512zm13.266 4.734v0.864c-0.276 0.096-0.576 0.144-0.9 0.144-0.492 0-0.816-0.15-0.972-0.45s-0.234-0.714-0.234-1.242c-0.78 1.236-1.944 1.854-3.492 1.854-0.948 0-1.692-0.228-2.232-0.684-0.528-0.456-0.792-1.092-0.792-1.908 0-1.668 1.146-2.622 3.438-2.862 0.12-0.012 0.288-0.024 0.504-0.036 0.216-0.024 0.372-0.042 0.468-0.054 0.108-0.012 0.24-0.024 0.396-0.036 0.168-0.024 0.288-0.042 0.36-0.054 0.084-0.012 0.18-0.03 0.288-0.054 0.12-0.024 0.21-0.048 0.27-0.072l0.216-0.072c0.072-0.036 0.138-0.072 0.198-0.108 0.216-0.144 0.324-0.438 0.324-0.882 0-0.732-0.204-1.248-0.612-1.548s-1.008-0.45-1.8-0.45c-0.78 0-1.38 0.18-1.8 0.54-0.408 0.348-0.648 0.894-0.72 1.638h-1.08c0.048-0.996 0.396-1.764 1.044-2.304s1.542-0.81 2.682-0.81c1.056 0 1.884 0.228 2.484 0.684 0.612 0.456 0.918 1.116 0.918 1.98v5.04c0 0.24 6e-3 0.414 0.018 0.522 0.012 0.096 0.06 0.192 0.144 0.288 0.096 0.084 0.246 0.126 0.45 0.126 0.156 0 0.3-0.018 0.432-0.054zm-2.16-4.122c-0.108 0.12-0.288 0.222-0.54 0.306-0.24 0.072-0.462 0.126-0.666 0.162s-0.552 0.084-1.044 0.144c-0.12 0.012-0.21 0.024-0.27 0.036-0.384 0.048-0.702 0.102-0.954 0.162-0.24 0.06-0.522 0.162-0.846 0.306-0.312 0.132-0.552 0.324-0.72 0.576-0.156 0.24-0.234 0.54-0.234 0.9 0 0.54 0.192 0.972 0.576 1.296 0.384 0.312 0.9 0.468 1.548 0.468 0.876 0 1.62-0.258 2.232-0.774 0.612-0.528 0.918-1.218 0.918-2.07zm11.026 2.448c0 0.84-0.288 1.482-0.864 1.926s-1.398 0.666-2.466 0.666h-4.338v-9.252h4.338c0.948 0 1.68 0.192 2.196 0.576 0.516 0.372 0.774 0.912 0.774 1.62 0 1.116-0.534 1.824-1.602 2.124v0.036c1.308 0.228 1.962 0.996 1.962 2.304zm-1.494-4.176c0-1.02-0.654-1.53-1.962-1.53h-3.078v3.024h3.078c0.636 0 1.122-0.132 1.458-0.396s0.504-0.63 0.504-1.098zm0.36 4.05c0-1.116-0.774-1.674-2.322-1.674h-3.078v3.438h3.078c1.548 0 2.322-0.588 2.322-1.764zm10.342 2.718h-1.134v-7.92l-5.004 7.92h-1.404v-9.252h1.134v7.92l5.004-7.92h1.404zm10.892 2.952h-1.134v-2.952h-7.686v-9.252h1.134v8.298h5.274v-8.298h1.134v8.298h1.278zm1.236-12.204h1.134v3.636h3.51c0.9 0 1.614 0.252 2.142 0.756s0.792 1.188 0.792 2.052c0 0.876-0.264 1.566-0.792 2.07-0.528 0.492-1.242 0.738-2.142 0.738h-4.644zm6.444 6.444c0-0.588-0.186-1.044-0.558-1.368-0.36-0.324-0.864-0.486-1.512-0.486h-3.24v3.708h3.24c0.66 0 1.17-0.156 1.53-0.468 0.36-0.324 0.54-0.786 0.54-1.386zm6.426-2.844 4.176 5.652h-1.422l-3.582-4.878-1.89 1.746v3.132h-1.134v-9.252h1.134v4.734l5.148-4.734h1.512zm13.266 4.734v0.864c-0.276 0.096-0.576 0.144-0.9 0.144-0.492 0-0.816-0.15-0.972-0.45s-0.234-0.714-0.234-1.242c-0.78 1.236-1.944 1.854-3.492 1.854-0.948 0-1.692-0.228-2.232-0.684-0.528-0.456-0.792-1.092-0.792-1.908 0-1.668 1.146-2.622 3.438-2.862 0.12-0.012 0.288-0.024 0.504-0.036 0.216-0.024 0.372-0.042 0.468-0.054 0.108-0.012 0.24-0.024 0.396-0.036 0.168-0.024 0.288-0.042 0.36-0.054 0.084-0.012 0.18-0.03 0.288-0.054 0.12-0.024 0.21-0.048 0.27-0.072l0.216-0.072c0.072-0.036 0.138-0.072 0.198-0.108 0.216-0.144 0.324-0.438 0.324-0.882 0-0.732-0.204-1.248-0.612-1.548s-1.008-0.45-1.8-0.45c-0.78 0-1.38 0.18-1.8 0.54-0.408 0.348-0.648 0.894-0.72 1.638h-1.08c0.048-0.996 0.396-1.764 1.044-2.304s1.542-0.81 2.682-0.81c1.056 0 1.884 0.228 2.484 0.684 0.612 0.456 0.918 1.116 0.918 1.98v5.04c0 0.24 6e-3 0.414 0.018 0.522 0.012 0.096 0.06 0.192 0.144 0.288 0.096 0.084 0.246 0.126 0.45 0.126 0.156 0 0.3-0.018 0.432-0.054zm-2.16-4.122c-0.108 0.12-0.288 0.222-0.54 0.306-0.24 0.072-0.462 0.126-0.666 0.162s-0.552 0.084-1.044 0.144c-0.12 0.012-0.21 0.024-0.27 0.036-0.384 0.048-0.702 0.102-0.954 0.162-0.24 0.06-0.522 0.162-0.846 0.306-0.312 0.132-0.552 0.324-0.72 0.576-0.156 0.24-0.234 0.54-0.234 0.9 0 0.54 0.192 0.972 0.576 1.296 0.384 0.312 0.9 0.468 1.548 0.468 0.876 0 1.62-0.258 2.232-0.774 0.612-0.528 0.918-1.218 0.918-2.07z" fill="#383e41"/> -->
   <text x="0" y="25">вул. Щекавицька</text>
  </g>
 </g>
</svg>
