<svg width="44" height="60" viewBox="0 0 44 60" fill="none" xmlns="http://www.w3.org/2000/svg">
<path fill-rule="evenodd" clip-rule="evenodd" d="M21.8967 60C29.5399 51.1579 44 34.5263 44 22.3158C44 10.1053 34.0845 0 21.8967 0C9.91549 0 0 10.1053 0 22.3158C0 34.5263 14.4601 51.1579 21.8967 60Z" fill="#383E41"/>
<path fill-rule="evenodd" clip-rule="evenodd" d="M21.8967 60C29.5399 51.1579 44 34.5263 44 22.3158C44 10.1053 34.0845 0 21.8967 0C9.91549 0 0 10.1053 0 22.3158C0 34.5263 14.4601 51.1579 21.8967 60Z" fill="#383E41"/>
<ellipse cx="22.0004" cy="22.0187" rx="17.6" ry="17.6147" fill="white"/>
<path d="M31.1438 20.5473H17.4105C17.2887 20.5473 17.1718 20.4989 17.0857 20.4128C16.9996 20.3266 16.9512 20.2098 16.9512 20.088C16.9512 19.9662 16.9996 19.8493 17.0857 19.7632C17.1718 19.6771 17.2887 19.6287 17.4105 19.6287H31.1438C31.2656 19.6287 31.3825 19.6771 31.4686 19.7632C31.5547 19.8493 31.6031 19.9662 31.6031 20.088C31.6031 20.2098 31.5547 20.3266 31.4686 20.4128C31.3825 20.4989 31.2656 20.5473 31.1438 20.5473Z" fill="#383E41"/>
<path d="M30.4181 23.3063H17.9525C17.8307 23.3063 17.7138 23.2579 17.6277 23.1718C17.5416 23.0856 17.4932 22.9688 17.4932 22.847C17.4932 22.7252 17.5416 22.6084 17.6277 22.5222C17.7138 22.4361 17.8307 22.3877 17.9525 22.3877H30.4181C30.5399 22.3877 30.6568 22.4361 30.7429 22.5222C30.829 22.6084 30.8774 22.7252 30.8774 22.847C30.8774 22.9688 30.829 23.0856 30.7429 23.1718C30.6568 23.2579 30.5399 23.3063 30.4181 23.3063Z" fill="#383E41"/>
<path d="M29.6965 26.065H18.494C18.3859 26.067 18.2805 26.0307 18.1965 25.9626C18.1125 25.8945 18.0552 25.7989 18.0347 25.6927L16.5006 17.8779C16.4876 17.8107 16.4897 17.7414 16.5069 17.6751C16.5241 17.6088 16.5558 17.5472 16.5999 17.4948C16.6439 17.4423 16.6991 17.4004 16.7613 17.3721C16.8236 17.3437 16.8915 17.3296 16.9599 17.3309H30.4084C30.6367 17.3303 30.862 17.3823 31.0669 17.4828C31.2719 17.5833 31.451 17.7296 31.5904 17.9105C31.7298 18.0914 31.8258 18.3019 31.871 18.5258C31.9161 18.7497 31.9091 18.981 31.8507 19.2018L30.1375 25.7203C30.1122 25.8183 30.0552 25.9053 29.9755 25.9676C29.8958 26.0299 29.7977 26.0642 29.6965 26.065ZM18.8752 25.1456H29.3428L30.9642 18.9674C30.9859 18.8826 30.9879 18.7939 30.9702 18.7082C30.9524 18.6224 30.9153 18.5419 30.8617 18.4727C30.8081 18.4035 30.7393 18.3475 30.6608 18.309C30.5822 18.2704 30.4959 18.2503 30.4084 18.2503H17.5156L18.8752 25.1456Z" fill="#383E41"/>
<path d="M27.8185 28.3629H17.755C17.3287 28.3629 16.9198 28.1934 16.6183 27.8916C16.3168 27.5899 16.1475 27.1807 16.1475 26.7539C16.1475 26.3272 16.3168 25.918 16.6183 25.6163C16.9198 25.3145 17.3287 25.145 17.755 25.145H18.6323C18.7541 25.145 18.871 25.1935 18.9571 25.2797C19.0432 25.3659 19.0916 25.4828 19.0916 25.6047C19.0916 25.7266 19.0432 25.8436 18.9571 25.9298C18.871 26.016 18.7541 26.0644 18.6323 26.0644H17.755C17.5723 26.0644 17.3971 26.1371 17.2679 26.2664C17.1387 26.3957 17.0661 26.5711 17.0661 26.7539C17.0661 26.9368 17.1387 27.1122 17.2679 27.2415C17.3971 27.3708 17.5723 27.4435 17.755 27.4435H27.8185C27.9403 27.4435 28.0571 27.4919 28.1433 27.5781C28.2294 27.6643 28.2778 27.7813 28.2778 27.9032C28.2778 28.0251 28.2294 28.142 28.1433 28.2282C28.0571 28.3144 27.9403 28.3629 27.8185 28.3629Z" fill="#383E41"/>
<path d="M19.5501 31.1224C19.1868 31.1224 18.8315 31.0145 18.5294 30.8125C18.2273 30.6104 17.9918 30.3233 17.8527 29.9873C17.7137 29.6513 17.6773 29.2816 17.7482 28.9249C17.8191 28.5682 17.9941 28.2405 18.251 27.9834C18.5079 27.7262 18.8353 27.5511 19.1917 27.4802C19.5481 27.4092 19.9175 27.4456 20.2532 27.5848C20.5889 27.724 20.8759 27.9596 21.0777 28.262C21.2796 28.5644 21.3874 28.9199 21.3874 29.2836C21.3874 29.7713 21.1938 30.239 20.8492 30.5838C20.5047 30.9286 20.0374 31.1224 19.5501 31.1224ZM19.5501 28.3642C19.3684 28.3642 19.1908 28.4181 19.0398 28.5192C18.8887 28.6202 18.771 28.7638 18.7014 28.9318C18.6319 29.0998 18.6137 29.2846 18.6492 29.463C18.6846 29.6413 18.7721 29.8051 18.9006 29.9337C19.029 30.0623 19.1927 30.1498 19.3709 30.1853C19.5491 30.2208 19.7338 30.2026 19.9017 30.133C20.0695 30.0634 20.213 29.9456 20.3139 29.7944C20.4149 29.6432 20.4687 29.4654 20.4687 29.2836C20.4687 29.0398 20.372 28.8059 20.1997 28.6335C20.0274 28.4611 19.7938 28.3642 19.5501 28.3642Z" fill="#383E41"/>
<path d="M27.8177 31.1224C27.4543 31.1224 27.0991 31.0145 26.797 30.8125C26.4949 30.6104 26.2594 30.3233 26.1203 29.9873C25.9813 29.6513 25.9449 29.2816 26.0158 28.9249C26.0867 28.5682 26.2616 28.2405 26.5186 27.9834C26.7755 27.7262 27.1029 27.5511 27.4593 27.4802C27.8157 27.4092 28.1851 27.4456 28.5208 27.5848C28.8565 27.724 29.1434 27.9596 29.3453 28.262C29.5472 28.5644 29.6549 28.9199 29.6549 29.2836C29.6549 29.7713 29.4614 30.239 29.1168 30.5838C28.7723 30.9286 28.305 31.1224 27.8177 31.1224ZM27.8177 28.3642C27.636 28.3642 27.4584 28.4181 27.3073 28.5192C27.1563 28.6202 27.0385 28.7638 26.969 28.9318C26.8995 29.0998 26.8813 29.2846 26.9167 29.463C26.9522 29.6413 27.0397 29.8051 27.1681 29.9337C27.2966 30.0623 27.4603 30.1498 27.6385 30.1853C27.8167 30.2208 28.0014 30.2026 28.1692 30.133C28.3371 30.0634 28.4806 29.9456 28.5815 29.7944C28.6824 29.6432 28.7363 29.4654 28.7363 29.2836C28.7363 29.0398 28.6395 28.8059 28.4673 28.6335C28.295 28.4611 28.0613 28.3642 27.8177 28.3642Z" fill="#383E41"/>
<path d="M24.1439 26.065C24.0221 26.065 23.9052 26.0165 23.8191 25.9303C23.733 25.8441 23.6846 25.7272 23.6846 25.6053V17.7905C23.6846 17.6686 23.733 17.5517 23.8191 17.4655C23.9052 17.3792 24.0221 17.3308 24.1439 17.3308C24.2657 17.3308 24.3825 17.3792 24.4687 17.4655C24.5548 17.5517 24.6032 17.6686 24.6032 17.7905V25.6053C24.6032 25.7272 24.5548 25.8441 24.4687 25.9303C24.3825 26.0165 24.2657 26.065 24.1439 26.065Z" fill="#383E41"/>
<path d="M21.6219 25.9679C21.5144 25.9701 21.4096 25.9345 21.3257 25.8673C21.2418 25.8001 21.184 25.7056 21.1626 25.6002L19.6239 17.882C19.6001 17.76 19.6257 17.6337 19.6951 17.5307C19.7644 17.4276 19.8718 17.3564 19.9936 17.3326C20.1154 17.3089 20.2417 17.3345 20.3446 17.4039C20.4476 17.4733 20.5188 17.5808 20.5425 17.7027L22.0904 25.4209C22.1025 25.4801 22.1028 25.541 22.0913 25.6003C22.0798 25.6596 22.0568 25.716 22.0235 25.7664C21.9903 25.8168 21.9474 25.8601 21.8974 25.8939C21.8474 25.9277 21.7912 25.9513 21.7321 25.9634L21.6219 25.9679Z" fill="#383E41"/>
<path d="M26.7797 25.9686H26.6879C26.6288 25.9566 26.5726 25.933 26.5226 25.8992C26.4726 25.8654 26.4297 25.8221 26.3965 25.7717C26.3632 25.7213 26.3402 25.6649 26.3287 25.6056C26.3172 25.5463 26.3175 25.4854 26.3296 25.4262L27.8729 17.6988C27.8966 17.5769 27.9678 17.4694 28.0707 17.4C28.1737 17.3306 28.2999 17.305 28.4218 17.3287C28.5436 17.3525 28.651 17.4237 28.7203 17.5268C28.7896 17.6298 28.8153 17.7561 28.7915 17.8781L27.2299 25.6055C27.2078 25.7085 27.151 25.8007 27.069 25.8668C26.9871 25.9329 26.885 25.9689 26.7797 25.9686Z" fill="#383E41"/>
<path d="M16.9048 18.0249C16.7967 18.0269 16.6914 17.9906 16.6074 17.9225C16.5234 17.8544 16.466 17.7588 16.4455 17.6525L15.5866 13.2395C15.5593 13.099 15.4846 12.9722 15.3751 12.8801C15.2656 12.7881 15.1279 12.7365 14.9849 12.7338H12.2015C12.0797 12.7338 11.9629 12.6854 11.8767 12.5992C11.7906 12.513 11.7422 12.3961 11.7422 12.2741C11.7422 12.1522 11.7906 12.0353 11.8767 11.9491C11.9629 11.8629 12.0797 11.8145 12.2015 11.8145H14.9849C15.3419 11.8151 15.6876 11.9397 15.9631 12.1668C16.2386 12.394 16.427 12.7097 16.496 13.0602L17.3549 17.4779C17.3779 17.5973 17.3525 17.721 17.2845 17.8218C17.2165 17.9226 17.1114 17.9923 16.9921 18.0157L16.9048 18.0249Z" fill="#383E41"/>
</svg>
