<svg width="44" height="60" viewBox="0 0 44 60" fill="none" xmlns="http://www.w3.org/2000/svg">
<path fill-rule="evenodd" clip-rule="evenodd" d="M21.8967 60C29.5399 51.1579 44 34.5263 44 22.3158C44 10.1053 34.0845 0 21.8967 0C9.91549 0 0 10.1053 0 22.3158C0 34.5263 14.4601 51.1579 21.8967 60Z" fill="#383E41"/>
<ellipse cx="22.0004" cy="22.0187" rx="17.6" ry="17.6147" fill="white"/>
<path d="M25.6096 23.8678C26.0165 24.4023 26.4996 24.7332 27.0082 24.835V29.5433C27.0082 29.7469 27.1862 29.9251 27.3897 29.9251C27.5931 29.9251 27.7711 29.7469 27.7711 29.5433V24.835C29.1189 24.5296 30.1106 22.748 30.1106 20.5338C30.1106 18.0905 28.9154 16.1817 27.3642 16.1817C26.7285 16.1817 26.1182 16.5126 25.6605 17.1234C25.0501 14.1457 23.6515 12.1096 21.9986 12.1096C20.3457 12.1096 18.9471 14.1202 18.3622 17.0471C17.9045 16.4871 17.3196 16.1817 16.7093 16.1817C15.1835 16.1817 13.9629 18.0905 13.9629 20.5338C13.9629 22.7735 14.9801 24.555 16.3533 24.835V29.5433C16.3533 29.7469 16.5313 29.9251 16.7347 29.9251C16.9381 29.9251 17.1161 29.7469 17.1161 29.5433V24.835C17.5993 24.7332 18.057 24.4278 18.413 23.9696C18.9979 26.5402 20.1931 28.3472 21.6172 28.6271V32.5974C21.6172 32.801 21.7952 32.9792 21.9986 32.9792C22.202 32.9792 22.38 32.801 22.38 32.5974V28.6271C23.8295 28.3472 25.0247 26.4893 25.6096 23.8678ZM25.8639 18.1923C26.2453 17.4034 26.8048 16.9453 27.3642 16.9453C28.4323 16.9453 29.3477 18.5995 29.3477 20.5338C29.3477 22.239 28.6611 23.6897 27.7711 24.046V22.4171C27.8474 22.3917 27.9237 22.3153 27.9745 22.239L28.9409 20.3047C29.0426 20.1266 28.9663 19.8975 28.7628 19.7957C28.5848 19.6939 28.356 19.7703 28.2543 19.9739L27.7711 20.9156V18.9304C27.7711 18.7268 27.5931 18.5486 27.3897 18.5486C27.1862 18.5486 27.0082 18.7268 27.0082 18.9304V24.046C26.5505 23.8933 26.1182 23.4097 25.813 22.6971C25.9147 21.959 25.9656 21.1955 25.9656 20.3811C25.9656 19.643 25.9147 18.9304 25.8385 18.2687C25.8639 18.2432 25.8639 18.2178 25.8639 18.1923ZM18.1333 22.9262C17.8536 23.4861 17.4722 23.8678 17.0907 24.0205V18.9304C17.0907 18.7268 16.9127 18.5486 16.7093 18.5486C16.5058 18.5486 16.3278 18.7268 16.3278 18.9304V20.5847L16.0227 19.9484C15.921 19.7703 15.6921 19.6939 15.5141 19.7703C15.3361 19.8721 15.2598 20.1011 15.3361 20.2793L16.3024 22.2135C16.3024 22.239 16.3278 22.239 16.3278 22.2644V24.046C15.4124 23.7151 14.7003 22.239 14.7003 20.5338C14.7003 18.5995 15.6158 16.9453 16.6838 16.9453C17.2179 16.9453 17.7773 17.4034 18.1588 18.1669C18.057 18.8795 18.0062 19.6176 18.0062 20.3811C18.0062 21.2464 18.057 22.0863 18.1842 22.8753C18.1842 22.8753 18.1588 22.9007 18.1333 22.9262ZM18.7691 20.3811C18.7691 16.309 20.244 12.8731 21.9732 12.8731C23.7024 12.8731 25.1773 16.309 25.1773 20.3811C25.1773 21.1701 25.1264 21.9336 25.0247 22.6717C25.0247 22.6971 25.0247 22.6971 25.0247 22.7226C24.6433 25.3949 23.6007 27.4818 22.38 27.8381V26.1075C22.4563 26.082 22.5072 26.0311 22.5326 25.9802L24.0584 23.6642C24.1855 23.4861 24.1347 23.257 23.9567 23.1298C23.7787 23.0025 23.5498 23.0534 23.4227 23.2316L22.38 24.835V21.5264C22.4563 21.5009 22.5072 21.45 22.5326 21.3991L24.0584 19.0831C24.1855 18.905 24.1347 18.6759 23.9567 18.5486C23.7787 18.4214 23.5498 18.4723 23.4227 18.6504L22.38 20.2538V15.0364C22.38 14.8328 22.202 14.6547 21.9986 14.6547C21.7952 14.6547 21.6172 14.8328 21.6172 15.0364V17.8869L20.7526 16.5889C20.6254 16.4108 20.3965 16.3599 20.2185 16.4871C20.0405 16.6144 19.9897 16.8434 20.1168 17.0216L21.6172 19.2867V22.6208L20.4983 20.941C20.3711 20.7629 20.1423 20.712 19.9642 20.8392C19.7862 20.9665 19.7354 21.1955 19.8625 21.3737L21.3883 23.6897C21.4392 23.766 21.5154 23.8169 21.5917 23.8424V27.8381C20.0405 27.38 18.7691 24.1478 18.7691 20.3811Z" fill="#383E41"/>
<path d="M19.939 30.9431H13.5816C13.3782 30.9431 13.2002 31.1211 13.2002 31.3246C13.2002 31.528 13.3782 31.706 13.5816 31.706H19.939C20.1424 31.706 20.3204 31.528 20.3204 31.3246C20.3204 31.1211 20.1424 30.9431 19.939 30.9431Z" fill="#383E41"/>
<path d="M30.3648 30.9431H24.0074C23.804 30.9431 23.626 31.1211 23.626 31.3246C23.626 31.528 23.804 31.706 24.0074 31.706H30.3648C30.5682 31.706 30.7462 31.528 30.7462 31.3246C30.7462 31.1211 30.5682 30.9431 30.3648 30.9431Z" fill="#383E41"/>
</svg>
