<svg width="44" height="60" viewBox="0 0 44 60" fill="none" xmlns="http://www.w3.org/2000/svg">
<path fill-rule="evenodd" clip-rule="evenodd" d="M21.8967 60C29.5399 51.1579 44 34.5263 44 22.3158C44 10.1053 34.0845 0 21.8967 0C9.91549 0 0 10.1053 0 22.3158C0 34.5263 14.4601 51.1579 21.8967 60Z" fill="#383E41"/>
<ellipse cx="22.0004" cy="22.0187" rx="17.6" ry="17.6147" fill="white"/>
<path d="M28.3426 18.392H26.295V15.9743C26.295 14.4507 25.0565 13.2112 23.5342 13.2112H23.3617C22.9288 13.2112 22.5189 13.3117 22.1539 13.4902C21.7888 13.3117 21.3789 13.2112 20.946 13.2112C19.4237 13.2112 18.1852 14.4507 18.1852 15.9743V18.392H15.9651L15.4004 30.8259H28.9074L28.3426 18.392ZM23.5117 14.2056C24.4631 14.2056 25.2597 15.022 25.2597 15.9743V18.392H23.7068V15.9743C23.7068 15.3295 23.4844 14.7361 23.1131 14.2655C23.1131 14.2655 23.1702 14.2056 23.5117 14.2056ZM22.1539 14.7426C22.473 15.0561 22.6715 15.4924 22.6715 15.9743V18.392H21.6362V15.9743C21.6362 15.4924 21.8347 15.0561 22.1539 14.7426ZM19.2205 15.9743C19.2205 15.022 19.9946 14.2473 20.946 14.2473C21.0304 14.2473 21.1134 14.2537 21.1946 14.2655C20.8233 14.7361 20.6009 15.3295 20.6009 15.9743V18.392H19.2205V15.9743ZM16.9544 19.4281H18.1852V29.7897H16.4838L16.9544 19.4281ZM19.2205 29.7897V19.4281H20.6009V20.4643H21.6362V19.4281H25.2597V20.4643H26.295V19.4281H27.3533L27.8239 29.7897H19.2205Z" fill="#383E41"/>
</svg>
