<svg width="44" height="60" viewBox="0 0 44 60" fill="none" xmlns="http://www.w3.org/2000/svg">
<path fill-rule="evenodd" clip-rule="evenodd" d="M21.8967 60C29.5399 51.1579 44 34.5263 44 22.3158C44 10.1053 34.0845 0 21.8967 0C9.91549 0 0 10.1053 0 22.3158C0 34.5263 14.4601 51.1579 21.8967 60Z" fill="#383E41"/>
<ellipse cx="22.0004" cy="22.0187" rx="17.6" ry="17.6147" fill="white"/>
<path d="M27.119 18.5511L24.4102 11.631C24.2597 11.2623 23.8423 11.0815 23.4707 11.2239L16.5563 13.935C16.1846 14.0823 16.0025 14.5033 16.1496 14.8753L18.8787 21.7954C19.0259 22.1675 19.4465 22.3497 19.8183 22.2025L26.7123 19.4915C27.084 19.3442 27.2661 18.9232 27.119 18.5511ZM19.6027 21.4087L16.959 14.6759L23.6862 12.0259L26.33 18.7628L19.6027 21.4087Z" fill="#383E41"/>
<path d="M20.441 22.8936H13.0345C12.6347 22.8936 12.3105 23.2179 12.3105 23.6181V31.0349C12.3105 31.4351 12.6347 31.7594 13.0345 31.7594H20.441C20.8409 31.7594 21.165 31.4351 21.165 31.0349V23.6181C21.165 23.2179 20.8408 22.8936 20.441 22.8936ZM20.3515 30.9412H13.124V23.7077H20.3515V30.9412Z" fill="#383E41"/>
<path d="M31.3776 22.8532L24.2192 20.9482C23.8289 20.8529 23.4343 21.0883 23.3326 21.4773L21.4291 28.6417C21.3257 29.0283 21.555 29.4255 21.9412 29.529C21.9413 29.5291 21.9415 29.5291 21.9416 29.5291L29.1 31.4342C29.4862 31.5377 29.8831 31.3082 29.9865 30.9216C29.9866 30.9215 29.9866 30.9214 29.9866 30.9213L31.8738 23.7406C31.9784 23.3589 31.7575 22.9637 31.3776 22.8532ZM29.226 30.5875L22.2385 28.7516L24.0972 21.7623L31.0807 23.6226L29.226 30.5875Z" fill="#383E41"/>
<path d="M24.0647 17.5168C23.9908 17.3762 23.8931 17.2495 23.7759 17.1423L21.7423 14.9971L21.5023 14.7366C21.442 14.674 21.3752 14.6181 21.303 14.5697C21.23 14.52 21.1465 14.4879 21.059 14.476C20.8508 14.4615 20.6473 14.5423 20.5058 14.6959C20.4499 14.7645 20.4109 14.8454 20.392 14.932C20.3713 15.0337 20.3618 15.1375 20.3635 15.2413C20.3635 15.3594 20.3635 15.4611 20.3635 15.5466V18.5101C20.3716 18.6322 20.3784 18.7258 20.3838 18.7909C20.3869 18.8522 20.3993 18.9126 20.4204 18.9701C20.46 19.0656 20.5384 19.1396 20.636 19.1736C20.735 19.2143 20.8461 19.2143 20.9451 19.1736C21.0458 19.1449 21.1262 19.069 21.1607 18.9701C21.1912 18.8133 21.2021 18.6533 21.1932 18.4938V17.9117L22.7998 17.2807L23.1821 17.6878L23.357 17.8628C23.4068 17.9155 23.4628 17.962 23.5237 18.0012C23.5695 18.0288 23.621 18.0455 23.6742 18.0501C23.734 18.0544 23.7939 18.0446 23.8491 18.0216C23.9447 17.9823 24.0218 17.9081 24.0647 17.814C24.1052 17.7191 24.1052 17.6117 24.0647 17.5168ZM21.1566 17.2197L21.0997 15.3716L22.3361 16.7556L21.1566 17.2197Z" fill="#383E41"/>
<path d="M17.7524 27.0095C18.1399 26.8647 18.3941 26.4912 18.3869 26.0773C18.3873 25.9579 18.3666 25.8394 18.3259 25.7272C18.286 25.6159 18.2268 25.5126 18.151 25.4219C18.0763 25.3316 17.987 25.2545 17.8866 25.194C17.7618 25.1192 17.6237 25.0695 17.4799 25.0474C17.3063 25.0209 17.1308 25.0086 16.9552 25.0108H15.6049C15.4584 24.9948 15.3117 25.0388 15.1982 25.1329C15.1054 25.2471 15.0616 25.3935 15.0762 25.54V28.7314C15.0613 28.8773 15.1036 29.0232 15.1941 29.1384C15.3075 29.2359 15.4564 29.2816 15.6049 29.2646H16.9024C17.0917 29.2588 17.2805 29.2411 17.4677 29.2117C17.6212 29.1937 17.7717 29.1553 17.9151 29.0977C18.1159 29.014 18.2873 28.8723 18.4073 28.6907C18.5298 28.4988 18.5934 28.2752 18.5903 28.0475C18.5996 27.5439 18.2463 27.1062 17.7524 27.0095ZM15.9425 25.6662H16.6217C16.8583 25.654 17.0949 25.6899 17.3172 25.772C17.471 25.8463 17.562 26.009 17.545 26.1791C17.5459 26.275 17.5206 26.3693 17.4718 26.4518C17.4159 26.5612 17.3196 26.6444 17.2033 26.6838C17.0422 26.7304 16.8747 26.751 16.7071 26.7449H15.9221L15.9425 25.6662ZM17.7158 27.9905C17.7158 28.4084 17.4257 28.6174 16.8454 28.6174H15.9221L15.9425 27.3799H16.8251C17.0594 27.3651 17.2931 27.4158 17.5003 27.5265C17.6496 27.6316 17.7317 27.8085 17.7158 27.9905Z" fill="#383E41"/>
<path d="M28.6977 24.9862C28.594 24.7294 28.4276 24.5026 28.2137 24.3268C27.9778 24.1298 27.6993 23.9904 27.4003 23.9197C27.1357 23.8465 26.8594 23.8258 26.5868 23.8587C26.3247 23.8907 26.0724 23.9781 25.8466 24.1151C25.613 24.2591 25.4121 24.4504 25.2568 24.6769C25.0819 24.9346 24.9539 25.2213 24.8786 25.5236C24.8257 25.7164 24.793 25.9142 24.781 26.1138C24.7705 26.3005 24.7827 26.4878 24.8176 26.6715C24.8504 26.8459 24.905 27.0155 24.9803 27.1762C25.0585 27.3412 25.1629 27.4924 25.2894 27.624C25.4154 27.7532 25.5609 27.8617 25.7205 27.9456C25.9027 28.0404 26.0951 28.1142 26.294 28.1654C26.5488 28.2387 26.8159 28.2594 27.079 28.2265C27.3006 28.1923 27.5127 28.1119 27.7013 27.9904C27.8571 27.8929 27.9948 27.7689 28.108 27.624C28.2043 27.504 28.2748 27.3654 28.3154 27.217C28.344 27.121 28.3307 27.0175 28.2788 26.932C28.2294 26.8463 28.1471 26.7845 28.051 26.761C27.9571 26.7272 27.8526 26.7408 27.7704 26.7977C27.6918 26.8621 27.6245 26.9391 27.5711 27.0256C27.4448 27.2096 27.2663 27.3514 27.0586 27.4327C26.8472 27.5017 26.6193 27.5017 26.4079 27.4327C26.2157 27.3953 26.0373 27.3068 25.8913 27.1762C25.7501 27.0155 25.6621 26.815 25.6392 26.6023C25.6119 26.3285 25.6381 26.0519 25.7164 25.7882C25.789 25.3794 25.9984 25.0076 26.3103 24.7339C26.5708 24.5309 26.9135 24.4672 27.2294 24.5629C27.4222 24.6072 27.5968 24.7094 27.7297 24.856C27.8599 25.0183 27.9492 25.2096 27.99 25.4137C28.0108 25.5217 28.0478 25.626 28.0998 25.723C28.1523 25.7959 28.2311 25.8456 28.3195 25.8614C28.4125 25.8872 28.5121 25.8708 28.592 25.8166C28.6746 25.7666 28.7344 25.6863 28.7587 25.5928C28.8016 25.3891 28.7803 25.1772 28.6977 24.9862Z" fill="#383E41"/>
</svg>
