<svg width="44" height="60" viewBox="0 0 44 60" fill="none" xmlns="http://www.w3.org/2000/svg">
<path fill-rule="evenodd" clip-rule="evenodd" d="M21.8967 60C29.5399 51.1579 44 34.5263 44 22.3158C44 10.1053 34.0845 0 21.8967 0C9.91549 0 0 10.1053 0 22.3158C0 34.5263 14.4601 51.1579 21.8967 60Z" fill="#383E41"/>
<ellipse cx="22.0004" cy="22.0187" rx="17.6" ry="17.6147" fill="white"/>
<path d="M31.0133 18.6288C30.4581 18.2852 29.7764 18.2553 29.1938 18.5468L26.9135 19.6879V19.4497C26.9135 18.4177 26.0747 17.5782 25.0435 17.5782H24.182C24.7055 17.1204 25.0435 16.4554 25.0435 15.7066C25.0435 14.3306 23.9253 13.2112 22.5502 13.2112C21.1751 13.2112 20.0569 14.3306 20.0569 15.7066C20.0569 16.4554 20.3949 17.1204 20.9184 17.5782H19.1953C19.7188 17.1204 20.0569 16.4554 20.0569 15.7066C20.0569 14.3306 18.9386 13.2112 17.5635 13.2112C16.1884 13.2112 15.0702 14.3306 15.0702 15.7066C15.0702 16.4554 15.4082 17.1204 15.9318 17.5782H15.0702C14.039 17.5782 13.2002 18.4177 13.2002 19.4497V24.4405C13.2002 25.4726 14.039 26.3121 15.0702 26.3121H18.2469L14.5826 30.9142C14.3683 31.1835 14.4128 31.5759 14.6818 31.7909C14.9503 32.0054 15.3435 31.9609 15.5578 31.6916L19.663 26.5357C19.8919 26.2469 20.2218 26.2469 20.4507 26.5357L24.5559 31.6916C24.6789 31.8464 24.8609 31.9268 25.0441 31.9268C25.1799 31.9268 25.3175 31.8823 25.4319 31.7909C25.701 31.5759 25.7454 31.1835 25.5311 30.9142L21.8668 26.3121H25.0435C26.0747 26.3121 26.9135 25.4726 26.9135 24.4405V24.2023L29.1938 25.3434C29.4598 25.4768 29.7459 25.5426 30.0314 25.5426C30.3717 25.5426 30.7114 25.4482 31.0133 25.2618C31.5684 24.9182 31.9002 24.323 31.9002 23.6693V20.2207C31.9002 19.5673 31.5684 18.9724 31.0133 18.6288ZM22.5502 14.4589C23.2374 14.4589 23.7969 15.0185 23.7969 15.7066C23.7969 16.3947 23.2374 16.9543 22.5502 16.9543C21.8629 16.9543 21.3035 16.3947 21.3035 15.7066C21.3035 15.0185 21.8629 14.4589 22.5502 14.4589ZM17.5635 14.4589C18.2508 14.4589 18.8102 15.0185 18.8102 15.7066C18.8102 16.3947 18.2508 16.9543 17.5635 16.9543C16.8763 16.9543 16.3169 16.3947 16.3169 15.7066C16.3169 15.0185 16.8763 14.4589 17.5635 14.4589ZM25.6669 24.4405C25.6669 24.7848 25.3875 25.0644 25.0435 25.0644H15.0702C14.7263 25.0644 14.4469 24.7848 14.4469 24.4405V19.4497C14.4469 19.1058 14.7263 18.8259 15.0702 18.8259H25.0435C25.3875 18.8259 25.6669 19.1058 25.6669 19.4497V20.6974V23.1928V24.4405ZM30.6535 23.6693C30.6535 23.9836 30.4466 24.1451 30.3577 24.1999C30.2688 24.2553 30.0308 24.368 29.7514 24.2273L26.9135 22.8072V21.0831L29.7514 19.6629C30.0308 19.5222 30.2688 19.6352 30.3577 19.6901C30.4466 19.7452 30.6535 19.9069 30.6535 20.2207V23.6693Z" fill="#383E41"/>
</svg>
