<svg width="44" height="61" viewBox="0 0 44 61" fill="none" xmlns="http://www.w3.org/2000/svg">
<path fill-rule="evenodd" clip-rule="evenodd" d="M21.8967 60.002C29.5399 51.1598 44 34.5283 44 22.3177C44 10.1072 34.0845 0.00195312 21.8967 0.00195312C9.91549 0.00195312 0 10.1072 0 22.3177C0 34.5283 14.4601 51.1598 21.8967 60.002Z" fill="#383E41"/>
<ellipse cx="22.0004" cy="22.0187" rx="17.6" ry="17.6147" fill="white"/>
<path d="M31.864 16.2371C31.758 16.1194 29.2527 13.3627 26.2504 14.0864C25.1941 14.3411 23.2477 15.8722 22.325 16.6346V15.2596C22.7118 15.1827 23.0562 14.9646 23.2912 14.6476C23.5262 14.3307 23.635 13.9376 23.5964 13.5448C23.5578 13.152 23.3746 12.7876 23.0825 12.5225C22.7903 12.2574 22.41 12.1106 22.0157 12.1106C21.6213 12.1106 21.241 12.2574 20.9489 12.5225C20.6567 12.7876 20.4735 13.152 20.4349 13.5448C20.3963 13.9376 20.5051 14.3307 20.7401 14.6476C20.9751 14.9646 21.3195 15.1827 21.7063 15.2596V16.6313C20.7803 15.8676 18.8418 14.3403 17.7851 14.0864C14.7865 13.3652 12.2775 16.1194 12.1715 16.2371C12.1211 16.2988 12.0963 16.3776 12.1025 16.457C12.1086 16.5365 12.1452 16.6105 12.2045 16.6637C12.2638 16.7169 12.3413 16.7451 12.4209 16.7426C12.5005 16.74 12.576 16.7068 12.6318 16.6499C12.6549 16.6251 15.0059 14.0513 17.6403 14.6887C18.5547 14.9087 20.4991 16.4253 21.4902 17.2559C20.9092 17.5771 20.2966 17.8375 19.6622 18.0328C19.0305 18.2614 18.357 18.3507 17.6877 18.2945C17.6073 18.2797 17.5242 18.2973 17.4567 18.3437C17.3892 18.39 17.3428 18.4611 17.3277 18.5416C17.3125 18.6221 17.3298 18.7053 17.3758 18.773C17.4218 18.8407 17.4927 18.8875 17.5731 18.903C17.7193 18.926 17.8672 18.9363 18.0152 18.9335C18.6375 18.9226 19.2545 18.8181 19.8457 18.6235C20.4903 18.4259 21.1135 18.1645 21.7063 17.8433V22.4667L21.4056 22.4052C20.106 22.1464 19.1676 21.9586 18.8995 21.2465C18.5502 20.3164 19.5648 19.7422 19.6114 19.7166C19.6471 19.6972 19.6787 19.6709 19.7042 19.6393C19.7297 19.6077 19.7488 19.5713 19.7603 19.5323C19.7718 19.4933 19.7756 19.4524 19.7713 19.412C19.767 19.3715 19.7548 19.3323 19.7354 19.2966C19.716 19.2609 19.6897 19.2293 19.6581 19.2038C19.6265 19.1782 19.5902 19.1591 19.5512 19.1476C19.5122 19.1361 19.4714 19.1323 19.431 19.1366C19.3906 19.1409 19.3514 19.1531 19.3157 19.1725C18.7824 19.4615 17.8878 20.3131 18.3204 21.464C18.6426 22.3202 19.4803 22.6219 20.5729 22.8638C19.5186 23.1747 18.7824 23.6506 18.8971 24.804C18.9911 25.7592 19.9963 26.2996 20.9552 26.646C20.266 26.8986 19.5801 27.3329 19.5801 28.2922C19.5801 29.2004 20.379 29.6508 21.1033 29.922C20.1361 30.3785 19.623 30.954 19.623 31.6145C19.623 31.6966 19.6556 31.7753 19.7136 31.8334C19.7716 31.8914 19.8503 31.9241 19.9323 31.9241C20.0144 31.9241 20.0931 31.8914 20.1511 31.8334C20.2091 31.7753 20.2417 31.6966 20.2417 31.6145C20.2417 31.1604 20.77 30.7009 21.7063 30.3315V31.6161C21.7063 31.6982 21.7389 31.777 21.7969 31.835C21.8549 31.8931 21.9336 31.9257 22.0157 31.9257C22.0977 31.9257 22.1764 31.8931 22.2344 31.835C22.2924 31.777 22.325 31.6982 22.325 31.6161V30.3422C23.2473 30.71 23.7686 31.1637 23.7686 31.6161C23.7686 31.6982 23.8012 31.777 23.8592 31.835C23.9172 31.8931 23.9959 31.9257 24.078 31.9257C24.16 31.9257 24.2387 31.8931 24.2967 31.835C24.3547 31.777 24.3873 31.6982 24.3873 31.6161C24.3873 30.9556 23.8742 30.381 22.907 29.9236C23.6317 29.6524 24.4306 29.2029 24.4306 28.2939C24.4306 27.3345 23.7443 26.9002 23.0551 26.6476C24.0144 26.3013 25.0196 25.7609 25.1137 24.8061C25.2283 23.6502 24.4917 23.1747 23.4374 22.8659C24.53 22.6244 25.3677 22.3222 25.6899 21.4661C26.1225 20.3152 25.2279 19.464 24.6946 19.1746C24.6226 19.1364 24.5384 19.1281 24.4604 19.1517C24.3823 19.1752 24.3167 19.2286 24.2778 19.3003C24.2389 19.372 24.2298 19.4562 24.2526 19.5345C24.2753 19.6128 24.328 19.679 24.3993 19.7187C24.4426 19.7426 25.4609 20.3168 25.1108 21.2481C24.8427 21.9606 23.9039 22.1484 22.6051 22.4073L22.3267 22.4642V17.8408C22.9205 18.164 23.5452 18.4267 24.1914 18.6252C24.7826 18.8198 25.3996 18.9243 26.0219 18.9352C26.1699 18.9379 26.3178 18.9277 26.464 18.9046C26.5442 18.8892 26.615 18.8426 26.6609 18.7751C26.7069 18.7076 26.7242 18.6245 26.709 18.5443C26.6932 18.4642 26.6468 18.3935 26.5796 18.3472C26.5124 18.3009 26.4298 18.2827 26.3494 18.2966C25.6801 18.3535 25.0064 18.2642 24.3749 18.0349C23.7405 17.8395 23.1279 17.5792 22.5469 17.258C23.5368 16.4274 25.4824 14.9108 26.3968 14.6907C29.0296 14.0513 31.3806 16.6251 31.4037 16.652C31.4594 16.7089 31.535 16.7421 31.6146 16.7446C31.6942 16.7472 31.7717 16.719 31.831 16.6658C31.8903 16.6126 31.9268 16.5386 31.933 16.4591C31.9391 16.3796 31.9144 16.3008 31.864 16.2392V16.2371ZM21.046 13.7012C21.0456 13.5092 21.1022 13.3214 21.2085 13.1615C21.3149 13.0017 21.4662 12.877 21.6433 12.8032C21.8204 12.7294 22.0155 12.7099 22.2037 12.747C22.392 12.7842 22.565 12.8763 22.7009 13.0119C22.8368 13.1474 22.9295 13.3203 22.9672 13.5086C23.005 13.6968 22.9861 13.8921 22.913 14.0696C22.8398 14.2472 22.7158 14.399 22.5564 14.506C22.3971 14.6129 22.2096 14.6702 22.0177 14.6705C21.7605 14.6707 21.5137 14.5688 21.3315 14.3871C21.1493 14.2053 21.0466 13.9587 21.046 13.7012ZM19.5124 24.7454C19.4196 23.8112 20.1641 23.5594 21.7063 23.2259V26.2455C20.7803 25.9611 19.5883 25.5145 19.5124 24.7454ZM20.1988 28.2955C20.1988 27.5636 20.8175 27.3126 21.7063 27.0637V29.4766C20.895 29.2136 20.1988 28.9122 20.1988 28.293V28.2955ZM23.8103 28.2955C23.8103 28.9061 23.1264 29.2086 22.3254 29.4691V27.0695C23.1994 27.3163 23.8103 27.5694 23.8103 28.293V28.2955ZM24.4966 24.7454C24.4215 25.5074 23.2497 25.9533 22.325 26.2381V23.2308C23.8515 23.5623 24.5886 23.8162 24.4966 24.7458V24.7454Z" fill="#383E41"/>
<path d="M30.8356 16.7937C30.2679 16.7836 29.7042 16.6959 29.1602 16.5332C28.6508 16.3627 28.1726 16.1101 27.7446 15.7852C27.6811 15.7344 27.6001 15.7107 27.5193 15.7192C27.4384 15.7277 27.3641 15.7677 27.3125 15.8306C27.2609 15.8935 27.2361 15.9742 27.2435 16.0553C27.2509 16.1363 27.2898 16.2112 27.352 16.2637C27.8381 16.639 28.384 16.9296 28.9667 17.1231C29.573 17.3075 30.2021 17.4058 30.8356 17.415C30.9176 17.415 30.9963 17.3824 31.0543 17.3243C31.1123 17.2663 31.1449 17.1875 31.1449 17.1054C31.1449 17.0233 31.1123 16.9445 31.0543 16.8865C30.9963 16.8284 30.9176 16.7958 30.8356 16.7958V16.7937Z" fill="#383E41"/>
<path d="M28.9559 17.568C28.2664 17.5526 27.5801 17.4697 26.9068 17.3204C26.4924 17.2134 26.094 17.0523 25.7218 16.8411C25.6523 16.7973 25.5682 16.7829 25.4881 16.8012C25.408 16.8194 25.3384 16.8687 25.2947 16.9383C25.2509 17.0079 25.2366 17.092 25.2548 17.1722C25.273 17.2523 25.3223 17.322 25.3918 17.3658C25.8152 17.6109 26.2701 17.7969 26.7439 17.9185C27.4657 18.0813 28.2021 18.1713 28.9419 18.1873H28.948C29.0301 18.188 29.1091 18.1561 29.1676 18.0986C29.2262 18.0411 29.2595 17.9627 29.2603 17.8805C29.261 17.7984 29.2292 17.7194 29.1717 17.6608C29.1142 17.6022 29.0359 17.5688 28.9538 17.568H28.9559Z" fill="#383E41"/>
<path d="M16.6836 16.2617C16.7401 16.2077 16.7741 16.1342 16.7787 16.0562C16.7833 15.9781 16.7582 15.9012 16.7085 15.8409C16.6588 15.7805 16.5881 15.7413 16.5106 15.731C16.4332 15.7207 16.3547 15.7401 16.2909 15.7853C15.8632 16.1108 15.3852 16.3641 14.8758 16.5354C14.3316 16.6981 13.7678 16.7857 13.2 16.7959C13.1179 16.7959 13.0392 16.8285 12.9812 16.8865C12.9232 16.9446 12.8906 17.0233 12.8906 17.1055C12.8906 17.1876 12.9232 17.2663 12.9812 17.3244C13.0392 17.3824 13.1179 17.4151 13.2 17.4151C13.8336 17.4058 14.4629 17.3076 15.0692 17.1232C15.6519 16.9289 16.1977 16.6377 16.6836 16.2617Z" fill="#383E41"/>
<path d="M18.7391 16.9415C18.6955 16.8721 18.6262 16.8227 18.5463 16.8043C18.4665 16.7859 18.3826 16.7999 18.313 16.8433C17.9408 17.0545 17.5424 17.2156 17.128 17.3225C16.4547 17.4717 15.7684 17.5546 15.0789 17.5702C14.9969 17.571 14.9185 17.6043 14.861 17.6629C14.8036 17.7215 14.7717 17.8006 14.7725 17.8827C14.7732 17.9648 14.8066 18.0433 14.8651 18.1008C14.9237 18.1583 15.0027 18.1902 15.0847 18.1894H15.0909C15.8307 18.1735 16.567 18.0834 17.2889 17.9207C17.7627 17.7991 18.2176 17.6131 18.6409 17.3679C18.7104 17.3244 18.7598 17.255 18.7782 17.1751C18.7966 17.0951 18.7825 17.0111 18.7391 16.9415Z" fill="#383E41"/>
</svg>
