<svg width="44" height="60" viewBox="0 0 44 60" fill="none" xmlns="http://www.w3.org/2000/svg">
<path fill-rule="evenodd" clip-rule="evenodd" d="M21.8967 60C29.5399 51.1579 44 34.5263 44 22.3158C44 10.1053 34.0845 0 21.8967 0C9.91549 0 0 10.1053 0 22.3158C0 34.5263 14.4601 51.1579 21.8967 60Z" fill="#383E41"/>
<ellipse cx="22" cy="22.0184" rx="18" ry="18.015" fill="white"/>
<path d="M19.6473 19.874H17.2942C16.9694 19.874 16.7061 20.1298 16.7061 20.4454C16.7061 20.761 16.9694 21.0168 17.2942 21.0168H19.6473C19.9721 21.0168 20.2354 20.761 20.2354 20.4454C20.2357 20.1298 19.9721 19.874 19.6473 19.874Z" fill="#383E41"/>
<path d="M19.6473 22.1611H17.2942C16.9694 22.1611 16.7061 22.4169 16.7061 22.7325C16.7061 23.0481 16.9694 23.3039 17.2942 23.3039H19.6473C19.9721 23.3039 20.2354 23.0481 20.2354 22.7325C20.2354 22.4169 19.9721 22.1611 19.6473 22.1611Z" fill="#383E41"/>
<path d="M19.6473 24.449H17.2942C16.9694 24.449 16.7061 24.7048 16.7061 25.0204C16.7061 25.3359 16.9694 25.5917 17.2942 25.5917H19.6473C19.9721 25.5917 20.2354 25.3359 20.2354 25.0204C20.2357 24.7048 19.9721 24.449 19.6473 24.449Z" fill="#383E41"/>
<path d="M31.4118 19.8736H29.6473V18.1577C29.6473 17.8419 29.3839 17.5859 29.0591 17.5859H27.2942V13.5826C27.2942 13.2668 27.0309 13.0107 26.7061 13.0107C24.304 13.0107 22.2767 15.2583 21.6294 18.3372C21.1063 17.8722 20.412 17.5859 19.6473 17.5859H14.9412C14.6164 17.5859 14.353 17.8419 14.353 18.1577V19.8736H12.5882C12.2633 19.8736 12 20.1296 12 20.4455V29.596C12 29.9119 12.2633 30.1679 12.5882 30.1679H19.647C19.9718 30.1679 20.2352 29.9119 20.2352 29.596C20.2352 29.2802 19.9718 29.0242 19.647 29.0242H13.1767V21.0173H14.353V27.3083C14.353 27.6242 14.6164 27.8802 14.9412 27.8802H19.647C20.6215 27.8802 21.4115 28.6482 21.4115 29.596C21.4115 29.9119 21.6748 30.1679 21.9997 30.1679C22.3246 30.1679 22.5879 29.9119 22.5879 29.596C22.5879 28.6485 23.3779 27.8802 24.3524 27.8802H29.0588C29.3836 27.8802 29.647 27.6242 29.647 27.3083V21.0173H30.8233V29.0239H24.353C24.0282 29.0239 23.7648 29.2799 23.7648 29.5957C23.7648 29.9116 24.0282 30.1676 24.353 30.1676H31.4118C31.7367 30.1676 32 29.9116 32 29.5957V20.4455C32 20.1296 31.7367 19.8736 31.4118 19.8736ZM26.1176 14.2195V22.2078C24.6948 22.4289 23.4427 23.4411 22.5882 24.9247V20.4455C22.5882 17.2761 24.1224 14.6555 26.1176 14.2195ZM19.647 26.7362H15.5294V18.7296H19.647C20.6215 18.7296 21.4115 19.4977 21.4115 20.4455V27.3121C20.9199 26.9523 20.3101 26.7362 19.647 26.7362ZM24.353 26.7362C23.8353 26.7362 23.3496 26.8671 22.9273 27.0954C23.1333 26.3698 23.4257 25.715 23.7854 25.1619C23.8504 25.409 24.079 25.5922 24.3533 25.5922H26.7064C27.0312 25.5922 27.2945 25.3361 27.2945 25.0203C27.2945 24.7045 27.0312 24.4485 26.7064 24.4485H24.3533C24.3483 24.4485 24.3438 24.4496 24.3388 24.4499C25.0087 23.7292 25.8245 23.3047 26.7061 23.3047C27.0309 23.3047 27.2942 23.0487 27.2942 22.7329V18.7296H28.4706V26.7362H24.353Z" fill="#383E41"/>
</svg>
