<svg width="380" height="248" viewBox="0 0 380 248" fill="none" xmlns="http://www.w3.org/2000/svg">
<path d="M153.431 72.11C147.681 77.44 144.581 79.5 141.431 80.18C140.358 80.4032 139.266 80.5171 138.171 80.52C137.401 80.52 136.971 80.69 136.971 81.12C136.971 81.55 137.481 81.81 138.431 81.81H144.871C152.691 81.81 154.871 80.35 159.811 75.37C160.311 74.86 159.901 75.17 160.421 74.62C159.171 72.62 158.151 70.52 157.061 68.46C155.181 70.4 154.551 71.06 153.431 72.11Z" fill="#919295"/>
<path d="M181.341 50.8899C182.111 49.9399 182.891 49.2599 183.491 48.4899V47.3699C180.491 44.7099 168.971 32.9399 163.821 27.5299C158.491 21.9499 157.891 20.5299 157.891 19.6299C157.891 18.9399 158.231 18.4299 159.891 18.0799C160.751 17.9099 161.091 17.7399 161.091 17.3899C161.091 17.0399 160.661 16.8799 159.891 16.8799C157.741 16.8799 155.681 17.1399 152.681 17.1399C150.021 17.1399 145.551 16.8799 144.091 16.8799C142.971 16.8799 142.631 17.0499 142.631 17.4799C142.631 17.9099 143.061 17.9999 144.181 18.1699C145.55 18.3057 146.895 18.6218 148.181 19.1099C150.581 19.9699 152.391 20.9999 157.541 26.1099C164.151 32.7199 175.411 43.7999 177.541 46.1099C175.641 48.2699 170.291 54.4499 164.361 60.8599C165.361 63.0099 166.361 64.8599 167.551 66.9399C172.401 61.4899 176.621 56.4199 181.341 50.8899Z" fill="#919295"/>
<path d="M211.11 75.6001C208.92 73.3801 207.83 71.9401 205.38 69.1801L187.38 105.68C187.307 105.821 187.198 105.939 187.063 106.021C186.928 106.104 186.773 106.147 186.615 106.147C186.457 106.147 186.301 106.104 186.167 106.021C186.032 105.939 185.922 105.821 185.85 105.68C181 96.8101 173.43 82.0001 166.48 68.1701L163.3 61.8301C157.51 50.2501 152.62 40.2501 150.93 36.4201C150.12 34.5101 147.02 28.1801 146.34 26.6701C146.06 26.0501 143.24 26.2501 141.34 26.2501C140.34 26.2501 133.56 26.1201 128.87 26.1201C127.09 26.1201 125.93 26.5101 125.93 27.1201C125.93 27.7301 126.58 28.0101 127.87 28.0101C130.538 27.9354 133.189 28.4582 135.63 29.5401C137.73 30.6901 140.15 32.8601 144.52 41.5401C145.97 44.4501 151.58 55.1201 158.06 67.4501L161.37 73.7501L162.62 76.1301C172.48 94.7701 185.62 124.64 189.14 124.51C191.08 124.44 191.6 124.43 196.07 116.6L214.99 79.2401C214.09 78.5301 212.11 76.6001 211.11 75.6001Z" fill="#383E41"/>
<path d="M250.48 26.2499C243.17 26.2499 230.04 26.1599 226.56 26.1599C226.253 26.1728 225.957 26.2741 225.707 26.4516C225.457 26.629 225.263 26.875 225.15 27.1599C224.21 29.0599 221.15 36.2799 219.62 39.3799L210.1 59.1299C213.117 62.7164 216.35 66.116 219.78 69.3099L235.61 38.3699C239.17 31.2199 241.61 29.8199 247.24 28.5399C249.265 28.1702 251.321 27.9994 253.38 28.0299C254.38 28.0299 254.67 27.6499 254.67 27.1399C254.68 26.3799 253.06 26.2499 250.48 26.2499Z" fill="#383E41"/>
<path d="M234.789 79.8099C233.717 79.8047 232.648 79.6907 231.599 79.4699C228.489 78.7999 225.389 76.7099 219.749 71.4699L219.149 70.8999C216.879 68.6999 213.149 64.7599 209.309 60.5799C203.889 54.6999 198.199 48.3599 195.949 45.8099C197.669 43.9999 202.949 38.7299 208.099 33.6399C210.819 30.9399 213.529 28.2499 215.729 26.0499C221.039 20.7399 222.729 19.8799 224.979 19.0499C226.221 18.5777 227.518 18.2685 228.839 18.1299C229.839 17.9699 230.689 17.7899 230.689 17.1299C230.689 16.1299 229.549 16.1299 228.869 16.1299C228.189 16.1299 227.079 16.1299 225.729 16.2299C223.889 16.2999 221.799 16.3899 220.279 16.3899C218.759 16.3899 217.279 16.3099 216.079 16.2499C215.079 16.1899 214.079 16.1399 213.079 16.1399C211.789 16.1399 211.519 16.6199 211.519 17.0199C211.519 17.7599 212.419 17.9399 213.009 18.0199C214.699 18.3799 214.699 18.8799 214.699 19.2099C214.699 19.9899 214.249 21.2099 208.869 26.8599C204.099 31.8599 193.539 42.6799 189.869 46.1299V41.4399C189.869 28.0599 189.869 25.6499 190.039 22.9099C190.219 19.8299 190.919 18.7199 192.929 18.3499C193.614 18.2085 194.31 18.1249 195.009 18.0999C195.133 18.108 195.257 18.0917 195.374 18.0518C195.491 18.012 195.599 17.9494 195.692 17.8676C195.785 17.7858 195.861 17.6865 195.915 17.5754C195.97 17.4642 196.002 17.3434 196.009 17.2199C196.009 16.2199 194.789 16.2199 194.269 16.2199C192.429 16.2199 189.269 16.3499 187.409 16.4299L186.019 16.4799H184.699C182.909 16.4099 179.559 16.2699 177.519 16.2699C176.999 16.2699 175.779 16.2699 175.779 17.2699C175.787 17.3934 175.819 17.5142 175.873 17.6254C175.928 17.7365 176.004 17.8358 176.097 17.9176C176.189 17.9993 176.298 18.062 176.415 18.1018C176.532 18.1417 176.656 18.158 176.779 18.1499C177.649 18.1575 178.515 18.2682 179.359 18.4799C181.069 18.8699 181.839 20.1699 181.999 22.9599C182.159 25.7499 182.169 28.1099 182.169 41.4899V56.5499C182.169 64.4399 182.009 71.3999 181.739 75.1599C181.479 78.2199 180.909 79.3499 179.439 79.6499C178.734 79.8142 178.013 79.898 177.289 79.8999C176.569 79.8999 175.979 80.2899 175.979 80.7799C175.979 81.7799 176.789 81.7799 177.539 81.7799C179.379 81.7799 182.609 81.6499 184.539 81.5699L185.959 81.5199H186.959C188.849 81.5899 192.799 81.7399 196.429 81.7399C197.519 81.7399 198.079 81.3899 198.079 80.7399C198.079 80.3399 197.689 79.8599 196.599 79.8599C195.466 79.8367 194.334 79.7532 193.209 79.6099C191.019 79.3199 190.449 77.8099 190.209 75.1199C189.779 71.5299 189.779 64.9099 189.779 56.5199V49.1099L190.189 49.5399C190.549 49.9199 190.919 50.3099 191.299 50.7699L194.569 54.6199C198.179 58.8799 202.089 63.4799 205.839 67.6899C208.299 70.4499 210.679 73.0499 212.839 75.2699C213.839 76.2699 214.729 77.1299 215.579 77.8699C218.939 80.7999 221.669 81.8199 228.039 81.8199H234.479C234.979 81.8199 236.299 81.8199 236.299 80.8199C236.349 80.1399 235.829 79.8099 234.789 79.8099Z" fill="#383E41"/>
<path d="M165.23 113.55H2.98047L2.99047 111.29H165.24L165.23 113.55Z" fill="#383E41"/>
<path d="M377.58 113.55H215.33L215.34 111.29H377.59L377.58 113.55Z" fill="#383E41"/>
<path d="M378.379 184.11H2.18945V186.36H378.379V184.11Z" fill="#383E41"/>
<path d="M190.28 190.01C192.914 190.01 195.05 187.874 195.05 185.24C195.05 182.606 192.914 180.47 190.28 180.47C187.645 180.47 185.51 182.606 185.51 185.24C185.51 187.874 187.645 190.01 190.28 190.01Z" fill="#383E41"/>
<path d="M65.0898 229.29L71.6298 221.95L65.6298 215.26H67.1698L73.3398 222.26V215.26H74.5598V222.26L80.6998 215.26H82.2598L76.2598 221.95L82.7999 229.29H81.3098L75.5198 222.68L74.5698 223.73V229.28H73.3598V223.73L72.4099 222.68L66.6199 229.29H65.0898Z" fill="#383E41"/>
<path d="M89.3008 229.29V215.29H90.5008V227.18L99.3008 215.29H100.521V229.29H99.3208V217.24L90.4808 229.3L89.3008 229.29Z" fill="#383E41"/>
<path d="M106.189 228.45C107.979 228.45 109.049 227.38 109.719 222.18L110.629 215.26H118.519V229.26H117.299V216.35H111.699L110.939 222.28C110.119 228.57 108.519 229.54 106.189 229.54V228.45Z" fill="#383E41"/>
<path d="M125.67 222.29C125.67 218.19 128.36 215.03 132.49 215.03C136.62 215.03 139.31 218.19 139.31 222.29C139.31 226.39 136.6 229.55 132.49 229.55C128.38 229.55 125.67 226.39 125.67 222.29ZM138.04 222.29C138.04 218.71 135.85 216.12 132.48 216.12C129.11 216.12 126.93 218.71 126.93 222.29C126.93 225.87 129.08 228.46 132.48 228.46C135.88 228.46 138 225.82 138 222.29H138.04Z" fill="#383E41"/>
<path d="M147 229.29V215.29H148.2V227.18L157 215.29H158.22V229.29H157V217.24L148.16 229.3L147 229.29ZM152.62 214.39C151.902 214.389 151.194 214.221 150.552 213.9C149.91 213.579 149.352 213.114 148.92 212.54L149.53 212.01C149.879 212.503 150.342 212.905 150.881 213.18C151.419 213.455 152.016 213.596 152.62 213.59C153.224 213.592 153.819 213.449 154.356 213.174C154.894 212.9 155.358 212.5 155.71 212.01L156.3 212.54C155.876 213.12 155.32 213.591 154.679 213.914C154.037 214.238 153.328 214.404 152.61 214.4L152.62 214.39Z" fill="#383E41"/>
<path d="M184.101 229.29L178.311 222.68L176.751 224.38V229.28H175.551V215.28H176.751V222.96L183.531 215.28H185.071L179.071 221.97L185.611 229.31L184.101 229.29Z" fill="#383E41"/>
<path d="M191.57 222.29C191.57 218.19 194.26 215.03 198.39 215.03C202.52 215.03 205.21 218.19 205.21 222.29C205.21 226.39 202.5 229.55 198.39 229.55C194.28 229.55 191.57 226.39 191.57 222.29ZM203.94 222.29C203.94 218.71 201.75 216.12 198.38 216.12C195.01 216.12 192.83 218.71 192.83 222.29C192.83 225.87 194.98 228.46 198.38 228.46C201.78 228.46 203.94 225.82 203.94 222.29Z" fill="#383E41"/>
<path d="M224.281 229.29V216.9L219.171 229.29H218.711L213.581 216.9V229.29H212.381V215.29H214.171L218.951 226.86L223.711 215.29H225.521V229.29H224.281Z" fill="#383E41"/>
<path d="M243.289 229.29V216.35H234.389V229.29H233.189V215.29H244.509V229.29H243.289Z" fill="#383E41"/>
<path d="M251.18 228.45C252.97 228.45 254.04 227.38 254.71 222.18L255.62 215.26H263.51V229.26H262.29V216.35H256.69L255.93 222.28C255.11 228.57 253.51 229.54 251.18 229.54V228.45Z" fill="#383E41"/>
<path d="M271.18 229.29V215.29H280.08V216.38H272.38V221.58H279.93V222.67H272.38V228.22H280.08V229.31L271.18 229.29Z" fill="#383E41"/>
<path d="M295.8 229.29L290 222.69L288.44 224.39V229.29H287.24V215.29H288.44V222.97L295.22 215.29H296.76L290.76 221.98L297.3 229.32L295.8 229.29Z" fill="#383E41"/>
<path d="M303.26 222.29C303.224 221.34 303.383 220.392 303.726 219.505C304.068 218.618 304.588 217.811 305.254 217.131C305.919 216.452 306.716 215.915 307.595 215.554C308.475 215.193 309.419 215.014 310.37 215.03C311.356 215.017 312.331 215.234 313.219 215.665C314.106 216.095 314.88 216.727 315.48 217.51L314.48 218.16C313.999 217.531 313.377 217.023 312.666 216.676C311.954 216.329 311.172 216.152 310.38 216.16C308.788 216.224 307.282 216.902 306.178 218.051C305.075 219.2 304.458 220.732 304.458 222.325C304.458 223.918 305.075 225.45 306.178 226.599C307.282 227.748 308.788 228.426 310.38 228.49C311.172 228.498 311.954 228.321 312.666 227.974C313.377 227.627 313.999 227.119 314.48 226.49L315.48 227.12C314.884 227.909 314.111 228.546 313.224 228.981C312.336 229.415 311.358 229.634 310.37 229.62C309.413 229.636 308.463 229.456 307.578 229.09C306.694 228.725 305.894 228.182 305.227 227.495C304.561 226.808 304.043 225.991 303.704 225.096C303.366 224.201 303.215 223.246 303.26 222.29V222.29Z" fill="#383E41"/>
<path d="M35.6995 165V138.62H18.3795V165H14.6895V135.33H39.3895V165H35.6995Z" fill="#383E41"/>
<path d="M45 165L53 152.92C50.835 152.794 48.8077 151.817 47.3598 150.202C45.9119 148.587 45.1608 146.466 45.27 144.3C45.27 138.84 49.13 135.37 54.6 135.37H66.5V165H62.77V153.18H56.77L49.27 165H45ZM62.81 150V138.62H55C51.54 138.62 49.09 140.93 49.09 144.26C49.0733 145.03 49.2166 145.796 49.5108 146.508C49.805 147.22 50.2436 147.863 50.799 148.397C51.3545 148.93 52.0146 149.343 52.7377 149.609C53.4608 149.875 54.2311 149.987 55 149.94L62.81 150Z" fill="#383E41"/>
<path d="M80.6805 165V138.62H71.3105V135.33H93.7805V138.62H84.3706V165H80.6805Z" fill="#383E41"/>
<path d="M102.37 135.33V147.1H110.59C116.45 147.1 119.87 151.19 119.87 156.03C119.87 160.87 116.54 164.96 110.59 164.96H98.6797V135.33H102.37ZM102.37 150.39V161.67H110.14C113.65 161.67 116.05 159.36 116.05 156.03C116.05 152.7 113.65 150.39 110.14 150.39H102.37ZM123.07 165V135.33H126.76V165H123.07Z" fill="#383E41"/>
<path d="M133.699 165V135.33H137.389V158.47L154.439 135.33H158.209V165H154.519V141.32L137.249 165H133.699ZM145.999 133.64C144.482 133.638 142.986 133.284 141.629 132.605C140.272 131.927 139.091 130.943 138.179 129.73L139.819 128.31C140.512 129.303 141.435 130.113 142.51 130.67C143.585 131.228 144.779 131.516 145.989 131.51C147.196 131.527 148.388 131.243 149.458 130.684C150.528 130.126 151.443 129.31 152.119 128.31L153.759 129.73C152.864 130.946 151.695 131.934 150.347 132.613C148.999 133.293 147.509 133.644 145.999 133.64V133.64Z" fill="#383E41"/>
<path d="M194.53 165L183.29 151.68L180.29 155.05V165H176.6V135.33H180.29V150.65L193.39 135.33H198L185.65 149.41L199.1 165H194.53Z" fill="#383E41"/>
<path d="M203.33 165V135.33H216.52C221.67 135.33 224.83 138.44 224.83 142.88C224.887 144.441 224.399 145.973 223.451 147.213C222.502 148.454 221.151 149.326 219.63 149.68C222.78 150.17 225.4 153.41 225.4 156.96C225.4 161.71 222.25 164.96 216.83 164.96L203.33 165ZM221 143.41C221 140.74 219.22 138.61 215.89 138.61H207V148.16H215.88C219.23 148.17 221 146.12 221 143.41ZM221.58 156.56C221.58 153.85 219.71 151.45 216.07 151.45H207V161.67H216.06C219.54 161.67 221.59 159.71 221.59 156.56H221.58Z" fill="#383E41"/>
<path d="M252.431 165L249.811 158.43H235.061L232.441 165H228.221L240.121 135.37H244.691L256.641 165H252.431ZM242.431 139.2L236.121 155.14H248.691L242.431 139.2Z" fill="#383E41"/>
<path d="M260.52 165V135.33H272.42C278.42 135.33 281.7 139.42 281.7 144.26C281.7 149.1 278.28 153.19 272.42 153.19H264.2V165H260.52ZM277.89 144.3C277.89 140.97 275.49 138.66 271.98 138.66H264.21V149.9H272C275.49 149.9 277.89 147.59 277.89 144.26V144.3Z" fill="#383E41"/>
<path d="M293.94 165V138.62H284.57V135.33H307V138.62H297.58V165H293.94Z" fill="#383E41"/>
<path d="M333.079 165L330.459 158.43H315.709L313.089 165H308.869L320.769 135.37H325.339L337.299 165H333.079ZM323.079 139.2L316.769 155.14H329.339L323.079 139.2Z" fill="#383E41"/>
<path d="M339.14 162.2C342.69 162.2 344.69 160.2 345.94 150.2L347.76 135.32H365.88V165H362.19V138.62H351L349.53 150.48C347.93 163.48 344.38 165.48 339.09 165.48L339.14 162.2Z" fill="#383E41"/>
</svg>
