<svg width="380" height="248" viewBox="0 0 380 248" fill="none" xmlns="http://www.w3.org/2000/svg">
<path d="M82 174.6H83.4V184.5H82V174.6ZM92.2 183.2C91.9 183.6 91.6 183.9 91 184.1C90.5 184.3 89.9 184.4 89.1 184.4H83.1V183.3H88.9C89.4 183.3 89.8 183.2 90.1 183.1C90.4 183 90.7 182.8 90.8 182.5C91 182.2 91 181.9 91 181.6C91 181.2 90.9 180.9 90.7 180.6C90.5 180.3 90.2 180.1 89.9 180C89.6 179.9 89.1 179.8 88.7 179.8H83V178.7H88.7C89 178.7 89.3 178.7 89.5 178.6C89.7 178.5 89.9 178.4 90.1 178.3C90.3 178.2 90.4 178 90.5 177.8C90.6 177.6 90.6 177.4 90.6 177.1C90.6 176.8 90.5 176.5 90.4 176.2C90.2 176 90 175.8 89.7 175.7C89.4 175.6 89 175.5 88.6 175.5H83V174.4H88.9C89.4 174.4 89.8 174.5 90.2 174.6C90.6 174.7 90.9 174.9 91.2 175.1C91.5 175.3 91.7 175.6 91.8 175.9C91.9 176.2 92 176.6 92 176.9C92 177.2 92 177.5 91.9 177.8C91.8 178.1 91.7 178.3 91.5 178.5C91.3 178.7 91.1 178.9 90.8 179C90.5 179.1 90.2 179.2 89.8 179.3L89.7 179.1C90.3 179.1 90.8 179.3 91.3 179.5C91.7 179.7 92.1 180 92.3 180.4C92.5 180.8 92.6 181.2 92.6 181.7C92.6 182.4 92.4 182.8 92.2 183.2Z" fill="#383E41"/>
<path d="M107.601 182.1C107.401 182.7 107.001 183.1 106.501 183.5C106.001 183.9 105.501 184.2 104.801 184.4C104.101 184.6 103.401 184.7 102.601 184.7C101.801 184.7 101.001 184.6 100.401 184.4C99.7008 184.2 99.2008 183.9 98.7008 183.5C98.2008 183.1 97.9008 182.7 97.7008 182.1C97.5008 181.5 97.3008 180.9 97.3008 180.2V174.6H98.7008V180.2C98.7008 180.9 98.9008 181.5 99.2008 182C99.5008 182.5 100.001 182.9 100.501 183.1C101.101 183.3 101.801 183.5 102.601 183.5C103.201 183.5 103.801 183.4 104.301 183.3C104.801 183.2 105.201 182.9 105.501 182.7C105.801 182.4 106.101 182.1 106.301 181.7C106.501 181.3 106.601 180.8 106.601 180.3V174.7H108.001V180.3C108.001 180.9 107.901 181.5 107.601 182.1Z" fill="#383E41"/>
<path d="M114 181.2C114.1 181.7 114.3 182.1 114.7 182.4C115.1 182.7 115.5 183 116.1 183.2C116.7 183.4 117.4 183.5 118.2 183.5C118.9 183.5 119.4 183.5 119.9 183.4C120.4 183.3 120.8 183.2 121.1 183.1C121.4 183 121.7 182.8 121.8 182.6C122 182.4 122 182.1 122 181.9C122 181.5 121.9 181.3 121.7 181C121.5 180.8 121.2 180.6 120.8 180.5C120.4 180.4 119.8 180.3 119.2 180.2L116.6 180C116 179.9 115.5 179.8 115 179.7C114.5 179.6 114.1 179.4 113.8 179.2C113.5 179 113.2 178.8 113.1 178.4C112.9 178.1 112.9 177.7 112.9 177.3C112.9 176.9 113 176.5 113.2 176.1C113.4 175.7 113.7 175.4 114.2 175.2C114.6 175 115.2 174.8 115.8 174.6C116.4 174.5 117.1 174.4 117.9 174.4C119 174.4 119.9 174.5 120.7 174.7C121.4 174.9 122 175.3 122.5 175.7C122.9 176.1 123.2 176.7 123.3 177.3L121.9 177.5C121.7 176.8 121.4 176.3 120.7 176C120.1 175.7 119.1 175.5 117.9 175.5C117.3 175.5 116.8 175.5 116.3 175.6C115.9 175.7 115.5 175.8 115.2 175.9C114.9 176 114.7 176.2 114.5 176.4C114.4 176.6 114.3 176.8 114.3 177.1C114.3 177.5 114.4 177.7 114.6 177.9C114.8 178.1 115.1 178.2 115.5 178.4C115.9 178.5 116.4 178.6 117.1 178.7L119.7 178.9C120.5 179 121.2 179.2 121.8 179.3C122.4 179.5 122.8 179.8 123.1 180.1C123.4 180.5 123.5 180.9 123.5 181.5C123.5 182 123.4 182.4 123.1 182.8C122.9 183.2 122.5 183.5 122.1 183.7C121.7 183.9 121.1 184.1 120.4 184.3C119.7 184.4 119 184.5 118.1 184.5C117.3 184.5 116.5 184.4 115.9 184.3C115.2 184.2 114.7 184 114.2 183.7C113.7 183.4 113.3 183.1 113 182.7C112.7 182.3 112.5 181.8 112.4 181.3L114 181.2Z" fill="#383E41"/>
<path d="M128.6 174.6H130V184.5H128.6V174.6Z" fill="#383E41"/>
<path d="M135.9 174.6H137.2V184.5H135.9V174.6ZM136.4 175.3L136.9 174.6H137.4L146.3 183.7L145.7 184.4H145.4L136.4 175.3ZM145.4 174.6H146.7V184.5H145.4V174.6Z" fill="#383E41"/>
<path d="M152.699 174.6H154.099V184.5H152.699V174.6ZM153.599 174.6H161.999V175.7H153.599V174.6ZM153.599 178.9H161.199V180H153.599V178.9ZM153.599 183.4H161.999V184.5H153.599V183.4Z" fill="#383E41"/>
<path d="M167.401 181.2C167.501 181.7 167.701 182.1 168.101 182.4C168.501 182.7 168.901 183 169.501 183.2C170.101 183.4 170.801 183.5 171.601 183.5C172.301 183.5 172.801 183.5 173.301 183.4C173.801 183.3 174.201 183.2 174.501 183.1C174.801 183 175.101 182.8 175.201 182.6C175.401 182.4 175.401 182.1 175.401 181.9C175.401 181.5 175.301 181.3 175.101 181C174.901 180.8 174.601 180.6 174.201 180.5C173.801 180.4 173.201 180.3 172.601 180.2L170.001 180C169.401 179.9 168.901 179.8 168.401 179.7C167.901 179.6 167.501 179.4 167.201 179.2C166.901 179 166.601 178.8 166.501 178.4C166.301 178.1 166.301 177.7 166.301 177.3C166.301 176.9 166.401 176.5 166.601 176.1C166.801 175.7 167.101 175.4 167.601 175.2C168.001 175 168.601 174.8 169.201 174.6C169.801 174.5 170.501 174.4 171.301 174.4C172.401 174.4 173.301 174.5 174.101 174.7C174.801 174.9 175.401 175.3 175.901 175.7C176.301 176.1 176.601 176.7 176.701 177.3L175.301 177.5C175.101 176.8 174.801 176.3 174.101 176C173.501 175.7 172.501 175.5 171.301 175.5C170.701 175.5 170.201 175.5 169.701 175.6C169.301 175.7 168.901 175.8 168.601 175.9C168.301 176 168.101 176.2 167.901 176.4C167.801 176.6 167.701 176.8 167.701 177.1C167.701 177.5 167.801 177.7 168.001 177.9C168.201 178.1 168.501 178.2 168.901 178.4C169.301 178.5 169.801 178.6 170.501 178.7L173.101 178.9C173.901 179 174.601 179.2 175.201 179.3C175.801 179.5 176.201 179.8 176.501 180.1C176.801 180.5 176.901 180.9 176.901 181.5C176.901 182 176.801 182.4 176.501 182.8C176.301 183.2 175.901 183.5 175.501 183.7C175.101 183.9 174.501 184.1 173.801 184.3C173.101 184.4 172.401 184.5 171.501 184.5C170.701 184.5 169.901 184.4 169.301 184.3C168.601 184.2 168.101 184 167.601 183.7C167.101 183.4 166.701 183.1 166.401 182.7C166.101 182.3 165.901 181.8 165.801 181.3L167.401 181.2Z" fill="#383E41"/>
<path d="M182.299 181.2C182.399 181.7 182.599 182.1 182.999 182.4C183.399 182.7 183.799 183 184.399 183.2C184.999 183.4 185.699 183.5 186.499 183.5C187.199 183.5 187.699 183.5 188.199 183.4C188.699 183.3 189.099 183.2 189.399 183.1C189.699 183 189.999 182.8 190.099 182.6C190.299 182.4 190.299 182.1 190.299 181.9C190.299 181.5 190.199 181.3 189.999 181C189.799 180.8 189.499 180.6 189.099 180.5C188.699 180.4 188.099 180.3 187.499 180.2L184.899 180C184.299 179.9 183.799 179.8 183.299 179.7C182.799 179.6 182.399 179.4 182.099 179.2C181.799 179 181.499 178.8 181.399 178.4C181.199 178.1 181.199 177.7 181.199 177.3C181.199 176.9 181.299 176.5 181.499 176.1C181.699 175.7 181.999 175.4 182.499 175.2C182.899 175 183.499 174.8 184.099 174.6C184.699 174.5 185.399 174.4 186.199 174.4C187.299 174.4 188.199 174.5 188.999 174.7C189.699 174.9 190.299 175.3 190.799 175.7C191.199 176.1 191.499 176.7 191.599 177.3L190.199 177.5C189.999 176.8 189.699 176.3 188.999 176C188.399 175.7 187.399 175.5 186.199 175.5C185.599 175.5 185.099 175.5 184.599 175.6C184.199 175.7 183.799 175.8 183.499 175.9C183.199 176 182.999 176.2 182.799 176.4C182.699 176.6 182.599 176.8 182.599 177.1C182.599 177.5 182.699 177.7 182.899 177.9C183.099 178.1 183.399 178.2 183.799 178.4C184.199 178.5 184.699 178.6 185.399 178.7L187.999 178.9C188.799 179 189.499 179.2 190.099 179.3C190.699 179.5 191.099 179.8 191.399 180.1C191.699 180.5 191.799 180.9 191.799 181.5C191.799 182 191.699 182.4 191.399 182.8C191.199 183.2 190.799 183.5 190.399 183.7C189.999 183.9 189.399 184.1 188.699 184.3C187.999 184.4 187.299 184.5 186.399 184.5C185.599 184.5 184.799 184.4 184.199 184.3C183.499 184.2 182.999 184 182.499 183.7C181.999 183.4 181.599 183.1 181.299 182.7C180.999 182.3 180.799 181.8 180.699 181.3L182.299 181.2Z" fill="#383E41"/>
<path d="M202.999 177.8C203.199 177.3 203.399 176.8 203.799 176.4C204.099 176 204.599 175.6 204.999 175.3C205.499 175 206.099 174.8 206.699 174.6C207.299 174.4 207.999 174.4 208.799 174.4C209.899 174.4 210.799 174.5 211.599 174.8C212.399 175.1 212.999 175.4 213.499 175.9C213.999 176.4 214.299 177 214.499 177.7L213.099 178C212.999 177.5 212.699 177 212.299 176.6C211.899 176.2 211.499 176 210.899 175.8C210.299 175.6 209.599 175.5 208.799 175.5C208.199 175.5 207.699 175.6 207.199 175.7C206.699 175.8 206.299 176 205.899 176.2C205.499 176.4 205.199 176.7 204.999 177C204.699 177.3 204.499 177.7 204.399 178.1C204.299 178.5 204.199 179 204.199 179.5C204.199 180 204.299 180.4 204.399 180.9C204.499 181.3 204.699 181.7 204.999 182C205.299 182.3 205.599 182.6 205.899 182.8C206.299 183 206.699 183.2 207.199 183.3C207.699 183.4 208.199 183.5 208.799 183.5C209.599 183.5 210.299 183.4 210.899 183.2C211.499 183 211.999 182.7 212.399 182.3C212.799 181.9 212.999 181.4 213.099 180.9L214.499 181.2C214.299 181.9 213.999 182.6 213.499 183.1C212.999 183.6 212.399 184 211.599 184.2C210.799 184.5 209.899 184.6 208.799 184.6C208.199 184.6 207.599 184.5 206.999 184.4C206.499 184.3 205.999 184.1 205.499 183.9C204.999 183.7 204.699 183.4 204.299 183.2C203.999 182.9 203.699 182.6 203.399 182.2C203.199 181.8 202.999 181.4 202.899 181C202.799 180.5 202.699 180.1 202.699 179.6C202.699 178.9 202.799 178.4 202.999 177.8Z" fill="#383E41"/>
<path d="M219.301 174.6H220.701V184.5H219.301V174.6ZM219.701 183.3H227.901V184.4H219.701V183.3Z" fill="#383E41"/>
<path d="M236.9 175.5H237.4L232.5 184.5H231L236.5 174.6H237.9L243.4 184.5H241.9L236.9 175.5ZM233.7 180.7H240.6L240.9 181.8H233.4L233.7 180.7Z" fill="#383E41"/>
<path d="M247.901 181.2C248.001 181.7 248.201 182.1 248.601 182.4C249.001 182.7 249.401 183 250.001 183.2C250.601 183.4 251.301 183.5 252.101 183.5C252.801 183.5 253.301 183.5 253.801 183.4C254.301 183.3 254.701 183.2 255.001 183.1C255.301 183 255.601 182.8 255.701 182.6C255.901 182.4 255.901 182.1 255.901 181.9C255.901 181.5 255.801 181.3 255.601 181C255.401 180.8 255.101 180.6 254.701 180.5C254.301 180.4 253.701 180.3 253.101 180.2L250.501 180C249.901 179.9 249.401 179.8 248.901 179.7C248.401 179.6 248.001 179.4 247.701 179.2C247.401 179 247.101 178.8 247.001 178.4C246.801 178.1 246.801 177.7 246.801 177.3C246.801 176.9 246.901 176.5 247.101 176.1C247.301 175.7 247.601 175.4 248.101 175.2C248.501 175 249.101 174.8 249.701 174.6C250.301 174.5 251.001 174.4 251.801 174.4C252.901 174.4 253.801 174.5 254.601 174.7C255.301 174.9 255.901 175.3 256.401 175.7C256.801 176.1 257.101 176.7 257.201 177.3L255.801 177.5C255.601 176.8 255.301 176.3 254.601 176C254.001 175.7 253.001 175.5 251.801 175.5C251.201 175.5 250.701 175.5 250.201 175.6C249.801 175.7 249.401 175.8 249.101 175.9C248.801 176 248.601 176.2 248.401 176.4C248.301 176.6 248.201 176.8 248.201 177.1C248.201 177.5 248.301 177.7 248.501 177.9C248.701 178.1 249.001 178.2 249.401 178.4C249.801 178.5 250.301 178.6 251.001 178.7L253.601 178.9C254.401 179 255.101 179.2 255.701 179.3C256.301 179.5 256.701 179.8 257.001 180.1C257.301 180.5 257.401 180.9 257.401 181.5C257.401 182 257.301 182.4 257.001 182.8C256.801 183.2 256.401 183.5 256.001 183.7C255.601 183.9 255.001 184.1 254.301 184.3C253.601 184.4 252.901 184.5 252.001 184.5C251.201 184.5 250.401 184.4 249.801 184.3C249.101 184.2 248.601 184 248.101 183.7C247.601 183.4 247.201 183.1 246.901 182.7C246.601 182.3 246.401 181.8 246.301 181.3L247.901 181.2Z" fill="#383E41"/>
<path d="M262.901 181.2C263.001 181.7 263.201 182.1 263.601 182.4C264.001 182.7 264.401 183 265.001 183.2C265.601 183.4 266.301 183.5 267.101 183.5C267.801 183.5 268.301 183.5 268.801 183.4C269.301 183.3 269.701 183.2 270.001 183.1C270.301 183 270.601 182.8 270.701 182.6C270.901 182.4 270.901 182.1 270.901 181.9C270.901 181.5 270.801 181.3 270.601 181C270.401 180.8 270.101 180.6 269.701 180.5C269.301 180.4 268.701 180.3 268.101 180.2L265.501 180C264.901 179.9 264.401 179.8 263.901 179.7C263.401 179.6 263.001 179.4 262.701 179.2C262.401 179 262.101 178.8 262.001 178.4C261.801 178.1 261.801 177.7 261.801 177.3C261.801 176.9 261.901 176.5 262.101 176.1C262.301 175.7 262.601 175.4 263.101 175.2C263.501 175 264.101 174.8 264.701 174.6C265.301 174.5 266.001 174.4 266.801 174.4C267.901 174.4 268.801 174.5 269.601 174.7C270.301 174.9 270.901 175.3 271.401 175.7C271.801 176.1 272.101 176.7 272.201 177.3L270.801 177.5C270.601 176.8 270.301 176.3 269.601 176C269.001 175.7 268.001 175.5 266.801 175.5C266.201 175.5 265.701 175.5 265.201 175.6C264.801 175.7 264.401 175.8 264.101 175.9C263.801 176 263.601 176.2 263.401 176.4C263.301 176.6 263.201 176.8 263.201 177.1C263.201 177.5 263.301 177.7 263.501 177.9C263.701 178.1 264.001 178.2 264.401 178.4C264.801 178.5 265.301 178.6 266.001 178.7L268.601 178.9C269.401 179 270.101 179.2 270.701 179.3C271.301 179.5 271.701 179.8 272.001 180.1C272.301 180.5 272.401 180.9 272.401 181.5C272.401 182 272.301 182.4 272.001 182.8C271.801 183.2 271.401 183.5 271.001 183.7C270.601 183.9 270.001 184.1 269.301 184.3C268.601 184.4 267.901 184.5 267.001 184.5C266.201 184.5 265.401 184.4 264.801 184.3C264.101 184.2 263.601 184 263.101 183.7C262.601 183.4 262.201 183.1 261.901 182.7C261.601 182.3 261.401 181.8 261.301 181.3L262.901 181.2Z" fill="#383E41"/>
<path d="M277.5 174.6H278.9V184.5H277.5V174.6Z" fill="#383E41"/>
<path d="M284.3 177.8C284.5 177.3 284.7 176.8 285.1 176.4C285.4 176 285.9 175.6 286.3 175.3C286.8 175 287.4 174.8 288 174.6C288.6 174.4 289.3 174.4 290.1 174.4C291.2 174.4 292.1 174.5 292.9 174.8C293.7 175.1 294.3 175.4 294.8 175.9C295.3 176.4 295.6 177 295.8 177.7L294.4 178C294.3 177.5 294 177 293.6 176.6C293.2 176.2 292.8 176 292.2 175.8C291.6 175.6 290.9 175.5 290.1 175.5C289.5 175.5 289 175.6 288.5 175.7C288 175.8 287.6 176 287.2 176.2C286.8 176.4 286.5 176.7 286.3 177C286 177.3 285.8 177.7 285.7 178.1C285.6 178.5 285.5 179 285.5 179.5C285.5 180 285.6 180.4 285.7 180.9C285.8 181.3 286 181.7 286.3 182C286.6 182.3 286.9 182.6 287.2 182.8C287.6 183 288 183.2 288.5 183.3C289 183.4 289.5 183.5 290.1 183.5C290.9 183.5 291.6 183.4 292.2 183.2C292.8 183 293.3 182.7 293.7 182.3C294.1 181.9 294.3 181.4 294.4 180.9L295.8 181.2C295.6 181.9 295.3 182.6 294.8 183.1C294.3 183.6 293.7 184 292.9 184.2C292.1 184.5 291.2 184.6 290.1 184.6C289.5 184.6 288.9 184.5 288.3 184.4C287.8 184.3 287.3 184.1 286.8 183.9C286.3 183.7 286 183.4 285.6 183.2C285.3 182.9 285 182.6 284.7 182.2C284.5 181.8 284.3 181.4 284.2 181C284.1 180.5 284 180.1 284 179.6C284 178.9 284.1 178.4 284.3 177.8Z" fill="#383E41"/>
<path d="M301 181.2C301.1 181.7 301.3 182.1 301.7 182.4C302.1 182.7 302.5 183 303.1 183.2C303.7 183.4 304.4 183.5 305.2 183.5C305.9 183.5 306.4 183.5 306.9 183.4C307.4 183.3 307.8 183.2 308.1 183.1C308.4 183 308.7 182.8 308.8 182.6C309 182.4 309 182.1 309 181.9C309 181.5 308.9 181.3 308.7 181C308.5 180.8 308.2 180.6 307.8 180.5C307.4 180.4 306.8 180.3 306.2 180.2L303.6 180C303 179.9 302.5 179.8 302 179.7C301.5 179.6 301.1 179.4 300.8 179.2C300.5 179 300.2 178.8 300.1 178.4C299.9 178.1 299.9 177.7 299.9 177.3C299.9 176.9 300 176.5 300.2 176.1C300.4 175.7 300.7 175.4 301.2 175.2C301.6 175 302.2 174.8 302.8 174.6C303.4 174.5 304.1 174.4 304.9 174.4C306 174.4 306.9 174.5 307.7 174.7C308.4 174.9 309 175.3 309.5 175.7C309.9 176.1 310.2 176.7 310.3 177.3L308.9 177.5C308.7 176.8 308.4 176.3 307.7 176C307.1 175.7 306.1 175.5 304.9 175.5C304.3 175.5 303.8 175.5 303.3 175.6C302.9 175.7 302.5 175.8 302.2 175.9C301.9 176 301.7 176.2 301.5 176.4C301.4 176.6 301.3 176.8 301.3 177.1C301.3 177.5 301.4 177.7 301.6 177.9C301.8 178.1 302.1 178.2 302.5 178.4C302.9 178.5 303.4 178.6 304.1 178.7L306.7 178.9C307.5 179 308.2 179.2 308.8 179.3C309.4 179.5 309.8 179.8 310.1 180.1C310.4 180.5 310.5 180.9 310.5 181.5C310.5 182 310.4 182.4 310.1 182.8C309.9 183.2 309.5 183.5 309.1 183.7C308.7 183.9 308.1 184.1 307.4 184.3C306.7 184.4 306 184.5 305.1 184.5C304.3 184.5 303.5 184.4 302.9 184.3C302.2 184.2 301.7 184 301.2 183.7C300.7 183.4 300.3 183.1 300 182.7C299.7 182.3 299.5 181.8 299.4 181.3L301 181.2Z" fill="#383E41"/>
<path d="M310.7 103.5L319.1 110.7L329.6 101.6L317.2 91.7002L308.8 99.5002L299.3 91.7002L289.6 100.8L296.8 107V141.3L290.8 146.7L308 157.7L316.7 147.8L309.1 143V105.2L310.7 103.5Z" fill="#383E41"/>
<path d="M243.699 64.6001L233.699 73.7001V73.8001L244.099 80.1001L254.199 70.8001L243.699 64.6001Z" fill="#383E41"/>
<path d="M243.2 103.6L248.9 93.6H233.5V74L221.3 84.6V93.3L213.6 103.6H221.3V141.4L215.5 146.7L232.9 157.7L241.8 147.8L233.5 142.5V103.6H243.2Z" fill="#383E41"/>
<path d="M263.3 91.7002L253.6 100.8L257.4 104L247.7 112.5V143.3L243.9 146.7L264.1 157.8L285.7 136.1V110.5L263.3 91.7002ZM273.4 148.3L259.9 141V106.2L273.4 117.9V148.3Z" fill="#383E41"/>
<path d="M159.8 147.2L151.4 141.9V110.5L129 91.7002L119.3 100.8L123.1 104L125.6 106.2L129.6 109.6L129.7 109.7L125.6 113.3L125.5 113.4L113.9 123.6L113.4 124.1V143.2L109.5 146.8L110.2 147.3L112 148.4L126.6 157.7L135.1 148.2L135.9 147.4L152.1 157.7L160.8 147.9L159.8 147.2ZM139.2 142.9L135 146.7L134.4 147.2L125.6 141.6V119.5L132.7 112.2L139.1 117.7V142.9H139.2Z" fill="#383E41"/>
<path d="M105.9 147.3L106.7 147.8L98.0004 157.7L80.8004 146.7L84.5004 143.4V103.7H74.4004L80.0004 93.7L84.5004 93.6V87.2L96.7004 76.5V93.7H108.1L102.4 103.7H96.7004V141.5L97.1004 141.8L105.9 147.3Z" fill="#383E41"/>
<path d="M206.501 142.2V104.4L191.301 91.7002L180.701 100.7L169.901 91.7002L160.201 100.8L167.501 107.1V142.2L163.201 146.7L176.701 157.7L186.301 147.9L179.701 142.4V107.9L184.801 103.6L194.201 111.7V142.6L190.301 146.8L203.201 157.7L213.401 147.9L206.501 142.2Z" fill="#383E41"/>
<path d="M366.401 135.7V107.3L329.301 75.4001V93.5001L354.201 114.6V148L366.401 135.7Z" fill="#383E41"/>
<path d="M353.901 148.3L344.501 157.8L328.801 149.2L328.501 149L324.301 146.7L328.501 142.9V115.3L340.601 104.7V141.2L353.901 148.3Z" fill="#383E41"/>
<path d="M43.0996 83.3001L62.1996 96.1001L73.3996 84.0001L70.4996 81.9001L67.0996 85.4001L52.3996 75.1001L30.7996 93.8001V107.2L58.9996 130.7L59.0996 148.9C59.0996 148.9 44.8996 137.5 44.1996 137C40.4996 134.1 35.0996 129.8 32.3996 132.5C30.7996 134.1 17.2996 147.4 14.0996 150.5L16.2996 152.3C20.9996 147.4 27.7996 139.4 32.1996 142.7C36.3996 145.9 36.9996 146.4 51.2996 157.5L71.1996 140.9V123L43.1996 100.5V83.3001H43.0996Z" fill="#383E41"/>
</svg>
