<svg width="380" height="248" viewBox="0 0 380 248" fill="none" xmlns="http://www.w3.org/2000/svg">
<path d="M15.3408 82.1401C15.1541 85.3934 15.0608 89.5901 15.0608 94.7301V99.3001H22.1608C34.5341 99.3001 40.7208 103.53 40.7208 111.99C40.7349 114.243 40.2191 116.467 39.215 118.484C38.211 120.501 36.7469 122.253 34.9408 123.6C30.991 126.753 26.053 128.408 21.0008 128.27C20.3941 128.27 19.4774 128.243 18.2508 128.19C15.9308 128.083 14.0974 128.03 12.7508 128.03C11.4041 128.03 9.85078 128.077 8.09078 128.17C6.75745 128.237 5.79411 128.27 5.20078 128.27V126.7C6.14705 126.332 7.01554 125.789 7.76078 125.1C8.16561 124.055 8.35606 122.94 8.32078 121.82C8.42745 120.007 8.48078 117.34 8.48078 113.82V92.1001C8.57398 89.0405 8.43357 85.9783 8.06078 82.9401C7.78078 81.5667 6.47078 80.8801 4.13078 80.8801H1.80078V78.7201H4.69078C5.29078 78.7201 6.35745 78.7601 7.89078 78.8401C9.72411 78.9201 11.1641 78.9601 12.2108 78.9601C13.2574 78.9601 14.9874 78.9301 17.4008 78.8701C23.9674 78.6967 28.7608 78.6101 31.7808 78.6101C33.722 78.5951 35.6622 78.6986 37.5908 78.9201C36.8241 81.1867 36.4174 84.6934 36.3708 89.4401H34.1408C34.0399 87.249 33.7488 85.0708 33.2708 82.9301C30.0872 82.0644 26.7998 81.6404 23.5008 81.6701C20.7742 81.6768 18.0501 81.8337 15.3408 82.1401V82.1401ZM15.2008 124.79C16.9366 125.105 18.6966 125.269 20.4608 125.28C24.5674 125.28 27.7474 124.177 30.0008 121.97C31.1457 120.801 32.0368 119.407 32.6184 117.878C33.2 116.348 33.4595 114.715 33.3808 113.08C33.3888 111.272 33.0493 109.48 32.3808 107.8C31.6413 106.042 30.3211 104.592 28.6408 103.69C26.8208 102.63 23.7174 102.1 19.3308 102.1C17.8908 102.1 16.4741 102.133 15.0808 102.2V114.58C15.0674 119.387 15.1074 122.79 15.2008 124.79V124.79Z" fill="#383E41"/>
<path d="M59.1699 104.59V113.14V118.06C59.1699 121.127 59.2033 123.37 59.2699 124.79C62.6633 125.043 66.2999 125.17 70.1799 125.17C72.3718 125.193 74.5629 125.076 76.7399 124.82C77.98 124.658 79.1978 124.356 80.3699 123.92C80.9499 121.88 81.5433 119.327 82.1499 116.26H84.4499C83.8233 121.36 83.5099 124.76 83.5099 126.46L83.5799 128.03C80.9133 128.263 78.2899 128.38 75.7099 128.38L70.2399 128.28C64.2333 128.093 59.8199 128 56.9999 128C54.2866 128 50.6766 128.08 46.1699 128.24V126.05H47.2499C49.2499 126.05 50.5199 125.853 51.0599 125.46C51.5999 125.067 51.9333 124.137 52.0599 122.67C52.2333 121.21 52.3199 117.983 52.3199 112.99V93.9C52.3199 90.7666 52.2433 88.2033 52.0899 86.21C52.0615 85.0053 51.8972 83.8077 51.5999 82.64C51.4437 82.2755 51.1826 81.9657 50.8499 81.75C49.8864 81.4039 48.8735 81.2148 47.8499 81.19L45.1699 80.91V78.72H48.9999L52.6899 78.84C54.7566 78.92 56.3233 78.96 57.3899 78.96L70.7599 78.76H77.0999C79.2599 78.76 81.4433 78.84 83.6499 79C82.6614 82.5005 82.17 86.1226 82.1899 89.76H79.7899C79.8176 87.6302 79.6906 85.5013 79.4099 83.39C76.16 82.2878 72.7405 81.7698 69.3099 81.86C66.1299 81.86 62.7966 82 59.3099 82.28C59.3099 84.46 59.2866 86.6366 59.2399 88.81L59.1699 94.16V101.22C61.4699 101.38 63.4999 101.46 65.2599 101.46C70.7866 101.46 73.9133 101.27 74.6399 100.89C75.3666 100.51 75.7333 99.32 75.7399 97.32V95H78.1099C77.9499 98.5066 77.8699 101.303 77.8699 103.39C77.8699 105.597 77.9499 108.197 78.1099 111.19H75.7499V109.19C75.7499 106.963 75.3133 105.6 74.4399 105.1C73.5666 104.6 70.4966 104.35 65.2299 104.35C63.2833 104.35 61.2633 104.43 59.1699 104.59Z" fill="#383E41"/>
<path d="M102.42 82.52C102.26 85.8534 102.18 89.4167 102.18 93.21V113.09C102.18 120.077 102.39 123.987 102.81 124.82C103.23 125.653 104.6 126.07 106.92 126.07H109.32V128.26C105.214 128.1 101.977 128.02 99.6102 128.02C97.5236 128.02 93.8202 128.1 88.5002 128.26V126.07H91.6302C92.6033 126.182 93.5873 125.994 94.4502 125.53C94.9697 124.919 95.2535 124.142 95.2502 123.34C95.3636 122.24 95.4902 118.87 95.6302 113.23V94.63L95.5302 87.42C95.4836 84.4267 95.1502 82.5934 94.5302 81.92C93.9102 81.2467 92.4669 80.9134 90.2002 80.92H88.4902V78.72C91.3902 78.8334 95.0569 78.89 99.4902 78.89C102.11 78.89 105.024 78.82 108.23 78.68C110.344 78.5867 111.944 78.54 113.03 78.54C118.65 78.54 122.737 79.56 125.29 81.6C126.53 82.5865 127.52 83.851 128.18 85.2912C128.84 86.7315 129.152 88.3069 129.09 89.89C129.072 92.4795 128.312 95.0094 126.9 97.18C125.37 99.5747 123.225 101.515 120.69 102.8C118.049 104.204 115.101 104.933 112.11 104.92C110.352 104.876 108.604 104.655 106.89 104.26L106.19 101.65C107.86 102.109 109.579 102.367 111.31 102.42C112.723 102.502 114.137 102.287 115.461 101.79C116.786 101.292 117.991 100.522 119 99.53C119.979 98.4515 120.733 97.1882 121.217 95.8145C121.701 94.4407 121.906 92.9841 121.82 91.53C121.901 90.12 121.675 88.7092 121.157 87.3952C120.639 86.0812 119.842 84.8955 118.82 83.92C116.82 82.1 113.82 81.19 109.82 81.19C107.299 81.246 104.803 81.6947 102.42 82.52V82.52Z" fill="#383E41"/>
<path d="M145.8 104.59V113.14V118.06C145.8 121.127 145.834 123.37 145.9 124.79C149.294 125.043 152.93 125.17 156.81 125.17C159.002 125.193 161.193 125.076 163.37 124.82C164.61 124.658 165.828 124.356 167 123.92C167.58 121.88 168.174 119.327 168.78 116.26H171.08C170.454 121.36 170.14 124.76 170.14 126.46L170.21 128.03C167.544 128.263 164.92 128.38 162.34 128.38L156.87 128.28C150.837 128.12 146.404 128.04 143.57 128.04C140.857 128.04 137.247 128.12 132.74 128.28V126.09H133.82C135.82 126.09 137.09 125.893 137.63 125.5C138.17 125.107 138.504 124.177 138.63 122.71C138.804 121.25 138.89 118.023 138.89 113.03V93.9C138.89 90.7666 138.814 88.2033 138.66 86.21C138.632 85.0053 138.467 83.8077 138.17 82.64C138.014 82.2755 137.753 81.9657 137.42 81.75C136.457 81.4039 135.444 81.2148 134.42 81.19L131.74 80.91V78.72H135.5L139.19 78.84C141.257 78.92 142.824 78.96 143.89 78.96L157.26 78.76H163.6C165.76 78.76 167.944 78.84 170.15 79C169.162 82.5005 168.67 86.1226 168.69 89.76H166.32C166.348 87.6302 166.221 85.5013 165.94 83.39C162.69 82.2878 159.271 81.7698 155.84 81.86C152.66 81.86 149.327 82 145.84 82.28C145.84 84.46 145.817 86.6366 145.77 88.81L145.7 94.16V101.22C148 101.38 150.03 101.46 151.79 101.46C157.317 101.46 160.444 101.27 161.17 100.89C161.897 100.51 162.264 99.32 162.27 97.32V95H164.64C164.48 98.5066 164.4 101.303 164.4 103.39C164.4 105.597 164.48 108.197 164.64 111.19H162.27V109.19C162.27 106.963 161.834 105.6 160.96 105.1C160.087 104.6 157.017 104.35 151.75 104.35C149.87 104.35 147.887 104.43 145.8 104.59Z" fill="#383E41"/>
<path d="M195.659 126.07V128.26C191.479 128.087 187.926 128 184.999 128C182.072 128 178.672 128.08 174.799 128.24V126.05H177.589C179.722 126.05 180.982 125.617 181.369 124.75C181.756 123.883 181.946 121.14 181.939 116.52V90.3099C182.03 87.7684 181.883 85.224 181.499 82.7099C181.206 81.5166 179.806 80.9199 177.299 80.9199H174.789V78.7199C178.536 78.9066 181.939 78.9999 184.999 78.9999L205.329 78.6199C207.294 78.6045 209.257 78.708 211.209 78.9299C210.402 81.1832 209.999 84.6899 209.999 89.4499H207.769C207.677 87.2778 207.385 85.1188 206.899 82.9999C203.698 82.1385 200.394 81.7179 197.079 81.7499C194.356 81.7495 191.635 81.8997 188.929 82.1999C188.649 85.1932 188.509 87.9066 188.509 90.3399V116.57C188.509 121.323 188.766 124.1 189.279 124.9C189.792 125.7 191.092 126.1 193.179 126.1L195.659 126.07Z" fill="#383E41"/>
<path d="M234.58 80.92H233.08C230.32 80.92 228.746 81.3033 228.36 82.07C227.973 82.8366 227.783 86.3066 227.79 92.48V122L235.21 111.42L245.86 95.89L257.31 78.76L262.6 79C263.34 79 265.973 78.92 270.5 78.76V80.95H267.82C265.52 80.95 264.186 81.38 263.82 82.24C263.453 83.1 263.286 86.9066 263.32 93.66V112.95C263.32 119.797 263.486 123.703 263.82 124.67C264.153 125.637 265.486 126.117 267.82 126.11H270.5V128.3C267.646 128.14 264.293 128.06 260.44 128.06C256.44 128.06 252.853 128.14 249.68 128.3V126.11H252.08C254.306 126.11 255.64 125.64 256.08 124.7C256.52 123.76 256.753 119.783 256.78 112.77V93.63C256.78 91.77 256.873 88.6233 257.06 84.19L234.58 117.3C230.146 123.82 227.663 127.28 227.13 127.68C226.596 128.08 224.473 128.58 220.76 129.18C221.133 123.467 221.32 118.417 221.32 114.03V92.48C221.32 86.5133 221.1 83.0966 220.66 82.23C220.22 81.3633 218.92 80.9266 216.76 80.92H214.18V78.72C217.78 78.88 221.076 78.96 224.07 78.96C228.176 78.96 231.68 78.88 234.58 78.72V80.92Z" fill="#383E41"/>
<path d="M287.19 103.65V113.38C287.19 115.053 287.247 117.017 287.36 119.27C287.5 122.43 287.617 124.18 287.71 124.52C287.91 124.964 288.266 125.32 288.71 125.52C289.59 125.93 290.561 126.109 291.53 126.04H293.9V128.23C290.88 128.07 287.967 127.99 285.16 127.99C282.353 127.99 278.467 128.07 273.5 128.23V126.04H275.66C278.1 126.04 279.54 125.627 279.98 124.8C280.42 123.973 280.64 120.197 280.64 113.47V92.47C280.64 86.39 280.413 82.9366 279.96 82.11C279.507 81.2833 278.213 80.87 276.08 80.87H273.5V78.72C277.327 78.88 280.89 78.96 284.19 78.96C287.49 78.96 290.727 78.88 293.9 78.72V80.91H292.4C290.24 80.91 288.907 81.0833 288.4 81.43C288.13 81.6315 287.907 81.8883 287.745 82.1833C287.583 82.4782 287.486 82.8044 287.46 83.14C287.205 86.2364 287.112 89.3439 287.18 92.45V100.45C291.313 100.61 296.57 100.69 302.95 100.69C308.357 100.69 312.757 100.61 316.15 100.45V93.65C316.177 90.3117 316.037 86.9742 315.73 83.65C315.724 83.2604 315.637 82.8763 315.475 82.5219C315.313 82.1674 315.08 81.8501 314.79 81.59C313.785 81.0637 312.648 80.8446 311.52 80.96H309V78.72C312.553 78.88 315.92 78.96 319.1 78.96C322.533 78.96 326.107 78.88 329.82 78.72V80.91H327.17C325.383 80.91 324.24 81.1066 323.74 81.5C323.453 81.7854 323.225 82.1252 323.071 82.4995C322.916 82.8737 322.838 83.275 322.84 83.68C322.733 84.74 322.68 88.0733 322.68 93.68V112.93C322.68 120.057 322.883 124.03 323.29 124.85C323.697 125.67 324.967 126.083 327.1 126.09H329.81V128.28C326.61 128.12 323.303 128.04 319.89 128.04C315.99 128.04 312.357 128.12 308.99 128.28V126.09H311.39C313.157 126.09 314.293 125.887 314.8 125.48C315.4 124.872 315.737 124.054 315.74 123.2C315.993 120.807 316.12 117.32 316.12 112.74V103.67C312.847 103.51 308.67 103.43 303.59 103.43C296.37 103.417 290.903 103.49 287.19 103.65Z" fill="#383E41"/>
<path d="M341.14 98.0001C338.865 95.6896 337.596 92.5728 337.61 89.3301C337.521 87.2791 338.094 85.2536 339.244 83.5535C340.395 81.8534 342.063 80.5689 344 79.8901C346.08 79.0434 349.127 78.6201 353.14 78.6201C354.6 78.6201 357.004 78.6768 360.35 78.7901C363.23 78.9034 365.437 78.9601 366.97 78.9601C369.244 78.9601 372.54 78.8801 376.86 78.7201V80.9101H374.98C372.614 80.9101 371.214 81.3401 370.78 82.2001C370.347 83.0601 370.134 87.0868 370.14 94.2801V111C370.14 119.287 370.327 123.867 370.7 124.74C371.074 125.613 372.257 126.05 374.25 126.05H376.86V128.24C371.62 128.08 368 128 366 128C363.467 128 360.277 128.08 356.43 128.24V126.05H359.15C361.31 126.05 362.587 125.603 362.98 124.71C363.374 123.817 363.57 119.273 363.57 111.08V94.2901C363.57 90.0901 363.43 86.1434 363.15 82.4501C360.8 81.5642 358.312 81.1037 355.8 81.0901C352.294 81.0901 349.627 81.9301 347.8 83.6101C346.859 84.5068 346.123 85.5969 345.643 86.8053C345.163 88.0137 344.951 89.3118 345.02 90.6101C344.956 92.1024 345.217 93.5908 345.785 94.9722C346.353 96.3536 347.215 97.5949 348.31 98.6101C350.504 100.61 353.537 101.61 357.41 101.61C358.077 101.61 359.077 101.553 360.41 101.44L360.76 102.62C358.14 105.547 355.68 108.547 353.38 111.62L341 128.27C339.612 128.113 338.217 128.033 336.82 128.03C335.38 128.03 333.714 128.11 331.82 128.27V126.08H332.72C333.146 126.08 333.566 125.973 333.94 125.77C334.845 125.038 335.643 124.183 336.31 123.23L342.99 114.56C346.324 110.22 349.144 106.413 351.45 103.14C346.93 102.207 343.494 100.493 341.14 98.0001Z" fill="#383E41"/>
<path d="M2.80078 141.88H59.5508V147.2H2.80078V141.88ZM8.48078 152.53L14.1608 157.85L8.48078 163.17L2.80078 157.86L8.48078 152.53ZM8.48078 173.83L14.1608 179.15L8.48078 184.47L2.80078 179.15L8.48078 173.83ZM8.48078 195.13L14.1608 200.45L8.48078 205.77L2.80078 200.45L8.48078 195.13ZM2.80078 211.13H59.5508V216.45H2.80078V211.13ZM19.8008 163.21L31.1508 173.86L36.8308 168.54L25.5008 157.86L31.1808 152.54L48.1808 168.54L36.8508 179.15L48.2008 189.8L31.2008 205.8L14.2008 189.8L25.5008 179.15L14.1508 168.51L19.8008 163.21ZM25.5008 189.8L31.1808 195.12L36.8608 189.8L31.1808 184.48L25.5008 189.8ZM53.8808 152.53L59.5608 157.85L53.8808 163.17L48.2008 157.85L53.8808 152.53ZM53.8808 173.83L59.5608 179.15L53.8808 184.47L48.2008 179.15L53.8808 173.83ZM53.8808 195.13L59.5608 200.45L53.8808 205.77L48.2008 200.45L53.8808 195.13Z" fill="#383E41"/>
<path d="M48.1992 141.88H104.999V147.2H48.1992V141.88ZM53.8792 152.53L59.5592 157.85L53.8792 163.17L48.1992 157.85L53.8792 152.53ZM53.8792 173.83L59.5592 179.15L53.8792 184.47L48.1992 179.15L53.8792 173.83ZM53.8792 195.13L59.5592 200.45L53.8792 205.77L48.1992 200.45L53.8792 195.13ZM48.1992 211.13H104.999V216.45H48.1992V211.13ZM76.5792 205.81L59.5792 189.81L70.9292 179.16L59.5492 168.51L76.5492 152.51L93.5492 168.51L87.8692 173.83L76.5792 163.18L70.8992 168.5L82.2492 179.15L70.9092 189.8L76.5892 195.12L87.9392 184.47L93.6192 189.79L76.5792 205.81ZM99.2792 152.57L104.959 157.89L99.2792 163.21L93.5992 157.89L99.2792 152.57ZM99.2792 173.87L104.959 179.19L99.2792 184.51L93.5992 179.19L99.2792 173.87ZM99.2792 195.17L104.959 200.49L99.2792 205.81L93.5992 200.49L99.2792 195.17Z" fill="#383E41"/>
<path d="M93.6094 141.88H150.369V147.2H93.6094V141.88ZM99.2894 152.53L104.969 157.85L99.2894 163.17L93.6094 157.85L99.2894 152.53ZM99.2894 173.83L104.969 179.15L99.2894 184.47L93.6094 179.15L99.2894 173.83ZM99.2894 195.13L104.969 200.45L99.2894 205.77L93.6094 200.45L99.2894 195.13ZM93.6094 211.13H150.369V216.45H93.6094V211.13ZM121.989 195.13L127.669 189.81L104.999 168.51L121.999 152.51L138.999 168.51L127.649 179.16L138.999 189.8L121.999 205.8L104.999 189.8L110.679 184.48L121.989 195.13ZM116.309 168.51L121.989 173.83L127.669 168.51L121.999 163.18L116.309 168.51ZM144.689 152.51L150.369 157.83L144.689 163.15L138.999 157.86L144.689 152.51ZM144.689 173.81L150.369 179.13L144.689 184.45L138.999 179.15L144.689 173.81ZM144.689 195.11L150.369 200.43L144.689 205.75L138.999 200.45L144.689 195.11Z" fill="#383E41"/>
<path d="M139 141.88H195.76V147.2H139V141.88ZM144.68 152.53L150.36 157.85L144.68 163.17L139 157.86L144.68 152.53ZM144.68 173.83L150.36 179.15L144.68 184.47L139 179.15L144.68 173.83ZM144.68 195.13L150.36 200.45L144.68 205.77L139 200.45L144.68 195.13ZM139 211.13H195.76V216.45H139V211.13ZM167.38 205.81L150.38 189.81L161.73 179.16L150.38 168.51L167.38 152.51L184.38 168.51L178.7 173.83L167.35 163.18L161.67 168.5L173.02 179.15L161.71 189.8L167.39 195.12L178.74 184.47L184.42 189.79L167.38 205.81ZM190.08 152.57L195.76 157.89L190.08 163.21L184.4 157.89L190.08 152.57ZM190.08 173.87L195.76 179.19L190.08 184.51L184.4 179.19L190.08 173.87ZM190.08 195.17L195.76 200.49L190.08 205.81L184.4 200.49L190.08 195.17Z" fill="#383E41"/>
<path d="M184.42 141.88H241.18V147.2H184.42V141.88ZM190.1 152.53L195.78 157.85L190.1 163.17L184.42 157.85L190.1 152.53ZM190.1 173.83L195.78 179.15L190.1 184.47L184.42 179.15L190.1 173.83ZM190.1 195.13L195.78 200.45L190.1 205.77L184.42 200.45L190.1 195.13ZM184.42 211.13H241.18V216.45H184.42V211.13ZM229.82 168.54L224.14 173.86L212.79 163.21L207.11 168.53L229.81 189.83L212.81 205.83L195.81 189.83L201.49 184.51L212.84 195.16L218.52 189.84L195.82 168.54L212.82 152.54L229.82 168.54ZM235.5 152.54L241.18 157.86L235.5 163.18L229.82 157.86L235.5 152.54ZM235.5 173.84L241.18 179.16L235.5 184.48L229.82 179.16L235.5 173.84ZM235.5 195.14L241.18 200.46L235.5 205.78L229.82 200.46L235.5 195.14Z" fill="#383E41"/>
<path d="M229.82 141.88H286.58V147.2H229.82V141.88ZM235.5 152.53L241.18 157.85L235.5 163.17L229.82 157.85L235.5 152.53ZM269.55 163.18L286.55 179.18L269.55 195.18L263.87 189.86L275.22 179.21L269.54 173.89L246.84 195.19L229.84 179.19L246.84 163.19L252.52 168.51L241.17 179.16L246.85 184.48L269.55 163.18ZM235.5 195.13L241.18 200.45L235.5 205.77L229.82 200.45L235.5 195.13ZM229.82 211.13H286.58V216.45H229.82V211.13ZM258.2 152.56L263.88 157.88L258.2 163.2L252.52 157.88L258.2 152.56ZM258.2 195.15L263.88 200.47L258.2 205.79L252.52 200.47L258.2 195.15ZM280.9 152.56L286.58 157.88L280.9 163.2L275.22 157.88L280.9 152.56ZM280.9 195.15L286.58 200.47L280.9 205.79L275.22 200.47L280.9 195.15Z" fill="#383E41"/>
<path d="M275.231 141.88H332.001V147.2H275.231V141.88ZM303.611 152.53L320.611 168.53L315.001 173.83L303.601 163.18L297.921 168.5L314.921 184.5L326.271 173.85L331.951 179.17L303.601 205.77L286.601 189.77L292.281 184.45L303.631 195.1L309.311 189.78L292.311 173.78L280.901 184.48L275.221 179.16L303.611 152.53ZM280.911 152.53L286.591 157.85L280.911 163.17L275.231 157.85L280.911 152.53ZM280.911 195.12L286.591 200.44L280.911 205.76L275.231 200.44L280.911 195.12ZM275.231 211.12H332.001V216.44H275.231V211.12ZM326.311 152.55L331.991 157.87L326.311 163.19L320.631 157.87L326.311 152.55ZM326.311 195.14L331.991 200.46L326.311 205.78L320.631 200.46L326.311 195.14Z" fill="#383E41"/>
<path d="M320.631 141.88H377.391V147.2H320.631V141.88ZM326.311 173.82L337.661 184.47L343.341 179.15L332.001 168.51L349.001 152.51L366.001 168.51L354.651 179.16L360.331 184.48L371.681 173.83L377.361 179.15L360.361 195.15L349.001 184.48L337.651 195.13L320.651 179.13L326.311 173.82ZM326.311 152.52L331.991 157.84L326.311 163.16L320.631 157.84L326.311 152.52ZM326.311 195.11L331.991 200.43L326.311 205.75L320.631 200.43L326.311 195.11ZM320.631 211.11H377.391V216.43H320.631V211.11ZM343.331 168.52L349.011 173.84L354.691 168.52L349.001 163.18L343.331 168.52ZM349.001 195.13L354.681 200.45L349.001 205.77L343.321 200.45L349.001 195.13ZM371.701 152.54L377.381 157.86L371.701 163.18L366.001 157.86L371.701 152.54ZM371.701 195.13L377.381 200.45L371.701 205.77L366.001 200.45L371.701 195.13Z" fill="#383E41"/>
<path d="M19.0001 67.2099V65.7699H20.7301C22.1301 65.7699 22.9234 65.5466 23.1101 65.0999C23.4026 63.2083 23.4997 61.2915 23.4001 59.3799V52.3799C23.4001 51.7866 23.2334 51.4899 22.9001 51.4899C22.7201 51.4899 22.3867 51.7399 21.9001 52.2399L8.08008 67.2099C6.92008 67.0699 5.89341 66.9999 5.00008 66.9999C4.10674 66.9999 3.05008 67.0533 1.83008 67.1599V65.7699H2.47008C2.94941 65.7813 3.42066 65.6452 3.82008 65.3799C4.46323 64.8789 5.05906 64.3199 5.60008 63.7099L19.2501 49.2299L12.4001 41.2299C11.2004 39.7316 9.79679 38.4088 8.23008 37.2999C7.07351 36.5554 5.72557 36.1628 4.35008 36.1699H3.12008V34.7399C4.45341 34.8466 5.67674 34.8999 6.79008 34.8999C7.99008 34.8999 9.32341 34.8466 10.7901 34.7399V36.3399L15.9201 42.4299C19.9934 47.2499 22.3667 49.8666 23.0401 50.2799H23.3601V44.1199C23.3601 39.8599 23.2601 37.4766 23.0601 36.9699C22.8601 36.4633 21.5067 36.1999 19.0001 36.1799V34.7399H20.3901C23.0101 34.8133 24.6934 34.8499 25.4401 34.8499C25.9601 34.8499 28.1001 34.7966 31.8601 34.6899V36.1299L30.0001 36.2399C28.6667 36.2866 27.9034 36.5733 27.7101 37.0999C27.5167 37.6266 27.4167 39.9599 27.4101 44.0999V50.2599H27.7301C30.288 47.8168 32.6674 45.1934 34.8501 42.4099L40.0001 36.3399V34.7399C41.5201 34.8466 42.8534 34.8999 44.0001 34.8999C45.1467 34.8999 46.3634 34.8466 47.6501 34.7399V36.1799H46.4701C45.0474 36.1651 43.6533 36.5798 42.4701 37.3699C40.9425 38.4632 39.5701 39.7583 38.3901 41.2199L31.5501 49.2199L45.2601 63.7099C45.8094 64.3315 46.4153 64.9007 47.0701 65.4099C47.4624 65.6539 47.9184 65.7757 48.3801 65.7599H49.0001V67.1999C47.8334 67.0666 46.7767 66.9999 45.8301 66.9999C44.8834 66.9999 43.8567 67.0533 42.7501 67.1599L28.9001 52.2799C28.4267 51.7799 28.0934 51.5299 27.9001 51.5299C27.5934 51.5299 27.4401 51.8266 27.4401 52.4199V59.4199C27.3429 61.3345 27.4367 63.254 27.7201 65.1499C27.9001 65.5899 28.7034 65.8099 30.1301 65.8099H31.8501V67.2499C29.5034 67.0833 27.3601 66.9999 25.4201 66.9999C23.4801 66.9999 21.3401 67.0699 19.0001 67.2099Z" fill="#383E41"/>
<path d="M77.89 45.6001V46.9201H76.27C74.9033 46.9201 74.1833 47.3268 74.11 48.1401C74.0367 48.9534 74 51.7001 74 56.3801V61.7801C74 63.6001 74.03 64.6334 74.09 64.8801C74.166 65.164 74.3487 65.4077 74.6 65.5601C75.095 65.8185 75.6538 65.9296 76.21 65.8801H77.83V67.2001C75.4367 67.0668 73.35 67.0001 71.57 67.0001C70.0167 67.0001 68.2433 67.0534 66.25 67.1601V65.8801H67.9C68.9067 65.8801 69.53 65.6901 69.77 65.3101C70.1232 64.097 70.2487 62.8289 70.14 61.5701V51.5201C70.1034 50.3371 70.2177 49.1542 70.48 48.0001C69.9333 48.8334 69.3933 49.6234 68.86 50.3701C68.1133 51.4168 67.4733 52.3434 66.94 53.1501L61.84 60.9501C60.449 63.219 58.8737 65.3696 57.13 67.3801C56.65 67.4401 55.5 67.6368 53.68 67.9701C53.8467 64.5834 53.93 61.3301 53.93 58.2101C53.93 51.9034 53.8567 48.4468 53.71 47.8401C53.5633 47.2334 52.8967 46.9301 51.71 46.9301H50V45.6001C52 45.7068 53.77 45.7601 55.31 45.7601C56.95 45.7601 59.0533 45.7068 61.62 45.6001V46.9201H60C59.5468 46.9209 59.0971 46.9986 58.67 47.1501C58.4901 47.1919 58.324 47.2791 58.1874 47.4034C58.0509 47.5277 57.9485 47.6849 57.89 47.8601C57.7624 49.079 57.7189 50.3052 57.76 51.5301V61.3301C57.7669 62.1928 57.7134 63.0549 57.6 63.9101C59.1555 62.0461 60.5726 60.0708 61.84 58.0001L65.2 53.0001C65.8267 52.0601 67.3967 49.5968 69.91 45.6101C71.2033 45.7168 72.2533 45.7701 73.06 45.7701C73.5133 45.7634 75.1233 45.7068 77.89 45.6001Z" fill="#383E41"/>
<path d="M105.861 45.6001V46.9201H104.241C102.874 46.9201 102.154 47.3234 102.081 48.1301C102.007 48.9368 101.974 51.6868 101.981 56.3801V61.7601C101.981 63.6001 102.011 64.6401 102.071 64.8801C102.149 65.1657 102.335 65.4096 102.591 65.5601C103.09 65.8162 103.651 65.9271 104.211 65.8801H105.831V67.2001C103.424 67.0668 101.334 67.0001 99.5605 67.0001C97.9939 67.0001 96.2239 67.0534 94.2505 67.1601V65.8801H95.8905C96.9705 65.8801 97.6139 65.6401 97.8205 65.1601C98.0272 64.6801 98.1305 62.7101 98.1305 59.2501V51.6401V48.3401V47.1301C96.323 46.9511 94.5068 46.8744 92.6906 46.9001C91.7772 46.9001 90.5506 46.9468 89.0106 47.0401C89.0106 53.8201 88.8039 58.3201 88.3905 60.5401C88.1171 62.4936 87.215 64.3049 85.8205 65.7001C84.8537 66.7588 83.52 67.4096 82.0905 67.5201C81.4849 67.4996 80.8854 67.3918 80.3105 67.2001L80.3805 66.3101C80.4272 65.8701 80.4505 65.5901 80.4505 65.4701C80.4505 65.3501 80.4272 65.1234 80.3805 64.7901C80.3805 64.5634 80.3572 64.2301 80.3105 63.7901L80.8306 63.5401C81.0856 63.9099 81.426 64.2129 81.8228 64.4235C82.2196 64.6341 82.6613 64.7461 83.1105 64.7501C84.4972 64.7501 85.4972 63.8934 86.1105 62.1801C86.7239 60.4668 87.0205 56.7101 87.0005 50.9101C87.0474 49.8315 86.9702 48.7511 86.7705 47.6901C86.6172 47.1834 85.9505 46.9301 84.7705 46.9301H83.1606V45.6001C85.4539 45.7068 87.3706 45.7601 88.9106 45.7601H99.5506C101.071 45.7601 103.174 45.7068 105.861 45.6001Z" fill="#383E41"/>
<path d="M108.28 56.25C108.253 54.2574 108.757 52.2935 109.74 50.56C110.702 48.8665 112.123 47.4797 113.84 46.56C115.685 45.5784 117.75 45.0828 119.84 45.12C121.262 45.0542 122.683 45.2753 124.018 45.7701C125.352 46.2648 126.574 47.0232 127.61 48C128.598 49.009 129.367 50.2109 129.869 51.5306C130.372 52.8503 130.596 54.2595 130.53 55.67C130.606 57.3593 130.303 59.0442 129.644 60.6015C128.985 62.1587 127.986 63.5488 126.72 64.67C124.477 66.6593 121.567 67.7304 118.57 67.67C117.184 67.7198 115.803 67.4715 114.521 66.9419C113.24 66.4122 112.086 65.6136 111.14 64.6C109.137 62.2946 108.111 59.2994 108.28 56.25V56.25ZM112.57 54.64C112.49 57.4468 113.156 60.2246 114.5 62.69C115.021 63.7092 115.819 64.5605 116.803 65.146C117.786 65.7316 118.915 66.0276 120.06 66C120.916 66.0242 121.765 65.8468 122.54 65.482C123.315 65.1172 123.993 64.5752 124.52 63.9C125.653 62.5 126.22 60.3766 126.22 57.53C126.27 55.4847 125.931 53.4485 125.22 51.53C124.715 50.0707 123.794 48.7913 122.57 47.85C121.498 47.0898 120.214 46.6874 118.9 46.7C117.752 46.6861 116.624 47.0019 115.65 47.61C114.711 48.1906 113.968 49.0409 113.52 50.05C112.874 51.4929 112.549 53.0592 112.57 54.64V54.64Z" fill="#383E41"/>
<path d="M160 45.6V46.92H158.38C157.013 46.92 156.293 47.3267 156.22 48.14C156.146 48.9533 156.113 51.7 156.12 56.38V61.78C156.12 63.6 156.15 64.6333 156.21 64.88C156.286 65.1639 156.468 65.4076 156.72 65.56C157.215 65.8184 157.773 65.9295 158.33 65.88H160V67.2C157.566 67.0933 155.46 67.04 153.68 67.04C152.126 67.04 150.353 67.0933 148.36 67.2V65.88H150C151.006 65.88 151.63 65.69 151.87 65.31C152.223 64.0969 152.348 62.8288 152.24 61.57V51.52C152.202 50.3337 152.316 49.1474 152.58 47.99C152.033 48.8233 151.493 49.6133 150.96 50.36C150.213 51.4067 149.573 52.3333 149.04 53.14L143.94 60.94C142.549 63.2089 140.973 65.3595 139.23 67.37C138.75 67.43 137.6 67.6267 135.78 67.96C135.946 64.5733 136.03 61.32 136.03 58.2C136.03 51.8933 135.956 48.4367 135.81 47.83C135.663 47.2233 134.996 46.92 133.81 46.92H132.1V45.6C134.1 45.7067 135.87 45.76 137.41 45.76C139.05 45.76 141.153 45.7067 143.72 45.6V46.92H142.1C141.646 46.9208 141.197 46.9986 140.77 47.15C140.59 47.1918 140.424 47.279 140.287 47.4033C140.15 47.5276 140.048 47.6848 139.99 47.86C139.862 49.0789 139.819 50.3051 139.86 51.53V61.33C139.866 62.1927 139.813 63.0548 139.7 63.91C141.245 62.045 142.652 60.0697 143.91 58L147.27 53C147.896 52.06 149.466 49.5967 151.98 45.61C153.273 45.7167 154.323 45.77 155.13 45.77C155.583 45.7633 157.206 45.7067 160 45.6ZM141.13 40.81L140.95 40.15C142.054 39.5122 143.111 38.7935 144.11 38C146.882 39.4357 149.931 40.2545 153.05 40.4L153.16 41.11L151.68 41.82H149.56C146.711 41.7538 143.874 41.4156 141.09 40.81H141.13Z" fill="#383E41"/>
<path d="M181 55.7801V58.7001C181 62.5201 181.123 64.6734 181.37 65.1601C181.617 65.6467 182.383 65.8901 183.67 65.8901H185V67.2101H183.77C181.603 67.1367 180.163 67.1001 179.45 67.1001L173.37 67.2601V65.8801H174.69C176.023 65.8801 176.757 65.5667 176.89 64.9401C177.103 62.864 177.176 60.776 177.11 58.6901V51.9201C177.201 50.4793 177.096 49.0329 176.8 47.6201C176.6 47.1601 175.94 46.9201 174.8 46.9201H173.16V45.6001C175.127 45.7067 176.903 45.7601 178.49 45.7601C180.863 45.7601 182.99 45.7067 184.87 45.6001V46.9201H183.14C182.666 46.9158 182.195 46.9971 181.75 47.1601C181.572 47.2047 181.41 47.2973 181.281 47.4278C181.153 47.5583 181.062 47.7217 181.02 47.9001C180.96 48.2334 180.93 49.6334 180.93 52.1001V54.5001L181.2 54.6601C183.647 52.8162 185.969 50.8118 188.15 48.6601L191.45 45.5801H196.03V46.9001H195.21C194.116 47.0845 193.085 47.5381 192.21 48.2201C190.877 49.1001 188.443 50.9867 184.91 53.8801C188.137 56.9601 191.188 60.2186 194.05 63.6401C195.277 65.1001 196.4 65.8401 197.42 65.8601V67.1801H196.51C195.42 67.1001 194.76 67.0701 194.51 67.0701C194.26 67.0701 193.23 67.1201 191.78 67.2301C188.629 63.0639 185.057 59.2336 181.12 55.8001L181 55.7801Z" fill="#383E41"/>
<path d="M199.389 56.2499C199.363 54.2574 199.867 52.2936 200.849 50.5599C201.808 48.8678 203.226 47.4812 204.939 46.5599C206.784 45.5783 208.849 45.0828 210.939 45.1199C212.363 45.0528 213.786 45.2732 215.122 45.768C216.459 46.2628 217.682 47.0219 218.719 47.9999C219.707 49.009 220.476 50.2109 220.979 51.5306C221.481 52.8503 221.706 54.2594 221.639 55.6699C221.716 57.3593 221.414 59.0445 220.754 60.6019C220.095 62.1592 219.096 63.5492 217.829 64.6699C215.586 66.6592 212.676 67.7304 209.679 67.6699C208.293 67.7197 206.913 67.4714 205.631 66.9418C204.349 66.4122 203.196 65.6136 202.249 64.5999C200.246 62.2946 199.22 59.2993 199.389 56.2499V56.2499ZM203.679 54.6399C203.6 57.4467 204.266 60.2243 205.609 62.6899C206.13 63.7068 206.927 64.5564 207.909 65.1418C208.89 65.7271 210.017 66.0245 211.159 65.9999C212.015 66.0242 212.865 65.8467 213.64 65.4819C214.414 65.1171 215.092 64.5752 215.619 63.8999C216.752 62.4999 217.319 60.3766 217.319 57.5299C217.369 55.4846 217.03 53.4484 216.319 51.5299C215.815 50.0701 214.894 48.7904 213.669 47.8499C212.59 47.111 211.306 46.7297 209.999 46.7599C208.851 46.7461 207.723 47.0619 206.749 47.6699C205.81 48.2506 205.068 49.1009 204.619 50.1099C203.986 51.5355 203.665 53.0801 203.679 54.6399V54.6399Z" fill="#383E41"/>
<path d="M254.91 45.6V46.88H253.29C251.92 46.88 251.2 47.28 251.13 48.09C251.06 48.9 251.03 51.73 251.03 56.59V60.59C251.03 63.2567 251.07 64.7233 251.15 64.99C251.209 65.1389 251.301 65.2727 251.419 65.3817C251.537 65.4907 251.677 65.5721 251.83 65.62C252.285 65.7996 252.771 65.8846 253.26 65.87H254.88V67.19C252.46 67.0833 250.35 67.03 248.55 67.03C246.997 67.03 245.23 67.0833 243.25 67.19V65.88H244.87C245.903 65.88 246.543 65.6667 246.79 65.24C247.037 64.8133 247.16 62.97 247.16 59.71V49.32L243.26 57.47C241.753 60.6567 240.333 63.9467 239 67.34H237.5C236.92 65.7267 236.22 64.0067 235.4 62.18L234 58.92L229.69 48.8V59.46V62.91C229.669 63.6019 229.706 64.2943 229.8 64.98C229.91 65.2455 230.113 65.4622 230.37 65.59C230.838 65.8224 231.359 65.9259 231.88 65.89H233.5V67.21H232.22C230.38 67.13 229.093 67.09 228.36 67.09C227.8 67.09 226.347 67.1433 224 67.25V65.88H225.64C226.813 65.88 227.48 65.5967 227.64 65.03C227.902 62.275 227.986 59.5058 227.89 56.74C227.976 53.7381 227.9 50.7336 227.66 47.74C227.507 47.14 226.84 46.84 225.66 46.84H224V45.6H225.23L227.71 45.71L229.6 45.62L231.51 45.51H232.22C233.553 48.95 234.8 52.0033 235.96 54.67L239.34 62.44L243.24 54.06C244.747 50.8 245.68 48.7133 246.04 47.8L247 45.6C248.02 45.6733 248.927 45.71 249.72 45.71C250.34 45.71 252.07 45.6733 254.91 45.6Z" fill="#383E41"/>
<path d="M271.911 65.8801H273.551C274.751 65.8801 275.418 65.5801 275.551 64.9801C275.775 62.9717 275.852 60.9497 275.781 58.9301V52.5501C275.781 52.3801 275.781 51.9901 275.781 51.3601C275.708 50.1001 275.671 48.7668 275.671 47.3601C274.341 47.2389 273.006 47.1855 271.671 47.2001H268.101C266.768 47.2001 265.504 47.2534 264.311 47.3601C264.251 49.1534 264.221 50.8934 264.221 52.5801V58.9601C264.221 62.1201 264.241 63.9501 264.281 64.4501C264.281 64.6629 264.329 64.873 264.421 65.065C264.512 65.257 264.646 65.4262 264.811 65.5601C265.311 65.8374 265.882 65.9593 266.451 65.9101H268.091V67.2301C265.658 67.1234 263.548 67.0701 261.761 67.0701C260.214 67.0701 258.448 67.1234 256.461 67.2301V65.8801H258.101C259.274 65.8801 259.941 65.6001 260.101 65.0401C260.362 62.2917 260.445 59.5293 260.351 56.7701C260.437 53.7848 260.36 50.797 260.121 47.8201C259.968 47.2201 259.301 46.9201 258.121 46.9201H256.481V45.6001C258.381 45.7068 260.541 45.7601 262.961 45.7601H277.491C278.938 45.7601 280.961 45.7068 283.561 45.6001V46.9201H281.941C280.554 46.9201 279.831 47.3268 279.771 48.1401C279.711 48.9534 279.681 51.7768 279.681 56.6101V60.8001C279.647 62.2146 279.687 63.6298 279.801 65.0401C279.867 65.1819 279.963 65.3079 280.082 65.4096C280.201 65.5113 280.341 65.5865 280.491 65.6301C280.946 65.8102 281.432 65.8953 281.921 65.8801H283.541V67.2001C281.108 67.0934 279.001 67.0401 277.221 67.0401C275.654 67.0401 273.884 67.0934 271.911 67.2001V65.8801Z" fill="#383E41"/>
<path d="M309.801 45.6001V46.9201H308.181C306.814 46.9201 306.094 47.3234 306.021 48.1301C305.947 48.9368 305.914 51.6868 305.921 56.3801V61.7601C305.921 63.6001 305.951 64.6401 306.011 64.8801C306.088 65.1662 306.275 65.4104 306.531 65.5601C307.03 65.8162 307.591 65.9271 308.151 65.8801H309.771V67.2001C307.364 67.0668 305.274 67.0001 303.501 67.0001C301.934 67.0001 300.164 67.0534 298.191 67.1601V65.8801H299.831C300.911 65.8801 301.551 65.6401 301.761 65.1601C301.971 64.6801 302.071 62.7101 302.071 59.2501V51.6401V48.3401V47.1301C300.263 46.9511 298.447 46.8744 296.631 46.9001C295.717 46.9001 294.491 46.9468 292.951 47.0401C292.951 53.8201 292.747 58.3201 292.341 60.5401C292.067 62.4936 291.165 64.3049 289.771 65.7001C288.796 66.7717 287.446 67.4269 286.001 67.5301C285.395 67.5095 284.796 67.4017 284.221 67.2101L284.291 66.3201C284.337 65.8801 284.361 65.6001 284.361 65.4801C284.361 65.3601 284.337 65.1334 284.291 64.8001C284.291 64.5701 284.241 64.2401 284.221 63.8001L284.741 63.5501C284.996 63.9199 285.336 64.2229 285.733 64.4335C286.13 64.6441 286.571 64.7561 287.021 64.7601C288.407 64.7601 289.407 63.9034 290.021 62.1901C290.634 60.4768 290.961 56.7168 291.001 50.9101C291.048 49.8315 290.97 48.7511 290.771 47.6901C290.617 47.1834 289.951 46.9301 288.771 46.9301H287.101V45.6001C289.394 45.7068 291.311 45.7601 292.851 45.7601H303.481C305.001 45.7601 307.107 45.7068 309.801 45.6001Z" fill="#383E41"/>
<path d="M316.239 56.1599C316.319 59.1599 317.086 61.4333 318.539 62.9799C319.275 63.7542 320.168 64.3626 321.158 64.7644C322.148 65.1662 323.212 65.3522 324.279 65.3099C325.354 65.3057 326.422 65.1267 327.439 64.7799C328.546 64.4021 329.596 63.8738 330.559 63.2099L330.949 63.5499L330.219 65.4699C328.996 66.1831 327.685 66.7344 326.319 67.1099C324.973 67.4769 323.584 67.6619 322.189 67.66C320.809 67.7175 319.432 67.4867 318.146 66.9822C316.859 66.4777 315.692 65.7107 314.719 64.73C313.737 63.653 312.979 62.3905 312.492 61.0166C312.004 59.6428 311.796 58.1854 311.879 56.7299C311.82 54.4145 312.372 52.1242 313.479 50.0899C314.44 48.6201 315.781 47.4382 317.359 46.6699C319.027 45.6828 320.922 45.1421 322.859 45.0999C324.031 45.0385 325.203 45.2171 326.304 45.6246C327.404 46.0321 328.41 46.6601 329.259 47.4699C330.079 48.3611 330.711 49.4084 331.116 50.5494C331.522 51.6903 331.693 52.9013 331.619 54.1099V55.4599C330.677 55.6941 329.717 55.8546 328.749 55.9399C327.123 56.0599 324.869 56.1199 321.989 56.1199L316.239 56.1599ZM316.239 54.4499C318.593 54.5566 321.193 54.6099 324.039 54.6099C325.179 54.6099 326.283 54.5566 327.349 54.4499V53.1699C327.354 51.8578 327.081 50.5594 326.549 49.3599C326.173 48.5703 325.557 47.9195 324.789 47.4999C323.908 46.9947 322.905 46.7389 321.889 46.7599C321.109 46.7306 320.332 46.8844 319.622 47.2092C318.912 47.5339 318.288 48.0205 317.799 48.6299C316.819 49.8766 316.313 51.8166 316.279 54.4499H316.239Z" fill="#383E41"/>
<path d="M341.521 55.7801V58.7001C341.521 62.5201 341.644 64.6734 341.891 65.1601C342.138 65.6468 342.904 65.8901 344.191 65.8901H345.561V67.2101H344.331C342.164 67.0701 340.721 67.0001 340.001 67.0001L333.921 67.1601V65.8801H335.241C336.574 65.8801 337.308 65.5668 337.441 64.9401C337.654 62.864 337.727 60.776 337.661 58.6901V51.9201C337.751 50.4793 337.647 49.033 337.351 47.6201C337.151 47.1601 336.491 46.9201 335.351 46.9201H333.711V45.6001C335.678 45.7068 337.454 45.7601 339.041 45.7601C341.414 45.7601 343.541 45.7068 345.421 45.6001V46.9201H343.691C343.217 46.9158 342.746 46.9971 342.301 47.1601C342.123 47.2047 341.961 47.2973 341.832 47.4278C341.704 47.5583 341.613 47.7217 341.571 47.9001C341.511 48.2334 341.481 49.6334 341.481 52.1001V54.5001L341.751 54.6601C344.198 52.8163 346.52 50.8118 348.701 48.6601L352.001 45.6001H356.581V46.9201H355.761C354.667 47.1045 353.636 47.5582 352.761 48.2401C351.428 49.1201 348.994 51.0068 345.461 53.9001C348.687 56.9802 351.739 60.2386 354.601 63.6601C355.828 65.1201 356.951 65.8601 357.971 65.8801V67.2001H357.061C355.971 67.1201 355.311 67.0901 355.061 67.0901C354.811 67.0901 353.781 67.1401 352.331 67.2501C349.18 63.0839 345.608 59.2536 341.671 55.8201L341.521 55.7801Z" fill="#383E41"/>
<path d="M376.77 63.9999L377.39 64.5499L376.45 65.9999C375.444 66.5533 374.372 66.9799 373.26 67.2699C372.166 67.5504 371.04 67.6915 369.91 67.6899C367.936 67.7495 365.979 67.3092 364.22 66.4099C362.669 65.5689 361.407 64.2794 360.6 62.7099C359.709 60.9271 359.269 58.9525 359.32 56.9599C359.286 55.2016 359.627 53.4562 360.32 51.8399C360.882 50.4695 361.809 49.2796 363 48.3999C364.41 47.4636 365.903 46.6602 367.46 45.9999C368.774 45.4241 370.196 45.1376 371.63 45.1599C372.638 45.1472 373.644 45.2445 374.63 45.4499C375.577 45.6721 376.494 46.0079 377.36 46.4499C376.984 48.4287 376.777 50.436 376.74 52.4499H375.3V51.3499C375.359 50.6373 375.213 49.9227 374.88 49.2899C374.356 48.7248 373.689 48.3105 372.95 48.0899C371.901 47.687 370.784 47.4868 369.66 47.4999C368.795 47.4565 367.93 47.6012 367.125 47.924C366.321 48.2468 365.596 48.7401 365 49.3699C363.887 50.6232 363.33 52.4966 363.33 54.9899C363.192 57.7713 364.07 60.5082 365.8 62.6899C366.487 63.5329 367.358 64.2073 368.346 64.6615C369.334 65.1157 370.413 65.3375 371.5 65.3099C372.408 65.3109 373.312 65.1966 374.19 64.9699C375.083 64.7396 375.947 64.4144 376.77 63.9999Z" fill="#383E41"/>
</svg>
