<svg width="380" height="248" viewBox="0 0 380 248" fill="none" xmlns="http://www.w3.org/2000/svg">
<g clip-path="url(#clip0)">
<path d="M194.549 194C194.549 194.22 194.453 194.33 194.259 194.33C194.066 194.33 193.953 194.183 193.919 193.89C193.896 193.347 193.756 192.815 193.509 192.33C193.203 191.777 192.506 191.497 191.419 191.49H190.679V201.14C190.679 201.447 190.913 201.607 191.379 201.62C191.846 201.633 192.079 201.697 192.079 201.81C192.079 201.923 191.943 201.98 191.669 201.98H187.759C187.439 201.98 187.279 201.923 187.279 201.81C187.279 201.697 187.543 201.633 188.069 201.62C188.195 201.644 188.324 201.644 188.449 201.62C188.509 201.609 188.563 201.578 188.603 201.533C188.642 201.488 188.666 201.43 188.669 201.37C188.669 201.237 188.669 200.833 188.669 200.16V191.5C187.837 191.404 186.994 191.536 186.229 191.88C185.743 192.393 185.471 193.073 185.469 193.78C185.423 194.147 185.319 194.33 185.159 194.33C185.019 194.33 184.939 194.15 184.939 193.79C184.939 193.43 185.009 192.43 185.159 191.09H190.749H193.749C193.919 191.083 194.087 191.057 194.249 191.01V191.5L194.319 192.35L194.389 193.35V193.77C194.539 193.86 194.549 194 194.549 194Z" fill="#383E41"/>
<path d="M206.69 201.85C206.69 201.963 206.45 202.02 205.97 202.02H202.63C202.28 202.02 202.1 202.02 202.1 201.86C202.1 201.7 202.23 201.72 202.5 201.7C203.02 201.7 203.29 201.61 203.32 201.48C203.35 201.218 203.35 200.953 203.32 200.69V196.3H198.78V201.24C198.783 201.309 198.803 201.376 198.838 201.435C198.873 201.494 198.922 201.544 198.98 201.58C199.244 201.652 199.517 201.686 199.79 201.68C199.96 201.68 200.05 201.74 200.05 201.85C200.05 201.96 199.89 202.02 199.57 202.02H195.85C195.61 202.02 195.49 201.963 195.49 201.85C195.49 201.737 195.724 201.673 196.19 201.66C196.544 201.66 196.737 201.563 196.77 201.37V192.37C196.788 192.13 196.788 191.89 196.77 191.65C196.77 191.523 196.627 191.46 196.34 191.46C195.8 191.46 195.52 191.36 195.52 191.22C195.52 191.08 195.63 191.08 195.86 191.08H199.65C199.92 191.08 200.06 191.14 200.06 191.27C200.06 191.4 199.85 191.48 199.42 191.46C199.246 191.442 199.07 191.469 198.91 191.54C198.837 191.593 198.8 191.757 198.8 192.03V195.82H203.34V192.56C203.373 192.278 203.373 191.992 203.34 191.71C203.34 191.52 203.15 191.44 202.87 191.47H202.42C202.214 191.437 202.11 191.37 202.11 191.27C202.11 191.13 202.28 191.07 202.61 191.07H206.09C206.47 191.07 206.67 191.13 206.67 191.24C206.67 191.35 206.56 191.43 206.35 191.43H205.81C205.6 191.43 205.48 191.43 205.45 191.55C205.419 191.806 205.419 192.064 205.45 192.32V200.62C205.45 201.167 205.49 201.467 205.57 201.52C205.842 201.601 206.128 201.628 206.41 201.6C206.58 201.65 206.69 201.72 206.69 201.85Z" fill="#383E41"/>
<path d="M216.889 199.43C216.889 199.43 216.889 199.55 216.889 199.74C216.879 199.906 216.879 200.073 216.889 200.24V201.63C216.891 201.792 216.915 201.954 216.959 202.11L212.959 202.04L208.379 202.11C208.039 202.11 207.869 202.047 207.869 201.92C207.869 201.78 207.969 201.7 208.159 201.7C208.464 201.733 208.772 201.695 209.059 201.59C209.146 201.517 209.189 201.257 209.189 200.81V192.55C209.189 191.883 209.132 191.55 209.019 191.55C208.743 191.495 208.461 191.475 208.179 191.49C207.986 191.49 207.889 191.433 207.889 191.32C207.889 191.19 207.989 191.13 208.199 191.13H216.409V191.3V191.65C216.409 191.883 216.472 192.593 216.599 193.78C216.608 193.873 216.608 193.967 216.599 194.06C216.599 194.27 216.539 194.37 216.429 194.37C216.319 194.37 216.179 194.21 216.119 193.89C215.899 192.677 215.476 191.963 214.849 191.75C214.028 191.597 213.193 191.54 212.359 191.58H211.139V196H211.709C212.347 196.064 212.99 195.978 213.589 195.75C213.829 195.583 213.989 195.123 214.069 194.37C214.069 193.92 214.209 193.7 214.359 193.7C214.509 193.7 214.599 193.86 214.599 194.18C214.599 194.5 214.599 194.67 214.599 195.07C214.599 195.47 214.599 195.77 214.599 195.98C214.599 197.02 214.616 197.733 214.649 198.12C214.649 198.25 214.649 198.35 214.649 198.43C214.649 198.69 214.569 198.81 214.409 198.81C214.249 198.81 214.169 198.61 214.129 198.21C214.036 197.343 213.879 196.827 213.659 196.66C213.065 196.429 212.423 196.343 211.789 196.41H211.199V201.59C212.579 201.632 213.959 201.568 215.329 201.4C215.996 201.227 216.369 200.46 216.449 199.1C216.449 198.86 216.549 198.74 216.709 198.74C216.869 198.74 216.889 199 216.889 199.43Z" fill="#383E41"/>
<path d="M138.57 230.73C138.57 231.137 137.93 231.337 136.65 231.33C133.77 231.33 132.17 231.753 131.85 232.6C131.637 233.187 131.53 235.497 131.53 239.53V242.08C129.182 244.155 126.506 245.825 123.61 247.02C120.72 248.034 117.671 248.519 114.61 248.45C106.183 248.45 99.4898 245.93 94.5298 240.89C89.5698 235.85 87.0898 229.01 87.0898 220.37C87.0898 211.623 89.5165 204.557 94.3699 199.17C99.2232 193.783 105.623 191.09 113.57 191.09C117.51 191.224 121.373 192.217 124.89 194C125.816 194.503 126.839 194.803 127.89 194.88C128.903 194.88 129.57 194.24 129.89 192.96C130.157 192.213 130.49 191.84 130.89 191.84C131.29 191.84 131.503 192.08 131.53 192.56C131.557 193.04 131.51 193.547 131.39 194.08C131.1 196.402 130.96 198.74 130.97 201.08V205.4C131.049 206.76 131.022 208.124 130.89 209.48C130.877 209.702 130.778 209.91 130.613 210.06C130.449 210.209 130.232 210.288 130.01 210.28C129.53 210.28 129.263 209.903 129.21 209.15C128.943 204.01 127.45 199.95 124.73 196.97C123.377 195.483 121.716 194.308 119.863 193.528C118.01 192.747 116.009 192.379 114 192.45C108.453 192.45 104.067 194.923 100.84 199.87C97.6132 204.817 95.9998 211.57 95.9998 220.13C95.9998 228.423 97.6398 234.99 100.92 239.83C104.2 244.67 108.64 247.09 114.24 247.09C118.507 247.09 121.44 245.857 123.04 243.39C123.84 242.157 124.24 239.933 124.24 236.72C124.24 234.053 123.987 232.473 123.48 231.98C122.973 231.487 121.227 231.273 118.24 231.34C117.757 231.364 117.273 231.327 116.8 231.23C116.701 231.203 116.616 231.142 116.557 231.058C116.499 230.974 116.471 230.872 116.48 230.77C116.48 230.243 117.067 229.98 118.24 229.98H119.68C120.853 230.033 123.787 230.033 128.48 229.98H137C138.047 229.993 138.57 230.243 138.57 230.73Z" fill="#383E41"/>
<path d="M174.25 247.09C174.25 247.41 173.717 247.57 172.65 247.57H156.89C155.93 247.57 155.45 247.357 155.45 246.93C155.45 246.503 156.41 246.267 158.33 246.22C160.623 246.167 161.77 245.903 161.77 245.43C161.646 244.916 161.486 244.411 161.29 243.92C161.183 243.5 160.57 241.727 159.45 238.6L158.45 235.9H147.05C144.863 241.393 143.77 244.567 143.77 245.42C143.77 245.9 144.103 246.167 144.77 246.22L145.77 246.3H147L147.72 246.54C148.36 246.54 148.72 246.7 148.72 247.03C148.72 247.36 148.16 247.59 147.04 247.59L144.2 247.47C142.467 247.39 140.933 247.35 139.6 247.35H138.88L138.16 247.47L137.28 247.59H137.12C136.267 247.59 135.84 247.43 135.84 247.11C135.84 246.74 136.19 246.52 136.84 246.47C137.8 246.417 138.44 246.363 138.76 246.31C139.409 246.267 140.027 246.014 140.52 245.59C140.84 245.43 142.147 242.383 144.44 236.45C145.347 234.043 146.227 231.797 147.08 229.71C147.325 229.163 147.539 228.602 147.72 228.03C147.901 227.458 148.115 226.897 148.36 226.35C149.267 224.157 150.547 220.84 152.2 216.4L153.4 213.04L153.95 211.6C154.27 210.8 154.603 210.4 154.95 210.4C155.11 210.4 155.443 211.147 155.95 212.64C157.55 216.533 161.683 226.827 168.35 243.52C169.017 245.173 169.63 246.053 170.19 246.16C171.038 246.285 171.893 246.366 172.75 246.4C173.75 246.433 174.25 246.663 174.25 247.09ZM158 234.53L152.85 220.86C151.557 224.06 149.773 228.617 147.5 234.53H158Z" fill="#383E41"/>
<path d="M207.209 245.49C207.209 247.197 205.723 248.05 202.749 248.05C201.409 248.082 200.08 247.803 198.866 247.236C197.651 246.668 196.585 245.828 195.749 244.78C195.017 243.949 194.472 242.97 194.149 241.91C193.676 239.676 193.342 237.415 193.149 235.14C192.883 232.853 192.153 231.26 190.959 230.36C189.766 229.46 187.706 228.957 184.779 228.85V245.33C184.619 246.077 185.953 246.45 188.779 246.45C189.359 246.45 189.649 246.64 189.649 247.01C189.649 247.38 189.279 247.57 188.529 247.57H175.689C174.196 247.57 173.449 247.397 173.449 247.05C173.449 246.65 173.719 246.45 174.249 246.45H175.369C177.183 246.45 178.089 246.077 178.089 245.33V213.73C178.119 213.515 178.095 213.296 178.018 213.094C177.941 212.891 177.814 212.711 177.649 212.57C176.904 212.315 176.114 212.219 175.329 212.29C174.076 212.29 173.449 212.077 173.449 211.65C173.449 211.223 173.823 211.037 174.569 211.09H189.689C192.71 210.943 195.706 211.706 198.289 213.28C199.284 213.878 200.106 214.724 200.674 215.736C201.242 216.747 201.537 217.89 201.529 219.05C201.54 220.31 201.23 221.553 200.628 222.66C200.026 223.767 199.152 224.703 198.089 225.38C195.796 227 192.569 227.943 188.409 228.21C192.889 228.69 195.969 229.857 197.649 231.71C199.329 233.563 200.409 236.897 200.889 241.71C201.209 245.003 202.209 246.65 203.889 246.65C204.159 246.65 204.289 246.57 204.289 246.42C204.243 246.243 204.176 246.071 204.089 245.91C203.979 245.706 203.911 245.481 203.889 245.25C203.889 244.263 204.423 243.77 205.489 243.77C206.636 243.797 207.209 244.37 207.209 245.49ZM194.569 219.61C194.569 214.837 192.216 212.45 187.509 212.45C186.737 212.363 185.956 212.488 185.249 212.81C184.956 213.05 184.809 213.62 184.809 214.52V227.57C191.316 227.57 194.569 224.92 194.569 219.62V219.61Z" fill="#383E41"/>
<path d="M247.45 229.29C247.45 235.543 245.05 240.38 240.25 243.8C236.783 246.26 232.33 247.49 226.89 247.49H211.37C210.463 247.49 210.01 247.237 210.01 246.73C210.01 246.223 210.343 246.023 211.01 246.13H212.85C213.916 246.183 214.503 245.89 214.61 245.25C214.773 244.33 214.827 243.393 214.77 242.46V216.91C214.84 215.555 214.787 214.196 214.61 212.85C214.343 212.53 213.41 212.343 211.81 212.29C210.85 212.29 210.37 212.103 210.37 211.73C210.37 211.357 210.85 211.143 211.81 211.09H220.81C227.796 211.09 232.756 211.517 235.69 212.37C239.185 213.368 242.216 215.567 244.25 218.58C246.412 221.727 247.532 225.473 247.45 229.29V229.29ZM239.77 229.01C239.77 217.97 235.31 212.45 226.39 212.45C223.683 212.45 222.183 212.597 221.89 212.89C221.596 213.183 221.45 214.157 221.45 215.81V244.05C221.45 245.01 221.676 245.597 222.13 245.81C223.262 246.104 224.433 246.212 225.6 246.13C235.046 246.13 239.77 240.42 239.77 229V229.01Z" fill="#383E41"/>
<path d="M281.769 238.89C281.769 238.95 281.769 239.28 281.649 239.89C281.574 240.444 281.534 241.001 281.529 241.56V246.2C281.537 246.742 281.618 247.28 281.769 247.8L268.419 247.56L253.139 247.8C252.013 247.8 251.449 247.59 251.449 247.17C251.449 246.69 251.769 246.44 252.449 246.44C253.464 246.55 254.49 246.427 255.449 246.08C255.743 245.84 255.889 244.973 255.889 243.48V216C255.889 213.813 255.703 212.653 255.329 212.52C254.408 212.338 253.467 212.271 252.529 212.32C251.863 212.32 251.529 212.133 251.529 211.76C251.529 211.387 251.863 211.173 252.529 211.12H279.889V211.67L279.969 212.85C280.076 213.637 280.289 216.003 280.609 219.95C280.667 220.263 280.694 220.582 280.689 220.9C280.689 221.567 280.503 221.9 280.129 221.9C279.649 221.9 279.316 221.367 279.129 220.3C278.383 216.247 276.976 213.873 274.909 213.18C273.743 212.807 270.983 212.62 266.629 212.62H262.569V227.62H264.469C267.856 227.62 269.946 227.34 270.739 226.78C271.533 226.22 272.063 224.687 272.329 222.18C272.489 220.687 272.823 219.94 273.329 219.94C273.836 219.94 274.103 220.473 274.129 221.54C274.129 222.207 274.089 223.207 274.009 224.54C273.929 225.873 273.889 226.873 273.889 227.54C273.889 231.007 273.949 233.38 274.069 234.66C274.109 235.087 274.129 235.42 274.129 235.66C274.129 236.513 273.866 236.94 273.339 236.94C272.813 236.94 272.496 236.273 272.389 234.94C272.076 232.06 271.549 230.34 270.809 229.78C270.069 229.22 267.993 228.94 264.579 228.94H262.579V246.22C270.386 246.167 274.979 245.953 276.359 245.58C278.479 244.993 279.726 242.433 280.099 237.9C280.153 237.1 280.446 236.7 280.979 236.7C281.513 236.7 281.776 237.43 281.769 238.89Z" fill="#383E41"/>
<path d="M319.851 211.65C319.851 212.023 319.264 212.21 318.091 212.21H316.091C315.611 212.21 315.331 212.317 315.251 212.53C315.134 213.247 315.093 213.975 315.131 214.7V244.2C315.131 246.127 315.104 247.253 315.051 247.58C315.001 247.9 314.761 248.06 314.331 248.06C313.744 248.06 311.848 245.823 308.641 241.35C308.268 240.763 307.684 239.96 306.891 238.94C306.784 238.78 306.491 238.38 306.011 237.74C303.344 234.2 298.514 227.55 291.521 217.79V243.16C291.521 245.16 291.801 246.207 292.361 246.3C293.382 246.435 294.412 246.489 295.441 246.46H295.761C296.401 246.46 296.761 246.64 296.761 246.98C296.761 247.32 296.171 247.58 295.001 247.58C294.788 247.58 293.908 247.527 292.361 247.42C291.561 247.367 290.841 247.34 290.201 247.34C289.668 247.34 289.134 247.367 288.601 247.42C287.511 247.53 286.416 247.584 285.321 247.58C284.468 247.58 284.041 247.38 284.041 246.98C284.041 246.58 284.548 246.407 285.561 246.46H286.281L287.281 246.38C288.561 246.273 289.228 246.03 289.281 245.65C289.36 244.873 289.386 244.091 289.361 243.31V221.16C289.361 217.16 289.121 214.743 288.641 213.91C287.974 212.837 286.721 212.3 284.881 212.3C283.548 212.3 282.881 212.073 282.881 211.62C282.881 211.167 283.214 210.99 283.881 211.09H294.041L312.921 237.09V214.85C312.972 214.073 312.919 213.293 312.761 212.53C312.654 212.317 312.228 212.21 311.481 212.21H309.321C308.308 212.21 307.801 212.01 307.801 211.61C307.801 211.363 308.054 211.213 308.561 211.16C309.068 211.107 310.868 211.08 313.961 211.08C316.894 211.08 318.601 211.103 319.081 211.15C319.611 211.21 319.851 211.37 319.851 211.65Z" fill="#383E41"/>
<path d="M203.45 0.610107C186.173 0.610108 169.284 5.73293 154.918 15.3308C140.553 24.9288 129.356 38.5708 122.743 54.532C116.13 70.4932 114.398 88.0568 117.766 105.002C121.135 121.948 129.452 137.514 141.666 149.732C153.881 161.951 169.444 170.274 186.388 173.648C203.333 177.022 220.897 175.296 236.86 168.689C252.824 162.081 266.47 150.889 276.072 136.527C285.675 122.164 290.804 105.277 290.81 88.0001C290.814 76.5253 288.557 65.1621 284.169 54.5597C279.78 43.9572 273.346 34.3232 265.233 26.2079C257.121 18.0926 247.489 11.655 236.888 7.26286C226.287 2.87073 214.925 0.610107 203.45 0.610107V0.610107ZM205.29 171C203.29 170.07 198.83 167.84 197.42 166.15C195.58 163.95 192.8 161.15 192.2 160.23C191.12 158.65 189.2 155.43 189.2 155.43C188.389 154.174 187.718 152.833 187.2 151.43C186.2 148.76 184.82 146.43 185.81 143.01C186.8 139.59 187.65 138.35 188.29 137.72C188.93 137.09 189.47 137.38 189.95 137.32C190.613 137.124 191.207 136.743 191.66 136.22C192.248 135.53 192.666 134.711 192.88 133.83C192.901 133.589 192.865 133.346 192.773 133.122C192.682 132.898 192.538 132.698 192.355 132.541C192.171 132.383 191.952 132.272 191.716 132.216C191.48 132.16 191.235 132.162 191 132.22C190.332 132.5 189.737 132.928 189.258 133.472C188.78 134.016 188.432 134.662 188.24 135.36C188.24 136.03 187.42 136.72 186.95 137.36C186.084 138.555 185.375 139.855 184.84 141.23C184.34 142.67 184.36 143.43 183.99 142.75C183.474 140.648 183.581 138.442 184.3 136.4C185.2 134.17 187.79 131.4 188.89 130.15C189.99 128.9 191.78 126.1 192.94 125C194.1 123.9 196.57 121.39 197.17 121C197.77 120.61 199.66 117.06 199.96 116.47C200.26 115.88 201.12 110.66 201.39 109.94C202.125 108.596 202.539 107.101 202.6 105.57C202.653 104.128 202.532 102.684 202.24 101.27C202.09 100.53 202.46 100.92 202.52 100.17C202.58 99.4201 199.88 95.8101 198.09 95.1001C196.3 94.3901 196.09 95.3801 195.52 94.7901C194.95 94.2001 195.37 93.9001 195.37 93.9001C195.37 93.9001 194.72 93.4301 194.23 93.0201C193.74 92.6101 193.79 93.1301 193.45 92.9101C193.11 92.6901 191.88 91.5101 191.08 91.5201C190.28 91.5301 189.88 92.2801 189.51 92.1801C189.14 92.0801 187.51 91.0201 187.09 91.1801C186.67 91.3401 183.09 93.2701 182.44 93.6801C181.79 94.0901 179.21 96.2901 178.77 97.6201C178.33 98.9501 176.61 97.4401 175.41 99.0801C174.21 100.72 174.09 102.13 173.78 104.03C173.47 105.93 172.61 108.16 172.78 108.93C172.91 110.623 173.212 112.298 173.68 113.93C174.41 116.18 175.39 118.47 176.14 119.16C176.89 119.85 181.24 123.88 181.58 125.91C181.946 129.318 182.12 132.743 182.1 136.17C181.99 136.91 181.88 137.74 181.23 136.68C180.58 135.62 177.3 127.29 175.7 124.62C174.1 121.95 170.84 116.44 169.85 113.62C169.298 112.111 169.011 110.517 169 108.91C168.79 107.45 168 104.43 170.67 101.57C172.918 99.2153 175.416 97.1129 178.12 95.3001C179.83 94.2001 182.7 92.4101 183.36 90.9901C184.02 89.5701 185.08 86.8601 185.05 85.6301C185.02 84.4001 185.05 84.3201 185.34 84.2001C185.63 84.0801 185.07 82.5601 184.24 82.2001C182.861 81.3115 181.781 80.0295 181.14 78.5201C180.85 77.3001 176.08 77.9701 174.14 73.8301C172.2 69.6901 173.98 69.6001 173.53 68.9501C173.08 68.3001 172.67 66.6801 171.86 66.4801C171.05 66.2801 168.44 66.2901 167.98 65.9301C167.52 65.5701 165.35 66.6501 164.57 66.5401C163.79 66.4301 158.27 67.6301 156.15 69.2601C154.03 70.8901 153.35 70.0401 152.85 71.4901C152.35 72.9401 152.43 73.8701 151.58 74.2101C150.73 74.5501 146.53 77.7901 147.14 80.8601C147.75 83.9301 150.44 84.8601 150.14 85.3201C149.84 85.7801 147.36 88.0001 149.29 91.0501C151.22 94.1001 153.08 95.4601 154.54 95.8801C156 96.3001 164.84 100.12 165.38 102.55C165.92 104.98 168.38 111.1 167.61 111.75C166.84 112.4 166.32 110.18 163.78 109.36C161.24 108.54 158.73 107.89 158.06 107.58C157.39 107.27 158.3 105 155.36 104.97C152.42 104.94 150.85 106.22 151.13 107.48C151.41 108.74 153.18 109.62 154.96 109.54C156.74 109.46 156.47 109 157.4 108.92C158.33 108.84 162.99 110.43 164.57 111.49C166.15 112.55 170.01 115.88 173.86 124.34C177.71 132.8 183.06 143.78 183.86 146.71C184.66 149.64 185.23 149.81 185.12 150.59C185.01 151.37 180.44 146.31 178.6 143.94C176.76 141.57 174.8 139.07 172.99 129.94C171.18 120.81 167.38 119.94 163.5 117.94C159.62 115.94 154.88 116.94 151.13 118.5C148.302 119.533 145.73 121.163 143.59 123.28C140.71 125.78 140.07 125.05 139.43 127.49C138.79 129.93 139.57 130.25 139.79 131.37C140.01 132.49 138.49 132.49 138.62 133.37C138.75 134.25 140.41 135.56 140.37 136.77C140.33 137.98 141 141.53 141.84 142.15C142.68 142.77 153.84 152.6 155.1 152.24C156.36 151.88 156.1 151.33 156.78 151.68C157.46 152.03 161.08 153.43 162.97 152.56C164.86 151.69 168.88 150.62 170.26 149.26C171.64 147.9 176.03 145.66 177.2 145.7C178.37 145.74 180.92 148.29 183.05 151.03C185.18 153.77 188.94 157.74 189.6 158.86C191.93 162.8 195.92 166.2 196.09 167.1C196.26 168 196.09 168.16 192.18 166.65C189.155 165.555 186.191 164.3 183.3 162.89C182.18 162.18 182.56 160.68 181.06 160.3C179.56 159.92 177.71 160.75 177.89 161.62C178.07 162.49 178.35 164.88 180.22 165.4C182.09 165.92 182.29 165.9 182.71 165.33C183.13 164.76 182.83 164.21 184.13 164.52C185.43 164.83 198.32 170.52 200.03 171.13C185.786 170.573 171.925 166.357 159.784 158.888C147.643 151.419 137.629 140.948 130.709 128.486C123.789 116.023 120.196 101.989 120.274 87.734C120.353 73.4794 124.102 59.4853 131.16 47.1001C133.22 45.7501 136.53 43.7301 138.38 43.4201C141.2 42.9501 145.07 42.0001 146.13 41.9301C148.04 41.8001 151.81 41.7601 151.81 41.7601C153.315 41.7143 154.821 41.8351 156.3 42.1201C159.11 42.6001 161.84 42.6201 164.3 45.1901C166.76 47.7601 167.38 49.1901 167.6 50.0101C167.82 50.8301 167.29 51.2001 167.1 51.6401C166.938 52.301 166.966 52.9942 167.18 53.6401C167.475 54.4993 167.968 55.2769 168.62 55.9101C168.817 56.0508 169.044 56.1424 169.283 56.1775C169.523 56.2126 169.767 56.1901 169.996 56.1119C170.224 56.0337 170.431 55.902 170.599 55.7277C170.767 55.5535 170.89 55.3418 170.96 55.1101C171.061 54.3876 170.996 53.6515 170.769 52.9582C170.542 52.2648 170.159 51.6327 169.65 51.1101C169.08 50.7601 168.9 49.7101 168.65 49.0001C168.061 47.6488 167.301 46.3785 166.39 45.2201C165.39 44.0601 164.73 43.6901 165.51 43.7201C167.581 44.3427 169.427 45.5555 170.82 47.2101C172.28 49.1201 173.37 52.7601 173.88 54.3401C174.39 55.9201 175.88 58.8901 176.26 60.4501C176.64 62.0101 177.53 65.4501 177.55 66.1201C177.57 66.7901 179.68 70.2701 180.04 70.8201C180.4 71.3701 184.46 74.8201 184.94 75.3701C185.691 76.6973 186.738 77.8334 188 78.6901C189.216 79.4707 190.522 80.1019 191.89 80.5701C192.6 80.8201 192.08 80.9301 192.69 81.3701C193.3 81.8101 197.78 81.3101 199.31 80.1301C200.84 78.9501 200.1 78.2501 200.88 78.0801C201.66 77.9101 201.73 78.4001 201.73 78.4001C201.73 78.4001 202.46 78.0801 203.06 77.8601C203.66 77.6401 203.19 77.4301 203.55 77.2401C203.91 77.0501 205.55 76.6001 205.95 75.9001C206.35 75.2001 205.95 74.4801 206.18 74.2101C206.41 73.9401 208.18 73.0901 208.29 72.6401C208.4 72.1901 208.5 68.1701 208.5 67.3701C208.5 66.5701 207.89 63.2601 206.97 62.2101C206.05 61.1601 208.22 60.4401 207.42 58.5701C206.62 56.7001 205.42 55.8901 203.99 54.6601C202.56 53.4301 200.99 51.5501 200.29 51.2801C198.776 50.5398 197.191 49.9535 195.56 49.5301C193.25 49.0201 190.78 48.7001 189.81 48.9901C188.84 49.2801 183.16 50.9901 181.24 50.2501C178.119 48.836 175.081 47.2468 172.14 45.4901C171.55 45.0201 170.9 44.4901 172.14 44.4901C173.38 44.4901 182.23 45.8701 185.34 45.8501C188.45 45.8301 194.85 45.8501 197.8 46.4001C199.381 46.6916 200.9 47.2531 202.29 48.0601C203.66 48.6201 206.68 49.4301 207.76 53.2301C208.644 56.362 209.184 59.5811 209.37 62.8301C209.45 64.8301 209.53 68.2401 210.42 69.5301C211.31 70.8201 213.11 73.1101 214.18 73.7001C215.25 74.2901 215.32 74.3401 215.27 74.7001C215.22 75.0601 216.82 75.3001 217.56 74.7701C219.024 74.0353 220.675 73.7567 222.3 73.9701C223.5 74.3401 225.3 69.8901 229.87 70.3601C234.44 70.8301 233.6 72.3601 234.39 72.3601C235.18 72.3601 236.78 72.7701 237.39 72.1701C238 71.5701 239.29 69.3201 239.83 69.1101C240.37 68.9001 240.54 66.4801 241.04 65.8601C241.54 65.2401 243.3 59.8601 242.97 57.2201C242.64 54.5801 243.72 54.4101 242.73 53.2201C241.74 52.0301 240.89 51.6501 241.03 50.7401C241.17 49.8301 240.51 44.5701 237.55 43.5401C234.59 42.5101 232.39 44.3301 232.19 43.8501C231.99 43.3701 231.29 40.1001 227.69 40.2101C224.09 40.3201 221.97 41.2101 220.87 42.2801C219.77 43.3501 211.99 49.0001 209.62 48.2801C207.25 47.5601 200.74 46.5201 200.56 45.5301C200.38 44.5401 202.56 45.2101 204.56 43.4501C206.56 41.6901 208.39 39.8501 209 39.4501C209.61 39.0501 211.1 40.9601 212.62 38.4501C214.14 35.9401 213.83 33.9301 212.62 33.5301C211.41 33.1301 209.73 34.2101 208.9 35.7901C208.07 37.3701 208.6 37.3701 208.19 38.2101C207.78 39.0501 204 42.1401 202.28 43.0001C200.56 43.8601 195.74 45.4601 186.5 44.4801C177.26 43.5001 165.08 42.5301 162.17 41.7001C159.26 40.8701 158.81 41.3101 158.17 40.8101C157.53 40.3101 164.24 38.9501 167.17 38.5701C170.1 38.1901 173.29 37.7701 182.12 40.8701C190.95 43.9701 193.59 41.1201 197.27 38.7801C200.95 36.4401 202.48 31.8501 203.07 27.8401C203.616 24.8805 203.517 21.838 202.78 18.9201C202.09 15.1701 203.04 14.9901 201.27 13.2001C199.5 11.4101 198.82 11.9201 197.74 11.5401C196.66 11.1601 197.43 9.86011 196.59 9.54011C195.75 9.22011 193.79 9.97011 192.77 9.32011C191.75 8.67011 188.35 7.45011 187.39 7.85011C186.43 8.25011 172.3 12.8501 171.97 14.1501C171.64 15.4501 172.24 15.4801 171.6 15.8801C170.96 16.2801 167.91 18.7001 167.7 20.7701C167.49 22.8401 166.37 26.8501 166.85 28.7701C167.33 30.6901 167.02 35.5701 166.39 36.5601C165.76 37.5501 162.27 38.4501 158.83 38.8901C155.39 39.3301 150.06 40.5501 148.76 40.5601C144.19 40.5601 139.23 42.2901 138.36 41.9701C137.49 41.6501 137.47 41.4001 140.74 38.8301C143.231 36.7491 145.831 34.803 148.53 33.0001C149.71 32.3901 150.81 33.4801 151.9 32.3801C152.99 31.2801 153.21 29.2701 152.38 28.9801C151.55 28.6901 149.38 27.7201 147.94 29.0601C146.5 30.4001 146.45 30.5901 146.73 31.2401C147.01 31.8901 147.64 31.9101 146.73 32.8701C145.95 33.6801 137.41 39.8701 134.11 42.3401C141.783 30.6632 152.279 21.1122 164.626 14.5725C176.974 8.03271 190.772 4.71582 204.743 4.92924C218.713 5.14265 232.404 8.87946 244.546 15.7933C256.687 22.7072 266.887 32.5743 274.2 44.4801C274.37 46.8301 274.56 51.3201 273.84 53.2601C272.84 55.9401 271.74 59.7701 271.27 60.7201C270.43 62.4401 268.6 65.7201 268.6 65.7201C267.873 67.0458 267.001 68.2867 266 69.4201C264.18 71.6201 262.81 73.9701 259.37 74.7901C255.93 75.6101 254.37 75.5001 253.55 75.2501C252.73 75.0001 252.67 74.3901 252.39 74.0101C251.889 73.5298 251.261 73.2035 250.58 73.0701C249.686 72.8982 248.765 72.9393 247.89 73.1901C247.67 73.2907 247.477 73.4425 247.327 73.6328C247.177 73.823 247.075 74.0463 247.029 74.2841C246.983 74.5218 246.995 74.7671 247.063 74.9995C247.131 75.2318 247.253 75.4446 247.42 75.6201C247.995 76.0619 248.663 76.3671 249.373 76.5127C250.083 76.6582 250.818 76.6402 251.52 76.4601C252.11 76.1401 253.11 76.4601 253.86 76.6101C255.324 76.7713 256.803 76.7444 258.26 76.5301C259.76 76.2501 260.41 75.8601 260 76.5301C258.426 78.0192 256.452 79.0167 254.32 79.4001C251.94 79.7201 248.23 78.8501 246.62 78.5001C245.01 78.1501 241.67 77.9901 240.14 77.5001C238.61 77.0101 235.21 76.1301 234.58 75.8001C233.95 75.4701 229.92 75.5801 229.27 75.6201C228.62 75.6601 223.65 77.4901 222.89 77.6201C221.357 77.6452 219.851 78.0251 218.49 78.7301C217.235 79.3994 216.063 80.215 215 81.1601C214.43 81.6501 214.59 81.1601 213.91 81.4601C213.23 81.7601 211.43 85.9101 211.69 87.8201C211.95 89.7301 212.93 89.4401 212.69 90.2001C212.45 90.9601 211.99 90.7701 211.99 90.7701C211.99 90.7701 211.9 91.5701 211.79 92.1901C211.68 92.8101 212.1 92.5201 212.08 92.9301C212.06 93.3401 211.64 94.9901 212.08 95.6801C212.52 96.3701 213.33 96.3501 213.43 96.6801C213.53 97.0101 213.43 98.9801 213.74 99.2901C214.05 99.6001 217.51 101.7 218.21 102.09C218.91 102.48 222.08 103.61 223.45 103.33C224.82 103.05 224.36 105.33 226.38 105.53C228.4 105.73 229.69 105.16 231.48 104.53C233.27 103.9 235.65 103.53 236.25 103C237.645 102.056 238.941 100.974 240.12 99.7701C241.71 98.0201 243.21 96.0401 243.45 95.0501C243.69 94.0601 245 88.2901 246.57 87.0001C249.35 84.9951 252.241 83.1489 255.23 81.4701C255.93 81.1901 256.7 80.8901 256.1 81.9801C255.5 83.0701 249.88 90.0401 248.35 92.7501C246.82 95.4601 243.64 101.02 241.67 103.28C240.632 104.506 239.39 105.545 238 106.35C236.84 107.26 234.62 109.48 230.8 108.53C227.643 107.739 224.581 106.605 221.67 105.15C219.86 104.21 216.9 102.6 215.33 102.73C213.76 102.86 210.89 103.28 209.84 103.92C208.79 104.56 208.72 104.59 208.45 104.38C208.18 104.17 207.16 105.38 207.25 106.38C207.157 108.017 206.575 109.588 205.58 110.89C204.66 111.75 207.58 115.56 204.94 119.25C202.3 122.94 201.34 121.48 201 122.2C200.66 122.92 199.45 124.07 199.68 124.87C199.91 125.67 201.21 127.94 201.12 128.51C201.03 129.08 203.05 130.44 203.34 131.17C203.63 131.9 207.4 136.11 209.87 137.17C212.34 138.23 211.94 139.22 213.44 138.94C214.94 138.66 215.72 138.13 216.44 138.7C217.16 139.27 222.05 141.32 224.44 139.27C226.83 137.22 226.32 134.4 226.84 134.47C227.36 134.54 230.54 135.56 232.24 132.38C233.94 129.2 234.24 126.9 233.84 125.43C233.44 123.96 232.43 114.43 234.28 112.71C236.13 110.99 240.23 105.88 241.17 106.22C242.11 106.56 240.44 108.12 240.98 110.73C241.52 113.34 242.2 115.85 242.26 116.58C242.32 117.31 239.9 117.65 241.32 120.22C242.74 122.79 244.64 123.52 245.6 122.65C246.56 121.78 246.45 119.81 245.49 118.3C244.53 116.79 244.27 117.3 243.74 116.48C243.21 115.66 242.28 110.87 242.43 108.98C242.58 107.09 243.56 102.08 249 94.5501C254.44 87.0201 261.35 76.9401 263.52 74.8301C265.69 72.7201 265.52 72.1101 266.27 71.8301C267.02 71.5501 264.86 78.0101 263.71 80.8301C262.56 83.6501 261.36 86.5401 254.28 92.6501C247.2 98.7601 248.35 102.48 248.55 106.83C248.75 111.18 251.97 114.83 255.16 117.3C257.455 119.247 260.143 120.676 263.04 121.49C266.63 122.76 266.32 123.67 268.75 123.02C271.18 122.37 271.07 121.53 271.94 120.79C272.81 120.05 273.55 121.36 274.28 120.79C275.01 120.22 275.28 118.15 276.37 117.59C277.46 117.03 280.2 114.69 280.37 113.65C280.54 112.61 283.53 98.0601 282.58 97.1401C281.63 96.2201 281.29 96.7101 281.26 95.9601C281.23 95.2101 280.65 91.3601 278.96 90.1501C277.27 88.9401 274.35 85.9701 272.49 85.4501C270.63 84.9301 266.49 82.2201 265.96 81.1801C265.43 80.1401 266.37 76.6701 267.7 73.4601C269.03 70.2501 270.62 65.0301 271.27 63.9001C273.54 59.9001 274.52 54.7701 275.27 54.1801C276.02 53.5901 276.21 53.6901 276.81 57.8001C277.355 60.9679 277.733 64.1624 277.94 67.3701C277.88 68.6901 276.39 69.1101 276.8 70.6001C277.21 72.0901 278.8 73.2901 279.52 72.7101C280.24 72.1301 282.13 70.7101 281.66 68.8201C281.19 66.9301 281.07 66.7701 280.37 66.6901C279.67 66.6101 279.37 67.1401 278.97 65.8601C278.57 64.5801 277.17 51.7701 276.78 49.0001C283.431 61.5169 286.768 75.5276 286.473 89.6987C286.178 103.87 282.261 117.73 275.095 129.959C267.929 142.188 257.752 152.38 245.533 159.564C233.315 166.747 219.461 170.685 205.29 171ZM182.16 118.53C182.39 119.95 182.79 121.65 182.41 121.81C182.03 121.97 180.57 119.6 180.41 119.25C179.156 117.026 178.303 114.599 177.89 112.08C177.299 108.098 177.729 104.031 179.14 100.26C179.984 98.2076 181.221 96.3394 182.78 94.7601C183.553 93.9016 184.628 93.375 185.78 93.2901C186.15 93.2901 186.48 93.2901 186.63 93.5001C187.16 94.2101 184.82 96.2301 183.51 98.6101C182.89 99.7401 182.71 102.61 182.4 108.26C182.09 113.91 181.87 116.81 182.15 118.52L182.16 118.53ZM176.5 112.43C176.706 114.216 177.154 115.965 177.83 117.63C177.95 117.89 178.14 118.29 178.07 118.34C178 118.39 176.48 116.91 175.56 115C175.045 113.844 174.707 112.617 174.56 111.36C174.183 109.695 174.142 107.971 174.44 106.29C174.69 105.06 174.92 105.12 175.19 103.66C175.27 102.703 175.532 101.77 175.96 100.91C176.187 100.446 176.585 100.088 177.07 99.9101C177.18 99.9101 177.46 99.8001 177.61 99.9101C177.76 100.02 177.61 100.77 177.51 100.91C176.91 102.38 176.81 104.02 176.35 105.54C175.69 107.59 176 109.24 176.5 112.42V112.43ZM183.9 101.19C184.6 98.0101 185.04 98.7701 186.29 95.6401C186.44 95.1922 186.75 94.815 187.16 94.5801C187.311 94.4957 187.477 94.4425 187.649 94.4236C187.82 94.4047 187.994 94.4205 188.16 94.4701C188.89 94.8001 188.63 96.6201 188.57 98.4001C188.49 101.12 188.99 100.77 189.27 105.4C189.439 107.168 189.469 108.947 189.36 110.72C189.28 111.66 189.13 112.72 187.36 118.61C185.97 123.31 185.46 124.66 184.95 124.61C184.6 124.61 184.37 123.92 184.16 123.32C183.794 122.237 183.684 121.083 183.84 119.95C184.18 117.8 183.44 117.4 183.22 111.87C182.981 108.292 183.209 104.699 183.9 101.18V101.19ZM190.53 105.45C190.42 104.04 190.36 104.58 189.97 101.37C189.4 96.5901 189.83 97.7001 189.62 96.4401C189.543 95.8278 189.56 95.2073 189.67 94.6001C189.77 94.0301 189.85 94.0001 189.88 94.0001C189.91 94.0001 190.18 94.7201 190.24 95.0001C191.04 99.0001 191.14 100 191.14 100C191.68 105.47 191.72 105.42 191.65 105.92C191.325 107.201 191.098 108.505 190.97 109.82C191.017 110.643 190.97 111.468 190.83 112.28C190.83 112.28 190.83 112.28 190.47 111.56C190.62 106.84 190.58 106 190.53 105.44V105.45ZM190.71 117.61C191.561 115.239 192.181 112.791 192.56 110.3C193.08 106.74 193.17 102.2 192.39 99.2501C192.011 97.5571 191.533 95.8876 190.96 94.2501C190.868 94.1479 190.8 94.0269 190.761 93.8956C190.721 93.7643 190.71 93.6259 190.73 93.4901C190.789 93.3344 190.908 93.2085 191.06 93.1401C191.66 92.8701 192.71 93.9201 192.96 94.1401C194.405 95.7659 195.491 97.6772 196.15 99.7501C196.924 102.342 197.222 105.052 197.03 107.75C196.959 109.171 196.731 110.579 196.35 111.95C196.07 112.95 195.62 114.19 192.19 119.55C189.36 123.98 188.19 125.38 187.6 126.78C187.282 127.449 186.911 128.091 186.49 128.7C185.96 129.52 185.64 129.91 185.49 129.85C185.34 129.79 185.37 129.57 185.37 129.5C185.368 129.271 185.438 129.047 185.57 128.86C185.85 128.44 185.97 127.93 186.24 127.5C187.05 126.2 188.68 122.58 189.05 121.75C189.27 121.32 190 119.66 190.72 117.6L190.71 117.61ZM198.71 104.61C198.66 103.616 198.489 102.632 198.2 101.68C197.72 100.23 196.91 98.9101 196.97 97.3001C196.97 96.9501 197.04 96.5501 197.29 96.4201C197.54 96.2901 197.99 96.5501 198.38 96.8501C199.318 97.5664 200.097 98.4686 200.67 99.5001C201.583 101.668 201.857 104.052 201.46 106.37C201.16 108.109 200.722 109.821 200.15 111.49C198.96 115.49 198.34 117.49 197.22 118.9C197.22 118.95 196.17 119.9 194.16 121.9C191.52 124.49 191.39 124.59 191.04 125.11C190.45 125.98 189.72 127.3 189.35 127.17C189.304 127.15 189.262 127.12 189.229 127.082C189.196 127.044 189.173 126.999 189.16 126.95C189.16 126.73 189.37 126.51 189.43 126.45C190.43 125.54 190.8 124.14 191.59 123.05C193.295 120.803 194.833 118.433 196.19 115.96C197.07 114.387 197.742 112.706 198.19 110.96C198.722 108.881 198.895 106.727 198.7 104.59L198.71 104.61ZM155.39 82.3201C156.256 83.7742 157.211 85.1735 158.25 86.5101C159.029 87.5255 159.75 88.5839 160.41 89.6801C160.94 90.5701 161.79 91.9901 161.57 92.1601C161.35 92.3301 160.21 90.9601 158.09 89.1001C155.97 87.2401 152.87 84.9301 152.26 84.4901C150.68 83.3301 149.94 82.8501 149.45 81.7401C148.99 80.6208 148.958 79.3715 149.36 78.2301C149.76 77.1701 150.73 75.8301 151.53 75.9701C152.03 76.0601 152.28 76.6901 152.53 77.2501C152.71 77.6501 153.6 79.2101 155.39 82.3201ZM154.23 74.4501C154.36 74.4501 154.55 74.7601 154.7 75.0201C155.136 75.8347 155.494 76.6884 155.77 77.5701C156.32 79.2601 156.92 80.2701 156.77 80.3301C156.62 80.3901 156.64 80.2501 156.4 79.9401C155.897 79.3173 155.455 78.6475 155.08 77.9401C154.567 77.1757 154.226 76.3091 154.08 75.4001C154.12 75.3701 154 74.5101 154.23 74.4601V74.4501ZM150.38 87.3701C150.43 87.2401 150.74 86.4701 151.38 86.3701C151.85 86.2701 152.29 86.5601 153.22 87.3701C153.925 87.9578 154.593 88.589 155.22 89.2601C156.22 90.2601 156.05 89.9601 158.28 92.0101C159.455 93.0179 160.552 94.1145 161.56 95.2901C162.41 96.3501 163.68 98.1601 163.38 98.4501C163.08 98.7401 162.53 98.1901 162.03 97.8801C158.74 95.8801 158.3 96.5401 155.29 94.6501C153.645 93.7839 152.234 92.5314 151.18 91.0001C150.77 90.2301 149.84 88.7201 150.38 87.3801V87.3701ZM162.38 85.3701C161.38 83.6701 161.33 84.1801 160.38 82.4801C159.23 80.3801 159.5 79.8301 158.21 77.5901C157.761 76.951 157.408 76.2504 157.16 75.5101C156.926 74.7221 156.872 73.8915 157.001 73.0798C157.131 72.2681 157.442 71.4958 157.91 70.8201C158.837 69.5377 160.151 68.5875 161.66 68.1101C162.751 67.6246 163.954 67.4448 165.14 67.5901C166.04 67.6778 166.894 68.0252 167.6 68.5901C168.78 69.6601 168.89 71.3801 168.84 73.1801C168.73 77.0401 167.99 77.8401 167.43 81.9401C167.32 82.7401 166.71 87.3701 166.22 91.0701C166.13 91.7901 165.93 93.2701 165.57 93.2901C165.21 93.3101 165.09 92.3701 164.57 90.7001C164.026 88.8474 163.303 87.0522 162.41 85.3401L162.38 85.3701ZM167.68 93.3701C167.91 90.5601 167.83 90.8601 167.94 89.7501C168.14 87.8301 168.5 85.6901 169.19 82.1401C169.74 79.3001 170.06 76.4301 170.57 73.5801C170.73 72.7201 171.22 70.0201 170.15 69.1401C169.682 68.7385 169.292 68.2536 169 67.7101C168.8 67.3501 168.79 67.2101 168.83 67.1001C169.01 66.6801 170.08 66.6701 170.83 66.9701C171.134 67.0436 171.405 67.2159 171.6 67.4601C171.95 68.0001 171.6 68.7001 171.41 69.4601C171.179 70.5779 171.294 71.7394 171.74 72.7901C172.41 74.6001 173.65 74.5201 174.24 76.2601C174.493 77.1391 174.52 78.0677 174.32 78.9601C174.03 81.0401 173.32 82.2001 172.32 84.1901C170.852 87.2997 169.557 90.4879 168.44 93.7401C168.25 94.3101 167.81 95.6001 167.63 95.5601C167.45 95.5201 167.6 94.7401 167.71 93.3701H167.68ZM179.74 81.6101C179.391 82.925 178.888 84.1938 178.24 85.3901C177.366 86.823 176.411 88.2052 175.38 89.5301C173.78 91.7201 172.78 93.1001 171.14 95.0701C169.5 97.0401 169.08 97.3801 168.93 97.2801C168.78 97.1801 169.06 96.5101 169.16 96.2801C170.4 93.2201 169.76 93.4901 171.23 89.9701C173.33 84.9701 174.66 84.3701 174.94 82.2101C175.09 81.0701 175.61 80.0101 175.83 78.8901C175.9 78.5401 175.98 78.0801 176.3 77.9501C176.62 77.8201 177.06 78.3501 178.16 78.8001C179.26 79.2501 179.45 79.0001 179.76 79.3601C180.07 79.7201 180.1 80.4101 179.77 81.6101H179.74ZM180.44 83.4801C180.61 82.9101 180.98 81.4801 181.44 81.4801C181.68 81.4801 181.76 81.8001 182.21 82.2601C182.9 82.9701 183.39 82.9101 183.75 83.2601C184.64 84.1601 183.69 86.4801 183.21 87.6401C182.658 89.0839 181.814 90.398 180.73 91.5001C179.73 92.5001 179.59 92.2401 177.19 93.9401C173.85 96.3001 171.81 98.0201 171.81 98.0201C171.06 98.6501 170.3 99.3301 170.09 99.1701C169.88 99.0101 170.48 97.8401 170.61 97.6001C171.452 96.1538 172.562 94.8812 173.88 93.8501C175.362 92.4365 176.605 90.7918 177.56 88.9801C178.747 87.2699 179.724 85.4233 180.47 83.4801H180.44ZM163.82 141.05C162.49 141.14 160.71 140.61 157.13 139.55C152.98 138.333 148.96 136.708 145.13 134.7C143.857 134.225 142.747 133.396 141.93 132.31C140.68 130.45 140.48 127.63 141.81 126.02C142.3 125.43 143.2 124.76 143.81 125.02C144.42 125.28 144.28 126.23 144.81 127.31C145.484 128.489 146.544 129.4 147.81 129.89C151.033 131.371 154.331 132.682 157.69 133.82C163.76 136.16 164.01 137.48 167.09 137.89C168.476 138.071 169.814 138.519 171.03 139.21C172.03 139.79 173.19 140.68 173.03 140.97C172.87 141.26 171.68 140.75 170.11 140.51C167.43 140.07 166.18 140.9 163.85 141.05H163.82ZM167.56 142.88C167.46 143.16 166.56 142.99 165.36 142.95C163.1 142.86 163.06 143.32 161.67 143.14C159.74 142.89 158.11 141.77 158.2 141.51C158.29 141.25 158.59 141.43 159.09 141.51C160.034 141.616 160.966 141.817 161.87 142.11C162.655 142.358 163.477 142.473 164.3 142.45C165.61 142.37 166.3 141.85 167.06 142.29C167.36 142.42 167.65 142.71 167.59 142.89L167.56 142.88ZM151.34 139.74C150.517 139.826 149.685 139.751 148.89 139.52C147.856 139.334 146.848 139.022 145.89 138.59C143.38 137.43 143.82 136.49 141.47 135.31C141.11 135.13 140.42 134.81 140.36 134.31C140.36 133.93 140.58 133.48 140.86 133.46C141.14 133.44 141.35 133.85 141.53 134.1C142.19 135.1 143.14 135.1 144.41 135.73C146.01 136.47 145.65 136.87 147.58 138.03C149.69 139.26 151.42 139.55 151.37 139.74H151.34ZM161 124.2C165.66 127.07 166.33 127.62 167.1 128.39C168.38 129.731 169.497 131.218 170.43 132.82C171.43 134.37 173.28 137.31 172.66 137.89C172.37 138.17 171.66 137.74 169.66 136.89C168.37 136.37 167.04 135.98 165.73 135.49C158.53 132.81 158.13 132.66 156.66 132.1C153.783 131.092 151.034 129.749 148.47 128.1C147.166 127.316 146.189 126.087 145.72 124.64C145.561 124.146 145.534 123.618 145.64 123.11C146.11 121.19 148.74 120.48 149.36 120.31C150.411 120.035 151.506 119.978 152.58 120.14C154.77 120.48 156.24 121.24 161 124.2ZM153.88 118.6C153.88 118.07 156.49 117.6 158.88 117.75C161.344 117.988 163.7 118.875 165.71 120.32C168.044 121.833 169.927 123.947 171.16 126.44C172.85 129.94 172.94 133.71 172.6 133.8C172.49 133.8 172.25 133.36 171.79 132.42C170.89 130.62 170.18 129.66 169.79 128.94C169.4 128.22 168.55 127.11 166.09 125.34C164.763 124.354 163.347 123.494 161.86 122.77C160.225 121.602 158.48 120.597 156.65 119.77C154.93 119.09 153.89 118.94 153.91 118.6H153.88ZM194.9 54.0001C198.628 55.5146 201.91 57.9507 204.44 61.0801C205.782 62.8463 206.767 64.8571 207.34 67.0001C207.686 68.0978 207.597 69.2866 207.09 70.3201C206.91 70.6401 206.74 70.9201 206.48 70.9501C205.6 71.0501 205.05 68.0101 203.66 65.6601C203 64.5501 200.66 62.9501 195.91 59.8001C191.16 56.6501 188.76 55.0401 187.15 54.4101C185.81 53.8901 184.15 53.4101 184.2 52.9601C184.25 52.5101 187.04 52.5001 187.44 52.5101C189.995 52.5649 192.52 53.0692 194.9 54.0001ZM189.4 51.0001C189.4 50.8101 191.4 50.3501 193.56 50.5301C194.824 50.6756 196.058 51.0128 197.22 51.5301C198.85 52.0492 200.359 52.889 201.66 54.0001C202.59 54.8401 202.42 55.0001 203.54 56.0001C204.332 56.5533 205.01 57.2525 205.54 58.0601C205.815 58.49 205.915 59.0088 205.82 59.5101C205.82 59.6201 205.71 59.9001 205.51 59.9601C205.31 60.0201 204.78 59.4901 204.67 59.3401C203.67 58.0701 202.35 57.1601 201.27 55.9901C199.87 54.4701 198.27 53.8701 195.27 52.7201C193.629 51.9897 191.896 51.4852 190.12 51.2201C189.85 51.1401 189.41 51.1101 189.4 51.0001ZM185.1 55.1901C186.78 56.5701 187.5 56.1301 192.38 58.7601C195.571 60.3688 198.539 62.3857 201.21 64.7601C203.59 66.9801 202.72 66.9701 204.78 69.6401C205.087 69.9954 205.254 70.4505 205.25 70.9201C205.247 71.0907 205.21 71.259 205.141 71.4152C205.072 71.5714 204.973 71.7124 204.85 71.8301C204.19 72.3001 202.77 71.1401 201.26 70.1901C198.96 68.7401 199 69.3501 194.91 67.2601C193.304 66.509 191.759 65.633 190.29 64.6401C189.52 64.0901 188.66 63.4101 184.49 58.9501C181.14 55.3701 180.24 54.2401 180.49 53.8201C180.74 53.4001 181.38 53.6701 182 53.8201C183.127 54.0361 184.189 54.512 185.1 55.2101V55.1901ZM204.36 73.5401C204.29 73.6701 203.58 73.4301 203.3 73.3301C199.44 71.9901 198.57 71.5801 198.57 71.5801C193.57 69.2701 193.57 69.3301 193.21 69.0101C192.276 68.0792 191.273 67.2201 190.21 66.4401C189.27 65.8301 188.09 65.2101 188.16 65.0701C188.23 64.9301 188.16 65.0701 188.97 65.1301C192.97 67.6401 193.66 68.0201 194.19 68.2801C195.46 68.9101 195.03 68.5701 197.99 69.8701C202.4 71.8001 201.22 71.6101 202.42 72.0701C202.988 72.3218 203.514 72.659 203.98 73.0701C204.4 73.4501 204.38 73.5401 204.36 73.5601V73.5401ZM180.82 58.7301C181.12 59.1601 182.18 60.6401 183.59 62.2901C185.217 64.2316 187.028 66.01 189 67.6001C191.81 69.8601 195.67 72.2401 198.61 73.0601C200.25 73.5861 201.92 74.0168 203.61 74.3501C203.744 74.3238 203.883 74.3271 204.016 74.3599C204.149 74.3927 204.273 74.4542 204.38 74.5401C204.482 74.6704 204.529 74.8356 204.51 75.0001C204.44 75.6501 203 76.0001 202.66 76.1201C200.523 76.5403 198.322 76.5062 196.2 76.0201C193.57 75.3738 191.08 74.2557 188.85 72.7201C187.653 71.9384 186.546 71.0262 185.55 70.0001C184.83 69.2501 183.99 68.2301 181.11 62.5501C178.73 57.8601 178.11 56.1701 177.21 54.9201C176.799 54.31 176.438 53.6679 176.13 53.0001C175.69 52.1301 175.52 51.6601 175.65 51.5501C175.78 51.4401 175.95 51.5501 176.01 51.6301C176.209 51.7452 176.366 51.9202 176.46 52.1301C176.68 52.5901 177.06 52.9501 177.29 53.4001C178 54.7501 180.3 58.0001 180.82 58.7301ZM198.53 78.7301C198.53 79.0501 198.06 79.2701 197.6 79.4501C196.506 79.8957 195.331 80.1102 194.15 80.0801C191.818 79.7651 189.626 78.7901 187.83 77.2701C186.486 76.1279 185.236 74.8807 184.09 73.5401C181.26 70.4901 179.83 68.9301 179.19 67.2501C179.19 67.1901 178.83 65.8201 178.19 63.0801C177.3 59.4901 177.28 59.3301 177.01 58.7701C176.56 57.8201 175.8 56.5201 176.1 56.2601C176.141 56.2299 176.189 56.2097 176.239 56.201C176.289 56.1923 176.341 56.1954 176.39 56.2101C176.6 56.2801 176.67 56.6201 176.68 56.6901C176.96 58.0001 177.97 59.0501 178.51 60.2801C179.583 62.8895 180.846 65.4163 182.29 67.8401C183.178 69.3997 184.264 70.8382 185.52 72.1201C187.055 73.6413 188.841 74.8862 190.8 75.8001C191.684 76.2626 192.621 76.6152 193.59 76.8501C195.09 77.1701 196.59 77.1501 197.99 78.0201C198.23 78.1801 198.55 78.4301 198.53 78.7101V78.7301ZM237.53 67.3201C236 67.7801 234.49 67.0001 233 66.0001C229.73 63.9501 229.42 62.9101 226.17 60.3401L218.92 54.6601C218.35 54.2101 217.17 53.2901 217.34 52.9701C217.51 52.6501 218.34 52.9701 220.09 53.4001C221.968 53.8665 223.887 54.1478 225.82 54.2401C227.82 54.2401 227.38 53.9401 229.32 53.9901C231.71 54.0601 232.05 54.5801 234.64 54.6101C235.42 54.5473 236.205 54.5978 236.97 54.7601C237.765 54.9556 238.506 55.3264 239.14 55.8455C239.773 56.3646 240.282 57.0188 240.63 57.7601C241.265 59.2107 241.415 60.8271 241.06 62.3701C240.923 63.5563 240.467 64.6831 239.74 65.6301C239.195 66.3947 238.431 66.9768 237.55 67.3001L237.53 67.3201ZM237.28 70.9101C237.064 71.136 236.779 71.2838 236.47 71.3301C235.83 71.3301 235.41 70.6901 234.89 70.1701C234.054 69.4092 233.009 68.9178 231.89 68.7601C229.99 68.4201 229.43 69.5201 227.63 69.1501C226.743 68.9227 225.928 68.4756 225.26 67.8501C223.62 66.5501 222.99 65.3101 221.77 63.4701C219.835 60.6271 217.745 57.893 215.51 55.2801C215.12 54.8201 214.22 53.7901 214.35 53.6601C214.48 53.5301 215.04 54.0001 216.17 54.7901C218.47 56.4101 218.25 56.1901 219.17 56.8601C220.72 58.0001 222.38 59.4001 225.09 61.8001C227.25 63.7101 229.57 65.4501 231.76 67.3301C232.42 67.9001 234.49 69.7001 235.76 69.2201C236.346 69.0069 236.967 68.9051 237.59 68.9201C238 68.9201 238.13 68.9901 238.2 69.0901C238.49 69.4301 238 70.3601 237.3 70.8901L237.28 70.9101ZM232.92 52.0001C232.92 52.0001 233.05 51.9301 233.44 51.8801C234.22 51.7556 235.01 51.7054 235.8 51.7301C236.718 51.681 237.635 51.8311 238.49 52.1701C238.56 52.1701 239.35 52.5701 239.3 52.7601C239.25 52.9501 238.87 52.8801 238.57 52.8701C237.647 52.833 236.73 52.7091 235.83 52.5001C234.09 52.1101 232.91 52.1201 232.92 52.0001ZM239.36 49.6701C239.03 50.0601 238.36 49.9501 237.75 49.8801C237.31 49.8301 235.52 49.8101 231.93 49.7601C230.238 49.7661 228.548 49.8763 226.87 50.0901C225.599 50.245 224.32 50.3285 223.04 50.3401C222.04 50.3401 220.35 50.3401 220.31 50.0801C220.27 49.8201 222.03 49.5201 224.71 48.6401C227.39 47.7601 231 46.2601 231.65 46.0001C233.45 45.2301 234.24 44.8301 235.45 45.0001C236.647 45.1711 237.74 45.7761 238.52 46.7001C239.23 47.5301 239.89 49.0001 239.36 49.6701V49.6701ZM230.51 44.2601C230.36 44.7101 229.89 44.9501 228.74 45.3501C227.868 45.6729 226.976 45.9401 226.07 46.1501C224.69 46.4701 225.07 46.5101 222.15 47.3901C220.685 47.891 219.184 48.2788 217.66 48.5501C216.31 48.7501 214.11 48.9201 214.01 48.5501C213.95 48.3101 214.66 47.9501 215.19 47.6801C218.61 45.8701 218.19 45.1501 221.39 43.5101C222.974 42.5304 224.772 41.9504 226.63 41.8201C227.48 41.8201 229.25 41.7701 230.13 42.9101C230.287 43.0945 230.402 43.3105 230.467 43.5436C230.533 43.7766 230.548 44.021 230.51 44.2601V44.2601ZM217.29 59.5601C220.54 63.9101 220.37 65.3601 222.1 66.7001C223.01 67.4001 223.65 68.4001 224.51 69.1601C224.77 69.3901 225.13 69.7001 225.08 70.0401C225.03 70.3801 224.35 70.4901 223.4 71.2101C222.45 71.9301 222.57 72.2101 222.1 72.3101C221.63 72.4101 221 72.0001 220.16 71.1301C219.202 70.1596 218.363 69.0787 217.66 67.9101C216.871 66.4279 216.166 64.9021 215.55 63.3401C214.48 60.8501 213.79 59.2901 212.92 56.8801C212.05 54.4701 211.98 53.9301 212.13 53.8801C212.28 53.8301 212.73 54.3801 212.89 54.5901C214.9 57.2001 215 56.5001 217.29 59.5601ZM212.52 59.8601C212.983 61.8531 213.767 63.7579 214.84 65.5001C215.739 67.392 216.864 69.1682 218.19 70.7901C218.59 71.2201 219.6 72.2501 219.35 72.6801C219.23 72.8801 218.91 72.7901 218.28 72.9501C217.28 73.1901 217.12 73.6301 216.62 73.7601C215.39 74.0701 213.87 72.0701 213.12 71.0701C212.158 69.8599 211.457 68.4641 211.06 66.9701C210.69 65.5701 211 65.6101 210.75 62.6801C210.41 58.6001 209.97 55.9801 209.97 55.9801C209.81 54.9801 209.61 53.9801 209.86 53.9201C210.11 53.8601 210.81 54.9201 210.95 55.1601C211.766 56.6134 212.298 58.2083 212.52 59.8601V59.8601ZM174.3 33.0001C176.06 30.8201 175.98 29.3201 177.03 27.2401C177.63 26.0501 179.03 24.7801 181.71 22.2401C184.872 19.2874 188.319 16.6546 192 14.3801C193.055 13.5266 194.332 12.9923 195.68 12.8401C197.92 12.7101 200.45 13.9701 201.16 15.9301C201.42 16.6501 201.55 17.7701 201.03 18.1701C200.51 18.5701 199.74 17.9601 198.56 17.8501C197.189 17.8372 195.857 18.3002 194.79 19.1601C191.879 21.1862 189.075 23.3625 186.39 25.6801C181.29 29.6801 180.02 29.2701 178.11 31.6801C177.262 32.7927 176.205 33.73 175 34.4401C174 35.0201 172.64 35.5601 172.46 35.2901C172.28 35.0201 173.3 34.2501 174.3 33.0001ZM174.61 27.6001C175.83 25.7001 175.46 25.4301 176.32 24.3201C177.52 22.7901 179.32 21.9501 179.49 22.1601C179.66 22.3701 179.36 22.5401 179.07 22.9501C178.497 23.6963 177.85 24.3831 177.14 25.0001C176.519 25.5743 176.002 26.2508 175.61 27.0001C175.01 28.1701 175.11 29.0001 174.34 29.4601C174.07 29.6101 173.67 29.7201 173.55 29.5801C173.43 29.4401 174 28.5901 174.61 27.6001ZM185.93 15.1501C186.618 14.3394 187.404 13.6172 188.27 13.0001C190.55 11.4301 191.13 12.2801 193.34 10.8601C193.68 10.6401 194.34 10.2101 194.8 10.4301C195.26 10.6501 195.4 11.0501 195.28 11.2901C195.16 11.5301 194.7 11.5201 194.39 11.5401C193.23 11.6201 192.67 12.4001 191.52 13.2001C190.07 14.2001 189.9 13.6901 187.93 14.7601C185.76 15.9401 184.63 17.2801 184.49 17.1301C184.35 16.9801 185.27 15.8801 185.93 15.1501V15.1501ZM200.71 28.1501C199.37 29.8501 197.97 30.7201 192.99 33.3501C188.01 35.9801 187.34 36.2101 186.29 36.4801C184.487 36.9014 182.641 37.1095 180.79 37.1001C178.95 37.1601 175.48 37.2701 175.29 36.4401C175.2 36.0501 175.9 35.6901 177.64 34.3701C178.74 33.5301 179.76 32.5701 180.84 31.7001C186.84 26.8601 187.14 26.5901 188.37 25.6001C190.696 23.6429 193.243 21.9648 195.96 20.6001C197.298 19.8751 198.854 19.6584 200.34 19.9901C200.844 20.1065 201.309 20.3511 201.69 20.7001C203.1 22.0801 202.38 24.7001 202.21 25.3301C201.906 26.3649 201.396 27.3275 200.71 28.1601V28.1501ZM199.62 34.8001C198.165 36.802 196.205 38.3823 193.94 39.3801C191.464 40.6167 188.701 41.1658 185.94 40.9701C182.07 40.6501 178.77 38.8201 178.87 38.4701C178.87 38.3601 179.42 38.3901 180.47 38.4701C182.47 38.6101 183.66 38.4701 184.47 38.5201C185.28 38.5701 186.68 38.3801 189.47 37.1601C190.993 36.5171 192.452 35.7337 193.83 34.8201C195.66 33.9927 197.405 32.9879 199.04 31.8201C200.54 30.6601 201.2 29.8201 201.48 30.0301C201.87 30.3601 201 32.8401 199.62 34.8101V34.8001ZM241.49 91.2301C240.173 93.4222 238.481 95.3653 236.49 96.9701C233.32 99.4497 229.573 101.084 225.6 101.72C223.399 102.003 221.164 101.853 219.02 101.28C217.897 101.033 216.913 100.363 216.27 99.4101C216.09 99.0901 215.92 98.8001 216.03 98.5701C216.39 97.7601 219.29 98.8001 222.03 98.7601C223.32 98.7601 225.89 97.4801 230.97 94.9601C236.05 92.4401 238.66 91.1301 239.97 90.0401C241.09 89.1301 242.37 87.9401 242.69 88.2001C243.01 88.4601 241.7 90.9001 241.49 91.2401V91.2301ZM240.17 97.5301C239.429 98.5627 238.536 99.4765 237.52 100.24C236.261 101.39 234.786 102.277 233.18 102.85C231.98 103.24 231.92 103.01 230.52 103.5C229.649 103.903 228.709 104.137 227.75 104.19C227.239 104.215 226.738 104.043 226.35 103.71C226.27 103.63 226.06 103.42 226.11 103.22C226.16 103.02 226.87 102.82 227.11 102.8C228.69 102.6 230.11 101.87 231.71 101.52C233.71 101.06 235.03 100 237.52 97.9701C238.969 96.9101 240.267 95.6587 241.38 94.2501C241.55 94.0201 241.8 93.6601 241.88 93.6901C241.96 93.7201 241.38 95.8001 240.17 97.5401V97.5301ZM215.47 95.3401C214.92 95.5401 214.86 95.4801 214.84 95.4501C214.82 95.4201 215.32 94.8301 215.55 94.6301C218.63 91.9501 219.42 91.4001 219.42 91.4001C223.9 88.2301 223.85 88.2101 224.32 88.0301C225.578 87.6791 226.808 87.2345 228 86.7001C228.692 86.2504 229.434 85.8813 230.21 85.6001C230.21 85.6001 230.21 85.6501 229.76 86.2701C225.61 88.4601 224.92 88.9001 224.43 89.2701C223.25 90.0601 223.76 89.8501 221.16 91.7701C217.29 94.6301 218.04 93.7101 217.05 94.5201C216.567 94.873 216.035 95.1527 215.47 95.3501V95.3401ZM240.34 87.8801C238.34 88.6501 238.34 89.4901 233.62 92.4201C230.631 94.395 227.397 95.9716 224 97.1101C220.89 98.1101 221.33 97.3201 218 97.7801C217.537 97.871 217.057 97.7892 216.65 97.5501C216.505 97.4614 216.38 97.3451 216.28 97.2078C216.181 97.0706 216.109 96.915 216.07 96.7501C215.99 95.9501 217.7 95.2801 219.28 94.4501C221.68 93.1801 221.14 92.9101 224.98 90.4501C226.433 89.4281 227.965 88.522 229.56 87.7401C230.42 87.3501 231.44 86.9401 237.38 85.5401C242.15 84.4201 243.58 84.1901 243.8 84.6601C244.02 85.1301 243.49 85.5101 243.07 85.9801C242.317 86.8166 241.384 87.4699 240.34 87.8901V87.8801ZM239.42 82.4201C238.9 82.4201 237.09 82.6501 234.95 83.0501C232.468 83.4804 230.033 84.1502 227.68 85.0501C224.33 86.3601 220.34 88.5201 218.16 90.6701C216.883 91.8325 215.674 93.0679 214.54 94.3701C214.54 94.4601 214.33 94.8801 213.99 94.9501C213.827 94.9717 213.662 94.9286 213.53 94.8301C213 94.4401 213.39 93.0101 213.53 92.6701C214.229 90.6092 215.353 88.7183 216.83 87.1201C218.699 85.1621 220.908 83.5595 223.35 82.3901C224.624 81.7471 225.966 81.2474 227.35 80.9001C228.35 80.6501 229.66 80.4301 236.02 80.7601C241.27 81.0301 243.02 81.3201 244.58 81.1701C245.319 81.1104 246.061 81.1104 246.8 81.1701C247.8 81.2201 248.27 81.3101 248.29 81.4801C248.31 81.6501 248.11 81.7201 248.04 81.7601C247.84 81.8754 247.609 81.9244 247.38 81.9001C246.87 81.9001 246.38 82.0101 245.86 81.9901C244.27 82.0001 240.32 82.3401 239.42 82.4301V82.4201ZM213.11 86.6701C213.269 85.5013 213.667 84.3779 214.28 83.3701C215.712 81.5026 217.648 80.0835 219.86 79.2801C221.534 78.6835 223.252 78.222 225 77.9001C229.06 76.9601 231.12 76.5001 232.89 76.7801L237 78.0001C240.55 79.0001 240.7 79.0801 241.33 79.1301C242.33 79.2101 243.89 79.2001 243.96 79.5801C243.966 79.6313 243.961 79.6834 243.943 79.732C243.926 79.7806 243.897 79.8245 243.86 79.8601C243.69 80.0101 243.37 79.8601 243.3 79.8601C242.02 79.4501 240.61 79.8101 239.3 79.6601C236.502 79.2897 233.681 79.1259 230.86 79.1701C229.065 79.1639 227.277 79.3891 225.54 79.8401C223.46 80.4162 221.494 81.3465 219.73 82.5901C218.889 83.1241 218.117 83.7588 217.43 84.4801C216.43 85.6201 215.66 86.9701 214.23 87.7201C213.92 87.8801 213.54 88.0401 213.31 87.8801C213.08 87.7201 213 87.1701 213.11 86.6801V86.6701ZM208.57 106C208.91 104.78 211.4 104.46 212.65 104.3C214.177 104.067 215.737 104.152 217.23 104.55C218.62 104.93 218.44 105.17 221.11 106.42C224.82 108.16 227.31 109.08 227.31 109.08C228.23 109.42 229.2 109.75 229.16 110.01C229.12 110.27 227.81 110.33 227.54 110.34C225.868 110.319 224.215 109.979 222.67 109.34C220.725 108.757 218.699 108.49 216.67 108.55C214.583 108.392 212.484 108.486 210.42 108.83C209.84 108.97 208.42 109.33 208.21 108.9C208.09 108.69 208.33 108.46 208.51 107.84C208.72 106.9 208.43 106.51 208.57 106ZM209.09 110.37C210.397 110.027 211.739 109.839 213.09 109.81C214.763 109.862 216.433 110.009 218.09 110.25C220.78 110.56 222.48 110.74 225 111.19C227.52 111.64 228 111.84 228 112.01C228 112.18 227.27 112.28 227 112.32C223.73 112.75 224.28 113.18 220.49 113.64C215.1 114.29 213.92 113.43 211.91 114.26C210.85 114.7 209.67 114.76 208.58 115.13C208.25 115.24 207.8 115.4 207.53 115.19C207.26 114.98 207.53 114.33 207.35 113.19C207.17 112.05 206.89 111.97 207.05 111.52C207.21 111.07 207.88 110.68 209.09 110.37ZM207.09 117.83C207.729 117.173 208.524 116.688 209.4 116.42C211.35 115.65 212.73 115.72 214.94 115.58C218.369 115.318 221.781 114.868 225.16 114.23C225.75 114.12 227.09 113.85 227.16 114.03C227.23 114.21 226.52 114.46 225.28 115.03C222.73 116.22 223.03 116.14 222 116.6C220.24 117.38 218.2 118.12 214.77 119.28C212.03 120.2 209.38 121.35 206.65 122.28C205.83 122.57 203.24 123.47 203 124.84C202.891 125.456 202.667 126.047 202.34 126.58C202.13 126.93 202.01 127.01 201.89 127.03C201.44 127.08 200.89 126.16 200.77 125.32C200.669 125.025 200.669 124.705 200.77 124.41C201.06 123.84 201.85 123.81 202.56 123.61C203.645 123.259 204.597 122.585 205.29 121.68C206.57 120.24 205.89 119.2 207.11 117.83H207.09ZM203.73 127.36C204.08 125.8 205.51 124.86 207.11 124.01C210.52 122.19 211.58 122.44 215.42 120.9L223.95 117.44C224.62 117.17 226.01 116.6 226.2 116.91C226.39 117.22 225.64 117.78 224.46 119.08C223.121 120.476 221.922 122 220.88 123.63C219.88 125.3 220.37 125.13 219.35 126.79C218.1 128.79 217.48 128.86 216.17 131.09C215.836 131.796 215.401 132.449 214.88 133.03C214.311 133.624 213.615 134.083 212.845 134.372C212.075 134.661 211.249 134.773 210.43 134.7C208.857 134.529 207.381 133.855 206.22 132.78C205.259 132.071 204.509 131.113 204.05 130.01C203.694 129.175 203.59 128.254 203.75 127.36H203.73ZM215.73 135.42C216.223 134.639 216.789 133.906 217.42 133.23C218.61 131.92 219.2 130.9 219.3 130.96C219.4 131.02 219.3 131.11 219.14 131.47C218.874 132.207 218.539 132.916 218.14 133.59C217.725 134.409 217.139 135.129 216.42 135.7C216.35 135.7 215.64 136.25 215.51 136.11C215.38 135.97 215.61 135.68 215.77 135.42H215.73ZM218.73 136.21C218.99 135.86 219.91 134.31 221.73 131.21C222.566 129.737 223.311 128.214 223.96 126.65C224.455 125.473 225.016 124.325 225.64 123.21C226.15 122.31 226.97 120.87 227.22 120.97C227.47 121.07 226.85 122.74 226.28 125.51C225.71 128.28 225.28 132.11 225.15 132.86C224.92 134.8 224.87 135.69 224.15 136.66C223.405 137.61 222.338 138.254 221.15 138.47C220.03 138.65 218.38 138.47 218.15 137.7C218 137.23 218.4 136.7 218.77 136.21H218.73ZM227.15 130.64C227.302 129.724 227.513 128.819 227.78 127.93C228.19 126.58 227.97 126.86 228.65 123.93C228.945 122.407 229.356 120.91 229.88 119.45C230.38 118.19 231.32 116.18 231.73 116.3C231.97 116.37 231.92 117.16 231.9 117.76C231.76 121.62 232.57 121.66 232.43 125.21C232.491 127.069 232.1 128.915 231.29 130.59C230.89 131.34 230.03 132.89 228.6 133.09C228.357 133.138 228.106 133.131 227.866 133.071C227.625 133.01 227.401 132.897 227.21 132.74C226.92 132.37 227 131.84 227.18 130.64H227.15ZM268.59 94.8101C269.32 95.9201 269.75 97.7301 270.59 101.36C271.58 105.563 272.153 109.854 272.3 114.17C272.522 115.524 272.348 116.913 271.8 118.17C270.8 120.17 268.44 121.74 266.39 121.38C265.64 121.25 264.61 120.8 264.51 120.15C264.41 119.5 265.33 119.15 266.01 118.15C266.703 116.968 266.964 115.583 266.75 114.23C266.443 110.697 265.952 107.182 265.28 103.7C264.28 97.2601 265.33 96.3901 264.17 93.5201C263.643 92.2278 263.371 90.8457 263.37 89.4501C263.37 88.2801 263.58 86.8401 263.9 86.8201C264.22 86.8001 264.37 88.1001 264.9 89.5901C266 92.1801 267.34 92.8701 268.62 94.8101H268.59ZM268.05 91.4001C268.05 91.0901 268.16 90.6901 268.34 90.6601C268.52 90.6301 268.94 91.4901 269.49 92.5401C270.49 94.5401 270.95 94.3501 271.49 95.6501C272.22 97.4501 272.06 99.4201 271.79 99.4701C271.68 99.4701 271.53 99.1701 271.31 98.7201C270.936 97.8478 270.651 96.9398 270.46 96.0101C270.29 95.2018 269.986 94.4278 269.56 93.7201C268.85 92.6101 268.07 92.2701 268.07 91.3901L268.05 91.4001ZM253.7 105.56C253.504 107.555 253.504 109.565 253.7 111.56C253.96 113.44 254.34 114.41 254.04 114.56C253.57 114.8 251.85 112.8 250.83 110.63C249.816 108.371 249.419 105.883 249.68 103.42C249.84 100.645 250.745 97.9642 252.3 95.6601C254.5 92.4601 257.73 90.5201 257.98 90.7701C258.06 90.8501 257.77 91.2901 257.19 92.1601C256.07 93.8301 255.59 94.9201 255.19 95.6101C254.79 96.3001 254.19 97.6101 253.89 100.61C253.673 102.251 253.609 103.908 253.7 105.56ZM255.37 105.56C255.56 100.09 255.7 99.2401 255.99 98.1901C256.522 96.4165 257.26 94.7114 258.19 93.1101C259.05 91.4901 260.68 88.4201 261.5 88.6701C261.89 88.7901 261.84 89.5701 262.13 91.7401C262.31 93.1201 262.63 94.4701 262.86 95.8401C264.09 103.42 264.16 103.84 264.4 105.4C264.951 108.397 265.149 111.447 264.99 114.49C264.952 116.011 264.366 117.467 263.34 118.59C262.988 118.97 262.543 119.253 262.05 119.41C260.15 119.95 258.23 118.02 257.78 117.56C257.019 116.785 256.423 115.863 256.03 114.85C255.23 112.88 255.17 111.23 255.37 105.6V105.56ZM273.57 114.31C273.42 112.55 273.95 112.67 274 110.42C274.06 107.95 273.46 106.31 273.65 106.26C273.84 106.21 274.37 107.57 274.65 108.5C275.003 109.498 275.231 110.536 275.33 111.59C275.56 114.35 274.53 114.43 274.67 117.05C274.67 117.45 274.76 118.21 274.32 118.53C273.88 118.85 273.49 118.75 273.32 118.53C273.15 118.31 273.41 117.91 273.55 117.63C274.09 116.63 273.69 115.75 273.57 114.36V114.31Z" fill="#383E41"/>
</g>
<defs>
<clipPath id="clip0">
<rect width="380" height="248" fill="white"/>
</clipPath>
</defs>
</svg>
