<svg width="288" height="90" viewBox="0 0 288 90" fill="none" xmlns="http://www.w3.org/2000/svg">
<g clip-path="url(#clip0)">
<path d="M168.226 68.978L166.387 67.7634C176.928 51.7967 174.746 30.3727 161.196 16.8234C145.398 1.02869 119.696 1.02869 103.898 16.8234L102.342 15.2674C118.996 -1.39131 146.098 -1.38731 162.752 15.2674C177.039 29.5527 179.343 52.1407 168.226 68.978Z" fill="#383E41"/>
<path d="M31.9486 21.6479L30.3926 20.0919L40.7059 9.77462L42.2632 11.3306L31.9486 21.6479Z" fill="#383E41"/>
<path d="M42.2657 21.6479L40.707 20.0919L51.019 9.77462L52.579 11.3306L42.2657 21.6479Z" fill="#383E41"/>
<path d="M52.5775 21.6479L51.0215 20.0919L61.3375 9.77462L62.8935 11.3306L52.5775 21.6479Z" fill="#383E41"/>
<path d="M152.484 24.0933L150.949 22.5106L174.177 -6.97716e-05L175.713 1.58126L152.484 24.0933Z" fill="#383E41"/>
<path d="M22.152 64.4753L11.2333 49.4593L6.72667 54.1313V64.4753H0V30.6927H6.72667V46.5287L21.4267 30.6927H29.412L15.7533 44.9127L30.2213 64.4753H22.152Z" fill="#383E41"/>
<path d="M95.1149 64.4753L77.6482 41.5433V64.4753H71.0176V30.6927H77.4016L94.3069 52.9127V30.6927H100.938V64.4753H95.1149Z" fill="#383E41"/>
<path d="M143.064 64.4741H149.791V30.6928H143.064V64.4741Z" fill="#383E41"/>
<path d="M181.477 64.4753L164.009 41.5433V64.4753H157.381V30.6927H163.75L180.669 52.9127V30.6927H187.313V64.4753H181.477Z" fill="#383E41"/>
<path d="M206.612 64.9688C201.394 64.9688 196.407 63.1474 192.518 59.8181L196.475 55.0781C199.902 57.8447 203.19 59.1181 206.75 59.1181C210.12 59.1181 212.216 57.6941 212.216 55.4194V55.3247C212.216 52.9954 210.64 51.9407 204.9 50.4754C197.326 48.5287 193.736 46.5154 193.736 40.2967V40.1994C193.736 37.2687 194.86 34.7741 196.998 32.9528C199.08 31.1714 202.078 30.1701 205.407 30.1701C210.066 30.1701 214.215 31.5421 217.708 34.2541L214.215 39.2954C210.982 37.1034 208.064 36.0354 205.311 36.0354C201.708 36.0354 200.42 37.8981 200.42 39.4874V39.5968C200.42 42.3368 202.572 43.1461 208.243 44.5967C214.818 46.3101 218.915 48.5701 218.915 54.5567V54.6647C218.915 61.0234 214.175 64.9688 206.612 64.9688Z" fill="#383E41"/>
<path d="M246.137 64.4753L235.22 49.4593L230.697 54.1313V64.4753H223.957V30.6927H230.697V46.5287L245.412 30.6927H253.398L239.738 44.9127L254.206 64.4753H246.137Z" fill="#383E41"/>
<path d="M267.317 64.4753V51.1047L254.355 30.6927H262.221L270.729 45.022L279.427 30.6927H287.029L274.042 50.9673V64.4753H267.317Z" fill="#383E41"/>
<path d="M60.4693 64.4753L57.3186 56.694H42.0573L38.8786 64.4753H32.084L37.852 50.898H54.936V50.8447H54.9627L49.688 37.9793L49.6466 38.022L46.5506 30.446V30.4327H53.0173L67.4973 64.4753H60.4693Z" fill="#383E41"/>
<path d="M114.556 64.4753V58.4753H119.35C122.529 58.4753 125.254 57.4327 127.228 55.4887C129.213 53.5153 130.241 50.8313 130.241 47.6793V47.57C130.241 41.1727 125.776 36.6927 119.35 36.6927H114.556H114.117H106.268V30.6927H119.35C129.762 30.6927 137.324 37.7473 137.324 47.4727V47.57C137.324 52.2273 135.57 56.502 132.352 59.598C129.062 62.7487 124.446 64.4753 119.35 64.4753H114.556Z" fill="#383E41"/>
<path d="M40.9785 83.7996V83.7662C40.9785 81.2156 39.1185 79.1289 36.5505 79.1289C33.9838 79.1289 32.1545 81.1836 32.1545 83.7342V83.7662C32.1545 86.3182 34.0158 88.4036 36.5825 88.4036C39.1492 88.4036 40.9785 86.3489 40.9785 83.7996ZM30.8398 83.7996V83.7662C30.8398 80.6689 33.1665 77.9582 36.5825 77.9582C40.0025 77.9582 42.2972 80.6382 42.2972 83.7342V83.7662C42.2972 86.8636 39.9705 89.5742 36.5505 89.5742C33.1345 89.5742 30.8398 86.8956 30.8398 83.7996" fill="#383E41"/>
<path d="M49.7875 79.3231V88.2111H52.4182C55.2582 88.2111 57.0715 86.2871 57.0715 83.7991V83.7657C57.0715 81.2804 55.2582 79.3231 52.4182 79.3231H49.7875ZM48.5195 78.1511H52.4182C55.9489 78.1511 58.3862 80.5724 58.3862 83.7351V83.7657C58.3862 86.9271 55.9489 89.3831 52.4182 89.3831H48.5195V78.1511Z" fill="#383E41"/>
<path d="M64.6094 78.1511H72.7294V79.3044H65.8774V83.1404H72.0067V84.2951H65.8774V88.2271H72.808V89.3831H64.6094V78.1511Z" fill="#383E41"/>
<path d="M78.1621 87.7448L78.9474 86.8155C80.1208 87.8741 81.2434 88.4035 82.7994 88.4035C84.3074 88.4035 85.3021 87.6021 85.3021 86.4941V86.4621C85.3021 85.4195 84.7421 84.8275 82.3808 84.3275C79.7981 83.7661 78.6114 82.9328 78.6114 81.0861V81.0541C78.6114 79.2888 80.1674 77.9901 82.3008 77.9901C83.9394 77.9901 85.1088 78.4555 86.2501 79.3701L85.5114 80.3488C84.4688 79.4981 83.4261 79.1288 82.2701 79.1288C80.8088 79.1288 79.8794 79.9315 79.8794 80.9421V80.9755C79.8794 82.0341 80.4568 82.6261 82.9288 83.1568C85.4301 83.7035 86.5861 84.6168 86.5861 86.3328V86.3675C86.5861 88.2901 84.9821 89.5435 82.7514 89.5435C80.9701 89.5435 79.5088 88.9488 78.1621 87.7448Z" fill="#383E41"/>
<path d="M91.9707 87.7448L92.756 86.8155C93.9294 87.8741 95.052 88.4035 96.608 88.4035C98.116 88.4035 99.1107 87.6021 99.1107 86.4941V86.4621C99.1107 85.4195 98.5507 84.8275 96.1894 84.3275C93.6067 83.7661 92.42 82.9328 92.42 81.0861V81.0541C92.42 79.2888 93.9774 77.9901 96.1094 77.9901C97.748 77.9901 98.9174 78.4555 100.059 79.3701L99.3214 80.3488C98.2774 79.4981 97.2347 79.1288 96.0787 79.1288C94.6174 79.1288 93.6894 79.9315 93.6894 80.9421V80.9755C93.6894 82.0341 94.2654 82.6261 96.7374 83.1568C99.2387 83.7035 100.395 84.6168 100.395 86.3328V86.3675C100.395 88.2901 98.792 89.5435 96.56 89.5435C94.7787 89.5435 93.3174 88.9488 91.9707 87.7448Z" fill="#383E41"/>
<path d="M113.803 85.2748L111.251 79.5455L108.684 85.2748H113.803ZM110.675 78.0708H111.86L116.979 89.3828H115.616L114.3 86.4135H108.187L106.856 89.3828H105.555L110.675 78.0708Z" fill="#383E41"/>
<path d="M135.802 83.8788C137.489 83.8788 138.693 83.0121 138.693 81.5681V81.5361C138.693 80.1561 137.631 79.3228 135.818 79.3228H132.354V83.8788H135.802ZM131.086 78.1508H135.915C137.295 78.1508 138.401 78.5681 139.107 79.2735C139.653 79.8188 139.975 80.6068 139.975 81.4881V81.5201C139.975 83.3815 138.693 84.4721 136.927 84.7935L140.375 89.3828H138.819L135.561 85.0175H132.354V89.3828H131.086V78.1508Z" fill="#383E41"/>
<path d="M146.225 78.1511H154.346V79.3044H147.493V83.1404H153.623V84.2951H147.493V88.2271H154.425V89.3831H146.225V78.1511Z" fill="#383E41"/>
<path d="M159.777 87.7448L160.563 86.8155C161.736 87.8741 162.859 88.4035 164.415 88.4035C165.923 88.4035 166.917 87.6021 166.917 86.4941V86.4621C166.917 85.4195 166.357 84.8275 163.996 84.3275C161.413 83.7661 160.227 82.9328 160.227 81.0861V81.0541C160.227 79.2888 161.784 77.9901 163.916 77.9901C165.555 77.9901 166.724 78.4555 167.865 79.3701L167.128 80.3488C166.084 79.4981 165.041 79.1288 163.884 79.1288C162.423 79.1288 161.495 79.9315 161.495 80.9421V80.9755C161.495 82.0341 162.072 82.6261 164.544 83.1568C167.044 83.7035 168.201 84.6168 168.201 86.3328V86.3675C168.201 88.2901 166.597 89.5435 164.365 89.5435C162.584 89.5435 161.124 88.9488 159.777 87.7448Z" fill="#383E41"/>
<path d="M174.438 78.1515H175.704V89.3835H174.438V78.1515Z" fill="#383E41"/>
<path d="M183.797 79.3231V88.2111H186.432C189.271 88.2111 191.084 86.2871 191.084 83.7991V83.7657C191.084 81.2804 189.271 79.3231 186.432 79.3231H183.797ZM182.529 78.1511H186.432C189.959 78.1511 192.399 80.5724 192.399 83.7351V83.7657C192.399 86.9271 189.959 89.3831 186.432 89.3831H182.529V78.1511Z" fill="#383E41"/>
<path d="M198.619 78.1511H206.74V79.3044H199.887V83.1404H206.018V84.2951H199.887V88.2271H206.819V89.3831H198.619V78.1511Z" fill="#383E41"/>
<path d="M212.91 78.1511H214.099L221.173 87.1524V78.1511H222.409V89.3831H221.398L214.146 80.1724V89.3831H212.91V78.1511Z" fill="#383E41"/>
<path d="M228.629 83.7996V83.7662C228.629 80.5889 231.006 77.9582 234.312 77.9582C236.35 77.9582 237.566 78.6809 238.692 79.7396L237.824 80.6689C236.878 79.7716 235.818 79.1289 234.296 79.1289C231.808 79.1289 229.948 81.1516 229.948 83.7342V83.7662C229.948 86.3676 231.824 88.4036 234.296 88.4036C235.836 88.4036 236.844 87.8102 237.922 86.7836L238.756 87.6022C237.584 88.7876 236.3 89.5742 234.262 89.5742C231.022 89.5742 228.629 87.0249 228.629 83.7996Z" fill="#383E41"/>
<path d="M244.574 78.1511H252.696V79.3044H245.842V83.1404H251.973V84.2951H245.842V88.2271H252.773V89.3831H244.574V78.1511Z" fill="#383E41"/>
</g>
<defs>
<clipPath id="clip0">
<rect width="287.029" height="89.5741" fill="white"/>
</clipPath>
</defs>
</svg>
