<?xml version="1.0" encoding="utf-8"?>
<!-- Generator: Adobe Illustrator 24.0.1, SVG Export Plug-In . SVG Version: 6.00 Build 0)  -->
<svg version="1.1" id="Layer_1" xmlns="http://www.w3.org/2000/svg" xmlns:xlink="http://www.w3.org/1999/xlink" x="0px" y="0px"
	 viewBox="0 0 346.5 46.7" style="enable-background:new 0 0 346.5 46.7;" xml:space="preserve">
<style type="text/css">
	.st0{fill:#EFC47F;}
</style>
<g>
	<polygon class="st0" points="1.3,1.7 1.3,45.2 27.9,45.2 27.9,38.9 7.6,38.9 7.6,1.7 	"/>
	<g>
		<path class="st0" d="M50.2,1.1L32.8,45.2h6.7c1.4-3.6,13-34.1,13-34.1l12.9,34.1h6.7L54.7,1.1H50.2z"/>
		<path class="st0" d="M160.4,1.1L143,45.2h6.7c1.4-3.6,13-34.1,13-34.1l12.9,34.1h6.7L164.9,1.1H160.4z"/>
	</g>
	<polygon class="st0" points="117.3,22.8 103.1,1.6 98,1.6 98,45.2 104.3,45.2 104.3,14.5 115.6,31.4 119.1,31.4 130.4,14.5 
		130.4,45.2 136.5,45.2 136.5,1.6 131.6,1.6 	"/>
	<polygon class="st0" points="214.7,32.3 193.7,1.6 188.9,1.6 188.9,45.2 195.1,45.2 195.1,14.8 216,45.2 220.9,45.2 220.9,1.6 
		214.7,1.6 	"/>
	<g>
		<path class="st0" d="M250.1,39.3c-4.1,0-7.9-1.8-10.6-4.7c-2.7-2.9-4.4-6.7-4.4-11.1c0-4.5,1.7-8.3,4.4-11.2
			c2.7-2.9,6.5-4.7,10.6-4.7c6.4,0,11.7,3.3,14,9.8h6.2C267.8,7.7,260,1.4,250.1,1.4c-5.9,0-11.2,2.6-14.9,6.5
			c-3.7,4-6.2,9.5-6.2,15.6c0,6,2.5,11.5,6.2,15.5c3.8,4,9.1,6.5,14.9,6.5c10.1,0,18-6.7,20.4-16.6h-6.1
			C262.2,35.5,256.7,39.3,250.1,39.3"/>
	</g>
	<polygon class="st0" points="303.2,20 285,20 285,1.7 278.7,1.7 278.7,45.2 285,45.2 285,26.3 303.2,26.3 303.2,45.2 309.5,45.2 
		309.5,1.7 303.2,1.7 	"/>
	<polygon class="st0" points="319,1.7 319,45.2 345.4,45.2 345.4,38.9 325.3,38.9 325.3,26.6 344.9,26.6 344.9,20.2 325.3,20.2 
		325.3,8 345.3,8 345.3,1.7 	"/>
	<g>
		<path class="st0" d="M43.2,41.1L43,41.2l2.8,4.3l0.2-0.1c3.9-2.6,9-2.6,13,0l0.2,0.1l2.8-4.3l-0.2-0.1
			C56.1,37.3,48.8,37.3,43.2,41.1"/>
		<path class="st0" d="M169.1,38.6c-3.9,2.6-9,2.6-13,0l-0.2-0.1l-2.8,4.3l0.2,0.1c2.8,1.9,6,2.8,9.3,2.8c3.2,0,6.5-0.9,9.3-2.8
			l0.2-0.1l-2.8-4.3L169.1,38.6z"/>
	</g>
</g>
</svg>
