<svg width="157" height="178" viewBox="0 0 157 178" fill="none" xmlns="http://www.w3.org/2000/svg">
<g clip-path="url(#clip0)">
<path d="M0 0V156.6H156.6V0H0ZM120.8 60.7C119 61.6 111.6 51.8 110.7 50.9C100.6 38.1 92.7 36.3 85.9 39C80.9 41.2 77 46.1 77.2 52.4C77.4 65.3 95 77.5 95 77.5C95 77.5 116.1 90.7 114.6 108.1C113.5 117.6 108.4 124.5 103.1 130C102.1 129 100.3 126 91.9 124.9C79.6 123.4 53.6 136.2 42.8 112.3C61 126.3 90.3 110.9 97 119.9C91 104 45.4 129.4 37 93.5C54.8 114.9 94.8 96.5 101 112.8C98.9 88.7 36.5 117.9 35.5 70.4C43.4 96.6 92.9 85.6 101.9 101.3C98.7 79.9 21.7 94.2 46.1 32.3C41.6 66.1 69.5 72.7 86.2 79.5C73.3 69.5 67.6 64.4 67.6 51.5C66.7 36.8 80.5 22.4 98 27.3C112.1 31.9 114.2 43.7 116.8 50.4C120.8 54.5 121.5 60.5 120.8 60.7Z" fill="#383E41"/>
<path d="M8.4 164.6L14.4 175.5H11.4L7.1 167L2.7 175.6H0L6 164.6H8.4Z" fill="#383E41"/>
<path d="M29.2 164.6V166.5H20.5V168.9H25.5V170.8H20.5V173.6H29.3V175.6H18V164.7H29.2V164.6Z" fill="#383E41"/>
<path d="M45.3 164.6V166.6H36.6V168.8H43.2C43.9 168.8 44.7 168.8 45.4 169.4C46.1 170 46.1 170.7 46.1 171V173.4C46.1 173.7 46.1 174.4 45.4 174.9C44.7 175.5 43.5 175.5 42.8 175.5H34V164.6H45.3V164.6ZM36.5 170.7V173.6H42.3C42.6 173.6 43 173.6 43.3 173.4C43.4 173.3 43.5 173 43.5 172.7V171.6C43.5 171.4 43.5 171.1 43.2 170.9C43 170.7 42.6 170.7 42.4 170.7H36.5V170.7Z" fill="#383E41"/>
<path d="M62.1004 164.6V166.5H53.4004V168.9H58.4004V170.8H53.4004V173.6H62.2004V175.6H50.9004V164.7H62.1004V164.6Z" fill="#383E41"/>
<path d="M72.9992 164.6L77.5992 173.6H78.8992V177.7H76.4992V175.6H67.0992V177.7H64.6992V173.6H65.9992L70.4992 164.6H72.9992ZM75.0992 173.7L71.5992 166.8L68.1992 173.7H75.0992Z" fill="#383E41"/>
<path d="M84.7008 172.7L93.8008 164.6H96.0008V175.5H93.5008V167.4L84.4008 175.5H82.3008V164.6H84.8008V172.7H84.7008Z" fill="#383E41"/>
<path d="M104.1 168.9H112.1V164.7H114.6V175.6H112.1V170.9H104.1V175.6H101.6V164.7H104.1V168.9Z" fill="#383E41"/>
<path d="M122.8 168.6H128.6C129.4 168.6 130.6 168.5 131.3 169.3C131.5 169.5 131.8 170 131.8 170.7V173.4C131.8 173.7 131.8 174.4 131.1 174.9C130.4 175.5 129.2 175.5 128.5 175.5H120.1V164.6H122.6V168.6H122.8ZM122.8 170.4V173.6H128.2C128.5 173.6 128.9 173.6 129.2 173.4C129.3 173.3 129.4 173 129.4 172.7V171.3C129.4 171.1 129.4 170.8 129.1 170.6C128.9 170.4 128.5 170.4 128.3 170.4H122.8V170.4ZM134.7 164.6H137.2V175.5H134.7V164.6Z" fill="#383E41"/>
<path d="M145.4 172.7L154.5 164.6H156.6V175.5H154.1V167.4L145 175.5H142.9V164.6H145.4V172.7ZM153.2 160.6C153.3 161.4 153 162.2 152.6 162.7C151.9 163.5 150.8 163.6 149.8 163.6C148.8 163.6 147.7 163.5 147 162.7C146.6 162.2 146.3 161.4 146.4 160.6H148.1C148.1 161 148.2 161.3 148.4 161.6C148.7 161.9 149.1 162 149.8 162C150.5 162 151 161.8 151.2 161.6C151.4 161.4 151.5 161 151.5 160.6H153.2Z" fill="#383E41"/>
</g>
<defs>
<clipPath id="clip0">
<rect width="156.3" height="177.7" fill="white"/>
</clipPath>
</defs>
</svg>
