<svg width="409" height="153" viewBox="0 0 409 153" fill="none" xmlns="http://www.w3.org/2000/svg">
<path d="M68.6 14.8999H0V83.4999H68.6V14.8999Z" fill="#02996D"/>
<path d="M68.6 83.5H0V152.1H68.6V83.5Z" fill="#FDC60C"/>
<path d="M68.5996 83.5V152.1H137.2L68.5996 83.5Z" fill="black"/>
<path d="M148.6 49.1999C148.6 68.0999 133.2 83.4999 114.3 83.4999C95.4 83.4999 80 68.1999 80 49.1999C80 30.1999 95.4 14.8999 114.3 14.8999C133.3 14.8999 148.6 30.2999 148.6 49.1999Z" fill="#EA4041"/>
<path d="M68.6 83.4999C68.6 45.5999 37.9 14.8999 0 14.8999V83.4999H68.6Z" fill="#0065FB"/>
<path d="M268.6 5.8C268.6 9 266 11.6 262.8 11.6C259.6 11.6 257 9 257 5.8C257 2.6 259.6 0 262.8 0C266 0 268.6 2.6 268.6 5.8Z" fill="black"/>
<path d="M282 5.8C282 9 279.4 11.6 276.2 11.6C273 11.6 270.4 9 270.4 5.8C270.4 2.6 273 0 276.2 0C279.4 0 282 2.6 282 5.8Z" fill="black"/>
<path d="M183 14.8999H194.2V34.6999H194.3L206.8 14.8999H218.6L204 36.7999L219.5 58.8999H206.4L194.3 39.8999H194.2V58.8999H183V14.8999Z" fill="black"/>
<path d="M245.201 42.8999V58.8999H234.001V42.8999L220.801 14.8999H233.001L239.601 32.5999L246.201 14.8999H258.201L245.201 42.8999Z" fill="black"/>
<path d="M275.1 14.8999H263.9V58.8999H275.1V14.8999Z" fill="black"/>
<path d="M307.2 58.8999H295.6L280.9 14.8999H292.5L301.3 45.7999H301.4L310.4 14.8999H322L307.2 58.8999Z" fill="black"/>
<path d="M211.5 100.1C207.7 103.4 203.6 103.9 198.6 103.9H193.7V117.7H183V73.7H197.4C201.9 73.7 207.3 73.9 211 76.9C214.5 79.8 216.2 84 216.2 88.6C216.1 92.6 214.6 97.4 211.5 100.1ZM197.9 83.6H193.7V94H198.3C202 94 205.3 93.2 205.3 88.7C205.3 84.1 201.6 83.6 197.9 83.6Z" fill="black"/>
<path d="M242.299 117.7L232.099 103.5H231.999V117.7H221.199V73.7H235.099C239.699 73.7 244.899 73.8 248.699 76.9C252.299 79.8 254.099 84.3 254.099 88.9C254.099 95.7 250.099 101.6 243.199 102.8L255.199 117.8H242.299V117.7ZM236.099 83.6H231.999V95.9H235.999C240.199 95.9 243.399 94.1 243.399 89.6C243.399 85.2 239.999 83.6 236.099 83.6Z" fill="black"/>
<path d="M281.299 118.5C268.899 118.5 258.199 108.9 258.199 96.1999C258.199 92.8999 258.699 89.7999 259.899 86.7999C260.599 85.0999 261.599 83.2999 262.799 81.8999C267.299 75.8999 273.899 72.8999 281.399 72.8999C294.299 72.8999 304.699 82.7999 304.699 95.7999C304.699 108.7 294.199 118.5 281.299 118.5ZM281.399 82.6999C274.199 82.6999 269.399 88.6999 269.399 95.5999C269.399 102.6 274.199 108.7 281.499 108.7C288.599 108.7 293.299 102.5 293.299 95.7999C293.399 88.8999 288.599 82.6999 281.399 82.6999Z" fill="black"/>
<path d="M308.9 117.7V73.7H333.4V83.6H319.7V90.4H333V100.3H319.7V107.8H333.4V117.7H308.9Z" fill="black"/>
<path d="M364.3 117.7L352.3 98.7H352.1V117.7H340.9V73.7H352.1V93.5H352.3L364.7 73.7H376.5L361.9 95.6L377.4 117.7H364.3Z" fill="black"/>
<path d="M399.701 83.6V117.7H388.501V83.6H379.801V73.7H408.401V83.6H399.701Z" fill="black"/>
<path d="M185.7 149.8C183.8 148 182.9 145.8 182.9 143C182.9 140.2 183.8 138 185.7 136.2C187.6 134.4 189.9 133.6 192.7 133.6C194.5 133.6 196.1 134 197.5 134.7V138.4C196.1 137.5 194.5 137 192.8 137C191.1 137 189.7 137.6 188.5 138.7C187.4 139.8 186.8 141.2 186.8 142.9C186.8 144.6 187.4 146 188.6 147.2C189.8 148.3 191.2 148.8 193 148.8C195 148.8 196.6 148.3 197.9 147.2V150.9C196.4 151.8 194.7 152.2 192.8 152.2C189.9 152.4 187.6 151.5 185.7 149.8Z" fill="black"/>
<path d="M205.1 134H201.4V152H205.1V134Z" fill="black"/>
<path d="M208.199 134H223.299V137.3H217.599V152H213.899V137.3H208.199V134Z" fill="black"/>
<path d="M231.5 152V143.9L224.5 134H228.9L233.4 140.4L237.9 134H242.2L235.2 143.9V152H231.5Z" fill="black"/>
<path d="M250.5 150.5V146.6C251.2 147.2 252.2 147.8 253.5 148.3C254.8 148.8 256 149 257.2 149C259.2 149 260.7 148.3 260.7 146.9C260.7 146.3 260.4 145.7 259.8 145.4C259.5 145.2 259.3 145.1 258.8 144.9L258.2 144.7L256.8 144.3L255.5 143.9C255.2 143.8 254.8 143.7 254.3 143.5C253.8 143.3 253.4 143.1 253.1 143C252.6 142.7 251.7 142 251.4 141.4C251.1 140.8 250.8 139.9 250.8 138.9C250.8 137.3 251.4 136 252.6 135.1C253.8 134.2 255.5 133.7 257.6 133.7C259.7 133.7 261.7 134.2 263.5 135.2V138.8C261.7 137.7 259.7 137.1 257.6 137.1C255.6 137.1 254.5 137.7 254.5 138.9C254.5 139.5 254.9 139.9 255.5 140.1C255.8 140.3 256.5 140.5 257 140.6C257.5 140.7 258.4 141 259 141.2C260.7 141.7 261.7 142.2 262.9 143.1C264.1 144 264.7 145.2 264.7 146.9C264.7 148.6 264 150 262.7 151C261.3 152 259.6 152.5 257.6 152.5C254.7 152.4 252.4 151.7 250.5 150.5Z" fill="black"/>
<path d="M267.9 152V134H275.8C277.7 134 279.3 134.5 280.4 135.5C281.5 136.5 282.1 137.8 282.1 139.4C282.1 141 281.5 142.3 280.4 143.3C279.3 144.3 277.7 144.8 275.8 144.8H271.6V151.9H267.9V152ZM271.6 141.7H275.5C277.3 141.7 278.3 140.9 278.3 139.5C278.3 138.1 277.2 137.3 275.5 137.3H271.6V141.7Z" fill="black"/>
<path d="M281.801 152L289.501 133.9H293.101L300.801 152H296.901L295.101 147.8H287.501L285.701 152H281.801ZM288.601 144.8H293.901L291.301 138.5L288.601 144.8Z" fill="black"/>
<path d="M304.3 149.8C302.4 148 301.5 145.8 301.5 143C301.5 140.2 302.4 138 304.3 136.2C306.2 134.4 308.5 133.6 311.3 133.6C313.1 133.6 314.7 134 316.1 134.7V138.4C314.7 137.5 313.1 137 311.4 137C309.7 137 308.3 137.6 307.1 138.7C306 139.8 305.4 141.2 305.4 142.9C305.4 144.6 306 146 307.2 147.2C308.4 148.4 309.8 148.8 311.6 148.8C313.6 148.8 315.2 148.3 316.5 147.2V150.9C315 151.8 313.3 152.2 311.4 152.2C308.5 152.4 306.2 151.5 304.3 149.8Z" fill="black"/>
<path d="M319.9 152V134H333.1V137.3H323.6V140.8H331.3V144.1H323.6V148.7H333.4V152H319.9Z" fill="black"/>
</svg>
