<svg width="270" height="94" viewBox="0 0 270 94" fill="none" xmlns="http://www.w3.org/2000/svg">
<path d="M36.7992 21.2C35.1992 21.2 29.6992 21.4 28.5992 21.6C27.4992 21.9 26.3992 22.6 25.6992 23.5C24.1992 25.2 23.0992 26.6 22.6992 27.4C22.3992 27.7 22.3992 27.8 22.1992 27.7L21.3992 27.4C21.2992 27.4 21.1992 27.2 21.2992 27.1C21.4992 26.6 22.7992 20.8 22.9992 20.1C22.9992 19.8 23.0992 19.6 23.2992 19.5C23.4992 19.5 24.0992 19.7 24.8992 19.7C27.5992 19.7 38.6992 19.8 39.2992 19.8C44.0992 19.8 45.6992 19.7 46.0992 19.7C46.2992 19.7 46.3992 19.8 46.3992 20V21.2C46.3992 21.3 46.1992 21.4 46.0992 21.4H43.9992C42.8992 21.4 42.2992 21.8 42.2992 22.6C42.2992 23.1 42.1992 29 42.1992 30.9V33.9C42.1992 41.1 42.2992 46.5 42.2992 47.3C42.2992 48 42.6992 48.2 43.6992 48.2H45.3992C45.5992 48.2 45.6992 48.3 45.6992 48.5V49.6C45.6992 49.8 45.5992 49.9 45.3992 49.9C44.7992 49.9 43.1992 49.8 39.3992 49.8C35.2992 49.8 33.5992 49.9 33.1992 49.9C32.8992 49.9 32.8992 49.8 32.8992 49.6V48.5C32.8992 48.3 32.9992 48.2 33.1992 48.2H35.4992C36.4992 48.2 36.7992 48 36.7992 46.9V36.2C35.4992 36.2 33.5992 36.2 31.9992 36.5C31.1992 36.7 30.3992 37.3 29.8992 38.2C29.6992 38.6 29.2992 39.9 29.2992 40.2C29.2992 40.5 29.0992 40.5 28.9992 40.5L28.0992 40.3C27.8992 40.3 27.7992 40.2 27.7992 39.9C27.8992 39.1 28.0992 37 28.0992 35.5C28.0992 34.9 28.0992 31.5 27.9992 30.7C27.9992 30.5 28.0992 30.4 28.2992 30.4L29.0992 30.3C29.2992 30.3 29.3992 30.5 29.3992 30.6C29.5992 31.4 29.7992 32.2 30.1992 32.7C30.8992 33.8 31.5992 34.3 32.3992 34.3C33.0992 34.5 35.6992 34.5 36.8992 34.5V21.2H36.7992Z" fill="#383E41"/>
<path d="M57.3984 38.5001C57.3984 41.0001 57.4984 45.7001 57.5984 46.4001C57.6984 47.2001 57.9984 48.0001 58.6984 48.0001H60.7984C61.0984 48.0001 61.0984 48.1001 61.0984 48.3001V49.3001C61.0984 49.6001 60.9984 49.7001 60.5984 49.7001C60.0984 49.7001 59.1984 49.6001 54.7984 49.6001C50.6984 49.6001 49.6984 49.7001 49.1984 49.7001C48.8984 49.7001 48.8984 49.6001 48.8984 49.3001V48.3001C48.8984 48.1001 48.9984 48.0001 49.1984 48.0001H50.5984C51.4984 48.0001 52.1984 47.7001 52.1984 46.6001C52.2984 42.4001 52.2984 38.4001 52.2984 34.5001V23.4001C52.2984 22.0001 51.6984 21.3001 50.9984 21.3001H49.3984C49.1984 21.3001 49.0984 21.2001 49.0984 21.0001V19.9001C49.0984 19.7001 49.1984 19.6001 49.3984 19.6001C49.6984 19.6001 50.9984 19.7001 55.1984 19.7001C57.5984 19.7001 61.3984 19.6001 62.6984 19.6001C66.0984 19.6001 68.6984 20.7001 70.3984 22.3001C71.8984 23.6001 72.6984 25.4001 72.6984 27.0001C72.6984 32.3001 69.4984 34.5001 64.8984 35.3001V35.5001C66.0984 35.9001 66.7984 36.7001 67.3984 37.4001C67.8984 38.1001 70.4984 42.0001 70.8984 42.5001C71.1984 42.9001 73.7984 46.7001 74.4984 47.3001C75.2984 48.0001 76.4984 48.1001 77.4984 48.1001C77.7984 48.1001 77.7984 48.2001 77.7984 48.4001V49.3001C77.7984 49.6001 77.6984 49.7001 77.4984 49.7001C77.1984 49.7001 76.0984 49.6001 73.3984 49.6001C72.1984 49.6001 70.5984 49.7001 69.6984 49.7001C69.1984 49.3001 68.3984 48.2001 67.7984 47.3001C66.9984 46.1001 65.3984 43.1001 64.9984 42.4001C64.5984 41.6001 63.3984 39.7001 62.6984 38.8001C61.5984 37.3001 60.6984 36.2001 58.8984 36.2001C58.6984 36.2001 57.9984 36.2001 57.5984 36.3001V38.5001H57.3984ZM57.4984 34.7001C58.0984 34.8001 58.5984 34.9001 59.0984 34.9001C65.6984 34.9001 66.9984 29.6001 66.9984 27.7001C66.9984 25.8001 66.1984 24.0001 65.0984 23.0001C63.5984 21.7001 61.5984 21.2001 59.4984 21.2001C58.7984 21.2001 58.2984 21.2001 57.9984 21.5001C57.6984 21.7001 57.4984 22.2001 57.4984 22.7001V34.7001Z" fill="#383E41"/>
<path d="M85.3984 38C85.0984 39 82.9984 45 82.7984 46.1C82.6984 46.4 82.6984 46.8 82.6984 47C82.6984 47.5 83.3984 48 84.1984 48H85.9984C86.2984 48 86.3984 48.1 86.3984 48.2V49.3C86.3984 49.6 86.2984 49.7 86.0984 49.7C85.4984 49.7 83.6984 49.6 80.7984 49.6C77.6984 49.6 76.7984 49.7 76.1984 49.7C75.8984 49.7 75.8984 49.4 75.8984 49.2V48.4C75.8984 48.1 75.9984 48.1 76.1984 48.1H77.4984C78.6984 48.1 79.3984 47.5 80.1984 46.2C80.5984 45.4 83.6984 37.9 84.8984 34.3C85.1984 33.5 88.5984 24.4 88.9984 23.3C89.0984 22.9 89.2984 22.1 89.0984 21.9C88.9984 21.8 88.7984 21.5 88.7984 21.4C88.7984 21.2 88.8984 21.1 89.1984 21C90.4984 20.7 92.8984 19.4 93.3984 18.9C93.6984 18.6 93.7984 18.5 93.9984 18.5C94.2984 18.5 94.3984 19 94.4984 19.3C95.2984 21.9 98.4984 31.4 99.2984 34C100.298 37.3 102.998 45.1 103.598 46.3C104.398 47.7 105.498 48.2 106.298 48.2H107.598C107.898 48.2 107.898 48.3 107.898 48.5V49.4C107.898 49.7 107.798 49.9 107.498 49.9C106.698 49.9 105.898 49.8 101.298 49.8C97.7984 49.8 96.2984 49.9 95.3984 49.9C95.0984 49.9 94.9984 49.6 94.9984 49.4V48.6C94.9984 48.3 95.0984 48.3 95.2984 48.3H96.3984C97.5984 48.3 97.8984 47.9 97.6984 46.7C97.3984 45.2 95.6984 39.8 95.1984 38.2H85.3984V38ZM94.7984 36.3C94.3984 35.1 91.4984 25.5 91.2984 24.6C91.0984 24.1 90.9984 23.8 90.8984 23.8C90.5984 23.8 90.4984 24 90.3984 24.3C90.1984 24.8 86.3984 35.2 86.0984 36.2H94.7984V36.3Z" fill="#383E41"/>
<path d="M115.098 30.4999C115.098 37.6999 115.398 43.5999 115.498 44.8999C115.598 46.9999 116.098 47.9999 117.598 47.9999H118.698C118.998 47.9999 118.998 48.1999 118.998 48.3999V49.3999C118.998 49.6999 118.998 49.6999 118.698 49.6999C118.298 49.6999 115.798 49.5999 114.098 49.5999C112.998 49.5999 110.098 49.6999 109.698 49.6999C109.498 49.6999 109.398 49.5999 109.398 49.2999V48.1999C109.398 48.0999 109.498 47.8999 109.698 47.8999H111.098C112.198 47.8999 112.798 46.9999 112.998 44.3999C112.998 43.5999 113.298 37.6999 113.298 30.9999V25.5999C113.298 23.0999 111.898 21.0999 109.998 21.0999H108.698C108.498 21.0999 108.398 20.9999 108.398 20.7999V19.6999C108.398 19.4999 108.498 19.3999 108.698 19.3999C108.898 19.3999 109.198 19.3999 109.998 19.4999C110.798 19.4999 111.898 19.4999 113.798 19.4999C114.498 19.4999 115.098 19.4999 115.698 19.3999C116.198 19.3999 116.598 19.3999 116.898 19.3999C117.398 19.3999 117.698 19.4999 117.898 19.7999C118.298 20.1999 126.598 30.5999 127.398 31.7999C127.998 32.4999 134.598 40.6999 135.198 41.4999H135.398V37.0999C135.398 33.3999 135.398 31.2999 135.298 29.1999C135.198 27.5999 134.998 23.4999 134.798 22.7999C134.498 21.7999 133.598 21.1999 132.598 21.1999H131.298C130.998 21.1999 130.998 20.9999 130.998 20.7999V19.7999C130.998 19.4999 130.998 19.4999 131.298 19.4999C131.798 19.4999 133.198 19.5999 135.998 19.5999C138.498 19.5999 139.498 19.4999 139.998 19.4999C140.298 19.4999 140.398 19.6999 140.398 19.7999V20.7999C140.398 21.0999 140.298 21.1999 140.098 21.1999H138.898C138.098 21.1999 137.598 21.8999 137.498 23.3999C137.298 26.2999 136.898 33.2999 136.898 37.5999V48.6999C136.898 49.2999 136.898 49.8999 136.398 49.8999C135.798 49.8999 135.298 49.5999 134.998 49.1999C134.698 48.7999 132.398 46.1999 129.798 42.9999C126.898 39.3999 123.598 35.3999 123.098 34.6999C122.498 34.0999 115.798 25.6999 115.298 25.0999H114.998V30.4999H115.098Z" fill="#383E41"/>
<path d="M152.5 38.2001C152.5 40.3001 152.6 46.5001 152.6 47.1001C152.6 47.7001 153.1 48.0001 153.6 48.0001H155.2C155.4 48.0001 155.5 48.1001 155.5 48.2001V49.3001C155.5 49.5001 155.4 49.6001 155.2 49.6001C154.7 49.6001 153.4 49.5001 149.8 49.5001C146.2 49.5001 144.8 49.6001 144.4 49.6001C144.2 49.6001 144.1 49.5001 144.1 49.3001V48.2001C144.1 48.0001 144.2 47.9001 144.4 47.9001H145.9C146.7 47.9001 147 47.6001 147 47.1001C147 46.8001 147.1 39.1001 147.1 33.9001V31.5001C147.1 30.7001 147 22.6001 147 22.3001C147 21.8001 146.7 21.3001 145.7 21.3001H144.4C144.1 21.3001 144.1 21.2001 144.1 21.0001V19.9001C144.1 19.7001 144.2 19.6001 144.4 19.6001C144.9 19.6001 146.2 19.7001 149.8 19.7001C153.1 19.7001 154.4 19.6001 155 19.6001C155.3 19.6001 155.3 19.7001 155.3 19.9001V21.0001C155.3 21.3001 155.2 21.3001 155 21.3001H153.7C152.9 21.3001 152.4 21.6001 152.4 22.5001C152.4 23.2001 152.2 29.7001 152.2 31.8001V33.7001H153C153.5 33.7001 153.9 33.5001 154.4 33.1001C155.2 32.4001 162.5 23.3001 163 22.7001C163.6 21.9001 163.1 21.4001 162.3 21.4001H162C161.8 21.4001 161.8 21.3001 161.8 21.1001V20.1001C161.8 19.8001 161.9 19.8001 162.1 19.8001C162.6 19.8001 164.3 19.9001 167.1 19.9001C168.8 19.9001 170.2 19.8001 170.7 19.8001C171 19.8001 171 19.9001 171 20.1001V21.0001C171 21.3001 170.8 21.3001 170.7 21.3001H169.9C169.3 21.3001 168.4 21.5001 167.5 22.0001C165.5 23.3001 159.6 30.2001 158 32.3001C159.7 34.4001 168.3 45.5001 169.5 47.0001C170.3 47.9001 171.4 48.0001 172 48.0001H172.9C173.2 48.0001 173.2 48.2001 173.2 48.3001V49.4001C173.2 49.7001 173.1 49.7001 172.9 49.7001C172.5 49.7001 171 49.6001 167.1 49.6001C163.6 49.6001 162 49.7001 161.4 49.7001C161.2 49.7001 161.1 49.6001 161.1 49.4001V48.3001C161.1 48.1001 161.2 48.0001 161.4 48.0001H162C162.8 48.0001 162.8 47.2001 162.7 46.9001C162.3 46.1001 155.5 36.3001 154.8 35.6001C154.4 35.2001 153.9 35.0001 153.4 35.0001H152.6V38.2001H152.5Z" fill="#383E41"/>
<path d="M199.6 40.9001C199.7 41.0001 199.7 41.1001 199.7 41.3001C199.5 41.6001 197.8 48.5001 197.6 49.7001C196.5 49.7001 184.4 49.6001 180.1 49.6001C176.3 49.6001 174.8 49.7001 174.3 49.7001C174 49.7001 174 49.6001 174 49.3001V48.3001C174 48.0001 174 48.0001 174.3 48.0001H176C177.5 48.0001 177.8 47.4001 177.8 46.9001C177.8 46.1001 178 35.6001 178 33.1001V30.7001C178 28.0001 177.9 23.5001 177.8 22.8001C177.7 21.7001 177.5 21.3001 176.5 21.3001H174.7C174.4 21.3001 174.4 21.0001 174.4 20.9001V19.9001C174.4 19.6001 174.5 19.6001 174.7 19.6001C175.1 19.6001 176.6 19.7001 180.5 19.7001C185.1 19.7001 186.8 19.6001 187.2 19.6001C187.5 19.6001 187.6 19.8001 187.6 20.0001V21.0001C187.6 21.2001 187.5 21.3001 187.2 21.3001H184.9C183.6 21.3001 183.5 21.7001 183.5 22.9001C183.5 23.5001 183.3 29.8001 183.3 32.8001V36.4001C183.3 37.2001 183.3 46.3001 183.5 48.1001H185.9C188.3 48.1001 191.3 48.1001 193 47.9001C195.4 47.6001 198.1 42.5001 198.6 40.9001C198.8 40.7001 198.9 40.6001 199.1 40.7001L199.6 40.9001Z" fill="#383E41"/>
<path d="M210.098 35.9001C210.098 36.3001 210.198 46.0001 210.198 46.5001C210.198 47.8001 210.898 48.0001 211.898 48.0001H213.698C213.898 48.0001 213.998 48.1001 213.998 48.3001V49.4001C213.998 49.7001 213.798 49.7001 213.598 49.7001C213.098 49.7001 211.398 49.6001 207.398 49.6001C203.198 49.6001 201.298 49.7001 200.898 49.7001C200.598 49.7001 200.598 49.6001 200.598 49.4001V48.3001C200.598 48.1001 200.698 48.0001 200.898 48.0001H202.598C203.398 48.0001 204.398 47.9001 204.498 46.8001C204.598 46.2001 204.698 37.1001 204.698 34.8001V31.8001C204.698 30.8001 204.598 23.2001 204.598 22.7001C204.498 21.7001 204.098 21.3001 202.898 21.3001H200.698C200.398 21.3001 200.398 21.2001 200.398 21.0001V19.9001C200.398 19.7001 200.498 19.6001 200.698 19.6001C201.198 19.6001 203.398 19.7001 207.498 19.7001C211.498 19.7001 212.898 19.6001 213.498 19.6001C213.798 19.6001 213.798 19.8001 213.798 20.0001V21.0001C213.798 21.3001 213.598 21.3001 213.498 21.3001H211.898C210.998 21.3001 210.298 21.6001 210.298 22.4001C210.298 22.8001 210.198 32.1001 210.198 32.6001V35.9001H210.098Z" fill="#383E41"/>
<path d="M222.999 30.4999C222.999 37.6999 223.299 43.5999 223.399 44.8999C223.499 46.9999 223.999 47.9999 225.499 47.9999H226.599C226.899 47.9999 226.899 48.1999 226.899 48.3999V49.3999C226.899 49.6999 226.899 49.6999 226.599 49.6999C226.199 49.6999 223.699 49.5999 221.999 49.5999C220.899 49.5999 217.999 49.6999 217.599 49.6999C217.399 49.6999 217.299 49.5999 217.299 49.2999V48.1999C217.299 48.0999 217.399 47.8999 217.599 47.8999H218.999C220.099 47.8999 220.699 46.9999 220.899 44.3999C220.899 43.5999 221.199 37.6999 221.199 30.9999V25.5999C221.199 23.0999 219.799 21.0999 217.899 21.0999H216.599C216.399 21.0999 216.299 20.9999 216.299 20.7999V19.6999C216.299 19.4999 216.399 19.3999 216.599 19.3999C216.799 19.3999 217.099 19.3999 217.899 19.4999C218.699 19.4999 219.799 19.4999 221.699 19.4999C222.399 19.4999 222.999 19.4999 223.599 19.3999C224.099 19.3999 224.499 19.3999 224.799 19.3999C225.299 19.3999 225.599 19.4999 225.799 19.7999C226.199 20.1999 234.499 30.5999 235.299 31.7999C235.899 32.4999 242.499 40.6999 243.099 41.4999H243.299V37.0999C243.299 33.3999 243.299 31.2999 243.199 29.1999C243.099 27.5999 242.899 23.4999 242.699 22.7999C242.399 21.7999 241.499 21.1999 240.499 21.1999H239.199C238.899 21.1999 238.899 20.9999 238.899 20.7999V19.7999C238.899 19.4999 238.899 19.4999 239.199 19.4999C239.699 19.4999 241.099 19.5999 243.899 19.5999C246.399 19.5999 247.399 19.4999 247.899 19.4999C248.199 19.4999 248.299 19.6999 248.299 19.7999V20.7999C248.299 21.0999 248.199 21.1999 247.999 21.1999H246.999C246.199 21.1999 245.699 21.8999 245.599 23.3999C245.399 26.2999 244.999 33.2999 244.999 37.5999V48.6999C244.999 49.2999 244.999 49.8999 244.499 49.8999C243.899 49.8999 243.399 49.5999 243.099 49.1999C242.799 48.7999 240.499 46.1999 237.899 42.9999C234.999 39.3999 231.699 35.3999 231.199 34.6999C230.599 34.0999 223.899 25.6999 223.399 25.0999H222.999V30.4999Z" fill="#383E41"/>
<path d="M56.5 66.7C56.9 66.8 57.2 66.9 57.4 67.1C57.6 67.3 57.9 67.4 58 67.6C58.1 67.8 58.3 67.9 58.4 68L58.5 68.2L57.7 69L57.6 68.9C57.6 68.8 57.5 68.7 57.3 68.6C57.1 68.5 57 68.3 56.8 68.2C56.6 68.1 56.4 68 56.1 67.9C55.8 67.8 55.5 67.8 55.2 67.8C54.4 67.8 53.7 68.1 53.1 68.7C52.5 69.3 52.2 70 52.2 70.8C52.2 71.6 52.5 72.3 53.1 72.9C53.7 73.5 54.4 73.8 55.2 73.8C55.5 73.8 55.8 73.8 56.1 73.7C56.4 73.6 56.6 73.5 56.8 73.4C57 73.3 57.2 73.2 57.3 73C57.4 72.9 57.6 72.8 57.6 72.7L57.7 72.6L58.5 73.4C58.5 73.4 58.4 73.5 58.4 73.6C58.3 73.7 58.2 73.8 58 74C57.8 74.2 57.6 74.3 57.3 74.5C57.1 74.6 56.8 74.8 56.4 74.9C56 75 55.6 75.1 55.2 75.1C54 75.1 53 74.7 52.2 73.9C51.4 73.1 51 72.1 51 71C51 69.9 51.4 68.9 52.2 68.1C53 67.3 54 66.9 55.2 66.9C55.8 66.5 56.2 66.6 56.5 66.7Z" fill="#383E41"/>
<path d="M68.6004 67.7C69.4004 66.9 70.4004 66.5 71.6004 66.5C72.8004 66.5 73.8004 66.9 74.6004 67.7C75.4004 68.5 75.8004 69.5 75.8004 70.6C75.8004 71.7 75.4004 72.7 74.6004 73.5C73.8004 74.3 72.8004 74.7 71.6004 74.7C70.4004 74.7 69.4004 74.3 68.6004 73.5C67.8004 72.7 67.4004 71.7 67.4004 70.6C67.4004 69.5 67.8004 68.5 68.6004 67.7ZM69.5004 72.7C70.1004 73.3 70.8004 73.6 71.6004 73.6C72.4004 73.6 73.1004 73.3 73.7004 72.7C74.3004 72.1 74.6004 71.4 74.6004 70.6C74.6004 69.8 74.3004 69.1 73.7004 68.5C73.1004 67.9 72.4004 67.6 71.6004 67.6C70.8004 67.6 70.1004 67.9 69.5004 68.5C68.9004 69.1 68.6004 69.8 68.6004 70.6C68.6004 71.5 68.9004 72.2 69.5004 72.7Z" fill="#383E41"/>
<path d="M92.2008 66.6001V74.6001H91.1008L86.6008 68.8001V74.6001H85.3008V66.6001H86.4008L90.9008 72.4001V66.6001H92.2008Z" fill="#383E41"/>
<path d="M107.199 66.7C107.599 66.8 107.899 66.9 108.099 67.1C108.299 67.3 108.599 67.4 108.699 67.6C108.899 67.7 108.999 67.9 109.099 68L109.199 68.2L108.399 69L108.299 68.9C108.299 68.8 108.199 68.7 107.999 68.6C107.799 68.5 107.699 68.3 107.499 68.2C107.299 68.1 107.099 68 106.799 67.9C106.499 67.8 106.199 67.8 105.899 67.8C105.099 67.8 104.399 68.1 103.799 68.7C103.199 69.3 102.899 70 102.899 70.8C102.899 71.6 103.199 72.3 103.799 72.9C104.399 73.5 105.099 73.8 105.899 73.8C106.199 73.8 106.499 73.8 106.799 73.7C107.099 73.6 107.299 73.5 107.499 73.4C107.699 73.3 107.899 73.2 107.999 73C108.099 72.9 108.299 72.8 108.299 72.7L108.399 72.6L109.199 73.4C109.199 73.4 109.099 73.5 109.099 73.6C108.999 73.7 108.899 73.8 108.699 74C108.499 74.2 108.299 74.3 107.999 74.5C107.799 74.6 107.499 74.8 107.099 74.9C106.699 75 106.299 75.1 105.899 75.1C104.699 75.1 103.699 74.7 102.899 73.9C102.099 73.1 101.699 72.1 101.699 71C101.699 69.9 102.099 68.9 102.899 68.1C103.699 67.3 104.699 66.9 105.899 66.9C106.499 66.5 106.799 66.6 107.199 66.7Z" fill="#383E41"/>
<path d="M124.499 73.5001V74.6001H118.699V66.6001H124.399V67.7001H119.999V69.8001H123.499V71.0001H119.999V73.5001H124.499Z" fill="#383E41"/>
<path d="M137.2 66.6001C138 66.6001 138.6 66.9001 139.1 67.4001C139.6 67.9001 139.9 68.5001 139.9 69.2001C139.9 69.9001 139.6 70.5001 139.1 71.0001C138.6 71.5001 137.9 71.7001 137.2 71.7001H135.3V74.6001H134V66.6001H137.2ZM135.2 67.8001V70.7001H137.1C137.5 70.7001 137.8 70.6001 138.1 70.3001C138.4 70.0001 138.5 69.7001 138.5 69.3001C138.5 68.9001 138.4 68.6001 138.1 68.3001C137.8 68.0001 137.5 67.9001 137.1 67.9001H135.2V67.8001Z" fill="#383E41"/>
<path d="M154.6 66.6001V67.7001H152.2V74.6001H151V67.7001H148.6V66.6001H154.6Z" fill="#383E41"/>
<path d="M180.301 74.6001H179.001V71.1001H175.101V74.6001H173.801V66.6001H175.101V70.0001H179.001V66.6001H180.301V74.6001Z" fill="#383E41"/>
<path d="M191.1 67.7C191.9 66.9 192.9 66.5 194.1 66.5C195.3 66.5 196.3 66.9 197.1 67.7C197.9 68.5 198.3 69.5 198.3 70.6C198.3 71.7 197.9 72.7 197.1 73.5C196.3 74.3 195.3 74.7 194.1 74.7C192.9 74.7 191.9 74.3 191.1 73.5C190.3 72.7 189.9 71.7 189.9 70.6C189.9 69.5 190.3 68.5 191.1 67.7ZM192 72.7C192.6 73.3 193.3 73.6 194.1 73.6C194.9 73.6 195.6 73.3 196.2 72.7C196.8 72.1 197.1 71.4 197.1 70.6C197.1 69.8 196.8 69.1 196.2 68.5C195.6 67.9 194.9 67.6 194.1 67.6C193.3 67.6 192.6 67.9 192 68.5C191.4 69.1 191.1 69.8 191.1 70.6C191.1 71.5 191.4 72.2 192 72.7Z" fill="#383E41"/>
<path d="M212.701 73C213.101 72.6 213.301 72.1 213.301 71.5V66.7H214.601V71.5C214.601 72.4 214.301 73.2 213.601 73.8C212.901 74.4 212.101 74.8 211.201 74.8C210.301 74.8 209.501 74.5 208.801 73.8C208.101 73.2 207.801 72.4 207.801 71.5V66.7H209.101V71.5C209.101 72.1 209.301 72.6 209.701 73C210.101 73.4 210.601 73.6 211.201 73.6C211.701 73.6 212.201 73.4 212.701 73Z" fill="#383E41"/>
<path d="M228.001 71.7C227.801 71.5 227.601 71.4 227.401 71.3C227.201 71.2 226.901 71.1 226.601 71C226.301 70.9 226.001 70.8 225.701 70.7C225.401 70.6 225.101 70.5 224.901 70.3C224.701 70.1 224.501 69.9 224.301 69.6C224.101 69.3 224.101 69 224.101 68.6C224.101 68 224.301 67.5 224.801 67.1C225.301 66.7 225.901 66.5 226.701 66.5C227.001 66.5 227.301 66.5 227.601 66.6C227.901 66.7 228.101 66.8 228.301 66.9C228.501 67 228.601 67.1 228.801 67.2C228.901 67.3 229.001 67.4 229.101 67.5L229.201 67.6L228.401 68.4C228.401 68.4 228.401 68.4 228.301 68.3C228.301 68.3 228.201 68.2 228.101 68.1C228.001 68 227.901 68 227.801 67.9C227.701 67.8 227.501 67.8 227.401 67.7C227.201 67.7 227.001 67.6 226.801 67.6C226.401 67.6 226.101 67.7 225.801 67.9C225.501 68.1 225.401 68.3 225.401 68.6C225.401 68.8 225.501 69.1 225.601 69.2C225.701 69.3 226.001 69.5 226.201 69.6C226.401 69.7 226.701 69.8 227.001 69.9C227.301 70 227.601 70.1 227.901 70.2C228.201 70.3 228.501 70.4 228.701 70.6C228.901 70.8 229.101 71 229.301 71.3C229.501 71.6 229.501 71.9 229.501 72.3C229.501 73 229.201 73.6 228.701 74C228.201 74.4 227.501 74.7 226.601 74.7C226.201 74.7 225.901 74.7 225.601 74.6C225.301 74.5 225.001 74.4 224.801 74.3C224.601 74.2 224.401 74.1 224.201 73.9C224.001 73.8 223.901 73.7 223.901 73.6L223.801 73.5L224.601 72.7C224.601 72.7 224.601 72.8 224.701 72.8C224.701 72.8 224.801 72.9 224.901 73C225.001 73.1 225.201 73.2 225.301 73.3C225.401 73.4 225.601 73.5 225.901 73.5C226.101 73.6 226.401 73.6 226.701 73.6C227.201 73.6 227.601 73.5 227.901 73.2C228.201 73 228.301 72.7 228.301 72.3C228.301 72.1 228.201 71.9 228.001 71.7Z" fill="#383E41"/>
<path d="M244.8 73.5001V74.6001H239V66.6001H244.7V67.7001H240.3V69.8001H243.8V71.0001H240.3V73.5001H244.8Z" fill="#383E41"/>
</svg>
