<svg width="380" height="248" viewBox="0 0 380 248" fill="none" xmlns="http://www.w3.org/2000/svg">
<path d="M47.1505 148.15H94.7205C95.0607 148.15 95.3975 148.083 95.7117 147.953C96.0259 147.823 96.3114 147.632 96.552 147.392C96.7925 147.151 96.9832 146.865 97.1134 146.551C97.2436 146.237 97.3105 145.9 97.3105 145.56V100.37L118.371 79.3701L139.431 100.37V145.56C139.431 145.9 139.498 146.237 139.628 146.551C139.758 146.865 139.949 147.151 140.189 147.392C140.43 147.632 140.715 147.823 141.029 147.953C141.344 148.083 141.68 148.15 142.021 148.15C142.248 148.104 142.483 148.104 142.711 148.15H162.391C163.019 148.15 163.627 147.92 164.098 147.504C164.569 147.088 164.873 146.514 164.951 145.89C165.145 145.509 165.248 145.088 165.251 144.66V95.6001L191.301 64.4101L216.301 94.9701V145.61C216.302 146.297 216.576 146.954 217.061 147.44C217.3 147.682 217.585 147.873 217.899 148.004C218.213 148.134 218.55 148.201 218.891 148.2L238.461 148.15C239.146 148.147 239.802 147.873 240.285 147.388C240.769 146.903 241.041 146.245 241.041 145.56V100.37L262.101 79.3701L283.161 100.37V145.56C283.161 145.9 283.228 146.237 283.358 146.551C283.488 146.865 283.679 147.151 283.919 147.392C284.16 147.632 284.445 147.823 284.759 147.953C285.074 148.083 285.41 148.15 285.751 148.15H333.321C334.007 148.15 334.666 147.877 335.152 147.392C335.638 146.906 335.911 146.247 335.911 145.56C335.911 144.873 335.638 144.214 335.152 143.729C334.666 143.243 334.007 142.97 333.321 142.97H318.131V113.18L335.601 95.4301C335.993 95.0301 336.245 94.5137 336.319 93.9584C336.393 93.4031 336.285 92.8388 336.011 92.3501L318.011 60.6301C317.783 60.2318 317.454 59.9008 317.057 59.6707C316.66 59.4406 316.209 59.3196 315.751 59.3201C315.307 59.3259 314.872 59.4435 314.485 59.662C314.099 59.8805 313.774 60.1928 313.541 60.5701L294.541 92.2901C294.243 92.7845 294.119 93.3646 294.19 93.9374C294.261 94.5103 294.521 95.0429 294.931 95.4501L312.931 113.33V143H288.361V99.3001C288.358 98.6139 288.085 97.9565 287.601 97.4701L263.951 73.9201C263.464 73.4407 262.809 73.172 262.126 73.172C261.443 73.172 260.787 73.4407 260.301 73.9201L236.651 97.4601C236.166 97.9465 235.893 98.6039 235.891 99.2901V143H221.491V94.6801L245.901 63.3501C246.238 62.9001 246.421 62.3527 246.421 61.7901C246.421 61.2275 246.238 60.6802 245.901 60.2301L219.471 24.0001C219.22 23.6738 218.895 23.4126 218.523 23.2385C218.15 23.0645 217.741 22.9827 217.331 23.0001C216.915 23.0075 216.507 23.115 216.141 23.3135C215.776 23.5119 215.463 23.7954 215.231 24.1401L191.461 59.3101L165.251 2.84011C165.049 2.40895 164.732 2.04177 164.335 1.77891C163.938 1.51605 163.476 1.36768 163.001 1.35011H162.931C162.45 1.34886 161.979 1.48217 161.571 1.73492C161.163 1.98767 160.834 2.34974 160.621 2.78011L131.371 60.9001C131.138 61.3607 131.049 61.8803 131.115 62.3919C131.181 62.9035 131.399 63.3835 131.741 63.7701L160.001 95.8801V143H144.601V99.3001C144.598 98.6139 144.325 97.9565 143.841 97.4701L120.191 73.9201C119.704 73.4407 119.049 73.172 118.366 73.172C117.683 73.172 117.027 73.4407 116.541 73.9201L92.8905 97.4601C92.4065 97.9465 92.1335 98.6039 92.1305 99.2901V143H68.7505V113.81L86.7505 95.7501C87.1558 95.3427 87.414 94.8121 87.4846 94.2419C87.5552 93.6716 87.4342 93.094 87.1405 92.6001L68.1405 60.6001C67.9085 60.2103 67.5781 59.8883 67.1824 59.6663C66.7868 59.4443 66.3398 59.3301 65.8862 59.3351C65.4325 59.3402 64.9881 59.4643 64.5976 59.6951C64.207 59.9259 63.8839 60.2552 63.6605 60.6501L45.6605 92.6501C45.3893 93.1371 45.2818 93.6984 45.3538 94.2511C45.4258 94.8039 45.6736 95.3189 46.0605 95.7201L63.5505 113.65V143H47.1505C46.4636 143 45.8049 143.273 45.3191 143.759C44.8334 144.244 44.5605 144.903 44.5605 145.59C44.5605 146.277 44.8334 146.936 45.3191 147.422C45.8049 147.907 46.4636 148.18 47.1505 148.18V148.15ZM81.6505 93.5201L68.7505 106.52V100.78L75.5405 92.6101C75.7579 92.3475 75.9214 92.0446 76.0216 91.7188C76.1219 91.3929 76.1571 91.0506 76.125 90.7112C76.093 90.3718 75.9944 90.042 75.8349 89.7407C75.6755 89.4394 75.4582 89.1724 75.1955 88.9551C74.9329 88.7378 74.63 88.5743 74.3042 88.474C73.9784 88.3737 73.636 88.3386 73.2966 88.3706C72.9572 88.4027 72.6274 88.5012 72.3261 88.6607C72.0248 88.8202 71.7579 89.0375 71.5405 89.3001L68.7305 92.6801V86.5001L72.0905 83.1401C72.5763 82.6855 72.8676 82.0608 72.9038 81.3964C72.9399 80.7321 72.7179 80.0795 72.2843 79.5749C71.8507 79.0703 71.2389 78.7527 70.5767 78.6885C69.9145 78.6242 69.2531 78.8183 68.7305 79.2301V76.4101C68.7305 75.7232 68.4577 75.0644 67.972 74.5787C67.4862 74.093 66.8275 73.8201 66.1405 73.8201C65.4536 73.8201 64.7949 74.093 64.3091 74.5787C63.8234 75.0644 63.5505 75.7232 63.5505 76.4101V84.9301C63.4637 85.2984 63.4637 85.6818 63.5505 86.0501V87.4801L61.3105 84.8501C60.859 84.3485 60.2295 84.0429 59.5561 83.9984C58.8826 83.954 58.2184 84.1742 57.7049 84.6121C57.1914 85.0501 56.8691 85.6712 56.8066 86.3432C56.7442 87.0152 56.9465 87.685 57.3705 88.2101L63.5505 95.4701V106.24L51.1505 93.5101L66.0005 67.0901L81.6505 93.5201ZM165.221 87.5201V67.5201L169.471 62.5201L177.751 64.3501C178.089 64.4444 178.444 64.4686 178.792 64.4214C179.141 64.3742 179.476 64.2565 179.778 64.0755C180.079 63.8945 180.341 63.654 180.546 63.3686C180.752 63.0832 180.897 62.759 180.973 62.4156C181.049 62.0723 181.055 61.717 180.989 61.3715C180.924 61.026 180.788 60.6975 180.591 60.406C180.395 60.1144 180.141 59.8661 179.845 59.6759C179.549 59.4858 179.217 59.3579 178.871 59.3001L173.271 58.0601L175.111 55.8901C175.535 55.365 175.737 54.6952 175.674 54.0232C175.612 53.3512 175.29 52.7301 174.776 52.2921C174.263 51.8542 173.598 51.634 172.925 51.6784C172.252 51.7229 171.622 52.0285 171.171 52.5301L165.221 59.5301V53.1701C165.3 52.8144 165.3 52.4458 165.221 52.0901V46.0001L170.591 40.7201C171.035 40.2338 171.277 39.5964 171.268 38.9377C171.259 38.2791 171 37.6486 170.542 37.1745C170.085 36.7005 169.464 36.4186 168.806 36.3862C168.148 36.3538 167.502 36.5733 167.001 37.0001L165.261 38.7101V30.1801C165.261 29.8347 165.193 29.4927 165.06 29.1736C164.928 28.8546 164.734 28.5646 164.49 28.3204C164.246 28.0762 163.956 27.8825 163.637 27.7503C163.318 27.6181 162.976 27.5501 162.631 27.5501C162.285 27.5501 161.943 27.6181 161.624 27.7503C161.305 27.8825 161.015 28.0762 160.771 28.3204C160.527 28.5646 160.333 28.8546 160.201 29.1736C160.069 29.4927 160.001 29.8347 160.001 30.1801V46.2401L158.001 44.3101C157.764 44.0462 157.476 43.8336 157.155 43.6855C156.833 43.5373 156.484 43.4567 156.13 43.4486C155.776 43.4406 155.424 43.5053 155.096 43.6387C154.768 43.7721 154.47 43.9713 154.222 44.2242C153.974 44.477 153.781 44.7781 153.654 45.1087C153.527 45.4393 153.469 45.7925 153.483 46.1464C153.498 46.5003 153.586 46.8474 153.74 47.1663C153.894 47.4851 154.112 47.7689 154.381 48.0001L160.001 53.5601V64.2801L153.131 56.0001C152.769 55.5448 152.263 55.2257 151.696 55.0949C151.13 54.9642 150.535 55.0295 150.01 55.2803C149.486 55.5311 149.061 55.9524 148.807 56.4755C148.553 56.9986 148.484 57.5925 148.611 58.1601L142.521 58.6301C141.837 58.6837 141.202 59.0066 140.756 59.5278C140.309 60.049 140.088 60.726 140.141 61.4101C140.193 62.0592 140.487 62.6649 140.965 63.1075C141.443 63.5501 142.069 63.7972 142.721 63.8001H142.921L152.271 63.0801L159.971 72.3501V88.0001L136.781 61.6701L162.781 9.88011L186.781 61.6601L165.221 87.5201ZM221.481 86.2501V82.1501L232.081 66.8901C232.478 66.3265 232.636 65.628 232.519 64.9482C232.402 64.2683 232.019 63.6629 231.456 63.2651C230.892 62.8673 230.193 62.7096 229.514 62.8268C228.834 62.9441 228.228 63.3265 227.831 63.8901L227.531 64.3201C227.075 63.9781 226.521 63.7923 225.951 63.7901V63.7901C225.61 63.7966 225.275 63.8701 224.963 64.0063C224.651 64.1425 224.37 64.3388 224.134 64.5839C223.898 64.8291 223.713 65.1183 223.588 65.4351C223.464 65.7519 223.404 66.09 223.411 66.4301L223.481 70.1501L221.481 73.0301V66.5401L230.481 52.8301C230.714 52.5499 230.885 52.2236 230.983 51.8726C231.082 51.5217 231.105 51.1539 231.051 50.7934C230.998 50.4328 230.869 50.0877 230.672 49.7804C230.476 49.4732 230.218 49.2108 229.913 49.0104C229.609 48.81 229.265 48.6762 228.906 48.6176C228.546 48.559 228.178 48.577 227.826 48.6704C227.473 48.7638 227.145 48.9306 226.861 49.1597C226.578 49.3888 226.346 49.6752 226.181 50.0001L221.501 57.1301V48.0001C221.505 47.6089 221.419 47.2221 221.25 46.8692C221.081 46.5163 220.834 46.2068 220.527 45.9644C220.22 45.722 219.861 45.5533 219.479 45.471C219.096 45.3888 218.7 45.3953 218.321 45.4901L216.211 43.3801C215.683 42.868 214.99 42.5614 214.257 42.5155C213.523 42.4697 212.797 42.6877 212.211 43.1301C211.914 43.3518 211.667 43.6323 211.485 43.9542C211.302 44.276 211.189 44.6321 211.151 45.0001C211.133 45.3696 211.193 45.7387 211.327 46.0833C211.462 46.4279 211.667 46.7403 211.931 47.0001L216.311 51.3701V54.2301L213.661 51.4701C213.429 51.2167 213.149 51.0113 212.838 50.8659C212.527 50.7204 212.19 50.6377 211.847 50.6223C211.504 50.607 211.161 50.6594 210.838 50.7766C210.516 50.8937 210.219 51.0733 209.966 51.3051C209.712 51.5369 209.507 51.8163 209.361 52.1275C209.216 52.4386 209.133 52.7753 209.118 53.1184C209.102 53.4615 209.155 53.8043 209.272 54.1272C209.389 54.45 209.569 54.7467 209.801 55.0001L208.871 55.2201C208.505 55.26 208.153 55.3771 207.836 55.5637C207.52 55.7502 207.247 56.002 207.035 56.3022C206.823 56.6024 206.678 56.9442 206.608 57.305C206.539 57.6657 206.547 58.0371 206.632 58.3945C206.717 58.7518 206.877 59.087 207.102 59.3778C207.326 59.6686 207.61 59.9082 207.934 60.0809C208.259 60.2536 208.616 60.3553 208.982 60.3793C209.349 60.4033 209.717 60.349 210.061 60.2201L213.941 59.3101L216.321 61.7901V72.3301L204.531 61.4801C204.282 61.248 203.989 61.0682 203.67 60.9514C203.35 60.8346 203.01 60.7831 202.671 60.8001C202.158 60.8176 201.661 60.9872 201.245 61.2874C200.828 61.5875 200.51 62.0046 200.332 62.4857C200.153 62.9668 200.121 63.4903 200.24 63.9896C200.359 64.4889 200.624 64.9416 201.001 65.2901L216.301 79.3701V86.8001L196.001 61.9201L217.471 30.0001L240.621 61.6701L221.481 86.2501ZM318.111 95.1601L324.301 88.0001C324.747 87.4803 324.97 86.8042 324.918 86.1207C324.866 85.4371 324.545 84.802 324.026 84.3551C323.506 83.9082 322.83 83.6861 322.146 83.7377C321.463 83.7893 320.827 84.1103 320.381 84.6301L318.121 87.2501V76.2501C318.121 75.5658 317.849 74.9096 317.365 74.4258C316.881 73.9419 316.225 73.6701 315.541 73.6701C314.856 73.6701 314.2 73.9419 313.716 74.4258C313.232 74.9096 312.961 75.5658 312.961 76.2501V79.0401C312.436 78.6623 311.789 78.495 311.148 78.5713C310.506 78.6476 309.916 78.962 309.495 79.4522C309.074 79.9424 308.852 80.5727 308.874 81.2186C308.895 81.8645 309.158 82.4788 309.611 82.9401L312.951 86.2401V92.3101L310.141 89.0001C309.7 88.4697 309.067 88.1359 308.381 88.0721C307.695 88.0083 307.011 88.2199 306.481 88.6601C305.95 89.1004 305.616 89.7333 305.553 90.4197C305.489 91.1061 305.7 91.7897 306.141 92.3201L312.921 100.4V106L300.051 93.2101L315.741 67.0001L330.561 93.1701L318.131 105.8L318.111 95.1601Z" fill="#383E41"/>
<path d="M117.4 105.89C117.4 105.548 117.264 105.22 117.022 104.978C116.781 104.736 116.452 104.6 116.11 104.6H109.11C108.941 104.6 108.773 104.633 108.617 104.698C108.46 104.763 108.318 104.858 108.198 104.978C108.078 105.098 107.983 105.24 107.919 105.396C107.854 105.553 107.82 105.721 107.82 105.89V112.89C107.82 113.06 107.854 113.227 107.919 113.384C107.983 113.54 108.078 113.682 108.198 113.802C108.318 113.922 108.46 114.017 108.617 114.082C108.773 114.147 108.941 114.18 109.11 114.18H116.11C116.452 114.18 116.781 114.044 117.022 113.802C117.264 113.56 117.4 113.232 117.4 112.89V105.89ZM114.81 111.6H110.4V107.19H114.81V111.6Z" fill="#383E41"/>
<path d="M128.359 105.89C128.359 105.548 128.223 105.22 127.981 104.978C127.74 104.736 127.411 104.6 127.069 104.6H120.069C119.727 104.6 119.399 104.736 119.157 104.978C118.915 105.22 118.779 105.548 118.779 105.89V112.89C118.779 113.232 118.915 113.56 119.157 113.802C119.399 114.044 119.727 114.18 120.069 114.18H127.069C127.411 114.18 127.74 114.044 127.981 113.802C128.223 113.56 128.359 113.232 128.359 112.89V105.89ZM125.769 111.6H121.359V107.19H125.769V111.6Z" fill="#383E41"/>
<path d="M116.11 115.55H109.11C108.941 115.55 108.773 115.583 108.617 115.648C108.46 115.713 108.318 115.808 108.198 115.928C108.078 116.048 107.983 116.19 107.919 116.346C107.854 116.503 107.82 116.671 107.82 116.84V123.84C107.82 124.009 107.854 124.177 107.919 124.334C107.983 124.49 108.078 124.632 108.198 124.752C108.318 124.872 108.46 124.967 108.617 125.032C108.773 125.097 108.941 125.13 109.11 125.13H116.11C116.452 125.13 116.781 124.994 117.022 124.752C117.264 124.51 117.4 124.182 117.4 123.84V116.84C117.4 116.671 117.367 116.503 117.302 116.346C117.237 116.19 117.142 116.048 117.022 115.928C116.903 115.808 116.76 115.713 116.604 115.648C116.447 115.583 116.28 115.55 116.11 115.55V115.55ZM114.82 122.55H110.4V118.14H114.81L114.82 122.55Z" fill="#383E41"/>
<path d="M127.06 115.55H120.06C119.89 115.55 119.722 115.583 119.566 115.648C119.409 115.713 119.267 115.808 119.147 115.928C119.028 116.048 118.933 116.19 118.868 116.346C118.803 116.503 118.77 116.671 118.77 116.84V123.84C118.77 124.009 118.803 124.177 118.868 124.334C118.933 124.49 119.028 124.632 119.147 124.752C119.267 124.872 119.409 124.967 119.566 125.032C119.722 125.097 119.89 125.13 120.06 125.13H127.06C127.402 125.13 127.73 124.994 127.972 124.752C128.214 124.51 128.35 124.182 128.35 123.84V116.84C128.35 116.671 128.316 116.503 128.251 116.346C128.187 116.19 128.091 116.048 127.972 115.928C127.852 115.808 127.71 115.713 127.553 115.648C127.397 115.583 127.229 115.55 127.06 115.55V115.55ZM125.77 122.55H121.36V118.14H125.77V122.55Z" fill="#383E41"/>
<path d="M252.69 114.19H259.69C259.86 114.19 260.028 114.157 260.184 114.092C260.341 114.027 260.483 113.932 260.603 113.812C260.722 113.692 260.817 113.55 260.882 113.394C260.947 113.237 260.98 113.07 260.98 112.9V105.9C260.98 105.731 260.947 105.563 260.882 105.406C260.817 105.25 260.722 105.108 260.603 104.988C260.483 104.868 260.341 104.773 260.184 104.708C260.028 104.643 259.86 104.61 259.69 104.61H252.69C252.521 104.61 252.353 104.643 252.197 104.708C252.04 104.773 251.898 104.868 251.778 104.988C251.658 105.108 251.563 105.25 251.499 105.406C251.434 105.563 251.4 105.731 251.4 105.9V112.9C251.4 113.07 251.434 113.237 251.499 113.394C251.563 113.55 251.658 113.692 251.778 113.812C251.898 113.932 252.04 114.027 252.197 114.092C252.353 114.157 252.521 114.19 252.69 114.19V114.19ZM253.98 107.19H258.39V111.6H254L253.98 107.19Z" fill="#383E41"/>
<path d="M271.939 105.89C271.939 105.721 271.906 105.553 271.841 105.396C271.776 105.24 271.681 105.098 271.562 104.978C271.442 104.858 271.3 104.763 271.143 104.698C270.987 104.633 270.819 104.6 270.649 104.6H263.649C263.307 104.6 262.979 104.736 262.737 104.978C262.495 105.22 262.359 105.548 262.359 105.89V112.89C262.359 113.232 262.495 113.56 262.737 113.802C262.979 114.044 263.307 114.18 263.649 114.18H270.649C270.819 114.18 270.987 114.147 271.143 114.082C271.3 114.017 271.442 113.922 271.562 113.802C271.681 113.682 271.776 113.54 271.841 113.384C271.906 113.227 271.939 113.06 271.939 112.89V105.89ZM269.349 111.6H264.939V107.19H269.349V111.6Z" fill="#383E41"/>
<path d="M251.391 123.85C251.391 124.019 251.424 124.187 251.489 124.344C251.554 124.5 251.649 124.642 251.768 124.762C251.888 124.882 252.03 124.977 252.187 125.042C252.343 125.107 252.511 125.14 252.681 125.14H259.681C259.85 125.14 260.018 125.107 260.174 125.042C260.331 124.977 260.473 124.882 260.593 124.762C260.713 124.642 260.808 124.5 260.872 124.344C260.937 124.187 260.971 124.019 260.971 123.85V116.85C260.971 116.508 260.835 116.18 260.593 115.938C260.351 115.696 260.023 115.56 259.681 115.56H252.681C252.338 115.56 252.01 115.696 251.768 115.938C251.527 116.18 251.391 116.508 251.391 116.85V123.85ZM253.981 118.14H258.391V122.55H254.001L253.981 118.14Z" fill="#383E41"/>
<path d="M271.939 123.85V116.85C271.939 116.681 271.906 116.513 271.841 116.356C271.776 116.2 271.681 116.058 271.562 115.938C271.442 115.818 271.3 115.723 271.143 115.658C270.987 115.593 270.819 115.56 270.649 115.56H263.649C263.307 115.56 262.979 115.696 262.737 115.938C262.495 116.18 262.359 116.508 262.359 116.85V123.85C262.359 124.019 262.393 124.187 262.458 124.344C262.522 124.5 262.617 124.642 262.737 124.762C262.857 124.882 262.999 124.977 263.156 125.042C263.312 125.107 263.48 125.14 263.649 125.14H270.649C270.819 125.14 270.987 125.107 271.143 125.042C271.3 124.977 271.442 124.882 271.562 124.762C271.681 124.642 271.776 124.5 271.841 124.344C271.906 124.187 271.939 124.019 271.939 123.85V123.85ZM269.349 122.56H264.939V118.15H269.349V122.56Z" fill="#383E41"/>
<path d="M188.499 92.53C188.499 92.1879 188.363 91.8598 188.121 91.6178C187.879 91.3759 187.551 91.24 187.209 91.24H178.159C177.817 91.24 177.489 91.3759 177.247 91.6178C177.005 91.8598 176.869 92.1879 176.869 92.53V101.58C176.869 101.749 176.903 101.917 176.967 102.074C177.032 102.23 177.127 102.372 177.247 102.492C177.367 102.612 177.509 102.707 177.665 102.772C177.822 102.837 177.99 102.87 178.159 102.87H187.209C187.379 102.87 187.546 102.837 187.703 102.772C187.859 102.707 188.002 102.612 188.121 102.492C188.241 102.372 188.336 102.23 188.401 102.074C188.466 101.917 188.499 101.749 188.499 101.58V92.53ZM185.909 100.29H179.449V93.83H185.909V100.29Z" fill="#383E41"/>
<path d="M202.67 92.5299C202.67 92.1877 202.534 91.8596 202.292 91.6177C202.05 91.3758 201.722 91.2399 201.38 91.2399H192.33C192.157 91.2345 191.985 91.2639 191.824 91.3263C191.663 91.3888 191.516 91.4829 191.392 91.6033C191.268 91.7236 191.169 91.8676 191.102 92.0268C191.035 92.186 191 92.3571 191 92.5299V101.58C191 101.749 191.033 101.917 191.098 102.074C191.163 102.23 191.258 102.372 191.378 102.492C191.498 102.612 191.64 102.707 191.796 102.772C191.953 102.837 192.121 102.87 192.29 102.87H201.34C201.509 102.87 201.677 102.837 201.834 102.772C201.99 102.707 202.132 102.612 202.252 102.492C202.372 102.372 202.467 102.23 202.532 102.074C202.597 101.917 202.63 101.749 202.63 101.58L202.67 92.5299ZM200.08 100.29H193.62V93.8299H200.08V100.29Z" fill="#383E41"/>
<path d="M188.499 115.75V106.7C188.499 106.358 188.363 106.03 188.121 105.788C187.879 105.546 187.551 105.41 187.209 105.41H178.159C177.817 105.41 177.489 105.546 177.247 105.788C177.005 106.03 176.869 106.358 176.869 106.7V115.75C176.869 116.092 177.005 116.42 177.247 116.662C177.489 116.904 177.817 117.04 178.159 117.04H187.209C187.551 117.04 187.879 116.904 188.121 116.662C188.363 116.42 188.499 116.092 188.499 115.75V115.75ZM185.909 114.46H179.449V108H185.909V114.46Z" fill="#383E41"/>
<path d="M201.37 105.41H192.32C192.148 105.406 191.977 105.436 191.817 105.499C191.657 105.562 191.511 105.657 191.388 105.777C191.265 105.897 191.168 106.041 191.101 106.199C191.034 106.358 191 106.528 191 106.7V115.75C191 116.092 191.136 116.42 191.378 116.662C191.62 116.904 191.948 117.04 192.29 117.04H201.34C201.682 117.04 202.01 116.904 202.252 116.662C202.494 116.42 202.63 116.092 202.63 115.75V106.7C202.63 106.363 202.498 106.039 202.263 105.798C202.027 105.557 201.707 105.418 201.37 105.41V105.41ZM200.08 114.46H193.62V108H200.08V114.46Z" fill="#383E41"/>
<path d="M17.5393 165.13C20.1285 165.082 22.7131 165.367 25.2293 165.98C27.1208 166.437 28.9021 167.267 30.4693 168.42C31.7861 169.413 32.8203 170.734 33.4693 172.25C34.1227 173.856 34.4458 175.577 34.4193 177.31C34.4256 178.358 34.267 179.401 33.9493 180.4C33.6242 181.396 33.1266 182.327 32.4793 183.15C31.7634 184.055 30.9096 184.841 29.9493 185.48C28.8133 186.23 27.5825 186.825 26.2893 187.25C32.576 188.663 35.7193 192.06 35.7193 197.44C35.7367 199.292 35.3583 201.126 34.6093 202.82C33.8703 204.467 32.7656 205.924 31.3793 207.08C29.8365 208.342 28.0638 209.293 26.1593 209.88C23.8633 210.585 21.4705 210.922 19.0693 210.88H1.7793V165.13H17.5393ZM10.2893 171.71V184.94H17.0593C19.9726 184.94 22.1726 184.413 23.6593 183.36C24.418 182.778 25.0194 182.016 25.4088 181.143C25.7983 180.27 25.9634 179.313 25.8893 178.36C25.8893 175.973 25.2226 174.273 23.8893 173.26C22.556 172.247 20.446 171.74 17.5593 171.74L10.2893 171.71ZM18.8993 204.25C20.2552 204.286 21.6074 204.093 22.8993 203.68C23.8605 203.369 24.7413 202.85 25.4793 202.16C26.1125 201.541 26.589 200.78 26.8693 199.94C27.1587 199.073 27.304 198.164 27.2993 197.25C27.3146 196.338 27.155 195.432 26.8293 194.58C26.5095 193.798 25.9969 193.11 25.3393 192.58C24.5685 191.975 23.6793 191.539 22.7293 191.3C21.4713 190.983 20.1765 190.835 18.8793 190.86H10.2893V204.28L18.8993 204.25Z" fill="#383E41"/>
<path d="M79.0002 165.13L60.5202 204.54C59.9659 205.752 59.2639 206.891 58.4302 207.93C57.7452 208.755 56.9232 209.455 56.0002 210C55.1493 210.505 54.2197 210.863 53.2502 211.06C52.2129 211.266 51.1576 211.366 50.1002 211.36C48.9782 211.415 47.8551 211.276 46.7802 210.95C46.1135 210.677 45.7802 210.277 45.7802 209.75V204.43H48.2502C48.7264 204.428 49.2015 204.384 49.6702 204.3C50.1744 204.208 50.6606 204.036 51.1102 203.79C51.6248 203.506 52.0907 203.141 52.4902 202.71C52.9889 202.161 53.4034 201.541 53.7202 200.87L55.5202 197.2L37.1602 165.1H45.1602C45.795 165.068 46.421 165.259 46.9302 165.64C47.3726 166.019 47.7361 166.481 48.0002 167L56.8902 183.78C57.3768 184.707 57.8135 185.623 58.2002 186.53C58.5816 187.442 58.9154 188.373 59.2002 189.32C59.7494 187.417 60.4586 185.564 61.3202 183.78L69.1302 167C69.3755 166.506 69.7152 166.064 70.1302 165.7C70.6263 165.289 71.2565 165.076 71.9002 165.1L79.0002 165.13Z" fill="#383E41"/>
<path d="M123.539 204.35V219.35C123.553 219.681 123.494 220.011 123.366 220.317C123.238 220.623 123.045 220.897 122.799 221.12C122.256 221.579 121.559 221.815 120.849 221.78H115.719V210.9H82.1091V219.35C82.1231 219.681 82.0641 220.011 81.9362 220.317C81.8083 220.623 81.6147 220.897 81.3691 221.12C80.826 221.579 80.1291 221.815 79.4191 221.78H74.2891V204.35H79.2891C79.9671 203.96 80.5644 203.444 81.0491 202.83C81.7455 201.933 82.3143 200.943 82.7391 199.89C83.3857 198.329 83.9106 196.721 84.3091 195.08C84.8825 192.745 85.3332 190.382 85.6591 188C86.0591 185.207 86.3924 181.93 86.6591 178.17C86.9257 174.41 87.1424 170.077 87.3091 165.17H116.399V204.39L123.539 204.35ZM107.869 204.35V171.68H95.3691C95.1157 176.173 94.7824 180.173 94.3691 183.68C93.9557 187.187 93.4557 190.247 92.8691 192.86C92.3945 195.158 91.7596 197.42 90.9691 199.63C90.3792 201.284 89.6254 202.876 88.7191 204.38L107.869 204.35Z" fill="#383E41"/>
<path d="M160.26 200.11C160.491 200.112 160.719 200.161 160.93 200.253C161.142 200.346 161.332 200.481 161.49 200.65L164.85 204.29C163.019 206.572 160.671 208.385 158 209.58C154.914 210.878 151.587 211.505 148.24 211.42C145.1 211.47 141.983 210.877 139.08 209.68C136.447 208.576 134.078 206.927 132.13 204.84C130.164 202.699 128.659 200.177 127.71 197.43C126.659 194.409 126.138 191.229 126.17 188.03C126.133 184.805 126.692 181.601 127.82 178.58C128.85 175.828 130.429 173.314 132.46 171.19C134.48 169.104 136.911 167.459 139.6 166.36C142.514 165.18 145.635 164.591 148.78 164.63C151.821 164.576 154.841 165.137 157.66 166.28C160.109 167.288 162.348 168.746 164.26 170.58L161.41 174.58C161.234 174.837 161.014 175.061 160.76 175.24C160.435 175.445 160.053 175.543 159.67 175.52C159.319 175.516 158.975 175.423 158.67 175.25C158.33 175.07 157.96 174.85 157.56 174.59C157.16 174.33 156.696 174.04 156.17 173.72C155.583 173.376 154.967 173.085 154.33 172.85C153.543 172.563 152.733 172.342 151.91 172.19C150.861 171.999 149.796 171.909 148.73 171.92C146.802 171.896 144.889 172.267 143.11 173.01C141.431 173.726 139.934 174.809 138.73 176.18C137.45 177.659 136.481 179.379 135.88 181.24C135.177 183.444 134.839 185.747 134.88 188.06C134.84 190.396 135.209 192.721 135.97 194.93C136.628 196.797 137.648 198.516 138.97 199.99C140.191 201.346 141.693 202.421 143.37 203.14C145.089 203.874 146.941 204.245 148.81 204.23C149.863 204.237 150.915 204.173 151.96 204.04C152.844 203.927 153.715 203.726 154.56 203.44C155.346 203.169 156.1 202.814 156.81 202.38C157.559 201.914 158.262 201.378 158.91 200.78C159.108 200.598 159.33 200.443 159.57 200.32C159.781 200.199 160.017 200.127 160.26 200.11V200.11Z" fill="#383E41"/>
<path d="M202.68 172.12H188.88V210.9H180.37V172.12H166.57V165.12H202.69L202.68 172.12Z" fill="#383E41"/>
<path d="M250.821 188C250.852 191.183 250.289 194.344 249.161 197.32C248.112 200.086 246.513 202.61 244.461 204.74C242.39 206.859 239.9 208.525 237.151 209.63C231.036 211.982 224.266 211.982 218.151 209.63C215.397 208.523 212.901 206.858 210.821 204.74C208.759 202.611 207.15 200.087 206.091 197.32C203.855 191.308 203.855 184.692 206.091 178.68C207.152 175.913 208.761 173.39 210.821 171.26C212.901 169.142 215.396 167.477 218.151 166.37C221.158 165.168 224.373 164.57 227.611 164.61C229.82 164.597 232.021 164.87 234.161 165.42C236.13 165.928 238.023 166.694 239.791 167.7C241.488 168.671 243.04 169.876 244.401 171.28C245.764 172.683 246.931 174.264 247.871 175.98C248.838 177.754 249.567 179.646 250.041 181.61C250.556 183.701 250.818 185.846 250.821 188V188ZM242.121 188C242.159 185.707 241.821 183.424 241.121 181.24C240.515 179.369 239.535 177.641 238.241 176.16C236.99 174.762 235.438 173.668 233.701 172.96C229.816 171.486 225.526 171.486 221.641 172.96C219.899 173.669 218.34 174.763 217.081 176.16C215.775 177.636 214.788 179.365 214.181 181.24C212.826 185.645 212.826 190.355 214.181 194.76C214.786 196.63 215.774 198.353 217.081 199.82C218.344 201.207 219.902 202.294 221.641 203C225.526 204.474 229.816 204.474 233.701 203C235.434 202.296 236.986 201.209 238.241 199.82C239.537 198.348 240.517 196.626 241.121 194.76C241.821 192.576 242.159 190.293 242.121 188Z" fill="#383E41"/>
<path d="M273.2 165.13C275.89 165.078 278.572 165.443 281.15 166.21C283.185 166.815 285.071 167.837 286.69 169.21C288.124 170.469 289.235 172.053 289.93 173.83C290.653 175.709 291.012 177.707 290.99 179.72C291.013 181.802 290.636 183.87 289.88 185.81C289.157 187.633 288.021 189.262 286.56 190.57C284.942 191.978 283.049 193.034 281 193.67C278.476 194.453 275.843 194.828 273.2 194.78H266.84V210.9H258.33V165.13H273.2ZM273.2 188.13C274.583 188.155 275.961 187.956 277.28 187.54C278.358 187.198 279.348 186.625 280.18 185.86C280.959 185.122 281.552 184.211 281.91 183.2C282.303 182.076 282.496 180.891 282.48 179.7C282.495 178.568 282.302 177.442 281.91 176.38C281.547 175.414 280.961 174.547 280.2 173.85C279.369 173.113 278.386 172.566 277.32 172.25C275.983 171.857 274.593 171.672 273.2 171.7H266.84V188.13H273.2Z" fill="#383E41"/>
<path d="M336.091 165.13V210.9H327.541V182.22C327.541 181.147 327.567 180.017 327.621 178.83C327.674 177.643 327.794 176.387 327.981 175.06C327.585 176.179 327.124 177.274 326.601 178.34C326.107 179.34 325.627 180.22 325.161 180.98L307.661 208.26C307.459 208.593 307.231 208.911 306.981 209.21C306.723 209.521 306.431 209.803 306.111 210.05C305.804 210.291 305.468 210.493 305.111 210.65C304.741 210.808 304.343 210.889 303.941 210.89H297.551V165.13H306.101V193.81C306.101 194.883 306.074 196.017 306.021 197.21C305.967 198.403 305.847 199.663 305.661 200.99C306.046 199.869 306.493 198.771 307.001 197.7C307.44 196.786 307.931 195.898 308.471 195.04L325.941 167.75C326.142 167.416 326.37 167.098 326.621 166.8C326.879 166.489 327.171 166.207 327.491 165.96C327.798 165.72 328.134 165.518 328.491 165.36C328.867 165.2 329.272 165.118 329.681 165.12L336.091 165.13Z" fill="#383E41"/>
<path d="M379.08 210.9H370.57V192H365.89C365.397 191.998 364.904 192.045 364.42 192.14C363.943 192.237 363.484 192.41 363.06 192.65C362.592 192.926 362.161 193.262 361.78 193.65C361.306 194.131 360.893 194.668 360.55 195.25L352.46 208C351.943 208.878 351.214 209.614 350.34 210.14C349.379 210.698 348.282 210.979 347.17 210.95H340.74L351.25 194.87C352.382 192.962 354.071 191.447 356.09 190.53C354.538 190.146 353.049 189.539 351.67 188.73C350.481 188.027 349.424 187.12 348.55 186.05C347.729 185.034 347.105 183.874 346.71 182.63C346.306 181.335 346.104 179.986 346.11 178.63C346.089 176.767 346.471 174.921 347.23 173.22C347.978 171.576 349.093 170.125 350.49 168.98C352.046 167.728 353.828 166.787 355.74 166.21C358.044 165.511 360.443 165.174 362.85 165.21H379.06L379.08 210.9ZM370.57 185.32V171.74H362.88C361.528 171.703 360.178 171.879 358.88 172.26C357.93 172.543 357.056 173.035 356.32 173.7C355.692 174.291 355.215 175.025 354.93 175.84C354.639 176.689 354.493 177.582 354.5 178.48C354.487 179.436 354.626 180.387 354.91 181.3C355.174 182.128 355.654 182.87 356.3 183.45C357.049 184.094 357.929 184.565 358.88 184.83C360.182 185.189 361.53 185.354 362.88 185.32H370.57Z" fill="#383E41"/>
<path d="M163.14 228.31C163.99 228.359 164.834 228.146 165.56 227.7C165.841 227.508 166.068 227.247 166.22 226.943C166.373 226.638 166.445 226.3 166.43 225.96C166.432 225.813 166.394 225.667 166.32 225.54C166.288 225.481 166.24 225.431 166.182 225.398C166.123 225.364 166.057 225.348 165.99 225.35H164.81C164.816 225.656 164.786 225.961 164.72 226.26C164.672 226.477 164.572 226.679 164.43 226.85C164.293 227.005 164.117 227.119 163.92 227.18C163.409 227.318 162.871 227.318 162.36 227.18C162.163 227.119 161.986 227.005 161.85 226.85C161.707 226.679 161.608 226.477 161.56 226.26C161.493 225.961 161.463 225.656 161.47 225.35H160.29C160.222 225.348 160.156 225.364 160.097 225.398C160.039 225.431 159.991 225.481 159.96 225.54C159.885 225.667 159.847 225.813 159.85 225.96C159.835 226.3 159.907 226.638 160.059 226.943C160.211 227.247 160.438 227.508 160.72 227.7C161.445 228.146 162.29 228.359 163.14 228.31V228.31Z" fill="#383E41"/>
<path d="M95.7094 237.62C95.4113 237.384 95.0724 237.204 94.7094 237.09C95.0083 236.994 95.2841 236.838 95.5194 236.63C95.7708 236.398 95.9925 236.136 96.1795 235.85L100.909 229.37H99.2094C98.9869 229.371 98.7689 229.433 98.5795 229.55C98.3809 229.666 98.2156 229.831 98.0994 230.03L93.9995 235.65C93.8132 235.933 93.5541 236.161 93.2495 236.31C92.9666 236.423 92.6639 236.477 92.3595 236.47H90.7895V229.37H88.7195V236.47H87.1095C86.7985 236.478 86.4891 236.423 86.1994 236.31C85.8962 236.163 85.6399 235.934 85.4594 235.65L81.3995 230C81.2854 229.803 81.1238 229.638 80.9295 229.52C80.7373 229.401 80.5155 229.338 80.2895 229.34H78.5894L83.3094 235.82C83.4964 236.106 83.7181 236.368 83.9695 236.6C84.2104 236.81 84.4934 236.967 84.7995 237.06C84.4344 237.164 84.0942 237.341 83.7995 237.58C83.4864 237.848 83.2195 238.165 83.0095 238.52L78.1895 245.52H79.6595C79.9502 245.528 80.2374 245.455 80.4894 245.31C80.7196 245.171 80.9093 244.975 81.0395 244.74L85.1395 239C85.311 238.717 85.552 238.483 85.8394 238.32C86.1504 238.169 86.4939 238.096 86.8394 238.11H88.7094V245.53H90.7794V238.11H92.6595C93.0051 238.095 93.3489 238.167 93.6595 238.32C93.9469 238.483 94.1879 238.717 94.3595 239L98.4594 244.74C98.5977 244.975 98.7939 245.172 99.0294 245.31C99.2815 245.455 99.5687 245.528 99.8595 245.52H101.319L96.5095 238.52C96.2952 238.177 96.0248 237.873 95.7094 237.62V237.62Z" fill="#383E41"/>
<path d="M114.489 229.59C114.329 229.724 114.19 229.883 114.079 230.06L106.479 241.29C106.319 241.543 106.173 241.803 106.039 242.07C105.884 242.395 105.747 242.729 105.629 243.07C105.682 242.67 105.716 242.293 105.729 241.94C105.742 241.587 105.742 241.253 105.729 240.94V229.37H103.539V245.57H105.169C105.382 245.574 105.588 245.499 105.749 245.36C105.909 245.226 106.048 245.067 106.159 244.89L113.759 233.66C113.925 233.415 114.072 233.157 114.199 232.89C114.346 232.597 114.482 232.263 114.609 231.89C114.556 232.283 114.522 232.653 114.509 233C114.496 233.347 114.496 233.68 114.509 234V245.51H116.699V229.31H115.069C114.846 229.324 114.638 229.424 114.489 229.59V229.59Z" fill="#383E41"/>
<path d="M123.38 235C123.233 236.553 123.063 237.887 122.87 239C122.723 239.883 122.502 240.753 122.21 241.6C122.029 242.142 121.77 242.654 121.44 243.12C121.226 243.429 120.932 243.674 120.59 243.83C120.307 243.943 120.005 244 119.7 244H118.91V245.39C118.91 245.53 119.02 245.64 119.24 245.71C119.546 245.794 119.863 245.831 120.18 245.82C120.652 245.821 121.121 245.747 121.57 245.6C122.04 245.439 122.463 245.164 122.8 244.8C123.236 244.324 123.59 243.78 123.85 243.19C124.227 242.338 124.515 241.45 124.71 240.54C124.999 239.246 125.216 237.938 125.36 236.62C125.54 235.093 125.68 233.287 125.78 231.2H131.14V245.67H133.33V229.47H123.7C123.627 231.57 123.52 233.413 123.38 235Z" fill="#383E41"/>
<path d="M150.229 231.52C149.516 230.778 148.654 230.195 147.699 229.81C145.602 228.995 143.276 228.995 141.179 229.81C140.229 230.197 139.37 230.779 138.659 231.52C137.945 232.274 137.391 233.166 137.029 234.14C136.264 236.301 136.264 238.659 137.029 240.82C137.389 241.795 137.944 242.686 138.659 243.44C139.371 244.177 140.229 244.757 141.179 245.14C143.278 245.947 145.601 245.947 147.699 245.14C148.653 244.758 149.515 244.179 150.229 243.44C150.945 242.686 151.5 241.795 151.859 240.82C152.625 238.659 152.625 236.301 151.859 234.14C151.498 233.166 150.944 232.274 150.229 231.52V231.52ZM149.779 240.16C149.537 240.898 149.146 241.579 148.629 242.16C148.129 242.711 147.51 243.142 146.819 243.42C145.293 244.001 143.606 244.001 142.079 243.42C141.386 243.141 140.764 242.711 140.259 242.16C139.738 241.581 139.343 240.9 139.099 240.16C138.557 238.418 138.557 236.552 139.099 234.81C139.343 234.07 139.738 233.389 140.259 232.81C140.766 232.261 141.387 231.83 142.079 231.55C143.605 230.962 145.294 230.962 146.819 231.55C147.509 231.83 148.127 232.26 148.629 232.81C149.146 233.391 149.537 234.071 149.779 234.81C150.322 236.552 150.322 238.418 149.779 240.16V240.16Z" fill="#383E41"/>
<path d="M167.501 229.59C167.34 229.724 167.202 229.883 167.091 230.06L159.491 241.29C159.334 241.543 159.191 241.803 159.061 242.07C158.905 242.395 158.768 242.729 158.651 243.07C158.701 242.67 158.741 242.3 158.751 241.94C158.761 241.58 158.751 241.25 158.751 240.94V229.37H156.561V245.57H158.191C158.403 245.574 158.61 245.499 158.771 245.36C158.931 245.226 159.069 245.067 159.181 244.89L166.781 233.66C166.946 233.415 167.093 233.157 167.221 232.89C167.367 232.597 167.504 232.263 167.631 231.89C167.581 232.28 167.541 232.65 167.531 233C167.521 233.35 167.531 233.69 167.531 234V245.51H169.721V229.31H168.091C167.865 229.322 167.653 229.423 167.501 229.59V229.59Z" fill="#383E41"/>
<path d="M186.83 237.61C186.537 237.372 186.196 237.201 185.83 237.11C186.41 236.917 186.911 236.542 187.26 236.04L192.16 229.38H190.32C190.116 229.38 189.917 229.443 189.75 229.56C189.585 229.682 189.446 229.835 189.34 230.01L185.1 235.71C184.919 235.973 184.675 236.186 184.39 236.33C184.118 236.442 183.825 236.497 183.53 236.49H181.84V229.39H179.66V245.59H181.84V238.17H183.78C184.1 238.155 184.419 238.216 184.71 238.35C184.969 238.5 185.186 238.714 185.34 238.97L189.62 244.91C189.73 245.105 189.876 245.278 190.05 245.42C190.213 245.537 190.41 245.596 190.61 245.59H192.61L187.61 238.59C187.406 238.223 187.142 237.892 186.83 237.61Z" fill="#383E41"/>
<path d="M206.8 231.52C206.087 230.778 205.224 230.195 204.27 229.81C202.173 228.995 199.847 228.995 197.75 229.81C196.799 230.196 195.94 230.779 195.23 231.52C194.515 232.274 193.961 233.166 193.6 234.14C192.834 236.301 192.834 238.659 193.6 240.82C193.959 241.795 194.514 242.686 195.23 243.44C195.941 244.178 196.799 244.757 197.75 245.14C199.848 245.947 202.171 245.947 204.27 245.14C205.224 244.758 206.086 244.179 206.8 243.44C207.515 242.686 208.07 241.795 208.43 240.82C209.195 238.659 209.195 236.301 208.43 234.14C208.068 233.166 207.514 232.274 206.8 231.52V231.52ZM206.35 240.16C206.107 240.898 205.716 241.579 205.2 242.16C204.698 242.709 204.079 243.14 203.39 243.42C201.863 244.001 200.176 244.001 198.65 243.42C197.96 243.14 197.342 242.709 196.84 242.16C196.318 241.581 195.923 240.9 195.68 240.16C195.137 238.418 195.137 236.552 195.68 234.81C195.923 234.07 196.318 233.389 196.84 232.81C197.343 232.262 197.961 231.832 198.65 231.55C200.175 230.962 201.864 230.962 203.39 231.55C204.079 231.83 204.698 232.26 205.2 232.81C205.716 233.391 206.107 234.071 206.35 234.81C206.892 236.552 206.892 238.418 206.35 240.16V240.16Z" fill="#383E41"/>
<path d="M226.919 229.43C226.782 229.495 226.675 229.609 226.619 229.75L221.119 239.75C221.019 239.935 220.929 240.126 220.849 240.32C220.762 240.52 220.682 240.723 220.609 240.93C220.536 240.723 220.456 240.523 220.369 240.33C220.282 240.137 220.192 239.947 220.099 239.76L214.499 229.76C214.437 229.62 214.327 229.507 214.189 229.44C214.043 229.396 213.891 229.376 213.739 229.38H212.119V245.58H214.039V233.67C214.037 233.299 214.013 232.928 213.969 232.56L219.649 242.74C219.715 242.894 219.825 243.025 219.966 243.116C220.107 243.207 220.272 243.254 220.439 243.25H220.759C220.927 243.254 221.091 243.207 221.232 243.116C221.373 243.025 221.483 242.894 221.549 242.74L227.109 232.61C227.109 232.797 227.109 232.98 227.109 233.16C227.109 233.34 227.109 233.51 227.109 233.67V245.58H228.999V229.38H227.379C227.224 229.372 227.069 229.389 226.919 229.43V229.43Z" fill="#383E41"/>
<path d="M251.191 235C251.044 236.553 250.874 237.887 250.681 239C250.533 239.883 250.313 240.753 250.021 241.6C249.84 242.142 249.58 242.654 249.251 243.12C249.037 243.429 248.743 243.674 248.401 243.83C248.118 243.943 247.815 244.001 247.511 244H246.721V245.39C246.721 245.53 246.831 245.64 247.051 245.71C247.357 245.793 247.674 245.831 247.991 245.82C248.463 245.821 248.932 245.747 249.381 245.6C249.851 245.439 250.273 245.164 250.611 244.8C251.046 244.324 251.401 243.78 251.661 243.19C252.037 242.338 252.326 241.45 252.521 240.54C252.809 239.246 253.026 237.938 253.171 236.62C253.351 235.093 253.491 233.287 253.591 231.2H258.951V245.67H261.141V229.47H251.521C251.441 231.57 251.331 233.413 251.191 235Z" fill="#383E41"/>
<path d="M267.47 238.26H273.78V236.54H267.47V231.16H275.26V229.37H265.27V245.58H275.26L275.27 243.79H267.47V238.26Z" fill="#383E41"/>
<path d="M285.53 237.61C285.237 237.372 284.895 237.202 284.53 237.11C285.11 236.918 285.611 236.542 285.96 236.04L290.86 229.38H289C288.796 229.38 288.597 229.443 288.43 229.56C288.265 229.682 288.126 229.835 288.02 230.01L283.78 235.71C283.598 235.972 283.354 236.185 283.07 236.33C282.797 236.442 282.504 236.497 282.21 236.49H280.53V229.39H278.35V245.59H280.53V238.17H282.47C282.79 238.155 283.108 238.216 283.4 238.35C283.659 238.5 283.875 238.713 284.03 238.97L288.31 244.91C288.423 245.106 288.572 245.279 288.75 245.42C288.912 245.537 289.109 245.597 289.31 245.59H291.31L286.31 238.59C286.105 238.223 285.841 237.892 285.53 237.61Z" fill="#383E41"/>
<path d="M304.109 242.23C303.966 242.238 303.831 242.299 303.729 242.4C303.468 242.643 303.187 242.864 302.889 243.06C302.601 243.248 302.292 243.402 301.969 243.52C301.623 243.647 301.264 243.737 300.899 243.79C300.465 243.848 300.027 243.875 299.589 243.87C298.831 243.876 298.079 243.73 297.379 243.44C296.701 243.159 296.094 242.732 295.599 242.19C295.076 241.607 294.671 240.928 294.409 240.19C294.105 239.323 293.956 238.409 293.969 237.49C293.955 236.579 294.098 235.673 294.389 234.81C294.641 234.072 295.039 233.392 295.559 232.81C296.055 232.263 296.667 231.833 297.349 231.55C298.079 231.251 298.861 231.101 299.649 231.11C300.675 231.078 301.691 231.324 302.589 231.82C302.855 231.968 303.113 232.131 303.359 232.31C303.499 232.433 303.674 232.51 303.859 232.53C303.961 232.537 304.062 232.512 304.149 232.46C304.222 232.411 304.284 232.346 304.329 232.27L305.049 231.27C304.37 230.633 303.58 230.125 302.719 229.77C301.749 229.386 300.712 229.199 299.669 229.22C298.566 229.208 297.471 229.415 296.449 229.83C295.502 230.214 294.647 230.793 293.939 231.53C293.228 232.285 292.677 233.176 292.319 234.15C291.923 235.225 291.727 236.364 291.739 237.51C291.725 238.653 291.911 239.791 292.289 240.87C292.628 241.839 293.159 242.73 293.849 243.49C294.528 244.224 295.357 244.803 296.279 245.19C297.283 245.607 298.362 245.814 299.449 245.8C300.625 245.833 301.794 245.615 302.879 245.16C303.804 244.743 304.627 244.129 305.289 243.36L304.419 242.42C304.385 242.367 304.339 242.322 304.286 242.29C304.232 242.257 304.172 242.236 304.109 242.23V242.23Z" fill="#383E41"/>
<path d="M231.869 245.58V229.38H244.999V245.58H242.849V231.05H233.999V245.57L231.869 245.58Z" fill="#383E41"/>
</svg>
