<svg width="380" height="248" viewBox="0 0 380 248" fill="none" xmlns="http://www.w3.org/2000/svg">
<path d="M33.1 183.8H54.5V188.5H46.4V209.3H41.1V188.5H33V183.8H33.1Z" fill="#383E41"/>
<path d="M65.6992 209.3V183.8H84.4992V188.5H70.9992V193.4H81.8992V198H70.9992V204.6H84.8992V209.3H65.6992V209.3Z" fill="#383E41"/>
<path d="M96.4004 209.3V183.8H108.2C110.9 183.8 113.1 184.5 114.6 185.9C116.2 187.3 117 189.1 117 191.3C117 194.7 115 197.4 111.7 198.4L119.6 209.3H113.5L106 199H101.6V209.3H96.4004ZM101.6 194.6H107.9C110.3 194.6 111.7 193.5 111.7 191.5C111.7 189.6 110.3 188.4 107.9 188.4H101.6V194.6Z" fill="#383E41"/>
<path d="M130.301 209.3V183.8H142.101C144.801 183.8 147.001 184.5 148.501 185.9C150.101 187.3 150.901 189.1 150.901 191.3C150.901 194.7 148.901 197.4 145.601 198.4L153.501 209.3H147.401L140.001 199H135.601V209.3H130.301ZM135.601 194.6H141.901C144.301 194.6 145.701 193.5 145.701 191.5C145.701 189.6 144.301 188.4 141.901 188.4H135.601V194.6Z" fill="#383E41"/>
<path d="M162 209.3L172.9 183.6H177.9L188.9 209.3H183.3L180.8 203.4H170L167.5 209.3H162ZM171.7 199.1H179.2L175.5 190.2L171.7 199.1Z" fill="#383E41"/>
<path d="M200.9 206.1C198.3 203.6 197 200.4 197 196.5C197 192.6 198.3 189.4 200.9 186.9C203.5 184.4 206.8 183.2 210.8 183.2C213.3 183.2 215.5 183.7 217.6 184.8V190.1C215.6 188.8 213.4 188.1 210.9 188.1C208.5 188.1 206.4 188.9 204.8 190.5C203.2 192.1 202.4 194 202.4 196.5C202.4 199 203.2 201 204.9 202.5C206.6 204 208.6 204.8 211.1 204.8C213.9 204.8 216.2 204.1 218.1 202.6V207.9C216 209.1 213.6 209.8 210.8 209.8C206.8 209.9 203.5 208.6 200.9 206.1Z" fill="#383E41"/>
<path d="M232.4 187.2C234.9 184.6 238.1 183.3 241.9 183.3C245.7 183.3 248.8 184.6 251.4 187.2C253.9 189.8 255.2 192.9 255.2 196.6C255.2 200.3 253.9 203.4 251.4 206C248.9 208.6 245.7 209.9 241.9 209.9C238.1 209.9 234.9 208.6 232.4 206C229.9 203.4 228.6 200.3 228.6 196.6C228.6 192.9 229.9 189.7 232.4 187.2ZM241.9 204.9C244.2 204.9 246 204.1 247.5 202.5C249 200.9 249.8 198.9 249.8 196.5C249.8 194.1 249 192.1 247.5 190.5C246 188.9 244.1 188.1 241.9 188.1C239.7 188.1 237.7 188.9 236.2 190.5C234.7 192.1 234 194.1 234 196.5C234 198.9 234.7 200.9 236.2 202.5C237.7 204.1 239.6 204.9 241.9 204.9Z" fill="#383E41"/>
<path d="M263.6 183.8H285V188.5H276.9V209.3H271.6V188.5H263.5V183.8H263.6Z" fill="#383E41"/>
<path d="M294.5 183.8H316V188.5H307.9V209.3H302.6V188.5H294.5V183.8V183.8Z" fill="#383E41"/>
<path d="M321.301 209.3L332.201 183.6H337.201L348.101 209.3H342.501L340.001 203.4H329.201L326.701 209.3H321.301ZM331.001 199.1H338.501L334.801 190.2L331.001 199.1Z" fill="#383E41"/>
<path d="M247.099 19.7L220.699 41.2999L255.399 53.0999L247.099 19.7Z" fill="#383E41"/>
<path d="M174.4 124.1L193 127.9L195.4 109.7L167.5 109.2L174.4 124.1Z" fill="#383E41"/>
<path d="M201.199 129.5L234.699 136.3L271.199 116L266.499 97.1999L206.399 89.8999L201.199 129.5Z" fill="#383E41"/>
<path d="M187.099 162.7L220.999 143.9L145.799 128.8L187.099 162.7Z" fill="#383E41"/>
<path d="M110.699 100.1L128.999 115L164.299 122.1L139.999 69.3999L118.199 77.7999L110.699 100.1Z" fill="#383E41"/>
<path d="M163.998 49.7L122.398 65.4L137.798 19.7L163.998 49.7Z" fill="#383E41"/>
<path d="M211.799 49L207.699 79.8L263.899 86.6L258.399 64.9L211.799 49Z" fill="#383E41"/>
<path d="M162.699 98.8999L196.799 99.4999L202.899 52.8999L182.899 53.4999L147.699 66.3999L162.699 98.8999Z" fill="#383E41"/>
<path d="M97.5004 224H102.7V225.2H100.7V230.3H99.4004V225.2H97.4004V224H97.5004Z" fill="#383E41"/>
<path d="M105.801 230.3V224H110.401V225.2H107.001V226.4H109.701V227.5H107.001V229.1H110.401V230.3H105.801V230.3Z" fill="#383E41"/>
<path d="M121.4 230.3V224H124.1C124.8 224 125.3 224.2 125.7 224.5C126.1 224.8 126.3 225.3 126.3 225.9C126.3 226.5 126.1 226.9 125.7 227.3C125.3 227.6 124.8 227.8 124.1 227.8H122.7V230.3H121.4ZM122.7 226.7H124.1C124.7 226.7 125.1 226.4 125.1 225.9C125.1 225.4 124.7 225.1 124.1 225.1H122.7V226.7Z" fill="#383E41"/>
<path d="M113.801 230.3V224H116.501C117.201 224 117.701 224.2 118.101 224.5C118.501 224.8 118.701 225.3 118.701 225.9C118.701 226.5 118.501 226.9 118.101 227.3C117.701 227.6 117.201 227.8 116.501 227.8H115.101V230.3H113.801ZM115.101 226.7H116.501C117.101 226.7 117.501 226.4 117.501 225.9C117.501 225.4 117.101 225.1 116.501 225.1H115.101V226.7Z" fill="#383E41"/>
<path d="M127.801 230.3L130.501 224H131.701L134.401 230.3H133.001L132.401 228.9H129.801L129.201 230.3H127.801ZM130.201 227.7H132.001L131.101 225.5L130.201 227.7Z" fill="#383E41"/>
<path d="M137 230.3V224H138.3V226.5L140.6 224H142.2L139.5 226.9L142.6 230.3H141L138.3 227.4V230.3H137Z" fill="#383E41"/>
<path d="M145.201 224.8C145.801 224.2 146.601 223.9 147.501 223.9C148.401 223.9 149.201 224.2 149.801 224.8C150.401 225.4 150.701 226.2 150.701 227.1C150.701 228 150.401 228.8 149.801 229.4C149.201 230 148.401 230.3 147.501 230.3C146.601 230.3 145.801 230 145.201 229.4C144.601 228.8 144.301 228 144.301 227.1C144.301 226.2 144.601 225.4 145.201 224.8ZM147.501 229.2C148.101 229.2 148.501 229 148.901 228.6C149.301 228.2 149.501 227.7 149.501 227.1C149.501 226.5 149.301 226 148.901 225.6C148.501 225.2 148.101 225 147.501 225C146.901 225 146.501 225.2 146.101 225.6C145.701 226 145.601 226.5 145.601 227.1C145.601 227.7 145.801 228.2 146.101 228.6C146.501 229 147.001 229.2 147.501 229.2Z" fill="#383E41"/>
<path d="M152.801 224H158.001V225.2H156.001V230.3H154.701V225.2H152.701V224H152.801Z" fill="#383E41"/>
<path d="M164.6 227.4V226.3H167.4V227.4H164.6Z" fill="#383E41"/>
<path d="M174.201 230.3L176.801 227.1L174.401 224.1H176.001L178.101 226.7V224H179.401V226.6L181.501 224H183.101L180.701 227L183.401 230.2H181.701L179.501 227.4V230.2H178.201V227.4L176.001 230.2H174.201V230.3Z" fill="#383E41"/>
<path d="M185.801 230.3V224H187.101V228.1L190.101 224H191.201V230.3H190.001V226.2L186.901 230.3H185.801Z" fill="#383E41"/>
<path d="M193.801 229C193.901 229 194.101 229.1 194.301 229.1C194.601 229.1 194.901 228.9 195.001 228.4C195.101 227.9 195.201 227.1 195.201 225.8V224H199.601V230.3H198.301V225.2H196.401V226.5C196.401 228 196.201 229 195.901 229.5C195.601 230.1 195.101 230.3 194.401 230.3C194.201 230.3 194.001 230.3 193.901 230.2V229H193.801Z" fill="#383E41"/>
<path d="M203.4 224.8C204 224.2 204.8 223.9 205.7 223.9C206.6 223.9 207.4 224.2 208 224.8C208.6 225.4 208.9 226.2 208.9 227.1C208.9 228 208.6 228.8 208 229.4C207.4 230 206.6 230.3 205.7 230.3C204.8 230.3 204 230 203.4 229.4C202.8 228.8 202.5 228 202.5 227.1C202.5 226.2 202.8 225.4 203.4 224.8ZM205.8 229.2C206.4 229.2 206.8 229 207.2 228.6C207.6 228.2 207.8 227.7 207.8 227.1C207.8 226.5 207.6 226 207.2 225.6C206.8 225.2 206.4 225 205.8 225C205.2 225 204.8 225.2 204.4 225.6C204 226 203.9 226.5 203.9 227.1C203.9 227.7 204.1 228.2 204.4 228.6C204.8 229 205.2 229.2 205.8 229.2Z" fill="#383E41"/>
<path d="M212 230.3V224H213.3V228.1L216.3 224H217.4V230.3H216.1V226.2L213 230.3H212ZM214 222.1C214 222.5 214.3 222.8 214.7 222.8C215.1 222.8 215.4 222.5 215.4 222.1H216.3C216.3 223 215.6 223.6 214.7 223.6C213.8 223.6 213.1 223 213.1 222.1H214Z" fill="#383E41"/>
<path d="M224.6 230.3V224H225.9V226.5L228.2 224H229.8L227.1 226.9L230.2 230.3H228.6L225.9 227.4V230.3H224.6Z" fill="#383E41"/>
<path d="M232.8 224.8C233.4 224.2 234.2 223.9 235.1 223.9C236 223.9 236.8 224.2 237.4 224.8C238 225.4 238.3 226.2 238.3 227.1C238.3 228 238 228.8 237.4 229.4C236.8 230 236 230.3 235.1 230.3C234.2 230.3 233.4 230 232.8 229.4C232.2 228.8 231.9 228 231.9 227.1C231.9 226.2 232.2 225.4 232.8 224.8ZM235.1 229.2C235.7 229.2 236.1 229 236.5 228.6C236.9 228.2 237.1 227.7 237.1 227.1C237.1 226.5 236.9 226 236.5 225.6C236.1 225.2 235.7 225 235.1 225C234.5 225 234.1 225.2 233.7 225.6C233.3 226 233.2 226.5 233.2 227.1C233.2 227.7 233.4 228.2 233.7 228.6C234.1 229 234.6 229.2 235.1 229.2Z" fill="#383E41"/>
<path d="M241.301 230.3V224H242.601L244.401 226.6L246.201 224H247.501V230.3H246.201V226L244.801 228H244.101L242.601 226V230.3H241.301Z" fill="#383E41"/>
<path d="M250.701 230.3V224H255.901V230.3H254.601V225.2H252.001V230.3H250.701Z" fill="#383E41"/>
<path d="M258.5 229C258.6 229 258.8 229.1 259 229.1C259.3 229.1 259.6 228.9 259.7 228.4C259.8 227.9 259.9 227.1 259.9 225.8V224H264.3V230.3H263V225.2H261.1V226.5C261.1 228 260.9 229 260.6 229.5C260.3 230.1 259.8 230.3 259.1 230.3C258.9 230.3 258.7 230.3 258.6 230.2V229H258.5Z" fill="#383E41"/>
<path d="M267.4 230.3V224H272V225.2H268.7V226.4H271.4V227.5H268.7V229.1H272.1V230.3H267.4V230.3Z" fill="#383E41"/>
<path d="M275 230.3V224H276.3V226.5L278.6 224H280.2L277.5 226.9L280.6 230.3H279L276.3 227.4V230.3H275Z" fill="#383E41"/>
<path d="M283.201 229.5C282.601 228.9 282.201 228.1 282.201 227.2C282.201 226.2 282.501 225.5 283.201 224.9C283.801 224.3 284.701 224 285.601 224C286.201 224 286.801 224.1 287.301 224.4V225.7C286.801 225.4 286.301 225.2 285.701 225.2C285.101 225.2 284.601 225.4 284.201 225.8C283.801 226.2 283.601 226.7 283.601 227.3C283.601 227.9 283.801 228.4 284.201 228.8C284.601 229.2 285.101 229.4 285.701 229.4C286.401 229.4 287.001 229.2 287.401 228.9V230.2C286.901 230.5 286.301 230.7 285.601 230.7C284.601 230.4 283.801 230.1 283.201 229.5Z" fill="#383E41"/>
</svg>
