<svg width="380" height="248" viewBox="0 0 380 248" fill="none" xmlns="http://www.w3.org/2000/svg">
<path d="M105.3 183.4C104.5 182.6 104.1 181.6 104.1 180.4C104.1 179.2 104.5 178.2 105.3 177.4C106.1 176.6 107.1 176.2 108.3 176.2C109.7 176.2 111 176.9 111.7 178.1L110.3 178.9C109.9 178.2 109.1 177.8 108.2 177.8C107.4 177.8 106.8 178 106.3 178.5C105.8 179 105.6 179.6 105.6 180.4C105.6 181.2 105.8 181.8 106.3 182.3C106.8 182.8 107.4 183 108.2 183C109.1 183 109.9 182.6 110.3 181.9L111.7 182.7C111 183.9 109.7 184.6 108.3 184.6C107.1 184.6 106.1 184.2 105.3 183.4Z" fill="#383E41"/>
<path d="M120.099 182.9H120.999V185.9H119.399V184.4H114.199V176.4H115.799V182.9H118.599V176.4H120.199V182.9H120.099Z" fill="#383E41"/>
<path d="M124.9 182.9H128.3V184.4H123.4V176.4H128.3V177.9H125V179.6H128V181.1H125V182.9H124.9Z" fill="#383E41"/>
<path d="M135.299 176.4H136.899V184.4H135.299V181.1H132.299V184.4H130.699V176.4H132.299V179.6H135.299V176.4Z" fill="#383E41"/>
<path d="M144.9 184.4L144.4 183H141.2L140.7 184.4H139L141.8 176.4H143.7L146.5 184.4H144.9ZM141.7 181.5H143.9L142.8 178.2L141.7 181.5Z" fill="#383E41"/>
<path d="M151.699 176.4C152.499 176.4 153.099 176.7 153.599 177.2C154.099 177.7 154.399 178.4 154.399 179.1C154.399 179.9 154.099 180.5 153.599 181C153.099 181.5 152.399 181.8 151.699 181.8H150.299V184.4H148.699V176.4H151.699V176.4ZM151.699 180.3C152.399 180.3 152.899 179.8 152.899 179.1C152.899 178.4 152.399 177.9 151.699 177.9H150.299V180.3H151.699V180.3Z" fill="#383E41"/>
<path d="M161.299 184.4V179.5L157.899 184.4H156.699V176.4H158.299V181.3L161.699 176.4H162.899V184.4H161.299Z" fill="#383E41"/>
<path d="M170.299 184.4V179.5L166.899 184.4H165.699V176.4H167.299V181.3L170.699 176.4H171.899V184.4H170.299ZM167.099 175.7V174.4H170.399V175.7H167.099Z" fill="#383E41"/>
<path d="M176.5 182.8L175.6 186H174.4L174.9 182.8H176.5Z" fill="#383E41"/>
<path d="M187.899 176.4H189.499V184.4H187.899V181.1H184.899V184.4H183.299V176.4H184.899V179.6H187.899V176.4Z" fill="#383E41"/>
<path d="M197.5 184.4L197 183H193.8L193.3 184.4H191.6L194.4 176.4H196.3L199.1 184.4H197.5ZM194.3 181.5H196.5L195.4 178.2L194.3 181.5Z" fill="#383E41"/>
<path d="M207.299 176.4V184.4H205.699V177.9H202.899V184.4H201.299V176.4H207.299Z" fill="#383E41"/>
<path d="M214.7 184.4V179.5L211.3 184.4H210.1V176.4H211.7V181.3L215.1 176.4H216.3V184.4H214.7Z" fill="#383E41"/>
<path d="M219.899 183.4C219.099 182.6 218.699 181.6 218.699 180.4C218.699 179.2 219.099 178.2 219.899 177.4C220.699 176.6 221.699 176.2 222.899 176.2C224.299 176.2 225.599 176.9 226.299 178.1L224.899 178.9C224.499 178.2 223.699 177.8 222.799 177.8C221.999 177.8 221.399 178 220.899 178.5C220.399 179 220.199 179.6 220.199 180.4C220.199 181.2 220.399 181.8 220.899 182.3C221.399 182.8 221.999 183 222.799 183C223.699 183 224.499 182.6 224.899 181.9L226.299 182.7C225.599 183.9 224.299 184.6 222.899 184.6C221.699 184.6 220.699 184.2 219.899 183.4Z" fill="#383E41"/>
<path d="M233.8 184.4L233.3 183H230.1L229.6 184.4H228L230.8 176.4H232.7L235.5 184.4H233.8ZM230.6 181.5H232.8L231.7 178.2L230.6 181.5Z" fill="#383E41"/>
<path d="M242.2 176.4H243.8V184.4H242.2V181.1H239.2V184.4H237.6V176.4H239.2V179.6H242.2V176.4Z" fill="#383E41"/>
<path d="M251.1 176.4H252.7V184.4H251.1V181.1H248.1V184.4H246.5V176.4H248.1V179.6H251.1V176.4Z" fill="#383E41"/>
<path d="M255.5 184.4V176.4H257.1V179H258.5C259.3 179 259.9 179.3 260.4 179.8C260.9 180.3 261.2 181 261.2 181.7C261.2 182.4 260.9 183.1 260.4 183.6C259.9 184.1 259.2 184.4 258.5 184.4H255.5V184.4ZM257.1 182.9H258.5C259.2 182.9 259.7 182.4 259.7 181.7C259.7 181 259.2 180.5 258.5 180.5H257.1V182.9ZM261.9 184.4V176.4H263.5V184.4H261.9Z" fill="#383E41"/>
<path d="M270.899 184.4V179.5L267.499 184.4H266.299V176.4H267.899V181.3L271.299 176.4H272.499V184.4H270.899ZM267.799 175.7V174.4H271.099V175.7H267.799Z" fill="#383E41"/>
<path d="M285.5 182.1C285.5 182.8 285.3 183.3 284.8 183.8C284.3 184.2 283.7 184.4 283 184.4H279.6V176.4H282.7C283.4 176.4 284 176.6 284.4 177C284.8 177.4 285.1 178 285.1 178.6C285.1 179.3 284.8 179.8 284.3 180.2C285.1 180.7 285.5 181.3 285.5 182.1ZM281.2 177.9V179.7H282.8C283.3 179.7 283.7 179.3 283.7 178.8C283.7 178.3 283.3 177.9 282.8 177.9H281.2ZM283 182.9C283.5 182.9 283.9 182.5 283.9 182C283.9 181.5 283.5 181.1 283 181.1H281.2V183H283V182.9Z" fill="#383E41"/>
<path d="M292.9 184.4L292.4 183H289.2L288.7 184.4H287L289.8 176.4H291.7L294.5 184.4H292.9ZM289.8 181.5H292L290.9 178.2L289.8 181.5Z" fill="#383E41"/>
<path d="M304.599 176.4V184.4H302.999V179.2L300.799 182.9H300.599L298.399 179.2V184.4H296.799V176.4H298.399L300.699 180.2L302.999 176.4H304.599Z" fill="#383E41"/>
<path d="M312 184.4V179.5L308.6 184.4H307.4V176.4H309V181.3L312.4 176.4H313.6V184.4H312Z" fill="#383E41"/>
<path d="M123.501 117.3L115.101 103.3H112.001V117.3H104.801V81.5H118.501C122.701 81.5 125.801 82.5 128.001 84.5C130.201 86.5 131.301 89.2 131.301 92.5C131.301 95.2 130.501 97.5 129.001 99.3C127.501 101.1 125.301 102.3 122.501 103L131.401 117.3H123.501ZM111.901 98.4H117.801C121.901 98.4 123.901 96.6 123.901 93C123.901 91.3 123.401 89.9 122.401 89C121.401 88 119.901 87.6 117.801 87.6H111.901V98.4Z" fill="#383E41"/>
<path d="M162.5 89.2V117.3H155.3V111.6C154.6 113.5 153.3 115 151.6 116C149.9 117.1 147.9 117.6 145.7 117.6C142.4 117.6 139.9 116.5 137.9 114.4C136 112.3 135 109.3 135 105.5V89.2H142.1V104.7C142.1 106.9 142.7 108.7 143.8 109.9C145 111.1 146.5 111.8 148.5 111.8C150.6 111.8 152.2 111.1 153.4 109.8C154.6 108.5 155.2 106.6 155.2 104.1V89.2H162.5Z" fill="#383E41"/>
<path d="M186.502 91.4C188.602 93.1 189.902 95.4 190.402 98.3H183.702C183.402 96.9 182.802 95.9 181.902 95C181.002 94.2 179.702 93.8 178.202 93.8C177.002 93.8 176.002 94.1 175.402 94.7C174.702 95.3 174.402 96.1 174.402 97C174.402 97.8 174.702 98.4 175.202 98.9C175.702 99.4 176.402 99.7 177.202 100C178.002 100.3 179.202 100.6 180.702 101C182.802 101.5 184.602 102 185.902 102.5C187.202 103 188.402 103.9 189.402 105C190.402 106.1 190.802 107.7 190.802 109.6C190.802 112 189.902 114 188.002 115.4C186.102 116.9 183.602 117.6 180.402 117.6C176.702 117.6 173.802 116.8 171.602 115.1C169.402 113.5 168.102 111.1 167.602 108.1H174.502C174.702 109.5 175.302 110.6 176.302 111.4C177.302 112.2 178.702 112.6 180.402 112.6C181.602 112.6 182.502 112.3 183.202 111.7C183.802 111.1 184.202 110.3 184.202 109.4C184.202 108.6 183.902 107.9 183.402 107.4C182.802 106.9 182.102 106.5 181.302 106.2C180.502 105.9 179.302 105.6 177.802 105.2C175.702 104.7 174.002 104.2 172.702 103.8C171.402 103.3 170.302 102.5 169.302 101.4C168.402 100.3 167.902 98.8 167.902 96.9C167.902 94.5 168.802 92.5 170.702 91C172.602 89.5 175.102 88.7 178.402 88.7C181.702 88.8 184.402 89.7 186.502 91.4Z" fill="#383E41"/>
<path d="M212.701 90.5C214.401 91.6 215.601 93.1 216.301 95V89.2H223.401V117.3H216.301V111.4C215.601 113.3 214.401 114.8 212.701 115.9C211.001 117 209.001 117.6 206.601 117.6C204.201 117.6 202.101 117 200.201 115.9C198.301 114.7 196.801 113.1 195.801 110.9C194.701 108.7 194.201 106.2 194.201 103.2C194.201 100.3 194.701 97.7 195.801 95.5C196.901 93.3 198.301 91.6 200.201 90.5C202.101 89.3 204.201 88.8 206.601 88.8C209.001 88.8 211.001 89.4 212.701 90.5ZM203.501 97.3C202.101 98.8 201.501 100.8 201.501 103.3C201.501 105.8 202.201 107.8 203.501 109.3C204.901 110.7 206.601 111.5 208.901 111.5C211.101 111.5 212.901 110.8 214.301 109.3C215.701 107.8 216.401 105.9 216.401 103.4C216.401 100.9 215.701 98.9 214.301 97.4C212.901 95.9 211.101 95.2 208.901 95.2C206.601 95.1 204.801 95.8 203.501 97.3Z" fill="#383E41"/>
<path d="M254 92C255.9 94.1 256.9 97.1 256.9 101V117.4H249.8V101.9C249.8 99.7 249.2 97.9 248.1 96.7C246.9 95.5 245.4 94.8 243.4 94.8C241.4 94.8 239.7 95.5 238.5 96.8C237.3 98.1 236.7 100 236.7 102.5V117.4H229.5V89.2H236.7V94.8C237.4 92.9 238.7 91.4 240.4 90.4C242.1 89.3 244.1 88.8 246.3 88.8C249.5 88.8 252.1 89.9 254 92Z" fill="#383E41"/>
<path d="M263.1 78.3C263.9 77.6 265 77.2 266.3 77.2C267.6 77.2 268.7 77.6 269.5 78.3C270.3 79 270.7 80 270.7 81.1C270.7 82.2 270.3 83.1 269.5 83.9C268.7 84.6 267.6 85 266.3 85C265 85 263.9 84.6 263.1 83.9C262.3 83.2 261.9 82.2 261.9 81.1C261.9 80 262.3 79 263.1 78.3ZM269.9 89.2V117.3H262.7V89.2H269.9Z" fill="#383E41"/>
<path d="M288.2 110.2L295.3 89.2H302.9L292.5 117.3H283.8L273.4 89.2H281.1L288.2 110.2Z" fill="#383E41"/>
<path d="M123.501 159.6L115.101 145.6H112.001V159.6H104.801V123.7H118.501C122.701 123.7 125.801 124.7 128.001 126.7C130.201 128.7 131.301 131.4 131.301 134.7C131.301 137.4 130.501 139.7 129.001 141.5C127.501 143.3 125.301 144.5 122.501 145.2L131.401 159.5H123.501V159.6ZM111.901 140.7H117.801C121.901 140.7 123.901 138.9 123.901 135.3C123.901 133.6 123.401 132.2 122.401 131.3C121.401 130.3 119.901 129.9 117.801 129.9H111.901V140.7Z" fill="#383E41"/>
<path d="M162.302 146.9H141.702C141.802 149.4 142.502 151.3 143.702 152.4C145.002 153.6 146.502 154.2 148.402 154.2C150.102 154.2 151.402 153.8 152.502 153C153.602 152.2 154.302 151.1 154.602 149.7H162.202C161.802 151.7 161.002 153.4 159.802 155C158.602 156.6 157.002 157.8 155.102 158.7C153.202 159.6 151.102 160 148.702 160C146.002 160 143.502 159.4 141.402 158.2C139.302 157 137.602 155.4 136.402 153.2C135.202 151 134.602 148.5 134.602 145.5C134.602 142.6 135.202 140 136.402 137.8C137.602 135.6 139.202 133.9 141.402 132.8C143.502 131.6 146.002 131.1 148.702 131.1C151.502 131.1 153.902 131.7 156.002 132.8C158.102 134 159.702 135.5 160.802 137.5C161.902 139.5 162.502 141.8 162.502 144.4C162.502 145.2 162.402 146 162.302 146.9ZM153.502 138.5C152.202 137.3 150.602 136.7 148.702 136.7C146.802 136.7 145.102 137.3 143.802 138.5C142.502 139.7 141.802 141.4 141.602 143.7H155.302C155.402 141.5 154.802 139.7 153.502 138.5Z" fill="#383E41"/>
<path d="M185.502 133.7C187.602 135.4 188.902 137.7 189.402 140.6H182.702C182.402 139.2 181.802 138.2 180.902 137.3C180.002 136.5 178.702 136.1 177.202 136.1C176.002 136.1 175.002 136.4 174.402 137C173.702 137.6 173.402 138.4 173.402 139.3C173.402 140.1 173.702 140.7 174.202 141.2C174.702 141.7 175.402 142 176.202 142.3C177.002 142.6 178.202 142.9 179.702 143.3C181.802 143.8 183.602 144.3 184.902 144.8C186.202 145.3 187.402 146.2 188.402 147.3C189.402 148.4 189.802 150 189.802 151.9C189.802 154.3 188.902 156.3 187.002 157.7C185.102 159.2 182.602 159.9 179.402 159.9C175.702 159.9 172.802 159.1 170.602 157.4C168.402 155.8 167.102 153.4 166.602 150.4H173.502C173.702 151.8 174.302 152.9 175.302 153.7C176.302 154.5 177.702 154.9 179.402 154.9C180.602 154.9 181.502 154.6 182.202 154C182.802 153.4 183.202 152.6 183.202 151.7C183.202 150.9 182.902 150.2 182.402 149.7C181.802 149.2 181.102 148.8 180.302 148.5C179.502 148.2 178.302 147.9 176.802 147.5C174.702 147 173.002 146.5 171.702 146.1C170.402 145.6 169.302 144.8 168.302 143.7C167.402 142.6 166.902 141.1 166.902 139.2C166.902 136.8 167.802 134.8 169.702 133.3C171.602 131.8 174.102 131 177.402 131C180.702 131.1 183.502 132 185.502 133.7Z" fill="#383E41"/>
<path d="M195.1 120.6C195.9 119.9 197 119.5 198.3 119.5C199.6 119.5 200.7 119.9 201.5 120.6C202.3 121.3 202.7 122.3 202.7 123.4C202.7 124.5 202.3 125.4 201.5 126.2C200.7 126.9 199.6 127.3 198.3 127.3C197 127.3 195.9 126.9 195.1 126.2C194.3 125.5 193.9 124.5 193.9 123.4C193.9 122.3 194.3 121.3 195.1 120.6ZM201.9 131.5V159.6H194.7V131.5H201.9Z" fill="#383E41"/>
<path d="M225.801 132.8C227.501 133.9 228.701 135.4 229.401 137.3V122H236.501V159.6H229.401V153.7C228.701 155.6 227.401 157.1 225.801 158.2C224.101 159.3 222.101 159.9 219.701 159.9C217.301 159.9 215.201 159.3 213.301 158.2C211.401 157 209.901 155.4 208.901 153.2C207.801 151 207.301 148.5 207.301 145.5C207.301 142.6 207.801 140 208.901 137.8C210.001 135.6 211.401 133.9 213.301 132.8C215.201 131.6 217.301 131.1 219.701 131.1C222.101 131.1 224.201 131.7 225.801 132.8ZM216.601 139.6C215.201 141.1 214.601 143.1 214.601 145.6C214.601 148.1 215.301 150.1 216.601 151.6C218.001 153 219.701 153.8 222.001 153.8C224.201 153.8 226.001 153.1 227.401 151.6C228.801 150.1 229.501 148.2 229.501 145.7C229.501 143.2 228.801 141.2 227.401 139.7C226.001 138.2 224.201 137.5 222.001 137.5C219.801 137.4 218.001 138.1 216.601 139.6Z" fill="#383E41"/>
<path d="M269.302 146.9H248.702C248.802 149.4 249.502 151.3 250.702 152.4C252.002 153.6 253.502 154.2 255.402 154.2C257.102 154.2 258.402 153.8 259.502 153C260.602 152.2 261.302 151.1 261.602 149.7H269.202C268.802 151.7 268.002 153.4 266.802 155C265.602 156.6 264.002 157.8 262.102 158.7C260.202 159.6 258.102 160 255.702 160C253.002 160 250.502 159.4 248.402 158.2C246.302 157 244.602 155.4 243.402 153.2C242.202 151 241.602 148.5 241.602 145.5C241.602 142.6 242.202 140 243.402 137.8C244.602 135.6 246.202 133.9 248.402 132.8C250.502 131.6 253.002 131.1 255.702 131.1C258.502 131.1 260.902 131.7 263.002 132.8C265.102 134 266.702 135.5 267.802 137.5C268.902 139.5 269.502 141.8 269.502 144.4C269.502 145.2 269.502 146 269.302 146.9ZM260.502 138.5C259.202 137.3 257.602 136.7 255.702 136.7C253.802 136.7 252.102 137.3 250.802 138.5C249.502 139.7 248.802 141.4 248.602 143.7H262.302C262.402 141.5 261.802 139.7 260.502 138.5Z" fill="#383E41"/>
<path d="M299.201 134.3C301.101 136.4 302.101 139.4 302.101 143.3V159.7H295.001V144.2C295.001 142 294.401 140.2 293.301 139C292.101 137.8 290.601 137.1 288.601 137.1C286.601 137.1 284.901 137.8 283.701 139.1C282.501 140.4 281.901 142.3 281.901 144.8V159.7H274.701V131.6H281.901V137.2C282.601 135.3 283.901 133.8 285.601 132.8C287.301 131.7 289.301 131.2 291.501 131.2C294.601 131.1 297.201 132.2 299.201 134.3Z" fill="#383E41"/>
<path d="M330.1 134.1C332.5 136.1 334 138.7 334.6 142.1H327C326.7 140.6 326 139.4 324.9 138.6C323.8 137.7 322.4 137.3 320.8 137.3C318.9 137.3 317.3 138 316.1 139.4C314.8 140.8 314.2 142.9 314.2 145.6C314.2 148.3 314.8 150.4 316.1 151.8C317.4 153.2 319 153.9 320.8 153.9C322.5 153.9 323.8 153.5 324.9 152.6C326 151.7 326.7 150.6 327 149.1H334.6C334 152.5 332.5 155.2 330.1 157.1C327.7 159.1 324.7 160 321 160C318.3 160 315.8 159.4 313.7 158.2C311.6 157 309.9 155.4 308.7 153.2C307.5 151 306.9 148.5 306.9 145.5C306.9 142.6 307.5 140 308.7 137.8C309.9 135.6 311.5 133.9 313.7 132.8C315.8 131.6 318.3 131.1 321 131.1C324.6 131.1 327.6 132.1 330.1 134.1Z" fill="#383E41"/>
<path d="M365.901 146.9H345.301C345.401 149.4 346.101 151.3 347.301 152.4C348.601 153.6 350.101 154.2 352.001 154.2C353.701 154.2 355.001 153.8 356.101 153C357.201 152.2 357.901 151.1 358.201 149.7H365.801C365.401 151.7 364.601 153.4 363.401 155C362.201 156.6 360.601 157.8 358.701 158.7C356.801 159.6 354.701 160 352.301 160C349.601 160 347.101 159.4 345.001 158.2C342.901 157 341.201 155.4 340.001 153.2C338.801 151 338.201 148.5 338.201 145.5C338.201 142.6 338.801 140 340.001 137.8C341.201 135.6 342.801 133.9 345.001 132.8C347.101 131.6 349.601 131.1 352.301 131.1C355.101 131.1 357.501 131.7 359.601 132.8C361.701 134 363.301 135.5 364.401 137.5C365.501 139.5 366.101 141.8 366.101 144.4C366.101 145.2 366.101 146 365.901 146.9ZM357.101 138.5C355.801 137.3 354.201 136.7 352.301 136.7C350.401 136.7 348.701 137.3 347.401 138.5C346.101 139.7 345.401 141.4 345.201 143.7H358.901C359.001 141.5 358.401 139.7 357.101 138.5Z" fill="#383E41"/>
<path d="M15 176H55.5C57.7 173.6 59.5 171.4 61.4 168.7H15V176Z" fill="#383E41"/>
<path d="M15 159.7H66.9C68.6 156.5 69.7 153.8 70.9 150.4H15V159.7Z" fill="#383E41"/>
<path d="M15 192.5H32.9C36.1 191 39.3 189.2 42.2 187.3H15V192.5Z" fill="#383E41"/>
<path d="M15 55.3999V128.3H74.8C74.8 127.8 74.8 127.3 74.8 126.8C74.8 90.9999 48.9 61.2999 15 55.3999Z" fill="#383E41"/>
<path d="M15 144.3H72.7C73.7 140.3 74.4 136.1 74.7 131.9H15V144.3Z" fill="#383E41"/>
</svg>
