<svg width="380" height="248" viewBox="0 0 380 248" fill="none" xmlns="http://www.w3.org/2000/svg">
<path d="M12.4897 175.49H11.5497C11.123 175.49 10.7097 175.49 10.3097 175.49V184.35C10.3097 185.47 10.3097 186.427 10.3097 187.22C10.2936 187.889 10.2402 188.557 10.1497 189.22L15.7897 188.92V191.64H0.749687V189.64C1.65687 189.664 2.55417 189.447 3.34969 189.01C3.9163 188.642 4.34526 188.097 4.56969 187.46C4.82412 186.703 4.94921 185.909 4.93969 185.11C4.93969 184.203 4.93969 183.203 4.93969 182.11V155.63C4.93969 154.797 4.93969 154.003 4.93969 153.25C4.93969 152.497 4.99302 151.83 5.09969 151.25L0.679688 151.52V148.8C2.83302 148.76 5.04302 148.737 7.30969 148.73H14.3097C20.243 148.73 24.753 149.73 27.8397 151.73C29.4421 152.734 30.7493 154.145 31.6278 155.819C32.5063 157.494 32.9245 159.371 32.8397 161.26C32.8389 162.179 32.7586 163.095 32.5997 164C32.3797 165.122 31.9921 166.204 31.4497 167.21C30.8261 168.381 30.0269 169.45 29.0797 170.38C27.966 171.457 26.682 172.342 25.2797 173C23.5429 173.817 21.7126 174.418 19.8297 174.79C17.4138 175.276 14.954 175.511 12.4897 175.49V175.49ZM10.3097 172.92C11.063 173.02 11.7297 173.08 12.3097 173.1C12.8897 173.12 13.5564 173.12 14.3097 173.1C15.9773 173.111 17.6356 172.851 19.2197 172.33C20.6862 171.846 22.0447 171.082 23.2197 170.08C24.3706 169.09 25.2977 167.866 25.9397 166.49C26.6263 164.984 26.968 163.344 26.9397 161.69C26.9852 160.002 26.6681 158.325 26.0097 156.77C25.4343 155.469 24.54 154.334 23.4097 153.47C22.2166 152.591 20.8548 151.968 19.4097 151.64C17.7252 151.246 15.9996 151.055 14.2697 151.07C13.4175 151.015 12.5666 151.195 11.8097 151.59C11.2656 151.937 10.8564 152.459 10.6497 153.07C10.4065 153.805 10.2914 154.576 10.3097 155.35V172.9V172.92Z" fill="#383E41"/>
<path d="M60.7903 173.55L39.2603 173.91C39.2233 176.056 39.4042 178.2 39.8003 180.31C40.108 182.038 40.7137 183.699 41.5903 185.22C42.3516 186.521 43.4368 187.603 44.7403 188.36C46.152 189.13 47.7426 189.513 49.3503 189.47C50.3396 189.466 51.3243 189.335 52.2803 189.08C53.2737 188.816 54.2385 188.455 55.1603 188C56.0695 187.559 56.9251 187.016 57.7103 186.38C58.4422 185.802 59.0945 185.129 59.6503 184.38L61.1403 185.6C60.3475 186.827 59.3653 187.92 58.2303 188.84C57.1762 189.693 56.0249 190.418 54.8003 191C53.6619 191.542 52.4637 191.948 51.2303 192.21C50.1325 192.447 49.0133 192.571 47.8903 192.58C45.8681 192.598 43.8625 192.214 41.9903 191.45C40.2005 190.715 38.588 189.607 37.2603 188.2C35.8853 186.72 34.8149 184.983 34.1103 183.09C33.3279 180.934 32.9516 178.653 33.0003 176.36C32.9903 174.254 33.363 172.163 34.1003 170.19C34.799 168.283 35.8469 166.523 37.1903 165C38.5544 163.481 40.2107 162.254 42.0603 161.39C44.0337 160.478 46.1865 160.02 48.3603 160.05C49.9943 160.042 51.6166 160.326 53.1503 160.89C54.6484 161.43 56.0126 162.286 57.1503 163.4C58.3405 164.6 59.258 166.043 59.8403 167.63C60.5163 169.529 60.8383 171.535 60.7903 173.55V173.55ZM48.4203 162.44C46.2546 162.361 44.1405 163.112 42.5103 164.54C40.9569 165.94 39.9303 168.207 39.4303 171.34H55.0003C54.9989 170.263 54.8781 169.19 54.6403 168.14C54.422 167.128 54.0331 166.161 53.4903 165.28C52.9868 164.455 52.303 163.754 51.4903 163.23C50.5644 162.676 49.4983 162.402 48.4203 162.44V162.44Z" fill="#383E41"/>
<path d="M81.5006 163.37C80.6932 163.355 79.8908 163.501 79.1406 163.8C78.2986 164.137 77.5103 164.595 76.8006 165.16C75.9976 165.792 75.2695 166.513 74.6306 167.31C73.9355 168.176 73.326 169.107 72.8106 170.09L72.8706 185.09C72.8706 185.91 72.8706 186.63 72.8706 187.25C72.847 187.921 72.7768 188.589 72.6606 189.25L76.5106 189.07V191.58H63.9406V189.76C64.6946 189.813 65.4454 189.62 66.0806 189.21C66.5845 188.818 66.9548 188.281 67.1406 187.67C67.3759 186.905 67.5005 186.11 67.5106 185.31C67.5106 184.397 67.5106 183.397 67.5106 182.31V168.31C67.5106 167.643 67.5106 167 67.5106 166.38C67.5344 165.709 67.6046 165.041 67.7206 164.38L63.3906 164.56V162.05H65.2706C65.9995 162.061 66.7282 162.018 67.4506 161.92C67.9466 161.853 68.4332 161.729 68.9006 161.55C69.254 161.418 69.5899 161.244 69.9006 161.03C70.1618 160.841 70.4122 160.637 70.6506 160.42H72.4106C72.4706 161.087 72.524 161.877 72.5706 162.79C72.6173 163.703 72.6606 164.923 72.7006 166.45C73.2073 165.632 73.7971 164.868 74.4606 164.17C75.1879 163.395 75.9996 162.704 76.8806 162.11C77.7847 161.5 78.7582 161 79.7806 160.62C80.8069 160.218 81.8984 160.008 83.0006 160C83.5515 159.998 84.1 160.072 84.6306 160.22C85.1308 160.356 85.5972 160.595 86.0006 160.92C86.3947 161.246 86.7151 161.651 86.9406 162.11C87.1935 162.651 87.3167 163.243 87.3006 163.84C87.2967 164.157 87.2427 164.47 87.1406 164.77C87.0288 165.136 86.8453 165.476 86.6006 165.77C86.3398 166.08 86.0203 166.334 85.6606 166.52C85.225 166.732 84.7447 166.834 84.2606 166.82C83.8286 166.826 83.402 166.723 83.0206 166.52C82.6626 166.332 82.3462 166.073 82.0906 165.76C81.8371 165.446 81.653 165.081 81.5506 164.69C81.4452 164.258 81.4282 163.809 81.5006 163.37Z" fill="#383E41"/>
<path d="M108.14 148.38C107.837 147.977 107.413 147.683 106.93 147.54C106.472 147.388 105.993 147.307 105.51 147.3C104.676 147.262 103.851 147.485 103.15 147.94C102.531 148.373 102.029 148.954 101.69 149.63C101.319 150.367 101.063 151.156 100.93 151.97C100.783 152.832 100.709 153.705 100.71 154.58V161H108.95V163.39L100.71 163.54L100.77 185.1C100.77 185.92 100.77 186.64 100.77 187.26C100.746 187.932 100.665 188.601 100.53 189.26L104.38 189.08V191.59H91.9004V189.77C92.6544 189.822 93.4052 189.629 94.0404 189.22C94.5447 188.829 94.9151 188.291 95.1004 187.68C95.3369 186.915 95.4582 186.12 95.4604 185.32C95.4604 184.407 95.4604 183.407 95.4604 182.32L95.4004 163.69L90.4004 163.78V161H95.4004V159.72C95.378 157.668 95.5724 155.62 95.9804 153.61C96.3041 151.96 96.9571 150.392 97.9004 149C98.7678 147.751 99.9468 146.752 101.32 146.1C102.93 145.386 104.68 145.044 106.44 145.1C107.161 145.106 107.878 145.19 108.58 145.35C109.324 145.512 110.038 145.785 110.7 146.16C111.332 146.513 111.886 146.989 112.33 147.56C112.766 148.135 112.998 148.838 112.99 149.56C113.019 150.295 112.761 151.012 112.27 151.56C112.041 151.813 111.76 152.014 111.446 152.149C111.132 152.284 110.792 152.349 110.45 152.34C110.02 152.359 109.591 152.273 109.2 152.09C108.896 151.932 108.628 151.715 108.41 151.45C108.207 151.202 108.054 150.917 107.96 150.61C107.878 150.348 107.834 150.075 107.83 149.8C107.83 149.555 107.853 149.31 107.9 149.07C107.955 148.832 108.036 148.601 108.14 148.38V148.38Z" fill="#383E41"/>
<path d="M138.511 173.55L116.981 173.91C116.944 176.056 117.125 178.2 117.521 180.31C117.828 182.038 118.434 183.699 119.311 185.22C120.072 186.521 121.157 187.602 122.461 188.36C123.872 189.13 125.463 189.513 127.071 189.47C128.06 189.466 129.045 189.335 130.001 189.08C130.994 188.82 131.958 188.461 132.881 188.01C133.79 187.569 134.645 187.026 135.431 186.39C136.163 185.812 136.815 185.139 137.371 184.39L138.861 185.61C138.068 186.837 137.086 187.93 135.951 188.85C134.897 189.703 133.745 190.428 132.521 191.01C131.397 191.541 130.216 191.941 129.001 192.2C127.903 192.437 126.784 192.561 125.661 192.57C123.638 192.588 121.633 192.204 119.761 191.44C117.971 190.705 116.358 189.597 115.031 188.19C113.655 186.71 112.585 184.974 111.881 183.08C111.086 180.93 110.696 178.652 110.731 176.36C110.72 174.254 111.093 172.163 111.831 170.19C112.542 168.272 113.607 166.505 114.971 164.98C116.335 163.461 117.991 162.233 119.841 161.37C121.814 160.458 123.967 160 126.141 160.03C127.775 160.022 129.397 160.306 130.931 160.87C132.429 161.409 133.793 162.266 134.931 163.38C136.121 164.58 137.038 166.023 137.621 167.61C138.278 169.519 138.58 171.532 138.511 173.55V173.55ZM126.151 162.44C123.985 162.361 121.871 163.112 120.241 164.54C118.687 165.94 117.661 168.207 117.161 171.34H132.751C132.749 170.263 132.629 169.19 132.391 168.14C132.172 167.128 131.783 166.161 131.241 165.28C130.737 164.455 130.053 163.754 129.241 163.23C128.306 162.671 127.229 162.397 126.141 162.44H126.151Z" fill="#383E41"/>
<path d="M163.7 165.69C163.455 165.018 163.033 164.424 162.48 163.97C161.952 163.548 161.362 163.211 160.73 162.97C160.125 162.738 159.494 162.583 158.85 162.51C158.329 162.448 157.805 162.415 157.28 162.41C155.933 162.398 154.6 162.688 153.38 163.26C152.162 163.839 151.094 164.691 150.26 165.75C149.318 166.972 148.612 168.359 148.18 169.84C147.647 171.661 147.391 173.553 147.42 175.45C147.402 177.353 147.658 179.25 148.18 181.08C148.628 182.677 149.352 184.183 150.32 185.53C151.191 186.736 152.323 187.73 153.63 188.44C154.957 189.128 156.436 189.472 157.93 189.44C158.891 189.441 159.847 189.306 160.77 189.04C161.699 188.775 162.592 188.399 163.43 187.92C164.258 187.448 165.032 186.888 165.74 186.25C166.425 185.639 167.033 184.948 167.55 184.19L169.13 185.41C168.362 186.628 167.422 187.73 166.34 188.68C165.341 189.556 164.239 190.308 163.06 190.92C161.963 191.49 160.801 191.927 159.6 192.22C158.52 192.489 157.413 192.63 156.3 192.64C154.301 192.653 152.317 192.293 150.45 191.58C148.652 190.895 147.015 189.846 145.64 188.5C144.227 187.095 143.121 185.413 142.39 183.56C141.564 181.439 141.159 179.176 141.2 176.9C141.199 175.49 141.373 174.086 141.72 172.72C142.065 171.355 142.572 170.035 143.23 168.79C143.888 167.547 144.69 166.385 145.62 165.33C146.55 164.271 147.62 163.342 148.8 162.57C150.002 161.786 151.308 161.173 152.68 160.75C154.125 160.305 155.629 160.083 157.14 160.09C158.706 160.073 160.266 160.285 161.77 160.72C163.045 161.082 164.253 161.646 165.35 162.39C166.28 163.016 167.064 163.835 167.65 164.79C168.175 165.648 168.455 166.634 168.46 167.64C168.48 168.451 168.223 169.245 167.73 169.89C167.481 170.21 167.161 170.468 166.794 170.641C166.428 170.815 166.025 170.9 165.62 170.89C165.197 170.921 164.774 170.846 164.388 170.671C164.002 170.496 163.666 170.228 163.41 169.89C163.194 169.62 163.031 169.311 162.93 168.98C162.837 168.696 162.787 168.399 162.78 168.1C162.783 167.676 162.847 167.255 162.97 166.85C163.121 166.412 163.37 166.015 163.7 165.69Z" fill="#383E41"/>
<path d="M171.07 161C172.111 160.992 173.127 160.686 174 160.12C174.882 159.546 175.663 158.829 176.31 158C176.981 157.15 177.548 156.223 178 155.24C178.423 154.33 178.781 153.391 179.07 152.43H181.16C181.16 154.063 181.16 155.587 181.16 157C181.16 158.413 181.16 159.747 181.16 161H191.46V163.39L181.16 163.51C181.16 166.177 181.16 168.437 181.16 170.29C181.16 172.143 181.16 173.707 181.16 174.98C181.16 176.233 181.16 177.233 181.16 177.98C181.16 178.727 181.16 179.28 181.16 179.64C181.16 180.02 181.16 180.26 181.16 180.37V180.56C181.149 181.794 181.222 183.026 181.38 184.25C181.49 185.181 181.746 186.089 182.14 186.94C182.45 187.609 182.942 188.178 183.56 188.58C184.236 188.971 185.01 189.162 185.79 189.13C186.911 189.101 187.999 188.754 188.93 188.13C190.031 187.43 190.968 186.503 191.68 185.41L193.32 186.75C192.577 187.925 191.679 188.994 190.65 189.93C189.887 190.612 189.041 191.193 188.13 191.66C187.432 192.016 186.683 192.262 185.91 192.39C185.311 192.483 184.706 192.533 184.1 192.54C183.464 192.539 182.829 192.489 182.2 192.39C181.54 192.287 180.897 192.091 180.29 191.81C179.639 191.505 179.044 191.093 178.53 190.59C177.938 190.009 177.448 189.333 177.08 188.59C176.618 187.638 176.282 186.629 176.08 185.59C175.824 184.192 175.714 182.771 175.75 181.35L175.87 163.67H171.18L171.07 161Z" fill="#383E41"/>
<path d="M226.009 88.2901C227.379 88.2901 228.489 87.1797 228.489 85.8101C228.489 84.4404 227.379 83.3301 226.009 83.3301C224.64 83.3301 223.529 84.4404 223.529 85.8101C223.529 87.1797 224.64 88.2901 226.009 88.2901Z" fill="#383E41"/>
<path d="M153.99 88.2901C155.359 88.2901 156.47 87.1797 156.47 85.8101C156.47 84.4404 155.359 83.3301 153.99 83.3301C152.62 83.3301 151.51 84.4404 151.51 85.8101C151.51 87.1797 152.62 88.2901 153.99 88.2901Z" fill="#383E41"/>
<path d="M190 83.7801C191.369 83.7801 192.48 82.6697 192.48 81.3001C192.48 79.9304 191.369 78.8201 190 78.8201C188.63 78.8201 187.52 79.9304 187.52 81.3001C187.52 82.6697 188.63 83.7801 190 83.7801Z" fill="#383E41"/>
<path d="M276.999 73.66C276.419 72.87 268.539 74.66 266.199 74.32C264.199 73.61 263.149 71.42 261.409 71.32C260.9 71.2661 260.384 71.3211 259.898 71.4813C259.411 71.6415 258.963 71.9033 258.585 72.2493C258.207 72.5953 257.907 73.0176 257.704 73.4884C257.501 73.9591 257.401 74.4676 257.409 74.98C257.411 75.242 257.437 75.5033 257.489 75.76C256.009 79.82 249.209 83.26 244.879 82.59C238.469 81.59 237.139 76.51 235.959 72.29C235.389 70.29 238.559 70.82 239.039 67.92C239.439 65.54 238.039 63.6 234.969 62.75C235.713 62.5742 236.379 62.1628 236.87 61.577C237.36 60.9913 237.647 60.2627 237.689 59.5C237.689 57.59 237.329 55.08 234.609 54.57C232.139 54.11 229.609 57.57 229.609 59.5C229.627 60.0764 229.794 60.6383 230.093 61.1309C230.393 61.6235 230.816 62.0298 231.319 62.31C226.639 62.4 223.119 63.84 223.479 66.86C223.609 67.96 224.389 68.86 224.069 69.63C223.749 70.4 216.019 77.29 210.929 77.29C205.399 77.29 197.589 70.29 196.979 67.74C196.859 67.74 200.419 65.74 200.679 63.67C201.159 59.85 197.759 56.85 193.679 55.67C194.125 54.9745 194.361 54.1658 194.359 53.34C194.359 51.01 192.429 46.27 190.199 46.27H189.989H189.779C187.539 46.27 185.619 51.01 185.619 53.34C185.618 54.1659 185.854 54.9748 186.299 55.67C182.239 56.81 178.849 59.81 179.299 63.67C179.559 65.75 183.129 67.74 182.999 67.74C182.389 70.33 174.579 77.29 169.049 77.29C163.959 77.29 156.229 70.43 155.909 69.63C155.589 68.83 156.369 67.95 156.499 66.86C156.869 63.86 153.339 62.4 148.659 62.31C149.164 62.0305 149.587 61.6244 149.887 61.1317C150.187 60.6389 150.353 60.0766 150.369 59.5C150.369 57.59 147.809 54.1 145.369 54.57C142.649 55.08 142.289 57.57 142.289 59.5C142.322 60.2683 142.605 61.005 143.094 61.5986C143.583 62.1922 144.252 62.6104 144.999 62.79C141.889 63.64 140.539 65.58 140.929 67.96C141.409 70.86 144.579 70.29 144.009 72.33C142.829 76.55 141.499 81.64 135.089 82.63C130.759 83.3 123.969 79.86 122.479 75.8C122.532 75.5433 122.558 75.282 122.559 75.02C122.568 74.5075 122.468 73.9991 122.265 73.5284C122.062 73.0576 121.762 72.6352 121.384 72.2892C121.006 71.9433 120.558 71.6815 120.071 71.5213C119.584 71.3611 119.069 71.3061 118.559 71.36C116.819 71.42 115.719 73.62 113.769 74.36C111.429 74.72 103.549 72.91 102.969 73.7C102.64 74.086 102.453 74.573 102.439 75.08C102.439 75.72 130.949 99.3 133.129 102.21C135.309 105.12 137.879 122.55 139.049 126.21C139.112 126.649 139.291 127.064 139.569 127.41C142.809 131.49 168.079 134.24 189.639 134.24H190.279C211.849 134.24 237.109 131.5 240.349 127.41C240.629 127.065 240.809 126.65 240.869 126.21C242.049 122.59 244.679 105.07 246.789 102.21C248.899 99.35 277.519 75.68 277.519 75C277.5 74.508 277.317 74.0367 276.999 73.66ZM190.319 131H189.679C165.019 131 146.509 127.84 142.619 125.78C145.039 123.46 164.349 118.58 189.679 118.58H190.319C215.649 118.58 234.949 123.46 237.379 125.78C233.489 127.84 214.999 131 190.319 131ZM243.069 104.53C242.389 106.81 241.319 119.69 240.069 122.63C237.069 120.18 215.359 114.73 190.069 114.73H189.929C164.639 114.73 142.929 120.18 139.929 122.63C138.689 119.69 137.709 106.78 136.929 104.53C136.833 104.194 136.811 103.841 136.864 103.496C136.918 103.151 137.046 102.821 137.239 102.53C140.739 97.77 162.839 92.13 189.639 92.13H190.369C217.169 92.13 239.259 97.77 242.769 102.53C243.1 103.145 243.206 103.856 243.069 104.54V104.53ZM246.159 98.35C241.156 96.3776 236.029 94.7374 230.809 93.44C219.749 90.55 204.069 89.29 190.009 89.26C176.304 89.2905 162.636 90.6908 149.209 93.44C143.942 94.563 138.8 96.2078 133.859 98.35L122.769 86.65C122.769 86.65 134.829 88.32 140.859 85.82C146.889 83.32 149.759 72.29 149.759 72.29C149.759 72.29 163.159 82.6 171.049 82.13C178.939 81.66 189.999 66.6 189.999 66.6C189.999 66.6 201.059 81.65 208.949 82.13C216.839 82.61 230.239 72.29 230.239 72.29C230.239 72.29 233.119 83.29 239.139 85.82C245.159 88.35 257.229 86.65 257.229 86.65L246.159 98.35Z" fill="#383E41"/>
<path d="M190 111.06C193.716 111.06 196.73 107.586 196.73 103.3C196.73 99.0143 193.716 95.54 190 95.54C186.283 95.54 183.27 99.0143 183.27 103.3C183.27 107.586 186.283 111.06 190 111.06Z" fill="#383E41"/>
<path d="M227.391 109.341C228.419 105.689 226.762 102.027 223.689 101.162C220.616 100.298 217.292 102.557 216.264 106.209C215.236 109.862 216.893 113.524 219.966 114.389C223.039 115.253 226.363 112.994 227.391 109.341Z" fill="#383E41"/>
<path d="M160.044 114.375C163.117 113.511 164.775 109.849 163.747 106.196C162.719 102.544 159.394 100.284 156.322 101.149C153.249 102.014 151.591 105.676 152.619 109.328C153.647 112.981 156.971 115.24 160.044 114.375Z" fill="#383E41"/>
<path d="M251.549 189.49H249.879C248.973 189.519 248.072 189.64 247.189 189.85C245.856 190.155 244.549 190.563 243.279 191.07C242.594 191.325 241.897 191.546 241.189 191.73C240.429 191.93 239.659 192.1 238.879 192.24C238.099 192.38 237.319 192.49 236.539 192.57C235.815 192.647 235.087 192.687 234.359 192.69C231.485 192.723 228.63 192.221 225.939 191.21C223.474 190.278 221.234 188.833 219.369 186.97C217.486 185.046 216.03 182.746 215.099 180.22C214.047 177.338 213.531 174.288 213.579 171.22C213.579 169.299 213.774 167.382 214.159 165.5C214.538 163.629 215.128 161.807 215.919 160.07C216.701 158.354 217.688 156.738 218.859 155.26C220.039 153.771 221.435 152.467 222.999 151.39C224.641 150.266 226.445 149.399 228.349 148.82C230.463 148.182 232.661 147.869 234.869 147.89C235.987 147.892 237.103 147.973 238.209 148.13C239.335 148.288 240.45 148.511 241.549 148.8C242.628 149.083 243.687 149.437 244.719 149.86C245.69 150.254 246.63 150.722 247.529 151.26L247.259 148.33H250.629V162.33H248.419C248.318 160.558 247.884 158.821 247.139 157.21C246.467 155.773 245.507 154.49 244.319 153.44C243.129 152.406 241.751 151.611 240.259 151.1C238.651 150.548 236.96 150.275 235.259 150.29C233.133 150.28 231.035 150.777 229.139 151.74C227.21 152.707 225.507 154.07 224.139 155.74C222.663 157.578 221.525 159.664 220.779 161.9C219.93 164.425 219.51 167.076 219.539 169.74C219.51 172.453 219.912 175.153 220.729 177.74C221.446 180.034 222.586 182.174 224.089 184.05C225.498 185.786 227.265 187.198 229.269 188.19C231.333 189.197 233.603 189.707 235.899 189.68C236.759 189.677 237.617 189.617 238.469 189.5C239.38 189.377 240.281 189.196 241.169 188.96C242.089 188.717 242.988 188.402 243.859 188.02C244.739 187.634 245.583 187.168 246.379 186.63V173.3L242.079 173.54V170.85H255.909V172.85C255.246 172.827 254.589 172.975 253.999 173.28C253.504 173.551 253.077 173.931 252.749 174.39C252.428 174.844 252.181 175.347 252.019 175.88C251.853 176.412 251.733 176.957 251.659 177.51C251.592 178.011 251.552 178.515 251.539 179.02C251.539 179.487 251.539 179.86 251.539 180.14L251.549 189.49Z" fill="#383E41"/>
<path d="M276.36 163.48C275.553 163.465 274.75 163.611 274 163.91C273.158 164.247 272.37 164.705 271.66 165.27C270.86 165.902 270.136 166.623 269.5 167.42C268.805 168.286 268.195 169.217 267.68 170.2L267.74 185.2C267.74 186.013 267.74 186.733 267.74 187.36C267.716 188.031 267.646 188.699 267.53 189.36L271.38 189.18V191.69H258.8V189.87C259.554 189.922 260.305 189.73 260.94 189.32C261.444 188.928 261.814 188.39 262 187.78C262.235 187.015 262.36 186.22 262.37 185.42C262.37 184.507 262.37 183.507 262.37 182.42V168.42C262.37 167.753 262.37 167.11 262.37 166.49C262.394 165.819 262.464 165.151 262.58 164.49L258.25 164.67V162.16H260.13C260.859 162.171 261.588 162.127 262.31 162.03C262.806 161.963 263.293 161.839 263.76 161.66C264.113 161.528 264.449 161.354 264.76 161.14C265.021 160.951 265.272 160.747 265.51 160.53H267.27C267.33 161.197 267.383 161.987 267.43 162.9C267.477 163.813 267.52 165.033 267.56 166.56C268.067 165.741 268.657 164.977 269.32 164.28C270.047 163.505 270.859 162.814 271.74 162.22C272.644 161.61 273.618 161.11 274.64 160.73C275.659 160.345 276.74 160.149 277.83 160.15C278.381 160.148 278.929 160.222 279.46 160.37C279.96 160.506 280.427 160.744 280.83 161.07C281.224 161.396 281.544 161.801 281.77 162.26C282.023 162.801 282.146 163.393 282.13 163.99C282.125 164.306 282.071 164.62 281.97 164.92C281.859 165.286 281.675 165.626 281.43 165.92C281.169 166.229 280.85 166.484 280.49 166.67C280.054 166.881 279.574 166.984 279.09 166.97C278.658 166.976 278.231 166.873 277.85 166.67C277.492 166.482 277.176 166.223 276.92 165.91C276.666 165.595 276.482 165.231 276.38 164.84C276.279 164.393 276.272 163.93 276.36 163.48V163.48Z" fill="#383E41"/>
<path d="M296.59 160.13C298.648 160.118 300.689 160.52 302.59 161.31C304.414 162.067 306.072 163.175 307.47 164.57C308.876 165.984 309.993 167.659 310.76 169.5C311.577 171.453 311.989 173.553 311.97 175.67C311.987 177.943 311.587 180.201 310.79 182.33C310.054 184.32 308.951 186.155 307.54 187.74C306.166 189.266 304.5 190.5 302.64 191.37C300.738 192.261 298.66 192.715 296.56 192.7C294.504 192.714 292.465 192.324 290.56 191.55C288.728 190.811 287.064 189.711 285.665 188.316C284.267 186.921 283.163 185.26 282.42 183.43C281.604 181.445 281.196 179.316 281.22 177.17C281.2 174.873 281.6 172.593 282.4 170.44C283.13 168.449 284.23 166.614 285.64 165.03C287.002 163.517 288.659 162.299 290.51 161.45C292.415 160.568 294.491 160.117 296.59 160.13V160.13ZM296.59 162.46C295.135 162.418 293.699 162.792 292.45 163.54C291.299 164.264 290.334 165.247 289.63 166.41C288.86 167.686 288.309 169.082 288 170.54C287.648 172.129 287.474 173.752 287.48 175.38C287.475 177.239 287.67 179.093 288.06 180.91C288.403 182.582 289.003 184.191 289.84 185.68C290.579 187 291.604 188.138 292.84 189.01C294.074 189.8 295.502 190.233 296.967 190.261C298.432 190.289 299.876 189.912 301.14 189.17C302.253 188.434 303.175 187.443 303.83 186.28C304.546 185.004 305.046 183.619 305.31 182.18C305.611 180.625 305.762 179.044 305.76 177.46C305.76 175.635 305.589 173.813 305.25 172.02C304.952 170.346 304.409 168.726 303.64 167.21C302.961 165.863 301.987 164.687 300.79 163.77C299.574 162.879 298.096 162.418 296.59 162.46V162.46Z" fill="#383E41"/>
<path d="M337.61 169.16C337.61 168.16 337.63 167.307 337.67 166.6C337.709 165.893 337.789 165.188 337.91 164.49L333.52 164.67V162.16H335.4C336.148 162.169 336.897 162.126 337.64 162.03C338.177 161.96 338.707 161.836 339.22 161.66C339.602 161.529 339.967 161.354 340.31 161.14C340.589 160.959 340.854 160.755 341.1 160.53H342.86L342.8 183.64C342.8 183.96 342.8 184.36 342.8 184.85C342.8 185.34 342.8 185.85 342.8 186.37C342.8 186.89 342.8 187.43 342.73 187.95C342.66 188.47 342.66 188.95 342.63 189.37L347.02 189.13V191.7H338.27C338.17 191.033 338.086 190.39 338.02 189.77C337.953 189.15 337.9 188.567 337.86 188.02C337.201 188.677 336.492 189.282 335.74 189.83C334.966 190.397 334.143 190.892 333.28 191.31C332.422 191.725 331.528 192.059 330.61 192.31C329.723 192.554 328.809 192.678 327.89 192.68C326.399 192.709 324.914 192.483 323.5 192.01C322.265 191.575 321.177 190.802 320.36 189.78C319.439 188.564 318.797 187.161 318.48 185.67C318.02 183.586 317.809 181.454 317.85 179.32V168.47C317.85 167.803 317.85 167.157 317.85 166.53C317.873 165.859 317.944 165.191 318.06 164.53L313.85 164.71V162.2H315.76C316.498 162.209 317.237 162.165 317.97 162.07C318.507 162 319.037 161.876 319.55 161.7C319.932 161.569 320.297 161.394 320.64 161.18C320.919 160.999 321.183 160.795 321.43 160.57H323.19V179.22C323.172 180.768 323.292 182.314 323.55 183.84C323.731 184.988 324.121 186.093 324.7 187.1C325.169 187.916 325.863 188.579 326.7 189.01C328.398 189.741 330.307 189.819 332.06 189.23C332.811 188.984 333.529 188.648 334.2 188.23C334.878 187.793 335.514 187.294 336.1 186.74C336.67 186.204 337.177 185.603 337.61 184.95V169.25V169.16Z" fill="#383E41"/>
<path d="M351.181 168.47C351.181 167.803 351.181 167.157 351.181 166.53C351.204 165.859 351.274 165.191 351.391 164.53L347.061 164.77V162.2C348.149 162.213 349.237 162.169 350.321 162.07C350.997 162.01 351.667 161.886 352.321 161.7C352.736 161.583 353.134 161.408 353.501 161.18C353.769 161.001 354.021 160.797 354.251 160.57H356.041C356.081 160.97 356.121 161.437 356.161 161.97C356.201 162.503 356.241 163.13 356.281 163.85C356.905 163.3 357.574 162.801 358.281 162.36C359.03 161.902 359.82 161.514 360.641 161.2C361.459 160.882 362.302 160.632 363.161 160.45C364.006 160.271 364.867 160.181 365.731 160.18C367.484 160.171 369.221 160.522 370.834 161.21C372.447 161.898 373.903 162.909 375.111 164.18C376.412 165.563 377.431 167.187 378.111 168.96C378.876 170.995 379.252 173.156 379.221 175.33C379.231 176.981 379.037 178.627 378.641 180.23C378.277 181.703 377.729 183.124 377.011 184.46C376.336 185.715 375.499 186.875 374.521 187.91C373.578 188.905 372.509 189.773 371.341 190.49C370.189 191.196 368.948 191.744 367.651 192.12C366.351 192.498 365.004 192.69 363.651 192.69C361.067 192.759 358.52 192.063 356.331 190.69V200.81C356.331 201.63 356.331 202.353 356.331 202.98C356.307 203.651 356.237 204.319 356.121 204.98L359.971 204.8V207.31H347.441V205.49C348.194 205.542 348.945 205.349 349.581 204.94C350.067 204.544 350.416 204.005 350.581 203.4C350.831 202.623 350.973 201.816 351.001 201C351.001 200.087 351.024 199.087 351.071 198L351.181 168.47ZM363.631 163.12C362.924 163.117 362.221 163.212 361.541 163.4C359.569 163.956 357.79 165.046 356.401 166.55C356.401 166.71 356.401 166.89 356.401 167.1C356.401 167.31 356.401 167.66 356.401 168.16V170.27C356.401 171.177 356.401 172.393 356.401 173.92C356.401 175.447 356.401 177.343 356.401 179.61C356.401 181.883 356.401 184.633 356.401 187.86C357.416 188.617 358.543 189.21 359.741 189.62C360.97 190.042 362.261 190.255 363.561 190.25C364.931 190.285 366.285 189.939 367.471 189.25C368.679 188.521 369.705 187.526 370.471 186.34C371.335 184.98 371.97 183.487 372.351 181.92C373.178 178.491 373.222 174.919 372.481 171.47C372.167 169.987 371.613 168.565 370.841 167.26C370.128 166.049 369.142 165.022 367.961 164.26C366.66 163.465 365.154 163.068 363.631 163.12V163.12Z" fill="#383E41"/>
</svg>
