<svg width="380" height="248" viewBox="0 0 380 248" fill="none" xmlns="http://www.w3.org/2000/svg">
<path d="M75.9004 168C73.5004 168 71.6004 168.8 70.2004 170.4C68.8004 172 68.1004 174.2 68.1004 177C68.1004 179.9 68.8004 182.1 70.1004 183.7C71.4004 185.3 73.4004 186 75.9004 186C77.4004 186 79.2004 185.7 81.1004 185.2V187.4C79.6004 188 77.7004 188.3 75.5004 188.3C72.3004 188.3 69.8004 187.3 68.0004 185.4C66.2004 183.4 65.4004 180.7 65.4004 177C65.4004 174.7 65.8004 172.8 66.7004 171.1C67.5004 169.4 68.8004 168.1 70.4004 167.2C72.0004 166.3 73.9004 165.8 76.0004 165.8C78.3004 165.8 80.3004 166.2 82.0004 167.1L80.9004 169.3C79.2004 168.4 77.6004 168 75.9004 168Z" fill="#383E41"/>
<path d="M104.899 176.9C104.899 180.4 103.999 183.2 102.199 185.2C100.399 187.2 97.9992 188.2 94.7992 188.2C91.5992 188.2 89.0992 187.2 87.2992 185.2C85.4992 183.2 84.6992 180.4 84.6992 176.8C84.6992 173.2 85.5992 170.5 87.2992 168.5C89.0992 166.5 91.5992 165.6 94.7992 165.6C97.8992 165.6 100.399 166.6 102.199 168.6C103.999 170.7 104.899 173.4 104.899 176.9ZM87.3992 176.9C87.3992 179.9 87.9992 182.1 89.2992 183.7C90.5992 185.2 92.3992 186 94.7992 186C97.1992 186 99.0992 185.2 100.299 183.7C101.499 182.2 102.199 179.9 102.199 176.9C102.199 173.9 101.599 171.7 100.299 170.2C99.0992 168.7 97.1992 167.9 94.7992 167.9C92.3992 167.9 90.4992 168.7 89.2992 170.2C88.0992 171.8 87.3992 174 87.3992 176.9Z" fill="#383E41"/>
<path d="M126.899 187.9H123.999L111.999 169.5H111.899C112.099 171.7 112.099 173.6 112.099 175.4V187.9H109.699V166H112.599L124.599 184.3H124.699C124.699 184 124.599 183.2 124.599 181.7C124.499 180.2 124.499 179.2 124.499 178.6V166H126.899V187.9V187.9Z" fill="#383E41"/>
<path d="M142.4 168C140 168 138.1 168.8 136.7 170.4C135.3 172 134.6 174.2 134.6 177C134.6 179.9 135.3 182.1 136.6 183.7C137.9 185.3 139.9 186 142.4 186C143.9 186 145.7 185.7 147.6 185.2V187.4C146.1 188 144.2 188.3 142 188.3C138.8 188.3 136.3 187.3 134.5 185.4C132.7 183.4 131.9 180.7 131.9 177C131.9 174.7 132.3 172.8 133.2 171.1C134 169.4 135.3 168.1 136.9 167.2C138.5 166.3 140.4 165.8 142.5 165.8C144.8 165.8 146.8 166.2 148.5 167.1L147.4 169.3C145.7 168.4 144 168 142.4 168Z" fill="#383E41"/>
<path d="M164.601 187.9H152.301V166H164.601V168.3H154.901V175.3H164.001V177.6H154.901V185.7H164.601V187.9Z" fill="#383E41"/>
<path d="M183.3 172.4C183.3 174.6 182.5 176.3 181 177.5C179.5 178.7 177.3 179.3 174.5 179.3H172V187.9H169.5V166H175.2C180.6 166 183.3 168.1 183.3 172.4ZM172 177.1H174.3C176.6 177.1 178.2 176.7 179.2 176C180.2 175.3 180.7 174.1 180.7 172.5C180.7 171.1 180.2 170 179.3 169.3C178.4 168.6 176.9 168.2 174.9 168.2H172V177.1Z" fill="#383E41"/>
<path d="M194.699 187.9H192.099V168.3H185.199V166H201.599V168.3H194.699V187.9Z" fill="#383E41"/>
<path d="M229.6 187.9H227V177.6H215.5V187.9H212.9V166H215.5V175.3H227V166H229.6V187.9Z" fill="#383E41"/>
<path d="M254.6 176.9C254.6 180.4 253.7 183.2 251.9 185.2C250.1 187.2 247.7 188.2 244.5 188.2C241.3 188.2 238.8 187.2 237 185.2C235.2 183.2 234.4 180.4 234.4 176.8C234.4 173.2 235.3 170.5 237 168.5C238.8 166.5 241.3 165.6 244.5 165.6C247.6 165.6 250.1 166.6 251.9 168.6C253.7 170.7 254.6 173.4 254.6 176.9ZM237.1 176.9C237.1 179.9 237.7 182.1 239 183.7C240.3 185.2 242.1 186 244.5 186C246.9 186 248.8 185.2 250 183.7C251.2 182.2 251.9 179.9 251.9 176.9C251.9 173.9 251.3 171.7 250 170.2C248.8 168.7 246.9 167.9 244.5 167.9C242.1 167.9 240.2 168.7 239 170.2C237.8 171.8 237.1 174 237.1 176.9Z" fill="#383E41"/>
<path d="M275.999 166V180.2C275.999 182.7 275.199 184.7 273.699 186.1C272.199 187.5 270.099 188.2 267.499 188.2C264.899 188.2 262.799 187.5 261.399 186C259.999 184.6 259.199 182.6 259.199 180.1V166H261.699V180.3C261.699 182.1 262.199 183.5 263.199 184.5C264.199 185.5 265.699 186 267.599 186C269.499 186 270.899 185.5 271.899 184.5C272.899 183.5 273.399 182.1 273.399 180.3V166H275.999Z" fill="#383E41"/>
<path d="M294.2 182.1C294.2 184 293.5 185.5 292.1 186.6C290.7 187.7 288.8 188.2 286.4 188.2C283.8 188.2 281.8 187.9 280.4 187.2V184.7C281.3 185.1 282.3 185.4 283.3 185.6C284.4 185.8 285.4 185.9 286.4 185.9C288.1 185.9 289.4 185.6 290.2 184.9C291.1 184.3 291.5 183.4 291.5 182.2C291.5 181.4 291.3 180.8 291 180.3C290.7 179.8 290.2 179.4 289.5 179C288.8 178.6 287.7 178.1 286.2 177.6C284.2 176.9 282.7 176 281.8 175C280.9 174 280.5 172.7 280.5 171.1C280.5 169.4 281.1 168.1 282.4 167.1C283.7 166.1 285.4 165.6 287.4 165.6C289.6 165.6 291.6 166 293.4 166.8L292.6 169C290.8 168.2 289 167.9 287.3 167.9C285.9 167.9 284.9 168.2 284.1 168.8C283.3 169.4 283 170.2 283 171.2C283 172 283.1 172.6 283.4 173.1C283.7 173.6 284.2 174 284.8 174.4C285.5 174.8 286.5 175.3 287.9 175.7C290.2 176.5 291.8 177.4 292.6 178.3C293.8 179.4 294.2 180.6 294.2 182.1Z" fill="#383E41"/>
<path d="M310.899 187.9H298.699V166H310.899V168.3H301.299V175.3H310.399V177.6H301.299V185.7H310.899V187.9Z" fill="#383E41"/>
<path d="M95.3008 131.6V71.2H104.501V124.4" fill="#383E41"/>
<path d="M226.699 131.6V71.2H235.899V124.4" fill="#383E41"/>
<path d="M5.90039 71.2H15.0004C16.2004 71.2 17.4004 71.3 18.8004 71.4C20.2004 71.5 21.6004 71.8 22.9004 72.1C24.3004 72.5 25.6004 73.1 26.9004 73.9C28.2004 74.7 29.3004 75.8 30.3004 77.2C31.3004 78.6 32.1004 80.3 32.7004 82.4C33.3004 84.5 33.6004 87 33.6004 90V92.1C33.6004 95.3 33.3004 98.1 32.8004 100.4C32.2004 102.7 31.5004 104.6 30.6004 106.2C29.7004 107.8 28.6004 109 27.4004 110C26.2004 110.9 24.9004 111.7 23.6004 112.1C22.3004 112.6 21.0004 112.9 19.6004 113.1C18.3004 113.3 17.0004 113.3 15.8004 113.3H15.0004V131.7H5.90039V71.2ZM15.5004 106.5C17.2004 106.5 18.5004 106.3 19.7004 105.8C20.8004 105.3 21.7004 104.6 22.4004 103.5C23.1004 102.5 23.6004 101.2 23.9004 99.5C24.2004 97.9 24.3004 95.9 24.3004 93.7V88.3C24.3004 86.5 24.2004 85 23.9004 83.6C23.6004 82.3 23.2004 81.2 22.5004 80.4C21.8004 79.6 20.9004 78.9 19.8004 78.5C18.7004 78.1 17.2004 77.9 15.5004 77.9H15.0004V106.5H15.5004Z" fill="#383E41"/>
<path d="M39.1992 71.2H48.2992V96.5H59.1992V71.2H68.2992V131.6H59.1992V103.7H48.2992V131.6H39.1992V71.2Z" fill="#383E41"/>
<path d="M86.5008 71.2H77.3008V131.6H86.5008V71.2Z" fill="#383E41"/>
<path d="M133.8 71.2H144.3L155.5 131.6H146.2L144.5 120.8H133.5L131.9 131.6H122.6L133.8 71.2ZM143.5 113.9L139.3 83.8H138.9L134.6 113.9H143.5Z" fill="#383E41"/>
<path d="M161.301 71.2H170.801C172.201 71.2 173.701 71.2 175.301 71.3C176.801 71.4 178.401 71.6 179.801 72.1C181.301 72.5 182.701 73.2 184.001 74.1C185.301 75 186.501 76.2 187.401 77.8C188.401 79.4 189.201 81.4 189.801 83.8C190.401 86.2 190.701 89.2 190.701 92.7V110.2C190.701 113.7 190.401 116.6 189.801 119.1C189.201 121.5 188.401 123.5 187.401 125.1C186.401 126.7 185.301 127.9 184.001 128.8C182.701 129.7 181.301 130.3 179.801 130.8C178.301 131.2 176.801 131.5 175.301 131.6C173.801 131.7 172.301 131.7 170.801 131.7H161.301V71.2ZM172.801 125.2C174.401 125.2 175.801 125 176.901 124.6C178.001 124.2 178.801 123.4 179.401 122.4C180.001 121.3 180.501 119.9 180.701 118C180.901 116.1 181.101 113.8 181.101 111V92.2C181.101 89.4 181.001 87 180.701 85.2C180.501 83.3 180.001 81.9 179.401 80.8C178.801 79.7 177.901 79 176.901 78.6C175.801 78.2 174.501 78 172.801 78H170.501V125.3H172.801V125.2Z" fill="#383E41"/>
<path d="M197.4 71.2H219.8V78.5H206.5V96.5H216.8V103.7H206.5V124.4H220.1V131.6H197.4V71.2Z" fill="#383E41"/>
<path d="M254.2 71.2H263.4C264.6 71.2 265.8 71.3 267.2 71.4C268.6 71.5 270 71.8 271.3 72.1C272.7 72.5 274 73.1 275.3 73.9C276.6 74.7 277.7 75.8 278.7 77.2C279.7 78.6 280.5 80.3 281.1 82.4C281.7 84.5 282 87 282 90V92.1C282 95.3 281.7 98.1 281.2 100.4C280.6 102.7 279.9 104.6 279 106.2C278.1 107.8 277 109 275.8 110C274.6 110.9 273.3 111.7 272 112.1C270.7 112.6 269.4 112.9 268 113.1C266.7 113.3 265.4 113.3 264.2 113.3H263.3V131.7H254.1V71.2H254.2ZM263.8 106.5C265.5 106.5 266.8 106.3 268 105.8C269.1 105.3 270 104.6 270.7 103.5C271.4 102.5 271.9 101.2 272.1 99.5C272.4 97.9 272.5 95.9 272.5 93.7V88.3C272.5 86.5 272.4 85 272.1 83.6C271.8 82.3 271.4 81.2 270.7 80.4C270 79.6 269.1 78.9 268 78.5C266.9 78.1 265.4 77.9 263.7 77.9H263.2V106.5H263.8Z" fill="#383E41"/>
<path d="M287.5 71.2H296.6V96.5H307.5V71.2H316.6V131.6H307.5V103.7H296.6V131.6H287.5V71.2Z" fill="#383E41"/>
<path d="M334.8 71.2H325.6V131.6H334.8V71.2Z" fill="#383E41"/>
<path d="M353.2 71.2H363.7L374.9 131.6H365.6L363.9 120.8H352.9L351.3 131.6H342L353.2 71.2ZM362.9 113.9L358.7 83.8H358.3L354 113.9H362.9Z" fill="#383E41"/>
<path d="M235.899 124.4H248.399V131.6H226.699" fill="#383E41"/>
<path d="M104.501 124.4H117.001V131.6H95.3008" fill="#383E41"/>
</svg>
