<svg width="477" height="340" viewBox="0 0 477 340" fill="none" xmlns="http://www.w3.org/2000/svg">
<g clip-path="url(#clip0)">
<path d="M311.999 21.8099L291.999 1.8799C290.796 0.678748 289.165 0.00415039 287.464 0.00415039C285.764 0.00415039 284.133 0.678748 282.929 1.8799L199.929 84.8799C199.373 85.4905 199.073 86.2923 199.093 87.1183C199.112 87.9444 199.45 88.7311 200.034 89.3147C200.619 89.8983 201.407 90.2339 202.233 90.2516C203.059 90.2694 203.86 89.9679 204.469 89.4099L285.17 8.7099C285.467 8.41208 285.82 8.1758 286.208 8.01458C286.597 7.85337 287.014 7.77039 287.434 7.77039C287.855 7.77039 288.272 7.85337 288.661 8.01458C289.049 8.1758 289.402 8.41208 289.7 8.7099L295.13 14.1299L302.809 21.8199L307.35 26.3599L423.67 142.62C424.271 143.219 425.086 143.555 425.934 143.555C426.783 143.555 427.598 143.219 428.2 142.62V142.62C428.499 142.322 428.737 141.967 428.899 141.577C429.061 141.186 429.145 140.768 429.145 140.345C429.145 139.922 429.061 139.504 428.899 139.113C428.737 138.723 428.499 138.368 428.2 138.07L311.999 21.8099ZM454.499 173.45L467.579 186.53C467.878 186.826 468.116 187.179 468.278 187.568C468.44 187.957 468.523 188.374 468.523 188.795C468.523 189.216 468.44 189.633 468.278 190.022C468.116 190.411 467.878 190.763 467.579 191.06L329.579 329.06C328.976 329.66 328.16 329.996 327.309 329.996C326.459 329.996 325.643 329.66 325.04 329.06L323.13 327.14L311.999 316L244.38 248.38C244.082 248.081 243.729 247.843 243.339 247.682C242.949 247.52 242.531 247.438 242.109 247.44V247.44C241.474 247.437 240.853 247.623 240.324 247.975C239.795 248.326 239.383 248.827 239.139 249.413C238.896 250 238.833 250.646 238.957 251.268C239.082 251.891 239.389 252.462 239.839 252.91L302.859 316L307.399 320.54L324.999 338.15C325.611 338.742 326.428 339.076 327.279 339.08C328.122 339.073 328.928 338.74 329.529 338.15L474.399 193.32C474.996 192.724 475.469 192.016 475.791 191.237C476.114 190.458 476.28 189.623 476.28 188.78C476.28 187.937 476.114 187.102 475.791 186.323C475.469 185.544 474.996 184.836 474.399 184.24L458.999 168.88" fill="#383E41"/>
<path d="M312 21.8099L325.08 8.7099C325.378 8.41177 325.732 8.17528 326.122 8.01393C326.511 7.85257 326.929 7.76953 327.35 7.76953C327.772 7.76953 328.189 7.85257 328.579 8.01393C328.968 8.17528 329.322 8.41177 329.62 8.7099L467.62 146.71C467.918 147.007 468.154 147.36 468.316 147.749C468.477 148.137 468.56 148.554 468.56 148.975C468.56 149.396 468.477 149.812 468.316 150.201C468.154 150.59 467.918 150.943 467.62 151.24L460.87 158L454.5 164.37L449.94 168.91L435.52 183.32L333.67 285.17C333.071 285.773 332.734 286.589 332.734 287.44C332.734 288.291 333.071 289.107 333.67 289.71V289.71C334.274 290.31 335.09 290.646 335.94 290.646C336.791 290.646 337.607 290.31 338.21 289.71L454.5 173.45L459.04 168.88L474.4 153.51C474.997 152.915 475.471 152.209 475.795 151.43C476.118 150.652 476.284 149.818 476.284 148.975C476.284 148.132 476.118 147.298 475.795 146.52C475.471 145.741 474.997 145.035 474.4 144.44L331.84 1.8799C331.246 1.28275 330.539 0.808919 329.761 0.485602C328.982 0.162285 328.148 -0.00415039 327.305 -0.00415039C326.463 -0.00415039 325.628 0.162285 324.85 0.485602C324.072 0.808919 323.365 1.28275 322.77 1.8799L307.41 17.2399L312 21.8099ZM302.87 316L289.76 329.08C289.157 329.68 288.341 330.016 287.49 330.016C286.64 330.016 285.824 329.68 285.22 329.08L204.52 248.38C203.911 247.822 203.11 247.52 202.284 247.538C201.458 247.556 200.67 247.891 200.085 248.475C199.5 249.059 199.163 249.845 199.143 250.671C199.124 251.498 199.424 252.299 199.98 252.91L285.23 338.17C285.836 338.765 286.651 339.098 287.5 339.098C288.349 339.098 289.164 338.765 289.77 338.17L307.41 320.53L302.87 316ZM276.52 48.1199L239.78 84.8699C239.33 85.3175 239.023 85.889 238.898 86.5116C238.773 87.1343 238.837 87.78 239.08 88.3665C239.324 88.953 239.736 89.4538 240.265 89.8053C240.794 90.1567 241.415 90.3428 242.05 90.3399V90.3399C242.901 90.3389 243.718 90.0009 244.32 89.3999L281.05 52.6699C281.649 52.07 281.985 51.2573 281.985 50.4099C281.985 49.5626 281.649 48.7498 281.05 48.1499V48.1499C280.447 47.5472 279.628 47.2087 278.775 47.2087C277.922 47.2087 277.104 47.5472 276.5 48.1499" fill="#383E41"/>
<path d="M25.9006 114.56C25.9006 118.833 24.5206 122.166 21.7606 124.56C19.0006 126.953 15.194 128.16 10.3406 128.18H4.69063V151.56H0.640625V100.81H10.2806C20.694 100.81 25.9006 105.393 25.9006 114.56ZM22.1206 114.49C22.1206 107.823 18.054 104.49 9.92062 104.49H4.69063V124.49H10.2106C13.3193 124.638 16.3779 123.666 18.8306 121.75C19.9038 120.87 20.7592 119.755 21.3299 118.49C21.9006 117.226 22.1712 115.846 22.1206 114.46" fill="#383E41"/>
<path d="M59.1693 137.25H32.5593C32.523 138.781 32.7977 140.303 33.3666 141.724C33.9355 143.146 34.7869 144.437 35.8693 145.52C36.9275 146.62 38.203 147.487 39.6147 148.068C41.0264 148.648 42.5434 148.928 44.0693 148.89C46.511 149.019 48.9391 148.451 51.0693 147.25C52.7006 146.056 54.0633 144.533 55.0693 142.78L58.0693 144.52C54.6493 149.74 49.9559 152.35 43.9893 152.35C41.9657 152.422 39.9498 152.065 38.0744 151.301C36.1991 150.538 34.5069 149.385 33.1093 147.92C30.2965 144.85 28.8181 140.789 28.9993 136.63C28.9332 134.538 29.2957 132.455 30.0644 130.508C30.8331 128.561 31.9918 126.792 33.4693 125.31C34.845 123.892 36.4978 122.772 38.3248 122.021C40.1518 121.269 42.114 120.901 44.0893 120.94C46.1464 120.865 48.1952 121.238 50.0943 122.032C51.9934 122.827 53.6976 124.023 55.0893 125.54C57.8352 128.568 59.298 132.544 59.1693 136.63V137.25ZM55.3893 134.25C54.9938 131.439 53.5986 128.865 51.4593 127C49.3761 125.258 46.744 124.308 44.0283 124.319C41.3126 124.33 38.6882 125.301 36.6193 127.06C34.4899 128.886 33.1144 131.438 32.7593 134.22L55.3893 134.25Z" fill="#383E41"/>
<path d="M83.81 121.7L82.81 125.51C81.8078 124.842 80.6342 124.478 79.43 124.46C78.572 124.477 77.7288 124.687 76.9622 125.073C76.1956 125.459 75.5252 126.011 75 126.69C73.5412 128.488 72.7907 130.757 72.89 133.07V151.59H69.25V121.7H72.9V126.07C74.4467 122.65 76.78 120.94 79.9 120.94C81.2377 120.963 82.5611 121.22 83.81 121.7Z" fill="#383E41"/>
<path d="M103.43 125.12H96.0605V151.59H92.3105V125.12H88.7305V121.69H92.3105V108.28C92.3105 104.4 93.0205 101.63 94.4505 99.9898C95.7371 98.5231 97.7638 97.7898 100.53 97.7898C101.515 97.794 102.493 97.9491 103.43 98.2498V102C102.554 101.551 101.585 101.315 100.6 101.31C97.5671 101.31 96.0538 103.623 96.0605 108.25V121.73H103.43V125.12Z" fill="#383E41"/>
<path d="M138.3 137.25H111.7C111.664 138.78 111.938 140.301 112.505 141.722C113.072 143.143 113.921 144.435 115 145.52C116.059 146.621 117.337 147.489 118.75 148.07C120.164 148.65 121.683 148.929 123.21 148.89C125.652 149.021 128.08 148.452 130.21 147.25C131.844 146.059 133.207 144.535 134.21 142.78L137.21 144.52C133.79 149.74 129.1 152.35 123.14 152.35C121.115 152.421 119.098 152.063 117.221 151.3C115.344 150.536 113.65 149.384 112.25 147.92C110.839 146.408 109.741 144.632 109.019 142.695C108.296 140.757 107.964 138.696 108.04 136.63C107.974 134.538 108.336 132.455 109.105 130.508C109.874 128.561 111.033 126.792 112.51 125.31C113.888 123.892 115.543 122.773 117.371 122.021C119.2 121.269 121.163 120.901 123.14 120.94C125.197 120.865 127.246 121.238 129.145 122.032C131.044 122.827 132.748 124.023 134.14 125.54C136.879 128.572 138.337 132.546 138.21 136.63L138.3 137.25ZM134.52 134.25C134.118 131.45 132.723 128.888 130.59 127.03C128.543 125.259 125.916 124.305 123.21 124.35C120.474 124.315 117.821 125.29 115.76 127.09C113.625 128.912 112.245 131.465 111.89 134.25H134.52Z" fill="#383E41"/>
<path d="M171.67 148.83C168.743 151.152 165.106 152.396 161.37 152.35C159.281 152.399 157.204 152.023 155.265 151.244C153.325 150.465 151.565 149.3 150.09 147.82C147.864 145.626 146.344 142.817 145.724 139.753C145.104 136.69 145.413 133.511 146.61 130.624C147.808 127.737 149.84 125.273 152.446 123.548C155.053 121.822 158.115 120.914 161.24 120.94C164.9 120.87 168.487 121.978 171.47 124.1V128.7C170.138 127.289 168.523 126.176 166.731 125.433C164.938 124.691 163.009 124.335 161.07 124.39C159.51 124.376 157.964 124.691 156.534 125.315C155.104 125.939 153.821 126.857 152.77 128.01C151.658 129.124 150.778 130.449 150.183 131.906C149.587 133.364 149.287 134.925 149.3 136.5C149.22 139.775 150.43 142.95 152.67 145.34C153.717 146.509 155.002 147.44 156.439 148.071C157.876 148.703 159.431 149.019 161 149C163.006 149.041 164.998 148.647 166.838 147.846C168.678 147.045 170.323 145.856 171.66 144.36L171.67 148.83Z" fill="#383E41"/>
<path d="M191.64 125.11H186.44V151.59H182.69V125.11H178.85V121.69H182.69V110.15H186.44V121.69H191.64V125.11Z" fill="#383E41"/>
<path d="M247.209 104.56H233.959V151.59H229.909V104.56H216.619V100.81H247.209V104.56Z" fill="#383E41"/>
<path d="M277.499 136.63C277.529 138.703 277.128 140.76 276.323 142.67C275.517 144.581 274.324 146.304 272.819 147.73C269.797 150.69 265.735 152.348 261.504 152.348C257.274 152.348 253.212 150.69 250.189 147.73C248.7 146.291 247.516 144.567 246.708 142.661C245.899 140.755 245.482 138.705 245.482 136.635C245.482 134.564 245.899 132.515 246.708 130.609C247.516 128.703 248.7 126.979 250.189 125.54C251.672 124.052 253.439 122.877 255.386 122.087C257.333 121.296 259.419 120.906 261.519 120.94C263.613 120.903 265.692 121.291 267.631 122.082C269.57 122.873 271.329 124.049 272.799 125.54C274.301 126.966 275.491 128.687 276.295 130.596C277.099 132.505 277.499 134.559 277.469 136.63H277.499ZM273.719 136.63C273.707 133.807 272.717 131.075 270.918 128.9C269.119 126.725 266.621 125.24 263.851 124.699C261.08 124.158 258.208 124.593 255.722 125.931C253.236 127.269 251.291 129.427 250.217 132.038C249.143 134.649 249.007 137.551 249.832 140.251C250.657 142.95 252.392 145.281 254.742 146.845C257.092 148.41 259.911 149.112 262.72 148.832C265.529 148.552 268.155 147.307 270.149 145.31C271.306 144.184 272.22 142.833 272.834 141.34C273.448 139.847 273.75 138.244 273.719 136.63" fill="#383E41"/>
<path d="M330.48 121.69L316.74 152.99L306.14 128.8L295.58 153L281.84 121.69H285.68L295.58 144.66L306.14 120.87L316.73 144.66L326.63 121.69H330.48Z" fill="#383E41"/>
<path d="M361.511 151.59H357.721V133.14C357.721 130.033 357.181 127.786 356.101 126.4C355.011 125.02 353.181 124.33 350.591 124.33C349.36 124.285 348.139 124.557 347.044 125.121C345.949 125.685 345.018 126.522 344.341 127.55C342.854 129.696 342.107 132.656 342.101 136.43V151.59H338.391V121.7H342.101V126.27C343.008 124.623 344.348 123.255 345.977 122.315C347.606 121.376 349.461 120.9 351.341 120.94C358.121 120.94 361.511 124.963 361.511 133.01V151.59Z" fill="#383E41"/>
<path d="M25.64 230.06H0V177.96H9.75V221.56H25.64V230.06Z" fill="#383E41"/>
<path d="M44.1501 177.96H34.3301V230.06H44.1501V177.96Z" fill="#383E41"/>
<path d="M99.2301 230.06H86.4401L66.3301 204.62V230.06H56.5801V177.96H66.3301V201.04L85.8701 177.96H98.1801L76.0101 202.56L99.2301 230.06Z" fill="#383E41"/>
<path d="M155.529 204C155.592 207.614 154.9 211.201 153.499 214.533C152.097 217.865 150.016 220.868 147.389 223.35C142.043 228.454 134.935 231.301 127.544 231.301C120.153 231.301 113.045 228.454 107.699 223.35C105.114 220.834 103.059 217.825 101.655 214.502C100.252 211.178 99.5293 207.607 99.5293 204C99.5293 200.392 100.252 196.821 101.655 193.498C103.059 190.174 105.114 187.166 107.699 184.65C113.045 179.546 120.153 176.698 127.544 176.698C134.935 176.698 142.043 179.546 147.389 184.65C150.016 187.132 152.097 190.135 153.499 193.467C154.9 196.799 155.592 200.386 155.529 204V204ZM145.529 204C145.477 199.908 144.011 195.96 141.38 192.825C138.749 189.691 135.115 187.563 131.094 186.803C127.072 186.043 122.912 186.697 119.318 188.655C115.725 190.613 112.919 193.754 111.377 197.544C109.835 201.335 109.652 205.543 110.859 209.453C112.066 213.364 114.588 216.736 117.998 218.999C121.408 221.261 125.496 222.274 129.568 221.866C133.64 221.458 137.446 219.654 140.339 216.76C142.034 215.101 143.372 213.114 144.271 210.92C145.171 208.726 145.612 206.371 145.569 204" fill="#383E41"/>
<path d="M216.81 204.62C216.81 212.92 214.417 219.487 209.63 224.32C204.964 228.987 198.834 231.32 191.24 231.32C183.407 231.32 176.95 228.777 171.87 223.69C166.79 218.603 164.214 212.04 164.14 204C164.054 200.387 164.714 196.795 166.078 193.449C167.443 190.102 169.483 187.073 172.07 184.55C176.358 180.455 181.822 177.807 187.693 176.979C193.563 176.15 199.546 177.182 204.8 179.93C208.641 181.943 211.844 184.987 214.05 188.72L205.68 193.57C202.214 187.95 197.49 185.14 191.51 185.14C189.187 185.109 186.884 185.582 184.76 186.526C182.637 187.47 180.743 188.864 179.21 190.61C175.846 194.245 174.034 199.049 174.16 204C173.993 209.063 175.812 213.991 179.23 217.73C180.749 219.442 182.621 220.805 184.716 221.725C186.812 222.645 189.082 223.101 191.37 223.06C195.003 223.13 198.535 221.859 201.29 219.49C202.645 218.429 203.739 217.071 204.488 215.521C205.237 213.972 205.621 212.271 205.61 210.55H192.89V202.62H216.81V204.62Z" fill="#383E41"/>
<path d="M263.999 230.06H251.919L238.349 209.68L236.289 209.48V230.06H226.539V178H241.189C246.989 178 251.502 179.333 254.729 182C257.956 184.667 259.569 188.487 259.569 193.46C259.643 196.812 258.586 200.092 256.569 202.77C254.394 205.629 251.184 207.522 247.629 208.04L263.999 230.06ZM249.759 193.85C249.759 188.517 246.026 185.85 238.559 185.85H236.299V202H238.869C246.129 202 249.759 199.277 249.759 193.83" fill="#383E41"/>
<path d="M318.131 230.06H307.901L303.381 218.32H281.001L276.521 230.06H266.301L287.001 178H297.351L318.131 230.06ZM300.281 210.22L292.211 189.22L284.121 210.22H300.281Z" fill="#383E41"/>
<path d="M368.141 204C368.141 212 365.691 218.3 360.791 222.9C355.731 227.673 348.624 230.057 339.471 230.05H325.561V178H340.001C348.887 178 355.841 180.42 360.861 185.26C365.721 189.927 368.147 196.19 368.141 204.05V204ZM358.141 204.05C358.141 198.45 356.411 194.117 352.951 191.05C349.491 187.983 344.631 186.46 338.371 186.48H335.371V221.57H338.141C344.534 221.57 349.471 220.057 352.951 217.03C356.431 214.003 358.174 209.67 358.181 204.03" fill="#383E41"/>
</g>
<defs>
<clipPath id="clip0">
<rect width="476.28" height="339.08" fill="white"/>
</clipPath>
</defs>
</svg>
