<svg width="380" height="248" viewBox="0 0 380 248" fill="none" xmlns="http://www.w3.org/2000/svg">
<path d="M104.75 4.34009H134.85C144.11 4.34009 150.51 6.76009 154.58 10.8301C158.13 14.3801 159.95 18.9701 159.95 24.9401V25.1101C159.95 34.4601 155.02 40.6001 147.49 43.8001L161.94 64.9201H142.64L130.44 46.5701H121.55V64.9201H104.75V4.34009ZM134.16 33.4201C139.78 33.4201 143.16 30.6501 143.16 26.2401V26.0701C143.16 21.2201 139.61 18.8001 134.07 18.8001H121.54V33.4201H134.16Z" fill="#383E41"/>
<path d="M184.62 42.2501L161.51 4.34009H180.64L193.1 26.4101L205.65 4.34009H224.43L201.41 42.0001V64.9201H184.62V42.2501Z" fill="#383E41"/>
<path d="M100.16 209.55L109.59 198.39C115.7 203.15 122.33 205.66 129.4 205.66C134.03 205.66 136.47 204.1 136.47 201.51V201.34C136.47 198.74 134.47 197.45 126.08 195.46C113.08 192.52 103.08 188.88 103.08 176.46V176.29C103.08 165.04 112.08 156.9 126.74 156.9C137.13 156.9 145.24 159.67 151.88 164.9L143.41 176.76C138.457 173.053 132.484 170.958 126.3 170.76C122.2 170.76 120.19 172.4 120.19 174.65V174.82C120.19 177.59 122.28 178.82 130.84 180.71C144.84 183.71 153.54 188.24 153.54 199.58V199.75C153.54 212.13 143.68 219.48 128.84 219.48C118 219.59 107.76 216.21 100.16 209.55Z" fill="#383E41"/>
<path d="M160.91 158H177.7L177.61 180.85H184.27L202.62 158H222.7L197.51 187.34L223.91 218.58H203.14L184.27 195.39H177.61L177.7 218.58H160.91V158Z" fill="#383E41"/>
<path d="M242.34 195.87L219.23 158H238.36L250.82 180L263.37 158H282.15L259.15 195.65V218.58H242.34V195.87Z" fill="#383E41"/>
<path d="M272.84 40.9999C272.78 50.9399 264.75 59.1599 254.44 60.4299V28.8699H272.18V23.3399H254.44V16.9999C256.055 16.4863 257.467 15.4781 258.477 14.1178C259.488 12.7576 260.045 11.1141 260.07 9.41989C259.942 7.28016 259.002 5.27004 257.442 3.80026C255.881 2.33048 253.819 1.51196 251.675 1.51196C249.531 1.51196 247.469 2.33048 245.908 3.80026C244.348 5.27004 243.408 7.28016 243.28 9.41989C243.305 11.1141 243.862 12.7576 244.873 14.1178C245.883 15.4781 247.295 16.4863 248.91 16.9999V23.3399H231.17V28.8799H248.91V60.4299C238.6 59.1599 230.57 50.9399 230.51 40.9999H225C225.08 54.8499 237.06 66.1099 251.7 66.1099C266.34 66.1099 278.3 54.8799 278.38 40.9999H272.84ZM251.67 6.29989C252.545 6.25352 253.402 6.55589 254.055 7.14073C254.707 7.72557 255.101 8.54516 255.15 9.41989C255.15 10.3482 254.781 11.2384 254.125 11.8948C253.469 12.5511 252.578 12.9199 251.65 12.9199C250.722 12.9199 249.832 12.5511 249.175 11.8948C248.519 11.2384 248.15 10.3482 248.15 9.41989C248.174 8.98318 248.285 8.5556 248.475 8.16185C248.666 7.76809 248.932 7.41599 249.259 7.12587C249.587 6.83575 249.968 6.61338 250.382 6.47161C250.796 6.32984 251.234 6.27147 251.67 6.29989V6.29989Z" fill="#383E41"/>
<path d="M104.75 81.1899H135.82C143.44 81.1899 148.82 83.0899 152.35 86.5599C153.625 87.8619 154.626 89.406 155.294 91.1012C155.962 92.7965 156.284 94.6083 156.24 96.4299V96.5999C156.24 103.6 152.24 107.76 146.89 110.1C154.25 112.52 158.89 116.68 158.89 124.9V125.07C158.89 135.46 150.41 141.77 135.95 141.77H104.75V81.1899ZM139.75 99.8799C139.75 96.5099 137.07 94.6899 132.13 94.6899H121.13V105.34H131.69C136.8 105.34 139.69 103.61 139.69 100.06L139.75 99.8799ZM133.95 117.1H121.11V128.26H134.11C139.3 128.26 142.11 126.26 142.11 122.72V122.55C142.14 119.27 139.54 117.1 133.92 117.1H133.95Z" fill="#383E41"/>
<path d="M184.88 81.1201H201L226.64 141.77H208.71L204.41 130.93H181.1L176.8 141.77H159.34L184.88 81.1201ZM199.5 117.94L192.79 100.94L185.99 117.94H199.5Z" fill="#383E41"/>
<path d="M232.25 81.1899H249V127.06H278.34V141.77H232.25V81.1899Z" fill="#383E41"/>
<path d="M104.75 234.79H113.11V244.93H111.31V236.41H106.53V244.93H104.75V234.79Z" fill="#383E41"/>
<path d="M116.35 234.79H120.35C122.73 234.79 124.2 236.14 124.2 238.18C124.2 240.45 122.38 241.64 120.14 241.64H118.14V244.9H116.36L116.35 234.79ZM120.2 240.06C121.55 240.06 122.39 239.31 122.39 238.25C122.39 237.06 121.54 236.44 120.2 236.44H118.13V240.09L120.2 240.06Z" fill="#383E41"/>
<path d="M126.221 239.89C126.221 238.484 126.779 237.136 127.773 236.142C128.767 235.148 130.115 234.59 131.521 234.59C132.926 234.59 134.274 235.148 135.268 236.142C136.262 237.136 136.821 238.484 136.821 239.89V239.89C136.821 241.296 136.262 242.644 135.268 243.638C134.274 244.632 132.926 245.19 131.521 245.19C130.115 245.19 128.767 244.632 127.773 243.638C126.779 242.644 126.221 241.296 126.221 239.89V239.89ZM134.951 239.89C134.968 239.426 134.892 238.963 134.726 238.528C134.561 238.094 134.31 237.698 133.988 237.363C133.666 237.028 133.28 236.761 132.852 236.578C132.425 236.396 131.965 236.301 131.501 236.3C131.039 236.298 130.582 236.39 130.157 236.57C129.732 236.75 129.348 237.015 129.028 237.348C128.709 237.681 128.46 238.075 128.297 238.507C128.134 238.939 128.06 239.399 128.081 239.86V239.86C128.063 240.324 128.139 240.788 128.305 241.222C128.47 241.656 128.722 242.053 129.044 242.388C129.365 242.723 129.752 242.989 130.179 243.172C130.606 243.354 131.066 243.449 131.531 243.45C131.996 243.459 132.459 243.372 132.89 243.195C133.321 243.018 133.711 242.754 134.036 242.421C134.361 242.087 134.614 241.691 134.78 241.255C134.946 240.82 135.021 240.355 135.001 239.89H134.951Z" fill="#383E41"/>
<path d="M139.179 239.89C139.165 239.2 139.289 238.515 139.545 237.874C139.801 237.234 140.184 236.652 140.67 236.162C141.157 235.673 141.737 235.287 142.376 235.027C143.015 234.767 143.7 234.639 144.389 234.65C145.13 234.619 145.868 234.743 146.557 235.015C147.246 235.287 147.871 235.701 148.389 236.23L147.249 237.55C146.88 237.164 146.438 236.855 145.949 236.64C145.46 236.426 144.933 236.31 144.399 236.3C143.945 236.309 143.497 236.409 143.082 236.594C142.667 236.779 142.293 237.045 141.983 237.377C141.672 237.709 141.431 238.099 141.275 238.526C141.118 238.952 141.048 239.406 141.069 239.86C141.047 240.317 141.116 240.775 141.273 241.205C141.43 241.635 141.672 242.029 141.985 242.364C142.297 242.699 142.674 242.967 143.092 243.154C143.51 243.341 143.962 243.441 144.419 243.45C144.968 243.444 145.509 243.326 146.009 243.102C146.51 242.879 146.959 242.555 147.329 242.15L148.469 243.31C147.961 243.896 147.328 244.362 146.617 244.673C145.906 244.985 145.135 245.134 144.359 245.11C143.672 245.122 142.99 244.996 142.353 244.737C141.717 244.479 141.139 244.094 140.655 243.606C140.171 243.118 139.79 242.538 139.537 241.899C139.283 241.26 139.162 240.577 139.179 239.89V239.89Z" fill="#383E41"/>
<path d="M153.46 236.44H150.23V234.79H158.47V236.44H155.24V244.93H153.46V236.44Z" fill="#383E41"/>
<path d="M161.07 234.79H162.85V244.93H161.07V234.79Z" fill="#383E41"/>
<path d="M166.221 234.79H170.221C172.601 234.79 174.071 236.14 174.071 238.18C174.071 240.45 172.251 241.64 170.011 241.64H168.011V244.9H166.231L166.221 234.79ZM170.071 240.06C171.421 240.06 172.261 239.31 172.261 238.25C172.261 237.06 171.411 236.44 170.071 236.44H168.001V240.09L170.071 240.06Z" fill="#383E41"/>
<path d="M181.711 243.31L185.401 234.72H187.281L190.961 243.31H191.961V247H190.301V244.91H182.391V247H180.711V243.29L181.711 243.31ZM183.551 243.37H189.081L186.311 236.71L183.551 243.37Z" fill="#383E41"/>
<path d="M203.679 244.93H201.679L198.479 237.18L195.289 244.93H193.359L197.709 234.72H199.299L203.679 244.93Z" fill="#383E41"/>
<path d="M213.929 244.93H212.149V241.4H209.999L207.419 244.93H205.279L208.089 241.16C207.392 241.025 206.763 240.653 206.311 240.105C205.858 239.558 205.61 238.87 205.609 238.16V238.16C205.609 235.97 207.199 234.84 209.679 234.84H213.899L213.929 244.93ZM209.559 236.41C208.239 236.41 207.459 237.02 207.459 238.09C207.459 239.18 208.299 239.8 209.589 239.8H212.149V236.4L209.559 236.41Z" fill="#383E41"/>
<path d="M223.45 234.79L227 239H227.81V234.76H229.58V239H230.39L233.97 234.76H236.1L231.87 239.7L236.37 244.9H234.23L230.48 240.53H229.58V244.9H227.81V240.53H226.87L223.13 244.9H221L225.5 239.7L221.26 234.76L223.45 234.79Z" fill="#383E41"/>
<path d="M245.521 244.93V237.6L240.021 244.93H238.471V234.79H240.251V241.93L245.591 234.79H247.301V244.93H245.521Z" fill="#383E41"/>
<path d="M253 236.44H249.77V234.79H258V236.44H254.77V244.93H253V236.44Z" fill="#383E41"/>
<path d="M263.001 236.44H259.801V234.79H268.001V236.44H264.771V244.93H263.001V236.44Z" fill="#383E41"/>
<path d="M278.389 244.93H276.609V241.4H274.499L271.919 244.93H269.779L272.589 241.16C271.892 241.025 271.263 240.653 270.811 240.105C270.358 239.558 270.11 238.87 270.109 238.16C270.109 235.97 271.699 234.84 274.179 234.84H278.399L278.389 244.93ZM273.999 236.41C272.679 236.41 271.899 237.02 271.899 238.09C271.899 239.18 272.739 239.8 274.029 239.8H276.589V236.4L273.999 236.41Z" fill="#383E41"/>
</svg>
