<svg width="224" height="148" viewBox="0 0 224 148" fill="none" xmlns="http://www.w3.org/2000/svg">
<path d="M84.5391 18.9349H87.1801L87.1811 16.8079L87.2891 16.7689C90.7811 15.5049 94.5621 14.5279 98.5301 13.8619C102.5 13.1949 106.564 12.8569 110.607 12.8569C114.635 12.8549 118.699 13.1929 122.685 13.8609C126.654 14.5279 130.436 15.5059 133.926 16.7689L134.035 16.8079V18.9349H136.677V64.1509H134.035V67.4439L133.926 67.4829C130.696 68.6519 127.206 69.5789 123.552 70.2389C119.891 70.8999 116.132 71.2819 112.379 71.3749H108.839C105.085 71.2819 101.325 70.8999 97.6631 70.2389C94.0121 69.5799 90.5221 68.6529 87.2891 67.4829L87.1791 67.4429V64.1499H84.5391V18.9349ZM84.8701 19.2649V63.8199H87.5101V67.2129L87.6191 67.2519C90.7801 68.3799 94.1791 69.2769 97.7201 69.9159C101.364 70.5729 105.106 70.9529 108.842 71.0449H112.369C116.107 70.9539 119.849 70.5729 123.494 69.9159C127.038 69.2759 130.436 68.3789 133.595 67.2519L133.704 67.2129V63.8199H136.344V19.2649H133.704V17.0379L133.596 16.9999C130.178 15.7789 126.488 14.8319 122.63 14.1859C118.67 13.5219 114.625 13.1859 110.607 13.1859V13.1849C106.591 13.1849 102.546 13.5219 98.5841 14.1849C94.7271 14.8319 91.0381 15.7789 87.6191 16.9999L87.5101 17.0389V19.2659H84.8701V19.2649Z" fill="#383E41"/>
<path d="M86.1875 20.586H88.8305L88.8315 17.977L89.1685 17.865C92.4305 16.776 95.9255 15.935 99.5555 15.367C103.192 14.798 106.91 14.51 110.606 14.51C114.288 14.508 118.006 14.796 121.657 15.366C125.288 15.935 128.783 16.776 132.047 17.865L132.385 17.979V20.587H135.028V62.503H132.385V66.277L132.047 66.391C129.043 67.393 125.837 68.186 122.521 68.748C119.203 69.311 115.784 69.639 112.363 69.724H108.863C105.43 69.639 102.013 69.311 98.6955 68.748C95.3875 68.189 92.1825 67.396 89.1705 66.391L88.8305 66.276V62.502H86.1885V20.586H86.1875ZM87.1795 21.578V61.511H89.8205V65.567L89.9345 65.604C92.7545 66.519 95.7565 67.249 98.8565 67.774C102.139 68.33 105.51 68.654 108.874 68.738H112.337C115.696 68.656 119.066 68.331 122.359 67.774C125.466 67.247 128.467 66.517 131.28 65.604L131.394 65.567V61.511H134.035V21.578H131.394V18.688L131.28 18.651C128.193 17.65 124.905 16.872 121.507 16.34C117.932 15.781 114.264 15.497 110.606 15.497V15.495C106.959 15.495 103.292 15.779 99.7065 16.34C96.3145 16.87 93.0265 17.648 89.9315 18.652L89.8175 18.689L89.8165 21.578H87.1795Z" fill="#383E41"/>
<path d="M124.279 46.9658V54.0468H110.84V53.7918C110.922 53.8518 111.009 53.9088 111.095 53.9688C111.117 53.9858 111.138 53.9988 111.16 54.0118C111.182 53.9988 111.203 53.9858 111.225 53.9688C116.29 50.4868 116.29 46.9658 116.29 46.9658H124.279Z" fill="#383E41"/>
<path d="M110.839 53.7908V54.0458H98.0352V46.9648H106.029C106.029 46.9658 106.029 50.3658 110.839 53.7908Z" fill="#383E41"/>
<path d="M110.022 30.4478H98.0352V37.5308H110.022V30.4478Z" fill="#383E41"/>
<path d="M124.28 30.4478H112.293V37.5308H124.28V30.4478Z" fill="#383E41"/>
<path d="M106.028 38.7568H92.5879V45.8398H106.028V38.7568Z" fill="#383E41"/>
<path d="M129.729 38.7568H116.289V45.8398H129.729V38.7568Z" fill="#383E41"/>
<path d="M111.223 53.9688C111.219 53.9948 111.21 54.0207 111.206 54.0467C111.189 54.0337 111.171 54.0247 111.158 54.0117C111.179 53.9987 111.201 53.9858 111.223 53.9688Z" fill="#383E41"/>
<path d="M111.159 54.0117C111.146 54.0247 111.129 54.0337 111.111 54.0467C111.107 54.0207 111.098 53.9948 111.094 53.9688C111.115 53.9858 111.137 53.9987 111.159 54.0117Z" fill="#383E41"/>
<path d="M111.113 27.8599V47.8379L110.023 45.8399V27.8599H111.113Z" fill="#383E41"/>
<path d="M96.0118 109.222C96.0118 109.923 96.0328 110.632 95.8828 111.295H96.2238C96.3468 110.698 96.3448 110.082 96.3418 109.498L96.3408 93.8499H96.0128C96.0128 98.9739 96.0138 104.098 96.0118 109.222Z" fill="#383E41"/>
<path d="M111.434 99.772C110.635 99.403 109.77 99.177 108.935 98.885C108.925 98.835 108.915 98.786 108.905 98.736C109.117 98.685 109.328 98.629 109.541 98.582C111.743 98.103 113.295 96.855 113.838 94.633C114.404 92.317 113.681 90.339 111.856 88.816C110.352 87.562 108.527 87.144 106.621 87.127C103.708 87.102 100.795 87.107 97.8819 87.111V87.441L101.485 87.437C103.196 87.437 104.907 87.441 106.617 87.456C108.722 87.475 110.366 88.002 111.644 89.068C113.417 90.546 114.047 92.391 113.518 94.553C113.034 96.532 111.673 97.779 109.471 98.259C109.323 98.291 108.828 98.414 108.828 98.414L108.518 98.489L108.62 98.983L108.826 99.194C109.092 99.287 109.361 99.373 109.63 99.46C110.189 99.64 110.768 99.826 111.296 100.069C113.031 100.869 114.325 102.247 114.942 103.947C115.513 105.521 115.431 107.221 114.715 108.733C113.75 110.768 111.968 112.053 109.27 112.666C108.486 112.844 107.66 112.937 106.815 112.944C104.853 112.96 102.89 112.964 100.928 112.964L95.3579 112.96C95.3609 112.957 95.3629 112.953 95.3669 112.95H94.8589C94.7359 113.05 94.6139 113.151 94.4629 113.244C94.8229 113.269 94.9839 113.29 95.1459 113.29C99.0369 113.291 102.927 113.305 106.818 113.274C107.661 113.267 108.521 113.174 109.343 112.988C111.807 112.429 113.88 111.263 115.012 108.875C116.633 105.459 115.055 101.443 111.434 99.772Z" fill="#383E41"/>
<path d="M102.304 98.295L103.022 98.299C103.299 98.299 103.576 98.295 103.852 98.281C106.424 98.147 108.452 96.444 108.897 94.043C109.355 91.577 108.135 89.623 105.789 89.064C105.168 88.916 104.473 88.844 103.666 88.844C103.416 88.844 103.166 88.851 102.919 88.863C101.659 88.923 101.091 89.546 101.079 90.886C101.072 91.665 101.074 92.444 101.077 93.222L101.076 94.864C101.074 95.602 101.07 96.34 101.083 97.077C101.1 98.029 101.362 98.29 102.304 98.295ZM101.409 90.888C101.419 89.756 101.815 89.243 102.935 89.191C103.858 89.148 104.821 89.171 105.714 89.384C107.932 89.913 108.996 91.706 108.574 93.982C108.155 96.238 106.267 97.826 103.836 97.951C103.327 97.977 102.816 97.967 102.306 97.964C101.556 97.961 101.426 97.846 101.413 97.071C101.395 96.009 101.409 94.946 101.409 93.884C101.407 92.886 101.4 91.887 101.409 90.888Z" fill="#383E41"/>
<path d="M105.756 99.957C104.848 99.749 103.899 99.721 102.982 99.695L102.389 99.678C101.308 99.678 101.088 100.242 101.081 101.153C101.074 102.105 101.075 103.058 101.078 104.01L101.077 106.565C101.074 107.504 101.07 108.441 101.088 109.379C101.113 110.745 101.821 111.482 103.197 111.57C103.433 111.585 103.672 111.593 103.91 111.593C104.24 111.593 104.572 111.578 104.9 111.548C107.768 111.289 109.86 109.257 110.104 106.49C110.381 103.347 108.553 100.6 105.756 99.957ZM109.776 106.463C109.547 109.061 107.583 110.976 104.871 111.221C104.323 111.27 103.766 111.277 103.217 111.242C102.025 111.166 101.439 110.565 101.417 109.374C101.391 107.994 101.411 106.614 101.411 105.233H101.409C101.409 103.874 101.402 102.515 101.411 101.156C101.417 100.229 101.626 99.98 102.527 100.011C103.582 100.047 104.663 100.045 105.682 100.279C108.329 100.886 110.033 103.539 109.776 106.463Z" fill="#383E41"/>
<path d="M47.1668 88.5631C46.3338 88.3621 45.4768 88.3221 44.8248 88.3111L44.7328 88.3101C43.3018 88.3101 42.6908 88.9471 42.6888 90.4421C42.6838 92.9101 42.6858 95.3771 42.6868 97.8451L42.6878 99.6911C42.6878 99.8041 42.6948 99.9181 42.7048 100.059L42.7358 100.59L43.3998 100.677C43.6758 100.716 43.9368 100.753 44.1988 100.768C44.4168 100.782 44.6338 100.789 44.8478 100.789C48.5768 100.789 50.9488 98.8131 51.3538 95.3681C51.6758 92.6451 50.7438 89.4271 47.1668 88.5631ZM51.0278 95.3301C50.5618 99.2901 47.5438 100.641 44.2198 100.439C43.8438 100.416 43.4708 100.349 43.0498 100.296C43.0348 100.026 43.0168 99.8581 43.0168 99.6901C43.0158 96.6071 43.0118 93.5241 43.0178 90.4411C43.0198 89.1081 43.4868 88.6161 44.8188 88.6391C45.5778 88.6521 46.3548 88.7041 47.0898 88.8811C50.3418 89.6691 51.3578 92.5331 51.0278 95.3301Z" fill="#383E41"/>
<path d="M37.9433 110.194C37.9473 110.028 37.9483 109.865 37.9483 109.71V91.0669H37.6193C37.6203 97.2819 37.6213 103.496 37.6193 109.711C37.6193 109.873 37.6183 110.034 37.6133 110.195H37.9433V110.194Z" fill="#383E41"/>
<path d="M47.8629 87.1879C50.6889 87.5409 52.7379 88.3669 54.3089 89.7879C56.4209 91.6949 57.1509 94.1449 56.4229 96.8709C55.8219 99.1179 54.1779 100.621 51.3969 101.467C51.2449 101.513 51.0899 101.551 50.9039 101.598L50.2219 101.774L50.3259 102.105C52.1329 107.833 54.6729 112.063 58.2719 115.374C58.6019 115.662 58.7799 115.793 58.8149 115.834C58.8699 115.754 58.9219 115.68 58.9849 115.588C54.7839 111.923 52.2949 107.252 50.6399 102.005C51.0039 101.911 51.2509 101.856 51.4909 101.783C54.0159 101.016 56.0399 99.5709 56.7389 96.9559C57.4949 94.1269 56.7609 91.5609 54.5279 89.5419C52.6499 87.8439 50.3399 87.1649 47.9019 86.8599C45.2529 86.5289 42.6069 86.5209 39.9629 86.7079V87.0279C41.0789 86.9489 42.1579 86.9069 43.2109 86.9069C44.8119 86.9079 46.3759 87.0029 47.8629 87.1879Z" fill="#383E41"/>
<path d="M43.0169 110.031C43.0229 107.671 43.0169 105.31 43.0189 102.95C43.0189 102.765 43.0439 102.58 43.0599 102.376C43.9249 102.444 44.7429 102.509 45.5689 102.574C45.5889 102.617 45.6119 102.657 45.6329 102.701C45.6979 102.598 45.7749 102.505 45.8639 102.424L45.7879 102.261L42.7559 102.022L42.7149 102.543C42.7029 102.682 42.6899 102.815 42.6899 102.948C42.6899 102.948 42.6919 108.556 42.6889 110.031C42.6859 111.055 42.7999 112.091 43.5149 112.901H37.0079C37.0119 112.897 37.0139 112.893 37.0179 112.889H36.5309C36.3779 113.01 36.2049 113.125 36.0059 113.231H44.4199C43.1819 112.465 43.0139 111.291 43.0169 110.031Z" fill="#383E41"/>
<path d="M140.734 95.6479C140.382 93.2179 139.622 91.4379 138.344 90.0439C137.304 88.9099 135.97 88.2849 134.587 88.2849C133.265 88.2849 131.971 88.8629 130.941 89.9119C129.967 90.9039 129.279 92.1389 128.894 93.5839C127.907 97.2909 127.81 101.243 128.597 105.665C128.96 107.712 129.747 109.319 131.001 110.578C132.014 111.594 133.292 112.153 134.603 112.153C135.929 112.153 137.192 111.578 138.158 110.533C138.878 109.757 139.501 108.763 139.962 107.659C140.959 105.272 141.044 102.702 141.127 100.218C141.088 99.7079 141.057 99.2429 141.026 98.7789C140.956 97.7499 140.885 96.6879 140.734 95.6479ZM139.656 107.531C139.239 108.529 138.646 109.518 137.914 110.309C136.035 112.339 133.185 112.304 131.232 110.345C129.924 109.032 129.236 107.39 128.919 105.607C128.209 101.613 128.159 97.6209 129.211 93.6679C129.566 92.3369 130.199 91.1369 131.175 90.1429C133.222 88.0569 136.125 88.1139 138.1 90.2669C139.511 91.8039 140.118 93.6989 140.407 95.6949C140.622 97.1829 140.672 98.6949 140.795 100.197C140.714 102.698 140.632 105.197 139.656 107.531Z" fill="#383E41"/>
<path d="M135.554 86.638C130.621 86.183 126.187 88.628 124.055 93.057C121.821 97.699 121.783 102.508 123.951 107.163C127.705 115.225 138.295 115.787 143.385 109.96C145.819 107.174 146.664 103.84 146.705 100.235C146.714 98.305 146.468 96.411 145.79 94.604C144.012 89.866 140.62 87.105 135.554 86.638ZM143.136 109.744C141.042 112.142 137.908 113.518 134.539 113.518C129.988 113.518 126.142 111.091 124.249 107.025C122.112 102.434 122.146 97.783 124.351 93.2C126.246 89.264 129.998 86.914 134.389 86.914C134.764 86.914 135.142 86.931 135.523 86.966C140.368 87.412 143.719 90.022 145.481 94.721C146.092 96.349 146.384 98.152 146.375 100.234C146.33 104.189 145.271 107.3 143.136 109.744Z" fill="#383E41"/>
<path d="M74.7159 93.406C74.6799 93.311 74.6309 93.223 74.5579 93.098L74.0939 92.26L69.7129 104.049L70.4769 104.113C70.6559 104.13 70.7839 104.142 70.9109 104.142L77.4119 104.143C77.7609 104.141 78.1499 104.117 78.3459 103.833C78.5449 103.544 78.4269 103.165 78.2879 102.802C77.1009 99.669 75.9099 96.537 74.7159 93.406ZM77.4109 103.812C75.2439 103.817 73.0779 103.815 70.9109 103.812C70.7269 103.811 70.5429 103.784 70.1739 103.755C71.5079 100.164 72.8069 96.669 74.1519 93.051C74.2819 93.289 74.3609 93.4 74.4079 93.525C75.6009 96.656 76.7929 99.787 77.9809 102.92C78.2579 103.648 78.1559 103.81 77.4109 103.812Z" fill="#383E41"/>
<path d="M65.4038 111.51C65.7608 110.878 66.0048 110.192 66.2398 109.515C66.3368 109.239 66.4318 108.963 66.5348 108.693C68.0178 104.835 69.4798 100.97 70.9428 97.104L72.9778 91.729H72.6258C70.4938 97.344 68.3828 102.969 66.2268 108.575C65.8498 109.555 65.5668 110.605 65.0098 111.51H65.4038Z" fill="#383E41"/>
<path d="M69.2933 105.869H79.1443C79.6643 107.398 80.1693 108.927 80.7073 110.445C80.8663 110.893 81.0083 111.335 81.0133 111.758H81.3423C81.3383 111.255 81.1693 110.759 81.0193 110.335C80.6423 109.272 80.2823 108.203 79.9213 107.132L79.3823 105.539H69.0623C69.0623 105.539 68.6603 106.671 68.4953 107.125C68.1103 108.193 67.7103 109.296 67.3723 110.402C67.0553 111.443 67.1903 112.165 67.9093 112.896H64.2553C64.2663 112.888 64.2743 112.878 64.2853 112.869H63.7143C63.5173 112.997 63.3103 113.12 63.0723 113.226H68.8103C67.6323 112.368 67.3183 111.709 67.6883 110.499C68.1623 108.938 68.7513 107.413 69.2933 105.869Z" fill="#383E41"/>
<path d="M86.1836 110.214C83.6106 103.224 81.0586 96.2249 78.4986 89.2299C78.1356 88.2389 77.7686 87.2489 77.4186 86.3009C77.3196 86.2829 77.2336 86.2859 77.1406 86.2769V86.5949C77.1536 86.5969 77.1646 86.5959 77.1766 86.5979L78.1886 89.3429L80.0936 94.5519C82.0156 99.8129 83.9396 105.072 85.8746 110.328C86.1796 111.158 86.5436 112.147 87.2856 112.927H80.9466C80.9536 112.919 80.9566 112.91 80.9626 112.902H80.5146C80.3866 113.023 80.2366 113.142 80.0456 113.257H88.1956C87.0596 112.525 86.6066 111.365 86.1836 110.214Z" fill="#383E41"/>
<path d="M16.1361 90.6818C16.1371 97.0158 16.1371 103.35 16.1361 109.683C16.1361 110.26 16.1231 110.832 15.9971 111.367H16.3391C16.4631 110.798 16.4651 110.214 16.4651 109.683V90.6818C16.4651 89.3158 16.0061 88.8458 14.6461 88.8188H14.6431C13.2161 88.8188 12.0231 89.3628 10.8991 90.4828C10.3051 91.0758 9.74406 91.7788 9.08206 92.7658C8.87006 93.0828 8.75206 93.1408 8.59606 93.1408C8.59006 93.1408 8.58306 93.1398 8.58306 93.1398C8.53606 93.1488 8.50006 93.1648 8.45406 93.1648C8.41706 93.1648 8.39006 93.1508 8.35706 93.1448C8.33406 93.1578 8.31806 93.1788 8.29306 93.1898C8.25806 93.2158 8.22606 93.2578 8.19006 93.2808C8.18106 93.3168 8.17306 93.3518 8.16406 93.3868C8.79006 93.5988 9.06306 93.3868 9.35606 92.9498C9.88506 92.1618 10.4621 91.3839 11.1321 90.7169C12.0841 89.7689 13.2221 89.1198 14.6401 89.1488C15.8231 89.1718 16.1361 89.4818 16.1361 90.6818Z" fill="#383E41"/>
<path d="M16.1633 90.7659C16.1643 96.9729 16.1653 103.181 16.1633 109.388C16.1633 110.072 16.1673 110.76 16.0043 111.395H16.3423C16.4883 110.771 16.4933 110.117 16.4923 109.499L16.4933 90.7659C16.4923 89.2929 16.0173 88.8199 14.5413 88.8179C13.2683 88.8179 12.1013 89.3309 11.0683 90.3409C10.3173 91.0749 9.6683 91.9539 9.0963 92.7299L9.0123 92.8439C8.8873 93.0159 8.8373 93.0739 8.7883 93.1009C8.7233 93.2329 8.6363 93.3509 8.5293 93.4539C8.9823 93.4839 9.0243 93.3819 9.3613 92.9259C9.9643 92.1089 10.5773 91.2829 11.2993 90.5769C12.1793 89.7169 13.2503 89.1469 14.5423 89.1489C15.8313 89.1499 16.1623 89.4749 16.1633 90.7659Z" fill="#383E41"/>
<path d="M208.371 110.699C208.384 110.535 208.398 110.371 208.402 110.211C208.425 109.2 208.424 108.189 208.421 107.178L208.422 96.5669H208.091C208.091 99.8369 208.092 103.107 208.091 106.378C208.091 107.654 208.101 108.929 208.072 110.204C208.068 110.371 208.059 110.536 208.045 110.699H208.371V110.699Z" fill="#383E41"/>
<path d="M213.478 110.279C213.461 109.982 213.467 109.684 213.467 109.386C213.466 103.263 213.464 97.14 213.468 91.017C213.469 89.587 213.429 88.135 215.062 87.165H214.458C214.315 87.304 214.105 87.495 214.105 87.495C213.139 88.492 213.139 89.766 213.139 90.916L213.137 109.548C213.137 109.798 213.136 110.048 213.149 110.297C213.202 111.22 213.318 112.163 213.959 112.896H207.516C207.518 112.894 207.519 112.891 207.521 112.889H207.032C206.918 112.98 206.792 113.066 206.652 113.144C206.64 113.151 206.66 113.217 206.662 113.226H214.884C213.703 112.546 213.543 111.434 213.478 110.279Z" fill="#383E41"/>
<path d="M110.13 98.737C109.062 98.232 107.569 97.885 107.569 97.885L107.879 97.81C107.879 97.81 108.374 97.687 108.522 97.655C110.724 97.175 112.085 95.928 112.569 93.949C113.098 91.787 112.468 89.941 110.695 88.464C109.418 87.398 107.773 86.871 105.668 86.852C103.958 86.837 102.247 86.833 100.536 86.833L94.3809 86.84C95.2799 87.682 95.3799 88.779 95.3919 89.924L95.3929 108.892C95.3989 110.055 95.4049 111.349 94.4099 112.356L99.9799 112.36C101.942 112.36 103.905 112.356 105.867 112.34C106.712 112.333 107.538 112.24 108.322 112.062C111.02 111.45 112.801 110.164 113.767 108.13C114.483 106.618 114.624 104.304 114.053 102.73C113.435 101.03 112.253 99.74 110.13 98.737ZM100.129 92.616C100.127 91.838 100.124 91.058 100.131 90.28C100.142 88.94 100.71 88.316 101.97 88.257C102.218 88.246 102.467 88.238 102.717 88.238C103.524 88.238 104.219 88.31 104.84 88.458C107.186 89.017 108.405 90.971 107.948 93.437C107.503 95.839 105.475 97.542 102.903 97.675C102.627 97.689 102.35 97.693 102.073 97.693L101.355 97.69C100.413 97.685 100.15 97.424 100.133 96.472C100.121 95.735 100.124 94.996 100.126 94.259L100.129 92.616ZM109.154 105.886C108.91 108.653 106.818 110.685 103.95 110.943C103.622 110.973 103.29 110.987 102.96 110.987C102.722 110.987 102.483 110.98 102.247 110.964C100.872 110.877 100.163 110.139 100.138 108.773C100.12 107.835 100.123 106.897 100.127 105.959L100.128 103.404C100.126 102.452 100.125 101.499 100.131 100.547C100.138 99.636 100.358 99.072 101.439 99.072L102.032 99.088C102.949 99.115 103.898 99.142 104.806 99.351C107.603 99.994 109.431 102.742 109.154 105.886Z" fill="#383E41"/>
<path d="M49.3773 101.499L49.2733 101.168L49.9553 100.993C50.1413 100.946 50.2963 100.908 50.4483 100.862C53.2293 100.016 54.8733 98.513 55.4743 96.266C56.2023 93.54 55.4723 91.09 53.3603 89.182C51.7883 87.761 49.7403 86.935 46.9143 86.582C45.4273 86.396 43.8633 86.302 42.2643 86.302C40.2533 86.302 38.1573 86.445 35.8613 86.739C36.8023 87.503 36.9373 88.596 36.9813 89.633C36.9903 89.85 36.9993 90.068 36.9993 90.287V109.105C36.9993 110.079 36.9983 111.343 36.0553 112.295H42.5623C41.8483 111.485 41.7333 110.449 41.7373 109.425C41.7403 107.95 41.7383 102.342 41.7383 102.342C41.7383 102.209 41.7503 102.076 41.7633 101.937L41.8043 101.415L44.8363 101.654L44.9183 101.829C47.5893 107.611 51.6403 112.057 57.2983 115.416C57.6793 115.675 58.5243 116.01 58.5653 115.95C54.0743 112.269 51.2333 107.379 49.3773 101.499ZM43.9003 100.183C43.6853 100.183 43.4693 100.176 43.2513 100.163C42.9893 100.148 42.7283 100.111 42.4523 100.072L41.7883 99.985L41.7573 99.454C41.7473 99.313 41.7403 99.199 41.7403 99.086L41.7393 97.24C41.7383 94.772 41.7373 92.305 41.7413 89.837C41.7433 88.343 42.3543 87.705 43.7853 87.705L43.8773 87.706C44.5303 87.717 45.3863 87.756 46.2203 87.958C49.7973 88.823 50.7293 92.041 50.4083 94.764C50.0013 98.208 47.6293 100.183 43.9003 100.183Z" fill="#383E41"/>
<path d="M134.574 86.3608C134.192 86.3258 133.814 86.3088 133.44 86.3088C129.049 86.3088 125.297 88.6588 123.402 92.5948C121.197 97.1768 121.163 101.829 123.3 106.42C125.193 110.486 129.039 112.913 133.59 112.913C136.959 112.913 140.093 111.537 142.187 109.139C144.322 106.695 145.381 103.584 145.427 99.6288C145.436 97.5468 145.144 95.7438 144.533 94.1158C142.77 89.4168 139.419 86.8068 134.574 86.3608ZM139.011 107.052C138.55 108.156 137.927 109.15 137.207 109.926C136.241 110.971 134.978 111.546 133.652 111.546C132.342 111.546 131.063 110.987 130.05 109.971C128.796 108.712 128.01 107.105 127.646 105.058C126.859 100.636 126.957 96.6838 127.943 92.9768C128.328 91.5328 129.016 90.2978 129.99 89.3048C131.02 88.2558 132.314 87.6778 133.636 87.6778C135.019 87.6778 136.353 88.3028 137.393 89.4368C138.672 90.8308 139.431 92.6108 139.783 95.0408C139.934 96.0808 140.006 97.1428 140.074 98.1698C140.105 98.6338 140.136 99.0988 140.175 99.6088C140.094 102.096 140.008 104.666 139.011 107.052Z" fill="#383E41"/>
<path d="M79.1447 93.947L77.2397 88.738L76.2277 85.992C76.1027 85.977 75.9837 85.969 75.8687 85.969C75.3297 85.969 74.8917 86.143 74.4057 86.55C73.7927 87.064 73.0587 87.424 72.3497 87.772C72.0987 87.895 71.8487 88.017 71.6047 88.146C71.5697 88.165 71.5327 88.182 71.4967 88.197C72.4957 88.866 72.6077 89.6 72.0737 91.006L69.9937 96.5C68.5307 100.366 67.0687 104.232 65.5857 108.089C65.4827 108.359 65.3867 108.634 65.2907 108.911C64.8657 110.136 64.4287 111.393 63.3047 112.292H66.9587C66.2397 111.561 66.1047 110.839 66.4217 109.798C66.7597 108.692 67.1597 107.589 67.5447 106.522C67.7097 106.068 68.1117 104.936 68.1117 104.936H78.4317L78.9707 106.529C79.3317 107.599 79.6917 108.668 80.0687 109.732C80.3367 110.489 80.6857 111.471 79.9967 112.323H86.3357C85.5927 111.543 85.2297 110.554 84.9247 109.724C82.9907 104.466 81.0667 99.207 79.1447 93.947ZM77.3957 103.226C77.1997 103.51 76.8097 103.535 76.4607 103.536L69.9597 103.535C69.8327 103.535 69.7057 103.523 69.5257 103.506L68.7617 103.442L73.1427 91.653L73.6067 92.491C73.6797 92.616 73.7277 92.704 73.7647 92.799C74.9577 95.93 76.1497 99.062 77.3367 102.195C77.4767 102.559 77.5947 102.937 77.3957 103.226Z" fill="#383E41"/>
<path d="M9.02005 86.866L7.62305 92.525C7.65705 92.527 7.68905 92.528 7.71705 92.528C7.85205 92.528 7.85205 92.528 8.06205 92.24L8.14605 92.126C8.71805 91.35 9.36805 90.471 10.118 89.737C11.151 88.727 12.319 88.214 13.591 88.214C15.067 88.216 15.542 88.689 15.543 90.162L15.542 108.895C15.543 110.049 15.544 111.328 14.59 112.305H21.101C20.354 111.46 20.273 110.379 20.268 109.324L20.266 90.129C20.266 89.955 20.267 89.781 20.273 89.606C20.303 88.838 20.749 88.332 21.448 88.316C21.634 88.312 21.824 88.308 22.015 88.308C22.555 88.308 23.188 88.336 23.768 88.547C25.814 89.291 27.002 91.011 27.717 92.24C27.893 92.543 28.018 92.543 28.093 92.543C28.119 92.543 28.145 92.541 28.175 92.537L26.779 86.868H9.02005V86.866Z" fill="#383E41"/>
<path d="M160.268 90.6818C160.269 97.0158 160.269 103.35 160.268 109.683C160.268 110.26 160.255 110.832 160.129 111.367H160.471C160.595 110.798 160.597 110.214 160.597 109.683V90.6818C160.597 89.3158 160.138 88.8458 158.778 88.8188H158.775C157.348 88.8188 156.155 89.3628 155.031 90.4828C154.437 91.0758 153.876 91.7788 153.214 92.7658C153.002 93.0828 152.884 93.1408 152.728 93.1408L152.715 93.1398C152.668 93.1488 152.632 93.1648 152.585 93.1648C152.548 93.1648 152.521 93.1508 152.488 93.1448C152.465 93.1578 152.449 93.1788 152.424 93.1898C152.389 93.2158 152.357 93.2578 152.321 93.2808C152.312 93.3168 152.304 93.3518 152.295 93.3868C152.921 93.5988 153.194 93.3868 153.487 92.9498C154.016 92.1618 154.593 91.3839 155.263 90.7169C156.215 89.7689 157.353 89.1198 158.771 89.1488C159.955 89.1718 160.268 89.4818 160.268 90.6818Z" fill="#383E41"/>
<path d="M172.111 87.1641H171.848V87.4941H171.854L173.256 93.1461C173.23 93.1501 173.205 93.1511 173.182 93.1511C173.075 93.1511 172.948 93.1261 172.776 92.8271C171.683 90.9301 170.447 89.7651 168.888 89.1631C168.343 88.9511 167.693 88.8531 166.846 88.8531C165.601 88.8601 165.398 89.6731 165.348 90.2831C165.333 90.4541 165.333 90.6271 165.334 90.7991L165.335 109.375C165.335 109.669 165.35 109.962 165.365 110.256L165.381 110.599C165.412 111.27 165.538 112.161 166.175 112.89H164.514V113.22H167.085C166.054 112.6 165.759 111.659 165.711 110.585C165.693 110.182 165.665 109.778 165.665 109.375C165.662 103.211 165.663 97.0481 165.663 90.8841C165.663 90.6931 165.659 90.5011 165.675 90.3111C165.738 89.5551 166.027 89.1881 166.78 89.1831C167.445 89.1791 168.157 89.2341 168.768 89.4701C170.468 90.1281 171.604 91.4561 172.49 92.9931C172.792 93.5151 173.126 93.5701 173.652 93.3811C173.131 91.2761 172.618 89.2071 172.111 87.1641Z" fill="#383E41"/>
<path d="M160.294 90.7659C160.295 96.9729 160.296 103.181 160.294 109.388C160.294 110.072 160.298 110.76 160.135 111.395H160.473C160.619 110.771 160.624 110.117 160.623 109.499L160.624 90.7659C160.623 89.2929 160.148 88.8199 158.672 88.8179C157.399 88.8179 156.232 89.3309 155.199 90.3409C154.448 91.0749 153.799 91.9539 153.227 92.7299L153.143 92.8439C153.018 93.0159 152.968 93.0739 152.919 93.1009C152.854 93.2329 152.767 93.3509 152.66 93.4539C153.113 93.4839 153.155 93.3819 153.492 92.9259C154.095 92.1089 154.708 91.2829 155.43 90.5769C156.31 89.7169 157.381 89.1469 158.673 89.1489C159.962 89.1499 160.294 89.4749 160.294 90.7659Z" fill="#383E41"/>
<path d="M172.117 87.1409H170.427V87.4709H171.859L173.255 93.1399C173.225 93.1439 173.199 93.1459 173.173 93.1459C173.098 93.1459 172.797 93.1949 172.62 92.8919C171.905 91.6619 170.894 89.8939 168.847 89.1499C168.267 88.9389 167.634 88.9109 167.094 88.9109C166.903 88.9109 166.714 88.9149 166.527 88.9189C165.828 88.9349 165.381 89.4409 165.352 90.2089C165.346 90.3839 165.345 90.5579 165.345 90.7319L165.347 109.927C165.353 110.982 165.433 112.064 166.18 112.909H161.654V112.917H159.159C159.019 113.029 158.871 113.138 158.695 113.239H167.087C165.811 112.448 165.683 111.214 165.677 109.928C165.676 109.821 165.675 109.715 165.675 109.609C165.675 103.317 165.675 97.0239 165.675 90.7319C165.675 90.5619 165.675 90.3919 165.682 90.2219C165.702 89.6849 165.967 89.2619 166.498 89.2499C167.245 89.2329 168.051 89.2119 168.734 89.4599C170.471 90.0909 171.431 91.5059 172.335 93.0579C172.622 93.5509 173.116 93.5719 173.651 93.3689C173.139 91.2899 172.633 89.2359 172.117 87.1409Z" fill="#383E41"/>
<path d="M28.0958 87.1409H26.4058V87.4709H27.8378L29.2338 93.1399C29.2038 93.1439 29.1778 93.1459 29.1518 93.1459C29.0768 93.1459 28.7758 93.1949 28.5988 92.8919C27.8838 91.6619 26.8728 89.8939 24.8258 89.1499C24.2458 88.9389 23.6128 88.9109 23.0728 88.9109C22.8818 88.9109 22.6928 88.9149 22.5058 88.9189C21.8058 88.9349 21.3598 89.4409 21.3308 90.2089C21.3248 90.3839 21.3238 90.5579 21.3238 90.7319L21.3258 109.927C21.3318 110.982 21.4118 112.064 22.1588 112.909H17.6328V112.917H15.1398C14.9998 113.029 14.8518 113.138 14.6758 113.239H23.0678C21.7918 112.448 21.6638 111.214 21.6578 109.928C21.6568 109.821 21.6558 109.715 21.6558 109.609C21.6558 103.317 21.6558 97.0239 21.6558 90.7319C21.6558 90.5619 21.6558 90.3919 21.6628 90.2219C21.6828 89.6849 21.9478 89.2619 22.4788 89.2499C23.2258 89.2329 24.0318 89.2119 24.7148 89.4599C26.4518 90.0909 27.4118 91.5059 28.3158 93.0579C28.6028 93.5509 29.0968 93.5719 29.6318 93.3689C29.1188 91.2899 28.6128 89.2359 28.0958 87.1409Z" fill="#383E41"/>
<path d="M153.151 86.866L151.754 92.525C151.788 92.527 151.82 92.528 151.848 92.528C151.983 92.528 151.983 92.528 152.193 92.24L152.277 92.126C152.849 91.35 153.499 90.471 154.249 89.737C155.282 88.727 156.45 88.214 157.722 88.214C159.198 88.216 159.673 88.689 159.674 90.162L159.673 108.895C159.674 110.049 159.675 111.328 158.721 112.305H165.232C164.485 111.46 164.404 110.379 164.399 109.324L164.397 90.129C164.397 89.955 164.398 89.781 164.404 89.606C164.434 88.838 164.88 88.332 165.579 88.316C165.765 88.312 165.955 88.308 166.146 88.308C166.686 88.308 167.319 88.336 167.899 88.547C169.945 89.291 171.133 91.011 171.848 92.24C172.024 92.543 172.149 92.543 172.224 92.543C172.25 92.543 172.276 92.541 172.306 92.537L170.91 86.868H153.151V86.866Z" fill="#383E41"/>
<path d="M187.065 90.6818C187.066 97.0158 187.066 103.35 187.065 109.683C187.065 110.26 187.052 110.832 186.926 111.367H187.268C187.392 110.798 187.394 110.214 187.394 109.683V90.6818C187.394 89.3158 186.935 88.8458 185.575 88.8188H185.572C184.145 88.8188 182.952 89.3628 181.828 90.4828C181.234 91.0758 180.673 91.7788 180.011 92.7658C179.799 93.0828 179.681 93.1408 179.525 93.1408L179.505 93.1398C179.465 93.1488 179.429 93.1648 179.382 93.1648C179.345 93.1648 179.318 93.1508 179.285 93.1448C179.262 93.1578 179.246 93.1788 179.221 93.1898C179.186 93.2158 179.154 93.2578 179.118 93.2808C179.109 93.3168 179.101 93.3518 179.092 93.3868C179.718 93.5988 179.991 93.3868 180.284 92.9498C180.813 92.1618 181.39 91.3839 182.06 90.7169C183.012 89.7689 184.15 89.1198 185.568 89.1488C186.752 89.1718 187.065 89.4818 187.065 90.6818Z" fill="#383E41"/>
<path d="M187.093 90.7659C187.094 96.9729 187.095 103.181 187.093 109.388C187.093 110.072 187.097 110.76 186.934 111.395H187.272C187.418 110.771 187.423 110.117 187.422 109.499L187.423 90.7659C187.422 89.2929 186.947 88.8199 185.471 88.8179C184.198 88.8179 183.031 89.3309 181.998 90.3409C181.247 91.0749 180.598 91.9539 180.026 92.7299L179.942 92.8439C179.817 93.0159 179.767 93.0739 179.718 93.1009C179.653 93.2329 179.566 93.3509 179.459 93.4539C179.912 93.4839 179.954 93.3819 180.291 92.9259C180.894 92.1089 181.507 91.2829 182.229 90.5769C183.109 89.7169 184.18 89.1469 185.472 89.1489C186.761 89.1499 187.092 89.4749 187.093 90.7659Z" fill="#383E41"/>
<path d="M198.916 87.1409H197.226V87.4709H198.658L200.054 93.1399C200.024 93.1439 199.998 93.1459 199.972 93.1459C199.897 93.1459 199.596 93.1949 199.419 92.8919C198.704 91.6619 197.693 89.8939 195.646 89.1499C195.066 88.9389 194.433 88.9109 193.893 88.9109C193.702 88.9109 193.513 88.9149 193.326 88.9189C192.627 88.9349 192.18 89.4409 192.151 90.2089C192.145 90.3839 192.144 90.5579 192.144 90.7319L192.146 109.927C192.152 110.982 192.232 112.064 192.979 112.909H188.453V112.917H185.958C185.818 113.029 185.67 113.138 185.494 113.239H193.886C192.61 112.448 192.482 111.214 192.476 109.928C192.475 109.821 192.474 109.715 192.474 109.609C192.474 103.317 192.474 97.0239 192.474 90.7319C192.474 90.5619 192.474 90.3919 192.481 90.2219C192.501 89.6849 192.766 89.2619 193.297 89.2499C194.044 89.2329 194.85 89.2119 195.533 89.4599C197.27 90.0909 198.23 91.5059 199.134 93.0579C199.421 93.5509 199.915 93.5719 200.45 93.3689C199.938 91.2899 199.432 89.2359 198.916 87.1409Z" fill="#383E41"/>
<path d="M179.95 86.866L178.553 92.525C178.587 92.527 178.619 92.528 178.647 92.528C178.782 92.528 178.782 92.528 178.992 92.24L179.076 92.126C179.648 91.35 180.298 90.471 181.048 89.737C182.081 88.727 183.249 88.214 184.521 88.214C185.997 88.216 186.472 88.689 186.473 90.162L186.472 108.895C186.473 110.049 186.474 111.328 185.52 112.305H192.031C191.284 111.46 191.203 110.379 191.198 109.324L191.196 90.129C191.196 89.955 191.197 89.781 191.203 89.606C191.233 88.838 191.679 88.332 192.378 88.316C192.564 88.312 192.754 88.308 192.945 88.308C193.485 88.308 194.118 88.336 194.698 88.547C196.744 89.291 197.932 91.011 198.647 92.24C198.823 92.543 198.948 92.543 199.023 92.543C199.049 92.543 199.075 92.541 199.105 92.537L197.709 86.868H179.95V86.866Z" fill="#383E41"/>
<path d="M212.188 108.942L212.19 90.3099C212.19 89.1609 212.19 87.8859 213.156 86.8899H206.477C207.419 87.8079 207.439 89.0039 207.457 90.0829C207.46 90.2709 207.463 90.4579 207.471 90.6439C207.476 90.7519 207.474 90.8599 207.473 90.9689L207.472 106.572C207.474 107.583 207.475 108.595 207.453 109.605C207.431 110.53 207.296 111.535 206.567 112.29H213.01C212.37 111.556 212.254 110.613 212.2 109.69C212.186 109.441 212.188 109.192 212.188 108.942Z" fill="#383E41"/>
<path d="M62.9863 137.994C62.9863 137.805 63.0273 137.643 63.1083 137.509H63.1433C63.1403 137.53 63.1393 137.551 63.1393 137.572C63.1393 137.753 63.2043 137.911 63.3343 138.047C63.4643 138.183 63.6423 138.25 63.8683 138.25C64.0443 138.25 64.1813 138.208 64.2803 138.124C64.3783 138.04 64.4283 137.934 64.4283 137.805C64.4283 137.729 64.4043 137.661 64.3553 137.6C64.3063 137.54 64.2263 137.472 64.1123 137.399L63.4263 136.946C63.1713 136.775 63.0443 136.565 63.0443 136.315C63.0443 136.289 63.0473 136.262 63.0523 136.237C63.0683 136.029 63.1493 135.862 63.2953 135.736C63.4413 135.61 63.6363 135.547 63.8803 135.547C64.0243 135.547 64.2033 135.561 64.4163 135.586H64.6643L64.6133 136.166H64.5743C64.5743 136.029 64.5233 135.919 64.4223 135.836C64.3213 135.754 64.1863 135.712 64.0183 135.712C63.8133 135.712 63.6653 135.775 63.5733 135.901C63.5263 135.962 63.5023 136.022 63.5023 136.083C63.5023 136.143 63.5143 136.195 63.5373 136.237C63.5743 136.305 63.6543 136.379 63.7783 136.457L64.5313 136.946C64.7683 137.101 64.8863 137.304 64.8863 137.553C64.8863 137.831 64.7913 138.045 64.6003 138.194C64.4093 138.343 64.1563 138.417 63.8413 138.417C63.6623 138.417 63.4973 138.395 63.3463 138.352C63.1953 138.308 63.0843 138.25 63.0133 138.176C62.9963 138.125 62.9863 138.065 62.9863 137.994Z" fill="#231F20"/>
<path d="M65.508 138.322C65.576 138.322 65.635 138.297 65.683 138.249C65.732 138.2 65.757 138.142 65.76 138.073V135.886C65.757 135.817 65.732 135.759 65.683 135.712C65.634 135.664 65.576 135.641 65.508 135.641H65.457V135.601H66.655L66.651 135.641H66.604C66.535 135.641 66.477 135.664 66.426 135.712C66.376 135.759 66.351 135.817 66.351 135.886V138.073C66.351 138.142 66.376 138.2 66.426 138.249C66.476 138.297 66.535 138.322 66.604 138.322H66.651L66.655 138.361H65.457V138.322H65.508Z" fill="#231F20"/>
<path d="M70.3745 135.641C70.2825 135.641 70.2135 135.68 70.1655 135.759C70.1445 135.794 70.1325 135.833 70.1295 135.877V137.911C70.1295 138.088 70.1415 138.235 70.1655 138.357L70.1775 138.416H70.1425L68.1515 136.52V138.085C68.1515 138.151 68.1745 138.206 68.2225 138.252C68.2695 138.298 68.3265 138.321 68.3915 138.321H68.4665V138.36H67.2715V138.321H67.3425C67.4105 138.321 67.4685 138.298 67.5155 138.252C67.5635 138.206 67.5865 138.149 67.5865 138.081V136.035C67.5865 135.861 67.5745 135.717 67.5515 135.601L67.5435 135.542H67.5785L69.5695 137.438V135.881C69.5665 135.813 69.5415 135.756 69.4945 135.71C69.4475 135.664 69.3905 135.641 69.3255 135.641H69.2545V135.601H70.4485V135.641H70.3745V135.641Z" fill="#231F20"/>
<path d="M72.6182 138.414C72.1112 138.412 71.7132 138.285 71.4242 138.03C71.1352 137.775 70.9902 137.426 70.9902 136.981C70.9902 136.536 71.1332 136.187 71.4202 135.931C71.7062 135.674 72.0992 135.546 72.5992 135.546C72.9802 135.546 73.3072 135.617 73.5802 135.759L73.5882 136.437H73.5562C73.4222 135.953 73.1162 135.712 72.6372 135.712C72.3272 135.712 72.0822 135.824 71.9022 136.048C71.7222 136.273 71.6322 136.58 71.6322 136.968C71.6322 137.357 71.7182 137.666 71.8902 137.894C72.0622 138.122 72.2952 138.241 72.5902 138.249C72.8952 138.249 73.1272 138.173 73.2872 138.02C73.4502 137.862 73.5632 137.592 73.6262 137.208H73.6582L73.6972 137.886C73.4852 138.24 73.1252 138.415 72.6182 138.414Z" fill="#231F20"/>
<path d="M74.3596 138.322C74.4276 138.322 74.4866 138.297 74.5346 138.249C74.5836 138.2 74.6086 138.142 74.6116 138.073V135.878C74.6056 135.81 74.5866 135.76 74.5526 135.729C74.4896 135.671 74.4256 135.642 74.3596 135.642H74.3086V135.602H75.8186C75.9476 135.602 76.0536 135.592 76.1376 135.573C76.2216 135.553 76.2726 135.54 76.2916 135.532V136.222L76.2526 136.217V136.174C76.2526 136.011 76.1916 135.896 76.0716 135.827C76.0136 135.793 75.9456 135.775 75.8666 135.772H75.2046V136.919H75.7246C75.8216 136.917 75.9026 136.884 75.9656 136.819C76.0286 136.755 76.0606 136.676 76.0606 136.581V136.546H76.0996V137.457H76.0606V137.425C76.0606 137.328 76.0296 137.248 75.9676 137.185C75.9056 137.122 75.8276 137.088 75.7326 137.086H75.2046V138.193H75.7206C75.9126 138.193 76.0736 138.138 76.2036 138.028C76.3336 137.917 76.4306 137.761 76.4936 137.559H76.5326L76.3516 138.363H74.3096V138.324H74.3596V138.322Z" fill="#231F20"/>
<path d="M62.9863 137.994C62.9863 137.805 63.0273 137.643 63.1083 137.509H63.1433C63.1403 137.53 63.1393 137.551 63.1393 137.572C63.1393 137.753 63.2043 137.911 63.3343 138.047C63.4643 138.183 63.6423 138.25 63.8683 138.25C64.0443 138.25 64.1813 138.208 64.2803 138.124C64.3783 138.04 64.4283 137.934 64.4283 137.805C64.4283 137.729 64.4043 137.661 64.3553 137.6C64.3063 137.54 64.2263 137.472 64.1123 137.399L63.4263 136.946C63.1713 136.775 63.0443 136.565 63.0443 136.315C63.0443 136.289 63.0473 136.262 63.0523 136.237C63.0683 136.029 63.1493 135.862 63.2953 135.736C63.4413 135.61 63.6363 135.547 63.8803 135.547C64.0243 135.547 64.2033 135.561 64.4163 135.586H64.6643L64.6133 136.166H64.5743C64.5743 136.029 64.5233 135.919 64.4223 135.836C64.3213 135.754 64.1863 135.712 64.0183 135.712C63.8133 135.712 63.6653 135.775 63.5733 135.901C63.5263 135.962 63.5023 136.022 63.5023 136.083C63.5023 136.143 63.5143 136.195 63.5373 136.237C63.5743 136.305 63.6543 136.379 63.7783 136.457L64.5313 136.946C64.7683 137.101 64.8863 137.304 64.8863 137.553C64.8863 137.831 64.7913 138.045 64.6003 138.194C64.4093 138.343 64.1563 138.417 63.8413 138.417C63.6623 138.417 63.4973 138.395 63.3463 138.352C63.1953 138.308 63.0843 138.25 63.0133 138.176C62.9963 138.125 62.9863 138.065 62.9863 137.994Z" fill="#383E41"/>
<path d="M65.508 138.322C65.576 138.322 65.635 138.297 65.683 138.249C65.732 138.2 65.757 138.142 65.76 138.073V135.886C65.757 135.817 65.732 135.759 65.683 135.712C65.634 135.664 65.576 135.641 65.508 135.641H65.457V135.601H66.655L66.651 135.641H66.604C66.535 135.641 66.477 135.664 66.426 135.712C66.376 135.759 66.351 135.817 66.351 135.886V138.073C66.351 138.142 66.376 138.2 66.426 138.249C66.476 138.297 66.535 138.322 66.604 138.322H66.651L66.655 138.361H65.457V138.322H65.508Z" fill="#383E41"/>
<path d="M70.3745 135.641C70.2825 135.641 70.2135 135.68 70.1655 135.759C70.1445 135.794 70.1325 135.833 70.1295 135.877V137.911C70.1295 138.088 70.1415 138.235 70.1655 138.357L70.1775 138.416H70.1425L68.1515 136.52V138.085C68.1515 138.151 68.1745 138.206 68.2225 138.252C68.2695 138.298 68.3265 138.321 68.3915 138.321H68.4665V138.36H67.2715V138.321H67.3425C67.4105 138.321 67.4685 138.298 67.5155 138.252C67.5635 138.206 67.5865 138.149 67.5865 138.081V136.035C67.5865 135.861 67.5745 135.717 67.5515 135.601L67.5435 135.542H67.5785L69.5695 137.438V135.881C69.5665 135.813 69.5415 135.756 69.4945 135.71C69.4475 135.664 69.3905 135.641 69.3255 135.641H69.2545V135.601H70.4485V135.641H70.3745V135.641Z" fill="#383E41"/>
<path d="M72.6182 138.414C72.1112 138.412 71.7132 138.285 71.4242 138.03C71.1352 137.775 70.9902 137.426 70.9902 136.981C70.9902 136.536 71.1332 136.187 71.4202 135.931C71.7062 135.674 72.0992 135.546 72.5992 135.546C72.9802 135.546 73.3072 135.617 73.5802 135.759L73.5882 136.437H73.5562C73.4222 135.953 73.1162 135.712 72.6372 135.712C72.3272 135.712 72.0822 135.824 71.9022 136.048C71.7222 136.273 71.6322 136.58 71.6322 136.968C71.6322 137.357 71.7182 137.666 71.8902 137.894C72.0622 138.122 72.2952 138.241 72.5902 138.249C72.8952 138.249 73.1272 138.173 73.2872 138.02C73.4502 137.862 73.5632 137.592 73.6262 137.208H73.6582L73.6972 137.886C73.4852 138.24 73.1252 138.415 72.6182 138.414Z" fill="#383E41"/>
<path d="M74.3596 138.322C74.4276 138.322 74.4866 138.297 74.5346 138.249C74.5836 138.2 74.6086 138.142 74.6116 138.073V135.878C74.6056 135.81 74.5866 135.76 74.5526 135.729C74.4896 135.671 74.4256 135.642 74.3596 135.642H74.3086V135.602H75.8186C75.9476 135.602 76.0536 135.592 76.1376 135.573C76.2216 135.553 76.2726 135.54 76.2916 135.532V136.222L76.2526 136.217V136.174C76.2526 136.011 76.1916 135.896 76.0716 135.827C76.0136 135.793 75.9456 135.775 75.8666 135.772H75.2046V136.919H75.7246C75.8216 136.917 75.9026 136.884 75.9656 136.819C76.0286 136.755 76.0606 136.676 76.0606 136.581V136.546H76.0996V137.457H76.0606V137.425C76.0606 137.328 76.0296 137.248 75.9676 137.185C75.9056 137.122 75.8276 137.088 75.7326 137.086H75.2046V138.193H75.7206C75.9126 138.193 76.0736 138.138 76.2036 138.028C76.3336 137.917 76.4306 137.761 76.4936 137.559H76.5326L76.3516 138.363H74.3096V138.324H74.3596V138.322Z" fill="#383E41"/>
<path d="M147.631 138.56H147.732V138.608H146.277V138.56H146.378C146.452 138.56 146.515 138.534 146.568 138.483C146.621 138.432 146.647 138.371 146.647 138.3V135.819C146.647 135.624 146.552 135.526 146.363 135.526H146.242V135.478C146.74 135.436 147.098 135.333 147.317 135.169H147.365V138.305C147.365 138.376 147.391 138.436 147.442 138.486C147.494 138.536 147.557 138.56 147.631 138.56Z" fill="#231F20"/>
<path d="M148.787 138.478C148.671 138.41 148.58 138.32 148.515 138.206C148.449 138.091 148.416 137.96 148.416 137.813C148.416 137.431 148.647 137.153 149.11 136.979C148.776 136.735 148.609 136.441 148.609 136.098C148.609 135.818 148.707 135.593 148.903 135.424C149.102 135.253 149.355 135.168 149.662 135.168C149.969 135.168 150.224 135.243 150.428 135.392C150.632 135.541 150.734 135.738 150.734 135.982C150.734 136.101 150.705 136.21 150.647 136.309C150.541 136.496 150.36 136.624 150.103 136.695C150.334 136.813 150.478 136.896 150.534 136.94C150.59 136.984 150.641 137.028 150.688 137.071C150.734 137.112 150.771 137.154 150.796 137.196C150.822 137.238 150.847 137.284 150.873 137.335C150.921 137.432 150.945 137.551 150.945 137.692C150.945 138.001 150.825 138.241 150.586 138.415C150.346 138.589 150.044 138.675 149.678 138.675C149.312 138.676 149.015 138.61 148.787 138.478ZM149.657 138.474C149.841 138.474 149.989 138.425 150.1 138.327C150.211 138.229 150.266 138.104 150.266 137.954C150.266 137.804 150.211 137.679 150.1 137.581C149.989 137.484 149.842 137.387 149.659 137.292C149.476 137.197 149.351 137.131 149.283 137.092C149.129 137.256 149.052 137.459 149.052 137.704C149.052 137.949 149.103 138.136 149.206 138.268C149.322 138.405 149.472 138.474 149.657 138.474ZM149.625 135.376C149.513 135.376 149.419 135.421 149.343 135.51C149.268 135.601 149.23 135.716 149.23 135.857C149.23 135.999 149.279 136.123 149.379 136.228C149.476 136.334 149.647 136.454 149.895 136.589C150.036 136.431 150.107 136.22 150.107 135.953C150.107 135.715 150.038 135.549 149.9 135.452C149.829 135.402 149.738 135.376 149.625 135.376Z" fill="#231F20"/>
<path d="M151.594 135.52C151.845 135.292 152.199 135.178 152.659 135.178C152.983 135.178 153.244 135.247 153.439 135.388C153.635 135.527 153.733 135.709 153.733 135.934C153.733 136.159 153.666 136.341 153.533 136.479C153.4 136.617 153.246 136.691 153.073 136.701C153.276 136.739 153.452 136.828 153.603 136.966C153.77 137.121 153.855 137.336 153.858 137.616C153.858 137.805 153.813 137.982 153.723 138.146C153.556 138.448 153.265 138.664 152.851 138.796C152.677 138.85 152.493 138.877 152.297 138.877C152.062 138.877 151.836 138.839 151.618 138.762L151.628 138.714C151.644 138.714 151.66 138.714 151.676 138.714C151.917 138.714 152.145 138.669 152.36 138.579C152.575 138.489 152.749 138.354 152.883 138.175C153.016 137.995 153.083 137.791 153.083 137.563C153.083 137.171 152.89 136.919 152.505 136.806C152.396 136.774 152.279 136.758 152.153 136.758L152.162 136.71C152.172 136.71 152.18 136.71 152.186 136.71C152.404 136.71 152.593 136.636 152.752 136.488C152.911 136.341 152.99 136.162 152.99 135.954C152.99 135.758 152.935 135.613 152.826 135.52C152.717 135.427 152.588 135.38 152.44 135.38C152.042 135.38 151.843 135.63 151.843 136.131C151.843 136.154 151.843 136.178 151.843 136.203H151.795L151.594 135.52Z" fill="#231F20"/>
<path d="M156.037 136.807C155.909 136.807 155.798 136.852 155.705 136.942L155.671 136.904C155.761 136.756 155.894 136.649 156.071 136.581C156.174 136.543 156.272 136.524 156.365 136.524C156.458 136.524 156.544 136.532 156.623 136.55C156.702 136.568 156.781 136.603 156.861 136.654C157.138 136.834 157.276 137.128 157.276 137.535C157.276 137.856 157.168 138.126 156.953 138.345C156.728 138.57 156.411 138.681 156.002 138.681C155.592 138.681 155.274 138.556 155.045 138.303C154.817 138.051 154.703 137.679 154.703 137.187C154.703 136.549 154.88 136.031 155.233 135.636C155.407 135.444 155.622 135.301 155.879 135.207C156.136 135.113 156.412 135.067 156.708 135.067C156.756 135.067 156.806 135.069 156.857 135.072L156.876 135.105C156.426 135.247 156.092 135.449 155.874 135.712C155.688 135.941 155.572 136.252 155.527 136.647C155.511 136.81 155.503 137.006 155.503 137.234C155.503 137.646 155.54 137.951 155.614 138.15C155.688 138.349 155.823 138.449 156.019 138.449C156.144 138.449 156.247 138.407 156.328 138.324C156.466 138.179 156.535 137.94 156.535 137.606C156.535 137.115 156.401 136.852 156.135 136.816C156.102 136.81 156.069 136.807 156.037 136.807Z" fill="#231F20"/>
<path d="M147.631 138.56H147.732V138.608H146.277V138.56H146.378C146.452 138.56 146.515 138.534 146.568 138.483C146.621 138.432 146.647 138.371 146.647 138.3V135.819C146.647 135.624 146.552 135.526 146.363 135.526H146.242V135.478C146.74 135.436 147.098 135.333 147.317 135.169H147.365V138.305C147.365 138.376 147.391 138.436 147.442 138.486C147.494 138.536 147.557 138.56 147.631 138.56Z" fill="#383E41"/>
<path d="M148.787 138.478C148.671 138.41 148.58 138.32 148.515 138.206C148.449 138.091 148.416 137.96 148.416 137.813C148.416 137.431 148.647 137.153 149.11 136.979C148.776 136.735 148.609 136.441 148.609 136.098C148.609 135.818 148.707 135.593 148.903 135.424C149.102 135.253 149.355 135.168 149.662 135.168C149.969 135.168 150.224 135.243 150.428 135.392C150.632 135.541 150.734 135.738 150.734 135.982C150.734 136.101 150.705 136.21 150.647 136.309C150.541 136.496 150.36 136.624 150.103 136.695C150.334 136.813 150.478 136.896 150.534 136.94C150.59 136.984 150.641 137.028 150.688 137.071C150.734 137.112 150.771 137.154 150.796 137.196C150.822 137.238 150.847 137.284 150.873 137.335C150.921 137.432 150.945 137.551 150.945 137.692C150.945 138.001 150.825 138.241 150.586 138.415C150.346 138.589 150.044 138.675 149.678 138.675C149.312 138.676 149.015 138.61 148.787 138.478ZM149.657 138.474C149.841 138.474 149.989 138.425 150.1 138.327C150.211 138.229 150.266 138.104 150.266 137.954C150.266 137.804 150.211 137.679 150.1 137.581C149.989 137.484 149.842 137.387 149.659 137.292C149.476 137.197 149.351 137.131 149.283 137.092C149.129 137.256 149.052 137.459 149.052 137.704C149.052 137.949 149.103 138.136 149.206 138.268C149.322 138.405 149.472 138.474 149.657 138.474ZM149.625 135.376C149.513 135.376 149.419 135.421 149.343 135.51C149.268 135.601 149.23 135.716 149.23 135.857C149.23 135.999 149.279 136.123 149.379 136.228C149.476 136.334 149.647 136.454 149.895 136.589C150.036 136.431 150.107 136.22 150.107 135.953C150.107 135.715 150.038 135.549 149.9 135.452C149.829 135.402 149.738 135.376 149.625 135.376Z" fill="#383E41"/>
<path d="M151.594 135.52C151.845 135.292 152.199 135.178 152.659 135.178C152.983 135.178 153.244 135.247 153.439 135.388C153.635 135.527 153.733 135.709 153.733 135.934C153.733 136.159 153.666 136.341 153.533 136.479C153.4 136.617 153.246 136.691 153.073 136.701C153.276 136.739 153.452 136.828 153.603 136.966C153.77 137.121 153.855 137.336 153.858 137.616C153.858 137.805 153.813 137.982 153.723 138.146C153.556 138.448 153.265 138.664 152.851 138.796C152.677 138.85 152.493 138.877 152.297 138.877C152.062 138.877 151.836 138.839 151.618 138.762L151.628 138.714C151.644 138.714 151.66 138.714 151.676 138.714C151.917 138.714 152.145 138.669 152.36 138.579C152.575 138.489 152.749 138.354 152.883 138.175C153.016 137.995 153.083 137.791 153.083 137.563C153.083 137.171 152.89 136.919 152.505 136.806C152.396 136.774 152.279 136.758 152.153 136.758L152.162 136.71C152.172 136.71 152.18 136.71 152.186 136.71C152.404 136.71 152.593 136.636 152.752 136.488C152.911 136.341 152.99 136.162 152.99 135.954C152.99 135.758 152.935 135.613 152.826 135.52C152.717 135.427 152.588 135.38 152.44 135.38C152.042 135.38 151.843 135.63 151.843 136.131C151.843 136.154 151.843 136.178 151.843 136.203H151.795L151.594 135.52Z" fill="#383E41"/>
<path d="M156.037 136.807C155.909 136.807 155.798 136.852 155.705 136.942L155.671 136.904C155.761 136.756 155.894 136.649 156.071 136.581C156.174 136.543 156.272 136.524 156.365 136.524C156.458 136.524 156.544 136.532 156.623 136.55C156.702 136.568 156.781 136.603 156.861 136.654C157.138 136.834 157.276 137.128 157.276 137.535C157.276 137.856 157.168 138.126 156.953 138.345C156.728 138.57 156.411 138.681 156.002 138.681C155.592 138.681 155.274 138.556 155.045 138.303C154.817 138.051 154.703 137.679 154.703 137.187C154.703 136.549 154.88 136.031 155.233 135.636C155.407 135.444 155.622 135.301 155.879 135.207C156.136 135.113 156.412 135.067 156.708 135.067C156.756 135.067 156.806 135.069 156.857 135.072L156.876 135.105C156.426 135.247 156.092 135.449 155.874 135.712C155.688 135.941 155.572 136.252 155.527 136.647C155.511 136.81 155.503 137.006 155.503 137.234C155.503 137.646 155.54 137.951 155.614 138.15C155.688 138.349 155.823 138.449 156.019 138.449C156.144 138.449 156.247 138.407 156.328 138.324C156.466 138.179 156.535 137.94 156.535 137.606C156.535 137.115 156.401 136.852 156.135 136.816C156.102 136.81 156.069 136.807 156.037 136.807Z" fill="#383E41"/>
<path d="M125.836 141.627C125.807 141.62 125.786 141.606 125.757 141.598C125.767 141.672 125.735 141.718 125.623 141.716C125.518 141.714 125.412 141.716 125.307 141.716C124.27 141.716 123.234 141.716 122.197 141.715C122.169 141.878 122.3 141.858 122.405 141.858C123.458 141.859 124.511 141.859 125.565 141.859C125.67 141.859 125.776 141.857 125.881 141.859C126.028 141.862 126.038 141.783 125.995 141.666C125.943 141.654 125.89 141.64 125.836 141.627Z" fill="#383E41"/>
<path d="M121.712 132.201C120.617 135 119.538 137.758 118.455 140.525C118.367 140.525 118.277 140.525 118.188 140.525C118.205 140.573 118.223 140.621 118.241 140.668C118.406 140.668 118.557 140.668 118.713 140.668C119.75 138.018 120.784 135.374 121.832 132.695C121.811 132.569 121.79 132.441 121.769 132.315C121.766 132.293 121.75 132.273 121.712 132.201Z" fill="#383E41"/>
<path d="M118.419 138.288C118.458 138.4 118.499 138.511 118.559 138.678C118.608 138.559 118.641 138.484 118.67 138.41C117.841 136.023 117.012 133.635 116.184 131.248C116.141 131.123 116.11 131.018 115.929 131.021C115.918 131.021 115.906 131.021 115.895 131.021C115.906 131.047 115.916 131.076 115.926 131.105C116.756 133.499 117.587 135.894 118.419 138.288Z" fill="#383E41"/>
<path d="M115.009 132.483H114.968C114.904 132.779 114.838 133.074 114.777 133.371C114.327 135.579 113.878 137.787 113.432 139.995C113.397 140.169 113.379 140.348 113.379 140.526C113.378 140.873 113.549 141.123 113.839 141.278H113.909C113.742 141.126 113.636 140.928 113.637 140.669C113.638 140.492 113.655 140.312 113.69 140.138C114.135 137.93 114.585 135.722 115.035 133.514C115.076 133.311 115.121 133.109 115.165 132.906L115.009 132.483Z" fill="#383E41"/>
<path d="M123.712 131.152C123.224 131.272 122.997 131.561 123.03 132.062C123.05 132.367 123.105 132.671 123.155 132.974C123.34 134.098 123.53 135.221 123.717 136.345C123.905 137.477 124.093 138.608 124.281 139.74C124.309 139.908 124.324 140.078 124.364 140.242C124.494 140.781 124.788 141.163 125.261 141.368C124.94 141.145 124.726 140.818 124.622 140.386C124.582 140.221 124.567 140.051 124.539 139.883C124.351 138.751 124.164 137.62 123.975 136.488C123.788 135.364 123.598 134.241 123.413 133.117C123.363 132.814 123.308 132.51 123.288 132.205C123.255 131.704 123.482 131.415 123.97 131.296C124.086 131.267 124.205 131.249 124.321 131.226C124.394 131.02 124.072 131.057 124.063 131.083C123.947 131.105 123.829 131.124 123.712 131.152Z" fill="#383E41"/>
<path d="M114.366 141.716C113.532 141.717 112.698 141.717 111.864 141.716C111.843 141.872 111.966 141.859 112.072 141.86C112.923 141.861 113.773 141.861 114.624 141.86C114.687 141.86 114.75 141.85 114.823 141.844C114.823 141.779 114.823 141.726 114.823 141.685C114.736 141.656 114.65 141.63 114.565 141.604C114.565 141.634 114.565 141.661 114.565 141.7C114.492 141.706 114.429 141.716 114.366 141.716Z" fill="#383E41"/>
<path d="M89.9098 131.681C91.0548 132.359 91.9128 133.473 92.2418 135.011C92.5328 136.371 92.4618 137.702 91.7998 138.953C91.0198 140.426 89.8068 141.329 88.1518 141.597C87.7148 141.668 87.2668 141.704 86.8238 141.709C85.4238 141.724 84.0238 141.716 82.6238 141.717C82.6018 141.866 82.7198 141.861 82.8288 141.86C84.2468 141.86 85.6638 141.867 87.0818 141.852C87.5248 141.848 87.9718 141.811 88.4098 141.74C90.0648 141.472 91.2778 140.569 92.0578 139.096C92.7198 137.846 92.7908 136.515 92.5008 135.154C92.1468 133.503 91.1858 132.339 89.9098 131.681Z" fill="#383E41"/>
<path d="M84.9636 140.026C84.9636 138.795 84.9636 137.565 84.9636 136.334C84.9636 135.063 84.9786 133.792 84.9576 132.521C84.9446 131.749 85.3076 131.547 85.8286 131.506C86.8616 131.425 87.8836 131.473 88.8476 131.914C88.7796 131.877 88.7266 131.829 88.6556 131.795C87.6726 131.324 86.6266 131.279 85.5706 131.361C85.0496 131.402 84.6866 131.604 84.6996 132.376C84.7206 133.647 84.7056 134.918 84.7056 136.189C84.7056 137.42 84.7056 138.65 84.7056 139.881C84.7056 140.018 84.7016 140.157 84.7116 140.293C84.7436 140.758 84.9556 141.074 85.3026 141.184C85.1116 141.023 84.9916 140.77 84.9696 140.437C84.9596 140.301 84.9636 140.163 84.9636 140.026Z" fill="#383E41"/>
<path d="M105.807 132.118C105.517 131.861 105.206 131.653 104.884 131.467C105.114 131.617 105.336 131.786 105.549 131.974C106.575 132.883 107.136 134.039 107.333 135.382C107.569 136.989 107.253 138.481 106.299 139.801C105.472 140.945 104.339 141.654 102.939 141.876C101.889 142.043 100.92 141.869 100.033 141.418C100.99 141.974 102.044 142.203 103.197 142.019C104.596 141.797 105.73 141.088 106.557 139.944C107.511 138.624 107.827 137.133 107.591 135.525C107.393 134.184 106.832 133.027 105.807 132.118Z" fill="#383E41"/>
<path d="M98.909 138.359C98.539 136.784 98.591 135.227 99.172 133.709C99.582 132.637 100.305 131.85 101.402 131.452C102.254 131.143 103.196 131.245 103.997 131.665C103.146 131.122 102.089 130.966 101.144 131.308C100.048 131.706 99.325 132.493 98.914 133.565C98.333 135.083 98.281 136.64 98.651 138.215C98.866 139.13 99.25 139.959 99.971 140.594C100.216 140.81 100.478 140.975 100.748 141.115C100.571 141.003 100.395 140.884 100.229 140.738C99.508 140.103 99.124 139.275 98.909 138.359Z" fill="#383E41"/>
<path d="M140.283 141.663C140.188 141.652 140.11 141.62 140.025 141.596C140.025 141.671 140 141.72 139.905 141.716C139.832 141.713 139.759 141.716 139.686 141.716C138.659 141.716 137.631 141.716 136.604 141.715C136.584 141.871 136.707 141.858 136.81 141.858C137.855 141.859 138.9 141.859 139.945 141.859C140.018 141.859 140.091 141.856 140.164 141.859C140.291 141.865 140.316 141.798 140.283 141.663Z" fill="#383E41"/>
<path d="M134.778 132.149C134.763 132.146 134.748 132.144 134.732 132.141C134.046 134.051 133.36 135.96 132.664 137.897C132.768 137.897 132.87 137.897 132.974 137.897C133.621 136.096 134.26 134.317 134.899 132.54C134.859 132.41 134.818 132.279 134.778 132.149Z" fill="#383E41"/>
<path d="M136.567 138.378C135.263 138.381 133.959 138.381 132.655 138.378C132.529 138.378 132.474 138.42 132.436 138.544C132.26 139.131 132.057 139.711 131.894 140.302C131.841 140.496 131.839 140.724 131.883 140.922C131.933 141.149 132.068 141.282 132.234 141.376H132.303C132.23 141.293 132.169 141.197 132.14 141.065C132.097 140.867 132.098 140.64 132.151 140.445C132.314 139.854 132.516 139.275 132.693 138.687C132.73 138.562 132.785 138.52 132.912 138.52C134.202 138.523 135.491 138.523 136.781 138.52C136.744 138.41 136.681 138.378 136.567 138.378Z" fill="#383E41"/>
<path d="M138.64 140.431C138.832 140.833 139.097 141.145 139.459 141.334H139.516C139.26 141.143 139.05 140.894 138.897 140.574C138.855 140.487 138.821 140.396 138.792 140.303C137.93 137.545 137.07 134.787 136.209 132.029C136.053 131.53 135.896 131.03 135.738 130.527H135.525C135.668 130.982 135.81 131.434 135.951 131.886C136.812 134.644 137.672 137.402 138.534 140.16C138.564 140.253 138.599 140.344 138.64 140.431Z" fill="#383E41"/>
<path d="M132.564 141.716C131.732 141.716 130.9 141.716 130.068 141.717C130.059 141.803 130.081 141.861 130.198 141.861C131.073 141.859 131.948 141.86 132.822 141.86C132.976 141.86 132.963 141.771 132.932 141.662C132.846 141.656 132.767 141.64 132.69 141.62C132.69 141.676 132.664 141.716 132.564 141.716Z" fill="#383E41"/>
<path d="M121.375 132.057C120.28 134.856 119.201 137.614 118.118 140.381C117.962 140.381 117.811 140.381 117.646 140.381C116.654 137.698 115.664 135.018 114.673 132.339C114.659 132.339 114.646 132.339 114.632 132.339C114.568 132.635 114.502 132.931 114.441 133.227C113.991 135.435 113.542 137.642 113.096 139.851C113.061 140.025 113.043 140.205 113.043 140.382C113.042 140.752 113.23 141.016 113.557 141.167C113.767 141.264 113.995 141.32 114.227 141.398C114.227 141.439 114.227 141.491 114.227 141.556C114.154 141.562 114.091 141.572 114.028 141.572C113.177 141.573 112.327 141.573 111.476 141.572C111.359 141.572 111.211 141.598 111.272 141.382C111.333 141.369 111.394 141.354 111.456 141.342C111.918 141.256 112.24 140.984 112.394 140.552C112.523 140.189 112.61 139.809 112.687 139.43C113.04 137.697 113.384 135.962 113.731 134.228C113.848 133.642 113.978 133.058 114.079 132.469C114.117 132.249 114.117 132.013 114.086 131.792C114.026 131.372 113.755 131.122 113.354 131.008C113.246 130.977 113.133 130.962 113.003 130.936C112.999 130.884 112.995 130.824 112.99 130.758C113.044 130.749 113.082 130.737 113.121 130.737C113.858 130.736 114.596 130.742 115.333 130.731C115.513 130.728 115.544 130.834 115.588 130.959C116.418 133.354 117.25 135.749 118.081 138.143C118.12 138.255 118.161 138.366 118.221 138.533C118.274 138.406 118.308 138.328 118.338 138.249C119.277 135.824 120.217 133.4 121.15 130.973C121.218 130.795 121.3 130.726 121.498 130.731C122.178 130.745 122.859 130.737 123.539 130.736C123.669 130.736 123.799 130.732 123.726 130.937C123.61 130.96 123.491 130.978 123.375 131.007C122.887 131.126 122.66 131.415 122.693 131.917C122.713 132.222 122.768 132.526 122.818 132.829C123.003 133.953 123.193 135.076 123.38 136.2C123.568 137.332 123.756 138.464 123.944 139.595C123.972 139.762 123.987 139.933 124.027 140.097C124.184 140.75 124.567 141.188 125.241 141.339C125.295 141.351 125.349 141.365 125.401 141.378C125.443 141.496 125.433 141.574 125.287 141.571C125.182 141.569 125.076 141.572 124.971 141.572C123.918 141.572 122.865 141.573 121.811 141.571C121.697 141.571 121.543 141.605 121.606 141.389C121.756 141.371 121.911 141.372 122.056 141.333C122.617 141.184 122.854 140.753 122.749 140.132C122.518 138.77 122.295 137.407 122.07 136.044C121.857 134.753 121.645 133.461 121.431 132.17C121.429 132.149 121.413 132.13 121.375 132.057Z" fill="#383E41"/>
<path d="M82.035 141.383C82.167 141.347 82.3 141.317 82.429 141.274C82.868 141.129 83.099 140.81 83.159 140.364C83.187 140.156 83.199 139.944 83.199 139.735C83.202 137.354 83.202 134.972 83.199 132.591C83.199 132.381 83.184 132.17 83.158 131.962C83.097 131.476 82.788 131.133 82.314 131.007C82.228 130.984 82.141 130.966 82.055 130.946C82.011 130.746 82.011 130.741 82.207 130.74C82.677 130.737 83.147 130.736 83.616 130.74C84.742 130.748 85.87 130.715 86.993 130.777C89.373 130.908 91.362 132.316 91.907 134.87C92.198 136.23 92.127 137.561 91.465 138.812C90.685 140.285 89.472 141.188 87.817 141.456C87.38 141.527 86.932 141.563 86.489 141.568C85.072 141.583 83.654 141.575 82.236 141.576C82.114 141.573 81.972 141.592 82.035 141.383ZM84.368 136.047C84.368 137.278 84.368 138.508 84.368 139.739C84.368 139.877 84.364 140.015 84.374 140.152C84.407 140.636 84.632 140.966 85.006 141.061C85.146 141.097 85.293 141.115 85.438 141.117C85.956 141.124 86.474 141.126 86.992 141.117C87.176 141.114 87.365 141.089 87.543 141.042C88.742 140.725 89.612 140.014 90.109 138.868C90.421 138.148 90.558 137.39 90.621 136.611C90.683 135.83 90.652 135.058 90.451 134.3C90.134 133.104 89.453 132.195 88.32 131.652C87.337 131.181 86.291 131.136 85.235 131.219C84.714 131.26 84.351 131.462 84.364 132.234C84.384 133.505 84.368 134.776 84.368 136.047Z" fill="#383E41"/>
<path d="M96.6895 136.147C96.6955 134.744 97.0735 133.458 97.9965 132.381C99.0745 131.124 100.448 130.463 102.119 130.533C103.3 130.582 104.329 131.05 105.212 131.832C106.238 132.741 106.799 133.897 106.996 135.24C107.232 136.847 106.916 138.339 105.962 139.659C105.135 140.803 104.002 141.512 102.602 141.734C101.163 141.963 99.8755 141.559 98.7435 140.665C97.5595 139.729 96.9395 138.472 96.7315 136.995C96.7165 136.891 96.6945 136.787 96.6905 136.682C96.6845 136.503 96.6895 136.325 96.6895 136.147ZM105.613 137.122C105.685 136.553 105.671 135.977 105.608 135.407C105.574 135.096 105.535 134.785 105.476 134.479C105.309 133.612 104.983 132.809 104.384 132.135C103.48 131.118 102.046 130.717 100.808 131.166C99.7124 131.563 98.9895 132.35 98.5785 133.423C97.9975 134.942 97.9455 136.498 98.3155 138.073C98.5305 138.988 98.9145 139.817 99.6355 140.452C100.433 141.155 101.359 141.47 102.417 141.28C103.62 141.064 104.457 140.344 104.996 139.271C105.339 138.587 105.519 137.866 105.613 137.122Z" fill="#383E41"/>
<path d="M139.689 141.376C139.722 141.511 139.696 141.578 139.569 141.573C139.496 141.57 139.423 141.573 139.35 141.573C138.305 141.573 137.26 141.574 136.215 141.572C136.1 141.572 135.949 141.6 136.015 141.374C136.092 141.371 136.171 141.368 136.249 141.363C136.82 141.333 137.169 140.87 137.017 140.321C136.838 139.676 136.636 139.037 136.454 138.392C136.417 138.261 136.35 138.233 136.229 138.233C134.925 138.236 133.621 138.236 132.317 138.233C132.191 138.233 132.136 138.275 132.098 138.399C131.922 138.986 131.719 139.566 131.556 140.157C131.502 140.351 131.501 140.579 131.545 140.777C131.633 141.178 131.937 141.346 132.337 141.373C132.368 141.481 132.382 141.571 132.227 141.571C131.352 141.571 130.477 141.57 129.603 141.572C129.462 141.572 129.443 141.502 129.473 141.38C129.594 141.348 129.712 141.324 129.826 141.287C130.401 141.102 130.76 140.696 130.964 140.144C131.2 139.508 131.424 138.868 131.653 138.23C132.304 136.414 132.954 134.598 133.604 132.782C133.626 132.721 133.652 132.661 133.666 132.599C133.765 132.178 133.58 131.919 133.148 131.881C133.045 131.872 132.94 131.88 132.817 131.88C132.812 131.801 132.809 131.74 132.804 131.655C133.183 131.565 133.553 131.46 133.861 131.208C134.173 130.953 134.359 130.621 134.47 130.239C134.696 130.239 134.913 130.239 135.146 130.239C135.304 130.743 135.461 131.242 135.617 131.741C136.478 134.499 137.338 137.257 138.2 140.015C138.229 140.107 138.263 140.199 138.305 140.286C138.586 140.875 139.001 141.296 139.689 141.376ZM132.328 137.754C133.642 137.754 134.917 137.754 136.215 137.754C135.62 135.824 135.031 133.915 134.442 132.006C134.427 132.003 134.412 132.001 134.396 131.998C133.71 133.907 133.024 135.817 132.328 137.754Z" fill="#383E41"/>
</svg>
