<svg width="57" height="57" viewBox="0 0 57 57" fill="none" xmlns="http://www.w3.org/2000/svg">
<path d="M16.43 57C16.6548 57 16.8813 56.9958 17.1074 56.9882H56.053C56.576 56.9882 57 56.6019 57 56.1246V10.1923C57 9.71492 56.576 9.32865 56.053 9.32865H24.0768C23.4601 4.11318 18.276 0 12.0725 0C8.8663 0 5.84228 1.07025 3.55438 3.01425C1.26232 4.97596 0 7.58454 0 10.3584V43.4156C0 43.4233 0.00450823 43.4295 0.00473948 43.4371C0.0050285 43.4435 0.00433496 43.4497 0.00462388 43.4561C0.369448 51.0407 7.68582 57.0008 16.43 57ZM55.1061 55.2609L17.0709 55.2618C9.04293 55.5334 2.22548 50.2133 1.89672 43.3802C1.77788 40.9108 2.75583 38.5181 4.64978 36.6424C6.71712 34.5955 9.72171 33.3575 12.8928 33.2461C17.844 33.0716 22.0481 36.3498 22.2506 40.5524C22.3227 42.0494 21.729 43.5017 20.5786 44.6402C19.3167 45.8901 17.4801 46.6466 15.5409 46.715C12.564 46.8212 10.0269 44.8545 9.90528 42.3353C9.86321 41.4607 10.2114 40.6105 10.886 39.9426C11.6328 39.2029 12.7212 38.756 13.8717 38.7155C15.6158 38.6413 17.0557 39.7798 17.125 41.222C17.1481 41.6985 16.9572 42.1624 16.5877 42.5284C16.1706 42.9408 15.5603 43.1913 14.9134 43.2141C14.3909 43.2326 13.9835 43.6332 14.0039 44.1097C14.0238 44.5863 14.4506 44.9936 14.9865 44.9396C16.1337 44.8991 17.2249 44.4471 17.9809 43.6982C18.6944 42.9914 19.0624 42.0848 19.0171 41.1461C18.9024 38.7585 16.5493 36.8862 13.7991 36.9899C12.1479 37.0481 10.5785 37.6975 9.49283 38.7728C8.47465 39.7815 7.94892 41.0736 8.01319 42.4112C8.18011 45.8758 11.6161 48.5805 15.6135 48.4405C18.0535 48.3545 20.371 47.3964 21.9718 45.8108C23.4534 44.3434 24.2212 42.4686 24.1423 40.5264C24.1424 40.5222 24.145 40.5187 24.145 40.5144V11.0559H55.1061V55.2609ZM1.89394 10.3584C1.89394 8.06611 2.94403 5.90536 4.84768 4.27595C6.78139 2.6322 9.34718 1.72725 12.0725 1.72725C17.5832 1.72725 22.1471 5.52958 22.2505 10.1886C22.2505 10.1899 22.2497 10.191 22.2497 10.1923C22.2497 10.1945 22.2511 10.1963 22.2511 10.1985V35.6025C20.2053 33.0329 16.7188 31.3894 12.8197 31.5206C9.14882 31.6488 5.66287 33.0893 3.2566 35.4727C2.74185 35.9824 2.29154 36.5282 1.89394 37.0971V10.3584Z" fill="#383E41"/>
</svg>
