<svg width="57" height="49" viewBox="0 0 57 49" fill="none" xmlns="http://www.w3.org/2000/svg">
<rect x="38.2734" y="0.829346" width="17.9143" height="18.2431" fill="#EFC47F"/>
<path d="M47.6449 4.71692H44.8627C44.4473 4.71692 44.1844 4.98491 44.1844 5.28102L44.1843 14.4467C44.1843 14.8274 44.6272 15.0248 45.084 15.0248C45.527 15.0248 45.9838 14.8275 45.9838 14.4467V11.1753H47.5342C49.3613 11.1753 50.7871 10.2868 50.7871 7.97427V7.88978C50.7871 5.57713 49.4029 4.71692 47.6449 4.71692ZM48.9875 8.11535C48.9875 9.2152 48.4339 9.737 47.5341 9.737H45.9838V6.3245H47.5341C48.4339 6.3245 48.9875 6.8463 48.9875 7.94615V8.11535Z" fill="#383E41"/>
<path d="M32.6249 8.30014C29.9971 5.62322 26.5035 4.149 22.7872 4.149C19.071 4.149 15.5773 5.62322 12.9495 8.30014C12.6324 8.62313 12.6324 9.14685 12.9495 9.46996C13.2666 9.79295 13.7807 9.79295 14.0978 9.46996C16.4188 7.10559 19.5047 5.80342 22.7871 5.80342C26.0695 5.80342 29.1555 7.10559 31.4765 9.46996C31.6351 9.63145 31.8429 9.7122 32.0507 9.7122C32.2584 9.7122 32.4663 9.63145 32.6249 9.46996C32.942 9.14697 32.942 8.62313 32.6249 8.30014Z" fill="#383E41"/>
<path d="M29.2764 11.7127C25.699 8.06841 19.8782 8.06841 16.3009 11.7127C15.9838 12.0357 15.9838 12.5595 16.3009 12.8825C16.618 13.2055 17.1322 13.2055 17.4493 12.8825C20.3935 9.88341 25.1839 9.88341 28.1281 12.8825C28.2866 13.044 28.4943 13.1248 28.7022 13.1248C28.9099 13.1248 29.1178 13.044 29.2764 12.8825C29.5935 12.5595 29.5935 12.0357 29.2764 11.7127Z" fill="#383E41"/>
<path d="M25.9805 15.0712C24.2211 13.2789 21.3583 13.2789 19.5989 15.0712C19.2817 15.3942 19.2817 15.9179 19.5989 16.241C19.9159 16.5641 20.4301 16.564 20.7472 16.241C21.8735 15.0938 23.706 15.0938 24.8323 16.241C24.9908 16.4026 25.1986 16.4833 25.4064 16.4833C25.6141 16.4833 25.822 16.4025 25.9805 16.241C26.2977 15.9179 26.2977 15.3943 25.9805 15.0712Z" fill="#383E41"/>
<path d="M39.958 31.1819C39.6066 30.9849 39.26 30.7692 38.9278 30.5406L33.5568 26.8443C31.9267 25.7225 30.0252 25.1296 28.0581 25.1296H18.1999C15.5831 25.1296 13.121 26.1658 11.2669 28.0473C10.314 29.0145 9.22831 29.8236 8.04011 30.4521C7.33741 30.8239 6.9009 31.5555 6.9009 32.3615C6.9009 33.5484 7.84874 34.514 9.0139 34.514H12.3749V32.8596H9.0139C8.74426 32.8596 8.52483 32.636 8.52483 32.3614C8.52483 32.1753 8.62581 32.0063 8.78846 31.9203C10.1234 31.2142 11.343 30.3054 12.4131 29.2192C13.9605 27.6487 16.0156 26.7839 18.1998 26.7839H20.4068V32.8596H12.3749V34.514H39.9745C40.642 34.514 41.185 33.9608 41.185 33.2808C41.185 32.41 40.7148 31.6057 39.958 31.1819ZM22.0311 32.8597V26.784H28.0582C29.7001 26.784 31.2872 27.2789 32.6478 28.2152L38.0188 31.9115C38.3917 32.1681 38.7808 32.4104 39.1756 32.6315C39.2778 32.6888 39.3634 32.7675 39.4277 32.8597H22.0311Z" fill="#383E41"/>
<path d="M24.0432 35.7715H21.535C21.0865 35.7715 20.7229 36.1419 20.7229 36.5987C20.7229 37.0555 21.0865 37.4259 21.535 37.4259H24.0432C24.4916 37.4259 24.8552 37.0555 24.8552 36.5987C24.8552 36.1419 24.4916 35.7715 24.0432 35.7715Z" fill="#383E41"/>
<path d="M56.2994 35.0771L56.0429 34.6435C55.0763 33.0093 53.4683 31.8587 51.6316 31.4865L49.5351 31.0618V20.2372H54.9604C56.0774 20.2372 56.9861 19.3114 56.9861 18.1736V2.0636C56.9861 0.925649 56.0773 0 54.9604 0H39.1462C38.0291 0 37.1204 0.925763 37.1204 2.0636L37.1203 13.7436H38.7444L38.7445 2.0636C38.7445 1.83792 38.9247 1.65431 39.1463 1.65431H54.9606C55.1821 1.65431 55.3624 1.83792 55.3624 2.0636V18.1737C55.3624 18.3994 55.1821 18.583 54.9606 18.583H39.1462C38.9246 18.583 38.7444 18.3994 38.7444 18.1737V13.7436H37.1203V18.1737C37.1203 19.3116 38.0291 20.2373 39.146 20.2373H45.2981V30.2036L44.2205 29.9853C42.7331 29.684 41.2831 28.7695 40.3217 28.1078L34.9508 24.4117C32.9074 23.0055 30.5239 22.2622 28.058 22.2622H18.2C14.9197 22.2622 11.8334 23.5611 9.50961 25.9194C8.0392 27.4118 6.18826 28.4296 4.15686 28.8631L2.99104 29.1118C1.25789 29.4815 0 31.0593 0 32.8632V40.8744C0 41.83 0.553855 42.6984 1.41119 43.0865L4.64548 44.5508C4.84108 45.5927 5.33382 46.5877 6.12402 47.3926C7.17418 48.4624 8.55364 48.9974 9.93321 48.9974C11.3128 48.9974 12.6921 48.4624 13.7424 47.3926C14.4178 46.7046 14.8747 45.8775 15.1157 45.0012H42.0833C42.3243 45.8775 42.7813 46.7046 43.4568 47.3926C44.4743 48.4291 45.8269 49 47.2659 49C48.7049 49 50.0577 48.4292 51.0752 47.3926C51.7507 46.7046 52.2076 45.8775 52.4486 45.0012H53.989C55.6493 45.0012 57 43.6252 57 41.9339V37.6434C56.9998 36.7391 56.7575 35.8517 56.2994 35.0771ZM46.9222 20.2372H47.9112V30.7328L46.9222 30.5324V20.2372ZM12.5939 46.2229C11.8832 46.9469 10.9383 47.3457 9.9331 47.3457C8.92792 47.3457 7.98297 46.9469 7.27226 46.2229C6.13215 45.0615 5.87855 43.3344 6.51022 41.9206C6.51534 41.9093 6.52024 41.8978 6.52536 41.8865C6.54462 41.8445 6.56499 41.803 6.58581 41.7617C6.59561 41.7422 6.60541 41.7228 6.61565 41.7036C6.63446 41.6677 6.65406 41.6321 6.67409 41.5967C6.6879 41.5723 6.70204 41.5482 6.7164 41.5242C6.73499 41.493 6.7538 41.4619 6.7734 41.4312C6.7911 41.4034 6.80936 41.3759 6.82784 41.3486C6.8461 41.3215 6.86424 41.2943 6.88317 41.2676C6.90488 41.2371 6.92748 41.2072 6.95019 41.1772C6.96789 41.1539 6.98514 41.1303 7.0034 41.1073C7.03012 41.0736 7.05806 41.0407 7.0859 41.0078C7.10182 40.9891 7.11707 40.9699 7.13332 40.9514C7.17473 40.9046 7.21737 40.8587 7.26124 40.8136C7.26502 40.8098 7.26847 40.8057 7.27226 40.8018C7.28061 40.7933 7.2894 40.7854 7.29786 40.777C7.33505 40.7398 7.37245 40.7031 7.41064 40.6678C7.42055 40.6586 7.43101 40.6501 7.44103 40.641C7.4791 40.6067 7.5174 40.5725 7.55659 40.54C7.56026 40.5369 7.56416 40.5341 7.56783 40.531C8.94418 39.3964 10.9293 39.3977 12.3039 40.5356C12.3055 40.5369 12.3072 40.538 12.3088 40.5394C12.3508 40.5742 12.3919 40.6107 12.4327 40.6477C12.4401 40.6543 12.4477 40.6605 12.4549 40.6672C12.5021 40.7107 12.5484 40.7555 12.5938 40.8017C12.6428 40.8516 12.69 40.903 12.7359 40.9551C12.756 40.978 12.7751 41.0014 12.7946 41.0247C12.8184 41.053 12.8423 41.0815 12.8652 41.1104C12.891 41.143 12.9158 41.1761 12.9403 41.2092C12.9541 41.2277 12.9678 41.2463 12.9811 41.265C13.0109 41.3067 13.0398 41.3489 13.0678 41.3917C13.0725 41.3989 13.0772 41.4063 13.0819 41.4136C14.0371 42.8998 13.8745 44.9183 12.5939 46.2229ZM49.9267 46.2229C49.2159 46.9469 48.2709 47.3457 47.2657 47.3457C46.2606 47.3457 45.3157 46.9469 44.605 46.2229C43.3242 44.9183 43.1616 42.8995 44.1169 41.4133C44.1215 41.4062 44.1261 41.3991 44.1307 41.392C44.1587 41.3492 44.1877 41.3069 44.2176 41.2649C44.2308 41.2463 44.2444 41.2279 44.2581 41.2097C44.2827 41.1763 44.3076 41.1431 44.3336 41.1103C44.3564 41.0816 44.38 41.0535 44.4037 41.0254C44.4234 41.0019 44.4427 40.9781 44.4631 40.9551C44.5089 40.903 44.5561 40.8517 44.6051 40.8018C45.3158 40.0778 46.2607 39.6791 47.2658 39.6791C48.271 39.6791 49.216 40.0778 49.9267 40.8018C49.9757 40.8517 50.0229 40.9031 50.0687 40.9552C50.089 40.9781 50.108 41.0017 50.1276 41.025C50.1515 41.0533 50.1753 41.0816 50.1981 41.1104C50.2239 41.1431 50.2488 41.1762 50.2734 41.2094C50.2871 41.2279 50.3007 41.2464 50.3141 41.2651C50.3438 41.307 50.3729 41.349 50.4007 41.3918C50.4055 41.3991 50.4102 41.4063 50.4149 41.4136C51.3698 42.8997 51.2073 44.9184 49.9267 46.2229ZM55.3761 41.9339C55.3761 42.713 54.7536 43.3469 53.9888 43.3469H52.652C52.6202 42.1471 52.2044 41.0025 51.4563 40.064C51.4513 40.0576 51.4465 40.0511 51.4414 40.0447C51.3951 39.9872 51.3471 39.9309 51.2983 39.8748C51.2859 39.8605 51.2741 39.8458 51.2615 39.8315C51.2098 39.7736 51.1564 39.7167 51.1021 39.6607C51.0928 39.6512 51.0844 39.6412 51.075 39.6318C50.3754 38.9192 49.5174 38.4267 48.582 38.1885C48.1567 38.0802 47.7155 38.0246 47.2657 38.0246C46.906 38.0246 46.5517 38.0603 46.2066 38.1299C45.1713 38.339 44.2197 38.8545 43.4565 39.6318C43.4474 39.6411 43.4391 39.6508 43.43 39.6603C43.3755 39.7166 43.3218 39.7736 43.2701 39.8317C43.2578 39.8455 43.2465 39.8597 43.2344 39.8736C43.1852 39.9301 43.1367 39.987 43.09 40.0451C43.0854 40.0508 43.081 40.0569 43.0764 40.0628C42.3277 41.0013 41.9115 42.1467 41.8796 43.347H15.3192C15.2873 42.1452 14.8703 40.9985 14.1197 40.0591C14.1162 40.0547 14.1129 40.0503 14.1094 40.0459C14.0605 39.9848 14.0096 39.9251 13.9578 39.8659C13.9482 39.855 13.9393 39.8438 13.9297 39.8329C13.869 39.7647 13.8066 39.6976 13.7422 39.6319C13.4797 39.3645 13.1965 39.1304 12.898 38.9298C12.0022 38.328 10.9677 38.0272 9.9331 38.0272C8.55364 38.0272 7.17407 38.5621 6.12391 39.6319C6.06391 39.693 6.00591 39.7557 5.94913 39.8193C5.93232 39.8381 5.91618 39.8573 5.89959 39.8762C5.85951 39.9224 5.8201 39.969 5.78169 40.0161C5.76466 40.0371 5.74763 40.0582 5.73093 40.0795C5.69118 40.13 5.65244 40.181 5.61459 40.2326C5.60279 40.2487 5.59065 40.2645 5.57919 40.2807C5.47743 40.4226 5.38303 40.5689 5.29575 40.7189C5.2933 40.7231 5.29096 40.7274 5.28851 40.7316C5.24587 40.8055 5.20501 40.8803 5.16594 40.956C5.16483 40.9581 5.16371 40.9604 5.16249 40.9625C4.87938 41.5113 4.68901 42.1049 4.60173 42.7206L2.07092 41.5747C1.7995 41.4518 1.62416 41.1769 1.62416 40.8744V32.8632C1.62416 31.8378 2.33922 30.9411 3.32436 30.7308L4.49018 30.4821C6.83029 29.9828 8.96244 28.8102 10.6562 27.0913C12.6734 25.0439 15.3526 23.9164 18.2003 23.9164H28.0584C30.1991 23.9164 32.2681 24.5617 34.042 25.7823L39.4129 29.4785C40.4907 30.2203 42.1288 31.248 43.904 31.6077L51.3151 33.109C52.7046 33.3906 53.9209 34.2611 54.6522 35.4972L54.9087 35.9309C55.2145 36.4477 55.3761 37.0399 55.3761 37.6434V41.9339Z" fill="#383E41"/>
<path d="M11.6776 41.7366C11.2118 41.2622 10.5929 41.001 9.93435 41.001C9.27584 41.001 8.65675 41.2623 8.19118 41.7366C7.7256 42.2109 7.46911 42.8415 7.46911 43.5124C7.46911 44.1832 7.7256 44.8139 8.19118 45.2881C8.65675 45.7624 9.27584 46.0237 9.93446 46.0237C10.593 46.0237 11.2121 45.7625 11.6776 45.2881C12.6388 44.309 12.6388 42.7158 11.6776 41.7366ZM10.5292 44.1183C10.3703 44.2801 10.159 44.3693 9.93435 44.3693C9.70958 44.3693 9.49839 44.2801 9.33952 44.1182C9.18066 43.9564 9.09304 43.7412 9.09304 43.5122C9.09304 43.2833 9.18055 43.0681 9.33952 42.9063C9.49839 42.7445 9.70958 42.6552 9.93435 42.6552C10.159 42.6552 10.3703 42.7443 10.5292 42.9063C10.8571 43.2405 10.8571 43.7842 10.5292 44.1183Z" fill="#383E41"/>
<path d="M49.009 41.7367C48.5434 41.2623 47.9243 41.001 47.2657 41.001C46.6072 41.001 45.9882 41.2622 45.5224 41.7366C44.5613 42.7158 44.5613 44.309 45.5224 45.2881C45.9881 45.7625 46.6072 46.0237 47.2657 46.0237C47.9243 46.0237 48.5433 45.7625 49.0089 45.2882C49.4746 44.814 49.731 44.1833 49.731 43.5125C49.731 42.8417 49.4746 42.211 49.009 41.7367ZM47.8605 44.1184C47.7017 44.2803 47.4905 44.3694 47.2657 44.3694C47.0411 44.3694 46.8298 44.2803 46.6709 44.1184C46.3429 43.7843 46.3429 43.2406 46.6709 42.9065C46.8298 42.7447 47.0411 42.6554 47.2657 42.6554C47.4905 42.6554 47.7017 42.7446 47.8606 42.9065C48.0195 43.0684 48.107 43.2835 48.107 43.5125C48.107 43.7412 48.0196 43.9565 47.8605 44.1184Z" fill="#383E41"/>
</svg>
