<svg width="59" height="59" viewBox="0 0 59 59" fill="none" xmlns="http://www.w3.org/2000/svg">
<path d="M38.652 2.9353H3.74609V20.6813H38.652V2.9353ZM30.3879 19.3092V12.4971H36.8789V19.3092H30.3879ZM36.8789 11.1182L30.3879 11.0999V4.28702H36.8789V11.1182ZM22.0896 19.3092V12.4971H28.5806V19.3092H22.0896ZM28.5806 11.1182L22.0896 11.0999V4.28702H28.5806V11.1182ZM13.7912 19.3092V12.4971H20.3085V19.3092H13.7912ZM20.3085 11.1182L13.7912 11.0999V4.28702H20.3085V11.1182ZM5.49292 19.3092V12.4971H12.0102V19.3092H5.49292ZM12.0102 11.1182L5.49292 11.0999V4.28702H12.0102V11.1182Z" fill="#383E41"/>
<rect x="22.0469" y="12.4993" width="6.50318" height="6.80296" fill="#EFC47F"/>
<rect x="38.6494" y="4.30151" width="6.50318" height="6.80296" fill="#EFC47F"/>
<path d="M55.1989 2.9353H20.293V20.6813H55.1989V2.9353ZM46.9348 19.3092V12.4971H53.4258V19.3092H46.9348ZM53.4258 11.1182L46.9348 11.0999V4.28702H53.4258V11.1182ZM38.6364 19.3092V12.4971H45.1274V19.3092H38.6364ZM45.1274 11.1182L38.6364 11.0999V4.28702H45.1274V11.1182ZM30.3381 19.3092V12.4971H36.8554V19.3092H30.3381ZM36.8554 11.1182L30.3381 11.0999V4.28702H36.8554V11.1182ZM22.0398 19.3092V12.4971H28.5571V19.3092H22.0398ZM28.5571 11.1182L22.0398 11.0999V4.28702H28.5571V11.1182Z" fill="#383E41"/>
<path d="M38.652 21.1055H3.74609V55.034H38.652V21.1055ZM36.8789 53.3044H22.0896V21.9401H36.8789V53.3044ZM20.3085 53.3044H5.49292V21.9401H20.3085V53.3044Z" fill="#383E41"/>
<path d="M55.1989 21.1055H20.293V55.034H55.1989V21.1055ZM53.4258 53.3044H38.6364V21.9401H53.4258V53.3044ZM36.8554 53.3044H22.0398V21.9401H36.8554V53.3044Z" fill="#383E41"/>
<path d="M57.2231 1H1.77567C1.34626 1 1 1.18949 1 1.42448V57.5755C1 57.8105 1.34626 58 1.77567 58H57.2243C57.6537 58 58 57.8105 58 57.5755V1.42448C57.9988 1.18949 57.6525 1 57.2231 1ZM56.8359 57.3629H2.16289V1.63638H56.8359V57.3629Z" fill="#383E41" stroke="#383E41"/>
</svg>
