<svg width="57" height="57" viewBox="0 0 57 57" fill="none" xmlns="http://www.w3.org/2000/svg">
<path d="M20.168 10.5232H26.3064V19.2924H20.168V10.5232Z" fill="#EFC47F"/>
<path d="M30.6924 24.554H36.8308V33.3232H30.6924V24.554Z" fill="#EFC47F"/>
<path d="M8.76953 38.5845H14.908V47.3537H8.76953V38.5845Z" fill="#EFC47F"/>
<path d="M15.0516 9.44061H8.90625C8.37187 9.44061 8.01562 9.79686 8.01562 10.3312V19.5937C8.01562 20.1281 8.37187 20.4844 8.90625 20.4844H15.0516C15.5859 20.4844 15.9422 20.1281 15.9422 19.5937V10.3312C15.9422 9.79686 15.4969 9.44061 15.0516 9.44061ZM14.1609 18.7031H9.79688V11.2219H14.1609V18.7031Z" fill="#383E41"/>
<path d="M37.05 9.44061H30.9047C30.3703 9.44061 30.0141 9.79686 30.0141 10.3312V19.5937C30.0141 20.1281 30.3703 20.4844 30.9047 20.4844H37.05C37.5844 20.4844 37.9406 20.1281 37.9406 19.5937V10.3312C37.9406 9.79686 37.5844 9.44061 37.05 9.44061ZM36.1594 18.7031H31.7953V11.2219H36.1594V18.7031Z" fill="#383E41"/>
<path d="M26.0953 9.44061H19.95C19.4156 9.44061 19.0594 9.79686 19.0594 10.3312V19.5937C19.0594 20.1281 19.4156 20.4844 19.95 20.4844H26.0953C26.6297 20.4844 26.9859 20.1281 26.9859 19.5937V10.3312C26.9859 9.79686 26.5406 9.44061 26.0953 9.44061ZM25.2047 18.7031H20.8406V11.2219H25.2047V18.7031Z" fill="#383E41"/>
<path d="M48.0938 9.44061H41.9484C41.4141 9.44061 41.0578 9.79686 41.0578 10.3312V19.5937C41.0578 20.1281 41.4141 20.4844 41.9484 20.4844H48.0938C48.6281 20.4844 48.9844 20.1281 48.9844 19.5937V10.3312C48.9844 9.79686 48.6281 9.44061 48.0938 9.44061ZM47.2031 18.7031H42.8391V11.2219H47.2031V18.7031Z" fill="#383E41"/>
<path d="M15.0516 23.5125H8.90625C8.37187 23.5125 8.01562 23.8687 8.01562 24.4031V33.6656C8.01562 34.2 8.37187 34.5562 8.90625 34.5562H15.0516C15.5859 34.5562 15.9422 34.2 15.9422 33.6656V24.4031C15.9422 23.8687 15.4969 23.5125 15.0516 23.5125ZM14.1609 32.6859H9.79688V25.2047H14.1609V32.6859Z" fill="#383E41"/>
<path d="M37.05 23.5125H30.9047C30.3703 23.5125 30.0141 23.8687 30.0141 24.4031V33.6656C30.0141 34.2 30.3703 34.5562 30.9047 34.5562H37.05C37.5844 34.5562 37.9406 34.2 37.9406 33.6656V24.4031C37.9406 23.8687 37.5844 23.5125 37.05 23.5125ZM36.1594 32.6859H31.7953V25.2047H36.1594V32.6859Z" fill="#383E41"/>
<path d="M26.0953 23.5125H19.95C19.4156 23.5125 19.0594 23.8687 19.0594 24.4031V33.6656C19.0594 34.2 19.4156 34.5562 19.95 34.5562H26.0953C26.6297 34.5562 26.9859 34.2 26.9859 33.6656V24.4031C26.9859 23.8687 26.5406 23.5125 26.0953 23.5125ZM25.2047 32.6859H20.8406V25.2047H25.2047V32.6859Z" fill="#383E41"/>
<path d="M48.0938 23.5125H41.9484C41.4141 23.5125 41.0578 23.8687 41.0578 24.4031V33.6656C41.0578 34.2 41.4141 34.5562 41.9484 34.5562H48.0938C48.6281 34.5562 48.9844 34.2 48.9844 33.6656V24.4031C48.9844 23.8687 48.6281 23.5125 48.0938 23.5125ZM47.2031 32.6859H42.8391V25.2047H47.2031V32.6859Z" fill="#383E41"/>
<path d="M15.0516 37.4953H8.90625C8.37187 37.4953 8.01562 37.8516 8.01562 38.3859V47.6484C8.01562 48.1828 8.37187 48.5391 8.90625 48.5391H15.0516C15.5859 48.5391 15.9422 48.1828 15.9422 47.6484V38.3859C15.9422 37.8516 15.4969 37.4953 15.0516 37.4953ZM14.1609 46.7578H9.79688V39.2766H14.1609V46.7578Z" fill="#383E41"/>
<path d="M48.0938 37.4953H41.9484C41.4141 37.4953 41.0578 37.8516 41.0578 38.3859V47.6484C41.0578 48.1828 41.4141 48.5391 41.9484 48.5391H48.0938C48.6281 48.5391 48.9844 48.1828 48.9844 47.6484V38.3859C48.9844 37.8516 48.6281 37.4953 48.0938 37.4953ZM47.2031 46.7578H42.8391V39.2766H47.2031V46.7578Z" fill="#383E41"/>
<path d="M56.1094 55.2188H53.4375V6.76875H53.7938C54.5953 6.76875 55.3078 6.05625 55.3078 5.25469V1.51406C55.3078 0.7125 54.5953 0 53.7938 0H3.20625C2.31562 0 1.69219 0.7125 1.69219 1.51406V5.25469C1.69219 6.05625 2.40469 6.76875 3.20625 6.76875H3.5625V55.2188H0.890625C0.35625 55.2188 0 55.575 0 56.1094C0 56.6437 0.35625 57 0.890625 57C16.3875 57 35.3578 57 56.1094 57C56.6437 57 57 56.6437 57 56.1094C57 55.575 56.6437 55.2188 56.1094 55.2188ZM3.47344 1.78125H53.6156V4.9875C42.2156 4.9875 14.7844 4.9875 3.47344 4.9875V1.78125ZM20.8406 55.2188V39.2766H36.1594V55.2188H20.8406ZM37.9406 55.2188V38.3859C37.9406 37.8516 37.5844 37.4953 37.05 37.4953H19.95C19.4156 37.4953 19.0594 37.8516 19.0594 38.3859V55.2188H5.34375V6.76875H51.6562V55.2188H37.9406Z" fill="#383E41"/>
</svg>
