<svg width="57" height="57" viewBox="0 0 57 57" fill="none" xmlns="http://www.w3.org/2000/svg">
<rect x="0.8125" y="5.6377" width="4.07143" height="12.2143" rx="2.03571" fill="#EFC47F"/>
<path d="M54.15 41.4545H53.2V15.5455H54.15C55.67 15.5455 57 13.7318 57 11.6591C57 9.58636 55.67 7.77273 54.15 7.77273H53.2V5.18182C53.2 2.33182 51.49 0 49.4 0C47.31 0 45.6 2.33182 45.6 5.18182V7.77273H43.7V5.18182C43.7 2.33182 41.99 0 39.9 0C37.81 0 36.1 2.33182 36.1 5.18182V7.77273H34.2V5.18182C34.2 2.33182 32.49 0 30.4 0C28.31 0 26.6 2.33182 26.6 5.18182V7.77273H24.7V5.18182C24.7 2.33182 22.99 0 20.9 0C18.81 0 17.1 2.33182 17.1 5.18182V7.77273H15.2V5.18182C15.2 2.33182 13.49 0 11.4 0C9.31 0 7.6 2.33182 7.6 5.18182V7.77273H5.51C5.13 6.21818 4.18 5.18182 2.85 5.18182C1.33 5.18182 0 6.99545 0 9.06818V14.25C0 16.3227 1.33 18.1364 2.85 18.1364C4.18 18.1364 5.13 17.1 5.51 15.5455H7.6V51.8182C7.6 54.6682 9.31 57 11.4 57C13.49 57 15.2 54.6682 15.2 51.8182V49.2273H17.1V51.8182C17.1 54.6682 18.81 57 20.9 57C22.99 57 24.7 54.6682 24.7 51.8182V49.2273H26.6V51.8182C26.6 54.6682 28.31 57 30.4 57C32.49 57 34.2 54.6682 34.2 51.8182V49.2273H36.1V51.8182C36.1 54.6682 37.81 57 39.9 57C41.99 57 43.7 54.6682 43.7 51.8182V49.2273H45.6V51.8182C45.6 54.6682 47.31 57 49.4 57C51.49 57 53.2 54.6682 53.2 51.8182V49.2273H54.15C55.67 49.2273 57 47.4136 57 45.3409C57 43.2682 55.67 41.4545 54.15 41.4545ZM54.15 10.3636C54.72 10.3636 55.1 10.8818 55.1 11.6591C55.1 12.4364 54.72 12.9545 54.15 12.9545H53.2V10.3636H54.15ZM43.7 15.5455H45.6V41.4545H43.7V15.5455ZM45.6 10.3636V12.9545H43.7V10.3636H45.6ZM34.2 15.5455H36.1V41.4545H34.2V15.5455ZM36.1 10.3636V12.9545H34.2V10.3636H36.1ZM24.7 15.5455H26.6V41.4545H24.7V15.5455ZM26.6 10.3636V12.9545H24.7V10.3636H26.6ZM15.2 15.5455H17.1V41.4545H15.2V15.5455ZM17.1 10.3636V12.9545H15.2V10.3636H17.1ZM2.85 15.5455C2.28 15.5455 1.9 15.0273 1.9 14.25V9.06818C1.9 8.29091 2.28 7.77273 2.85 7.77273C3.42 7.77273 3.8 8.29091 3.8 9.06818V14.25C3.8 15.0273 3.42 15.5455 2.85 15.5455ZM5.7 12.9545V10.3636H7.6V12.9545H5.7ZM13.3 51.8182C13.3 53.3727 12.54 54.4091 11.4 54.4091C10.26 54.4091 9.5 53.3727 9.5 51.8182V14.25V9.06818V5.18182C9.5 3.62727 10.26 2.59091 11.4 2.59091C12.54 2.59091 13.3 3.62727 13.3 5.18182V9.06818V14.25V42.75V47.9318V51.8182ZM15.2 46.6364V44.0455H17.1V46.6364H15.2ZM22.8 51.8182C22.8 53.3727 22.04 54.4091 20.9 54.4091C19.76 54.4091 19 53.3727 19 51.8182V47.9318V42.75V14.25V9.06818V5.18182C19 3.62727 19.76 2.59091 20.9 2.59091C22.04 2.59091 22.8 3.62727 22.8 5.18182V9.06818V14.25V42.75V47.9318V51.8182ZM24.7 46.6364V44.0455H26.6V46.6364H24.7ZM32.3 51.8182C32.3 53.3727 31.54 54.4091 30.4 54.4091C29.26 54.4091 28.5 53.3727 28.5 51.8182V47.9318V42.75V14.25V9.06818V5.18182C28.5 3.62727 29.26 2.59091 30.4 2.59091C31.54 2.59091 32.3 3.62727 32.3 5.18182V9.06818V14.25V42.75V47.9318V51.8182ZM34.2 46.6364V44.0455H36.1V46.6364H34.2ZM41.8 51.8182C41.8 53.3727 41.04 54.4091 39.9 54.4091C38.76 54.4091 38 53.3727 38 51.8182V47.9318V42.75V14.25V9.06818V5.18182C38 3.62727 38.76 2.59091 39.9 2.59091C41.04 2.59091 41.8 3.62727 41.8 5.18182V9.06818V14.25V42.75V47.9318V51.8182ZM43.7 46.6364V44.0455H45.6V46.6364H43.7ZM51.3 51.8182C51.3 53.3727 50.54 54.4091 49.4 54.4091C48.26 54.4091 47.5 53.3727 47.5 51.8182V47.9318V42.75V14.25V9.06818V5.18182C47.5 3.62727 48.26 2.59091 49.4 2.59091C50.54 2.59091 51.3 3.62727 51.3 5.18182V9.06818V14.25V42.75V47.9318V51.8182ZM54.15 46.6364H53.2V44.0455H54.15C54.72 44.0455 55.1 44.5636 55.1 45.3409C55.1 46.1182 54.72 46.6364 54.15 46.6364Z" fill="#383E41"/>
</svg>
