<svg width="57" height="57" viewBox="0 0 57 57" fill="none" xmlns="http://www.w3.org/2000/svg">
<path d="M20.1232 17.5383H14.0312V20.4244L15.1086 23.6768H19.0529L20.1697 20.3164L20.1232 17.5383Z" fill="#EFC47F"/>
<path d="M1.62342 57C1.26266 57 0.901898 56.6393 0.901898 56.2785V19.6614H0V18.2183H0.901898V15.8734H0V14.4304H0.901898V12.4462H2.34494V14.4304H4.68987V12.4462H6.13291V14.4304H7.21519V15.8734H6.31329V18.2183H7.21519V19.6614H6.31329V26.8766H25.9746V19.6614H25.0728V18.2183H25.9746V15.8734H25.0728V14.4304H25.9746V12.4462H27.4178V14.4304H29.7626V12.4462H31.2057V14.4304H32.1076V15.8734H31.2057V18.2183H32.1076V19.6614H31.2057V26.8766H37.3385V10.2816C37.3385 9.92089 37.6994 9.56013 38.0602 9.56013H38.2405V7.21518H17.6772V9.74051H17.8576C18.5791 9.92089 19.1202 10.6424 19.481 11.3639C19.6615 12.0855 19.6615 12.8069 19.3006 13.3482C19.1202 14.0696 18.5791 14.4304 17.8576 14.7911H17.6772V17.3165H19.8418C20.2026 17.3165 20.5633 17.6772 20.5633 18.038V20.9241V21.1044L19.6615 23.9906C19.481 24.3513 19.3006 24.5317 18.9398 24.5317H15.1519C14.7911 24.5317 14.6107 24.3513 14.4304 23.9906L13.5285 21.1044V20.9241V18.038C13.5285 17.6772 13.8893 17.3165 14.25 17.3165H16.2342V14.7911C15.1519 14.4304 14.4304 13.5285 14.4304 12.4462H15.8734C16.0539 12.9873 16.4146 13.3482 16.9557 13.3482C17.6772 13.3482 18.2183 12.8069 18.2183 12.0854C18.2183 11.3639 17.6772 10.8228 16.9557 10.8228C16.595 11.0032 16.2342 10.6424 16.2342 10.2816V7.21518H7.39557C7.03481 7.21518 6.67405 6.85444 6.67405 6.49368V2.70569C6.67405 2.34494 7.03481 1.98418 7.39557 1.98418H48.8829V0.721518C48.8829 0.360759 49.2437 0 49.6044 0H55.3766C55.7374 0 56.0981 0.360759 56.0981 0.721518V8.47785C56.0981 8.83861 55.7374 9.19937 55.3766 9.19937H49.6044C49.2437 9.19937 48.8829 8.83861 48.8829 8.47785V7.21518H43.6519V9.56013H43.8322C44.193 9.56013 44.5537 9.92089 44.5537 10.2816V26.8766H50.6867V19.6614H49.7848V18.2183H50.6867V15.8734H49.7848V14.4304H50.6867V12.4462H52.3102V14.4304H54.655V12.4462H56.0981V14.4304H57V15.8734H56.0981V18.2183H57V19.6614H56.0981V56.2785C56.0981 56.6393 55.7374 57 55.3766 57H1.62342ZM2.34494 55.5569H54.4746V53.212H2.34494V55.5569ZM52.3102 51.769H54.655V44.5538H52.3102V51.769ZM44.5537 51.769H50.6867V44.5538H44.5537V51.769ZM38.7817 51.769H41.6678L42.9304 50.5063L38.962 46.538V51.769H38.7817ZM31.2057 51.769H37.3385V44.5538H31.2057V51.769ZM27.4178 51.769H29.7626V44.5538H27.4178V51.769ZM6.31329 51.769H25.9746V44.5538H6.31329V51.769ZM2.34494 51.769H4.68987V44.5538H2.34494V51.769ZM43.1107 48.883V44.7342H38.962L43.1107 48.883ZM2.34494 43.1107H54.4746V40.7658H2.34494V43.1107ZM52.3102 39.3228H54.655V32.1076H52.3102V39.3228ZM44.5537 39.3228H50.6867V32.1076H44.5537V39.3228ZM38.7817 39.3228H42.9304L38.7817 35.1741V39.3228ZM31.2057 39.3228H37.3385V32.1076H31.2057V39.3228ZM27.4178 39.3228H29.7626V32.1076H27.4178V39.3228ZM6.31329 39.3228H25.9746V32.1076H6.31329V39.3228ZM2.34494 39.3228H4.68987V32.1076H2.34494V39.3228ZM39.1424 33.3703L43.1107 37.3386V32.1076H40.2246L39.1424 33.3703ZM2.34494 30.6645H54.4746V28.3196H2.34494V30.6645ZM52.3102 26.8766H54.655V23.4494H52.3102V26.8766ZM38.7817 26.8766H42.0285L38.7817 23.6297V26.8766ZM27.4178 26.8766H29.7626V23.4494H27.4178V26.8766ZM2.34494 26.8766H4.68987V23.4494H2.34494V26.8766ZM39.1424 21.8259L43.1107 25.7944V17.8576L39.1424 21.8259ZM14.9715 20.7437L15.693 23.0886H18.3987L19.1202 20.7437V18.7594H14.9715V20.7437ZM52.3102 22.0063H54.655V19.6614H52.3102V22.0063ZM27.4178 22.0063H29.7626V19.6614H27.4178V22.0063ZM2.34494 22.0063H4.68987V19.6614H2.34494V22.0063ZM38.7817 20.0221L42.75 16.0538L38.7817 12.0854V20.0221ZM52.3102 18.2183H54.655V15.8734H52.3102V18.2183ZM27.4178 18.2183H29.7626V15.8734H27.4178V18.2183ZM2.34494 18.2183H4.68987V15.8734H2.34494V18.2183ZM43.1107 14.25V11.0032H39.8639L43.1107 14.25ZM39.8639 9.56013H42.2089V7.21518H39.8639V9.56013ZM50.3259 7.75632H54.655V1.44304H50.3259V7.75632ZM45.6361 5.77215H48.8829V3.42721H47.981L45.6361 5.77215ZM39.8639 5.77215H43.4715L45.8165 3.42721H42.2089L39.8639 5.77215ZM34.0918 5.77215H37.6994L40.0443 3.42721H36.4367L34.0918 5.77215ZM28.3196 5.77215H31.9272L34.2722 3.42721H30.6646L28.3196 5.77215ZM22.5474 5.77215H26.155L28.5 3.42721H24.8924L22.5474 5.77215ZM16.9557 5.77215H20.5633L22.9082 3.42721H19.3006L16.9557 5.77215ZM11.1835 5.77215H14.7911L17.1361 3.42721H13.5285L11.1835 5.77215ZM8.11709 5.77215H9.01898L11.3639 3.42721H8.11709V5.77215Z" fill="#383E41"/>
</svg>
