<svg width="57" height="57" viewBox="0 0 57 57" fill="none" xmlns="http://www.w3.org/2000/svg">
<rect x="24.7031" y="38.0012" width="13.2939" height="7.59747" fill="#EFC47F"/>
<path d="M0.950223 57H46.5509C47.0758 57 47.5011 56.5747 47.5011 56.0502V47.4999H54.151C54.6759 47.4999 55.1012 47.0746 55.1012 46.5501V37.0497C55.1012 36.5252 54.6759 36.0999 54.151 36.0999H47.5011V27.5496C47.5011 27.0247 47.0758 26.5994 46.5509 26.5994H44.8075C44.9414 25.9784 44.7996 25.3295 44.4191 24.8207L40.1264 19.0985L42.1086 17.6116C42.9892 16.9523 43.4811 15.8956 43.4189 14.797L43.3236 13.0862C43.2976 12.6222 43.5054 12.176 43.8773 11.8972L45.859 10.4108L46.6931 11.5223C46.844 11.7237 47.0689 11.8572 47.3185 11.8929C47.3629 11.899 47.4076 11.9024 47.4529 11.902C47.6586 11.9024 47.8586 11.8355 48.023 11.712L55.8614 5.83188C57.1199 4.88774 57.3752 3.10167 56.4311 1.84268L55.9031 1.13817C54.9577 -0.119085 53.1725 -0.373492 51.9131 0.569338L44.0756 6.44898C43.6559 6.76384 43.5707 7.35963 43.8855 7.77929L44.7192 8.89086L42.7374 10.3777C41.8568 11.037 41.3645 12.0934 41.4271 13.1919L41.5219 14.9027C41.5484 15.3667 41.3406 15.8134 40.9687 16.0917L38.987 17.5786L34.6938 11.8563C34.2446 11.2479 33.5148 10.9126 32.7603 10.9679C32.0406 11.0201 31.3974 11.4375 31.056 12.0738L23.2498 26.5994H0.950223C0.425317 26.5994 0 27.0247 0 27.5496V37.0497C0 37.5746 0.425317 37.9999 0.950223 37.9999H7.60004V45.5999H0.950223C0.425317 45.5999 0 46.0252 0 46.5501V56.0502C0 56.5747 0.425317 57 0.950223 57ZM53.0533 2.08883C53.4726 1.77397 54.0679 1.85877 54.3832 2.27844L54.9112 2.98295C55.2256 3.40261 55.1403 3.99754 54.7211 4.31239L47.6425 9.62277L45.9747 7.39877L53.0533 2.08883ZM17.1005 47.4999H30.4006V55.1H17.1005V47.4999ZM24.7006 37.9999H38.0007V45.5999H24.7006V37.9999ZM45.6011 55.1H32.3006V47.4999H45.6011V55.1ZM53.2012 45.5999H39.9007V37.9999H53.2012V45.5999ZM45.6011 36.0999H32.3006V30.5677L42.0246 28.4994H45.6011V36.0999ZM32.7303 12.974C32.7625 12.9075 32.8294 12.8648 32.9034 12.8627L32.9221 12.8618C33.023 12.8635 33.1165 12.9135 33.1739 12.9962L37.4662 18.7184L33.547 21.6586C33.1273 21.9735 33.0421 22.5689 33.357 22.989C33.6718 23.4086 34.2672 23.4934 34.6873 23.179L38.6065 20.2387L42.8992 25.961C42.9675 26.0445 42.9875 26.1571 42.9514 26.2584C42.9288 26.3289 42.8692 26.3806 42.7961 26.3937L23.9487 30.4016C23.8317 30.4198 23.7143 30.3698 23.6469 30.2724C23.5712 30.1811 23.556 30.0541 23.6077 29.9471L32.7303 12.974ZM22.1274 31.4127C22.6336 32.1089 23.5025 32.4407 24.344 32.2598L30.4006 30.9717V36.0999H17.1005V28.4994H22.2283L21.9338 29.0473C21.5268 29.8053 21.6029 30.7312 22.1274 31.4127ZM1.90001 32.2998H3.80002C4.32493 32.2998 4.75025 31.8745 4.75025 31.3496C4.75025 30.8251 4.32493 30.3998 3.80002 30.3998H1.90001V28.4994H15.2005V36.0999H1.90001V32.2998ZM9.50006 37.9999H22.8006V45.5999H9.50006V37.9999ZM1.90001 47.4999H15.2005V55.1H1.90001V47.4999Z" fill="#383E41"/>
</svg>
