<svg width="57" height="57" viewBox="0 0 57 57" fill="none" xmlns="http://www.w3.org/2000/svg">
<rect x="37.876" y="42.0684" width="5.62323" height="20.3309" transform="rotate(-45 37.876 42.0684)" fill="#EFC47F"/>
<path d="M56.1398 50.7031L42.2897 37.0759C41.9072 36.6998 41.2873 36.6998 40.9049 37.0759L39.52 38.4385L35.0522 34.0435C34.7338 33.727 34.6753 33.2379 34.9102 32.8573L47.9073 10.2341C48.5877 9.09851 48.4012 7.65397 47.4538 6.72181L41.5973 0.963382C40.45 -0.165587 38.5897 -0.165828 37.4422 0.96302C37.4421 0.963141 37.442 0.963261 37.4418 0.963382L36.7494 0.282122C36.367 -0.0940406 35.7471 -0.0940406 35.3646 0.282122L33.2864 2.3259C31.3731 0.447739 28.2757 0.447739 26.3623 2.3259L1.43176 26.8551C-0.477254 28.738 -0.477254 31.7858 1.43176 33.6687C0.28432 34.7976 0.28432 36.6282 1.43176 37.7572C2.57921 38.8862 4.43974 38.8862 5.58719 37.7572C7.50086 39.6355 10.5986 39.6355 12.5122 37.7572L37.4418 13.228C39.3542 11.3465 39.3542 8.29596 37.4418 6.41442L39.52 4.36968C39.9024 3.9934 39.9024 3.38344 39.52 3.00716L38.8267 2.3259C39.2089 1.94938 39.829 1.94902 40.2117 2.32518C40.212 2.32542 40.2122 2.32566 40.2125 2.3259L46.0641 8.08433C46.3849 8.39966 46.4436 8.8905 46.2061 9.27051L33.2169 31.8937C32.5372 33.028 32.7224 34.4707 33.6674 35.4031L38.1352 39.7981L36.7494 41.1606C36.3671 41.5369 36.3671 42.1468 36.7494 42.5231L50.5995 56.1531C51.7469 57.2821 53.6072 57.2823 54.7546 56.1535C54.7547 56.1534 54.7548 56.1533 54.755 56.1531L56.1398 54.7906C57.2867 53.6618 57.2867 51.8319 56.1398 50.7031ZM2.81658 36.3947C2.43426 36.0184 2.43426 35.4084 2.81658 35.0322L4.20139 36.3956C3.81871 36.7716 3.19877 36.7712 2.81658 36.3947ZM36.057 11.8655L11.1264 36.3947C9.97741 37.5201 8.12006 37.5201 6.97102 36.3947L2.81658 32.3061C1.66914 31.1773 1.66889 29.347 2.81621 28.218C2.81633 28.2179 2.81646 28.2178 2.81658 28.2176L27.7472 3.68842C28.8945 2.55993 30.7543 2.55993 31.9016 3.68842L36.057 7.77694C37.202 8.907 37.202 10.7354 36.057 11.8655ZM36.057 5.04998L34.6712 3.68842L36.057 2.3259L37.4428 3.68842L36.057 5.04998ZM54.755 53.4281V53.4223L53.3702 54.7906C52.988 55.1671 52.3678 55.1675 51.9851 54.7913C51.9848 54.7911 51.9846 54.7909 51.9844 54.7906L38.8267 41.8448L41.5973 39.1197L54.755 52.0656C55.1373 52.4419 55.1373 53.0518 54.755 53.4281Z" fill="#383E41"/>
</svg>
