<svg width="57" height="57" viewBox="0 0 57 57" fill="none" xmlns="http://www.w3.org/2000/svg">
<path d="M55.0999 44.65C56.1487 44.6487 56.9987 43.7988 57 42.7499V37.0499C56.9987 36.0011 56.1489 35.1511 55.0999 35.1499H30.4C29.3512 35.1511 28.5012 36.0011 28.5 37.0499V42.7499C28.5012 43.7988 29.3512 44.6487 30.4 44.65H32.3001V46.55H30.4C29.3512 46.5512 28.5012 47.4011 28.5 48.45V50.3501C28.5012 51.3989 29.3512 52.2489 30.4 52.2501H32.3001V56.0501C32.3001 56.5748 32.7253 57 33.25 57C33.7747 57 34.2 56.5748 34.2 56.0501V52.2501H51.3V56.0501C51.3 56.5748 51.7252 57 52.2499 57C52.7746 57 53.1999 56.5748 53.1999 56.0501V52.2501H55.0999C56.1487 52.2489 56.9987 51.3989 57 50.3501V48.45C56.9987 47.4012 56.1489 46.5512 55.0999 46.55H53.1999V44.65H55.0999ZM55.0999 48.45L55.1009 50.3501H30.4V48.45H55.0999ZM34.2 46.55V44.65H51.3V46.55H34.2ZM30.4 42.7499V37.0499H55.1L55.101 42.7499H30.4Z" fill="#EFC47F"/>
<path d="M30.4 42.7499V37.0499H55.1L55.101 42.7499H30.4Z" fill="#EFC47F"/>
<path d="M55.0999 48.45L55.1009 50.3501H30.4V48.45H55.0999Z" fill="#EFC47F"/>
<path d="M25.175 43.7472V32.3335C26.1154 31.7902 26.9078 31.0243 27.4828 30.1029C29.5076 31.5568 32.1757 31.7547 34.3927 30.6157C36.6098 29.4767 38.0028 27.1924 38 24.6999C37.9953 24.3749 37.9666 24.0508 37.9139 23.7302C41.691 23.5286 44.6502 20.4072 44.6501 16.6248C44.6499 12.8424 41.6906 9.72113 37.9136 9.51962C37.9664 9.199 37.9953 8.87481 38 8.54996C38.0028 6.0571 36.6095 3.77243 34.392 2.63366C32.1744 1.49477 29.5059 1.6935 27.4814 3.14811C26.3239 1.26922 24.3063 0.0904847 22.1011 0.00498487C19.896 -0.080515 17.7932 0.938247 16.4936 2.72194C15.5172 2.17855 14.4174 1.89556 13.3 1.90001C9.6292 1.90424 6.6544 4.87903 6.65006 8.54985C6.65474 8.87481 6.68357 9.19889 6.73645 9.51951C2.95932 9.72102 0 12.8424 0 16.6249C0 20.4074 2.95932 23.5287 6.73645 23.7302C6.68368 24.0508 6.65474 24.375 6.65006 24.6999C6.65429 28.3708 9.62908 31.3456 13.3 31.3498C14.4173 31.3543 15.517 31.0713 16.4932 30.528C16.8065 30.9556 17.1697 31.3442 17.575 31.686V43.7472C17.5753 45.816 17.3025 47.8756 16.7632 49.873C16.2209 51.8689 15.4192 53.785 14.3789 55.5725C14.2078 55.8663 14.2068 56.2291 14.3763 56.5238C14.5459 56.8185 14.8599 57.0001 15.1999 56.9999H27.5499C27.89 56.9999 28.204 56.8181 28.3736 56.5233C28.543 56.2285 28.542 55.8655 28.3709 55.5716C26.2796 51.9818 25.1768 47.9018 25.175 43.7472ZM17.1001 26.5999C17.1002 26.2514 17.1375 25.9041 17.2114 25.5636C17.3211 25.0508 16.9942 24.5461 16.4813 24.4364C15.9684 24.3268 15.4638 24.6537 15.3541 25.1665C15.2517 25.6375 15.2 26.1179 15.2002 26.5999C15.1996 27.3677 15.3331 28.1298 15.5947 28.8517C14.8947 29.2468 14.104 29.453 13.3002 29.4499C10.6781 29.4468 8.55332 27.322 8.55021 24.6999C8.55755 23.2065 9.25992 21.8018 10.4502 20.8999C10.7217 20.6964 10.8639 20.3635 10.8234 20.0266C10.7829 19.6898 10.5658 19.4002 10.2537 19.2668C9.9418 19.1335 9.58233 19.1768 9.31091 19.3803C8.45725 20.0251 7.77358 20.8682 7.31892 21.8366C7.25335 21.8391 7.19189 21.8499 7.1251 21.8499C4.23937 21.8499 1.90014 19.5105 1.90014 16.6249C1.90014 13.7392 4.23948 11.4 7.1251 11.4C7.361 11.3996 7.59657 11.416 7.83014 11.4492C8.80247 11.5783 9.71848 11.9797 10.4723 12.6074C10.734 12.8235 11.091 12.8836 11.409 12.7651C11.7269 12.6465 11.9575 12.3673 12.0138 12.0326C12.0702 11.698 11.9436 11.3586 11.682 11.1426C10.819 10.4328 9.80086 9.93644 8.71018 9.69352C8.60954 9.32046 8.55566 8.93638 8.54987 8.54996C8.55299 5.92785 10.6778 3.80305 13.2999 3.79993C14.1035 3.79681 14.894 4.00288 15.5939 4.39776C15.3326 5.11983 15.1993 5.88198 15.1999 6.64992C15.1998 7.13186 15.2515 7.61235 15.3539 8.08327C15.4636 8.59616 15.9682 8.92302 16.4811 8.81336C16.994 8.7037 17.3208 8.19905 17.2112 7.68616C17.1373 7.34572 17.1 6.99827 17.0999 6.64992C17.0986 4.34911 18.7474 2.37872 21.0123 1.97393C23.2771 1.56914 25.5062 2.84674 26.302 5.0055C26.5017 5.53063 26.6027 6.08816 26.5998 6.64992C26.6006 6.96075 26.5692 7.27091 26.5061 7.57539C26.4032 8.0865 26.7314 8.58503 27.2416 8.69246C27.7518 8.79989 28.2532 8.47604 28.3652 7.96682C28.4554 7.53365 28.5004 7.09234 28.4998 6.64992C28.4928 6.08505 28.4122 5.52351 28.2601 4.97945C29.1105 4.22053 30.2102 3.80082 31.3498 3.79993C33.9719 3.80305 36.0967 5.92785 36.0999 8.54996C36.0925 10.0433 35.3901 11.448 34.1998 12.3499C33.7802 12.6645 33.6951 13.2597 34.0097 13.6794C34.3243 14.0991 34.9194 14.1842 35.3391 13.8695C36.1928 13.2247 36.8765 12.3816 37.3311 11.4132C37.3967 11.4108 37.4582 11.4 37.525 11.4C40.4107 11.4 42.7499 13.7393 42.7499 16.6249C42.7499 19.5106 40.4106 21.8499 37.525 21.8499C37.4567 21.8499 37.3939 21.8389 37.327 21.8364C36.8185 20.7578 36.0286 19.8363 35.0405 19.1687C34.604 18.8823 34.0182 19.0016 33.7287 19.4359C33.4391 19.8702 33.5542 20.4569 33.9865 20.7496C35.7272 21.9111 36.5026 24.0751 35.8957 26.0779C35.2887 28.0805 33.4426 29.4501 31.3499 29.4499C30.2099 29.4491 29.1101 29.0292 28.2598 28.27C28.412 27.7261 28.4927 27.1646 28.4999 26.5999C28.5006 26.1575 28.4555 25.7162 28.3655 25.283C28.2981 24.9483 28.0563 24.6755 27.7321 24.5684C27.4079 24.4613 27.0512 24.5364 26.7977 24.7651C26.5442 24.9939 26.433 25.341 26.5064 25.6744C26.5695 25.9788 26.6008 26.2889 26.6 26.5999C26.6026 27.1661 26.4999 27.728 26.2975 28.2568C25.4971 30.4115 23.2679 31.6833 21.0057 31.2758C18.7435 30.8683 17.0982 28.8985 17.1001 26.5999ZM16.792 55.0998C17.5492 53.587 18.1537 52.0025 18.5964 50.3698C19.1805 48.2107 19.4759 45.9839 19.475 43.7472V32.7984C20.6819 33.2841 22.0104 33.3809 23.275 33.0752V43.7472C23.2765 47.6882 24.1948 51.5747 25.9571 55.0998H16.792Z" fill="#383E41"/>
<path d="M55.0999 44.6499C56.1487 44.6486 56.9987 43.7987 57 42.7498V37.0498C56.9987 36.001 56.1489 35.151 55.0999 35.1498H30.4C29.3512 35.151 28.5012 36.001 28.5 37.0498V42.7498C28.5012 43.7987 29.3512 44.6486 30.4 44.6499H32.3001V46.5499H30.4C29.3512 46.5511 28.5012 47.401 28.5 48.4499V50.35C28.5012 51.3988 29.3512 52.2488 30.4 52.25H32.3001V56.05C32.3001 56.5747 32.7253 56.9999 33.25 56.9999C33.7747 56.9999 34.2 56.5747 34.2 56.05V52.25H51.3V56.05C51.3 56.5747 51.7252 56.9999 52.2499 56.9999C52.7746 56.9999 53.1999 56.5747 53.1999 56.05V52.25H55.0999C56.1487 52.2488 56.9987 51.3988 57 50.35V48.4499C56.9987 47.4011 56.1489 46.5511 55.0999 46.5499H53.1999V44.6499H55.0999ZM55.0999 48.4499L55.1009 50.35H30.4V48.4499H55.0999ZM34.2 46.5499V44.6499H51.3V46.5499H34.2ZM30.4 42.7498V37.0498H55.1L55.101 42.7498H30.4Z" fill="#383E41"/>
<path d="M33.6154 39.017C33.259 38.869 32.8484 38.9513 32.5766 39.2254C32.4028 39.4073 32.3044 39.6483 32.3011 39.8999C32.2976 40.0245 32.3237 40.1482 32.3771 40.2608C32.4231 40.3771 32.4908 40.4835 32.5766 40.5744C32.9512 40.9418 33.551 40.9418 33.9256 40.5744C34.0114 40.4836 34.0791 40.3772 34.1251 40.2608C34.1737 40.1466 34.1996 40.024 34.2011 39.8999C34.2033 39.5139 33.9719 39.1649 33.6154 39.017Z" fill="#383E41"/>
<path d="M53.1249 39.5384C53.1038 39.4781 53.0752 39.4207 53.0395 39.3677C53.0015 39.32 52.9635 39.2727 52.9254 39.2253C52.5445 38.8738 51.9574 38.8738 51.5764 39.2253C51.5355 39.2704 51.4974 39.318 51.4623 39.3677C51.4262 39.4205 51.3975 39.478 51.3769 39.5384C51.3481 39.5952 51.3286 39.6563 51.3194 39.7193C51.3086 39.7789 51.3023 39.8392 51.3008 39.8998C51.3008 40.4245 51.7261 40.8497 52.2507 40.8497C52.7754 40.8497 53.2007 40.4245 53.2007 39.8998C53.1993 39.8392 53.1928 39.7789 53.1812 39.7193C53.1731 39.6562 53.1539 39.5951 53.1249 39.5384Z" fill="#383E41"/>
</svg>
