<svg width="57" height="57" viewBox="0 0 57 57" fill="none" xmlns="http://www.w3.org/2000/svg">
<rect x="8.76953" y="22.8" width="11.4" height="4.38461" transform="rotate(90 8.76953 22.8)" fill="#EFC47F"/>
<path d="M56.0806 57H0.919355C0.675527 57 0.441685 56.9062 0.269273 56.7391C0.0968603 56.5721 0 56.3456 0 56.1094V0.890625C0 0.654417 0.0968603 0.427883 0.269273 0.260858C0.441685 0.0938334 0.675527 0 0.919355 0H56.0806C56.3245 0 56.5583 0.0938334 56.7307 0.260858C56.9031 0.427883 57 0.654417 57 0.890625V56.1094C57 56.3456 56.9031 56.5721 56.7307 56.7391C56.5583 56.9062 56.3245 57 56.0806 57ZM1.83871 55.2187H55.1613V1.78125H1.83871V55.2187Z" fill="#383E41"/>
<path d="M45.0476 57H11.9508C11.707 57 11.4731 56.9062 11.3007 56.7391C11.1283 56.5721 11.0314 56.3456 11.0314 56.1094V8.01563C11.0314 7.77942 11.1283 7.55289 11.3007 7.38587C11.4731 7.21884 11.707 7.12501 11.9508 7.12501H45.0476C45.2914 7.12501 45.5252 7.21884 45.6977 7.38587C45.8701 7.55289 45.9669 7.77942 45.9669 8.01563V56.1094C45.9669 56.3456 45.8701 56.5721 45.6977 56.7391C45.5252 56.9062 45.2914 57 45.0476 57ZM12.8701 55.2188H44.1282V8.90626H12.8701V55.2188Z" fill="#383E41"/>
<path d="M8.27392 34.7344H4.5965C4.35267 34.7344 4.11883 34.6405 3.94642 34.4735C3.774 34.3065 3.67714 34.08 3.67714 33.8438V23.1563C3.67714 22.92 3.774 22.6935 3.94642 22.5265C4.11883 22.3595 4.35267 22.2656 4.5965 22.2656H8.27392C8.51775 22.2656 8.75159 22.3595 8.924 22.5265C9.09641 22.6935 9.19327 22.92 9.19327 23.1563V33.8438C9.19327 34.08 9.09641 34.3065 8.924 34.4735C8.75159 34.6405 8.51775 34.7344 8.27392 34.7344ZM5.51585 32.9531H7.35456V24.0469H5.51585V32.9531Z" fill="#383E41"/>
<path d="M28.5005 57C28.2566 57 28.0228 56.9062 27.8504 56.7391C27.678 56.5721 27.5811 56.3456 27.5811 56.1094V8.01563C27.5811 7.77942 27.678 7.55289 27.8504 7.38587C28.0228 7.21884 28.2566 7.12501 28.5005 7.12501C28.7443 7.12501 28.9781 7.21884 29.1505 7.38587C29.323 7.55289 29.4198 7.77942 29.4198 8.01563V56.1094C29.4198 56.3456 29.323 56.5721 29.1505 56.7391C28.9781 56.9062 28.7443 57 28.5005 57Z" fill="#383E41"/>
</svg>
