<svg width="57" height="57" viewBox="0 0 57 57" fill="none" xmlns="http://www.w3.org/2000/svg">
<g clip-path="url(#clip0)">
<rect x="14.5186" y="16.6321" width="8.68188" height="3.21567" fill="#EFC47F"/>
<path d="M19.4615 30.6279C19.9227 30.6279 20.2964 30.2542 20.2964 29.793C20.2964 29.3317 19.9227 28.958 19.4615 28.958H15.6924V26.454C15.6924 25.9928 15.3186 25.6191 14.8574 25.6191C14.3962 25.6191 14.0224 25.9928 14.0224 26.454V28.958H11.0882V19.3154C11.0882 18.701 10.6109 18.2199 10.0016 18.2199H1.4398C0.750236 18.2199 0.209961 18.8169 0.209961 19.5791V55.6408C0.209961 56.4029 0.750236 57 1.4398 57H19.0666C19.7447 57 20.2964 56.3903 20.2964 55.6408V46.9836C20.2964 46.5224 19.9227 46.1486 19.4615 46.1486C19.0003 46.1486 18.6265 46.5224 18.6265 46.9836V55.3301H1.87999V19.8898H9.41835V21.991H6.59797C6.13674 21.991 5.76301 22.3647 5.76301 22.8259C5.76301 23.2872 6.13674 23.6609 6.59797 23.6609H9.41824V26.6928H6.88775C6.42652 26.6928 6.05279 27.0665 6.05279 27.5278C6.05279 27.989 6.42652 28.3627 6.88775 28.3627H9.41824V35.7403C9.41824 36.2016 9.79197 36.5753 10.2532 36.5753H18.6265V43.1014C18.6265 43.5626 19.0003 43.9363 19.4615 43.9363C19.9227 43.9363 20.2964 43.5626 20.2964 43.1014V36.0008C20.2964 35.3242 19.7143 34.9054 19.1749 34.9054H15.6924V30.6279H19.4615ZM14.0224 34.9054H11.0882V30.6279H14.0223L14.0224 34.9054Z" fill="#383E41"/>
<path d="M47.9338 38.6181V26.9407C47.9338 26.9404 47.9338 26.94 47.9338 26.9396V15.2623C47.9338 15.262 47.9338 15.2615 47.9338 15.2612V10.2573H49.5601C50.3189 10.2573 50.9362 9.64046 50.9362 8.8822V8.80539H55.2626C55.6325 8.80539 55.9718 8.6856 56.2361 8.48677C56.284 8.4547 56.3293 8.4173 56.3711 8.37421C56.3806 8.36453 56.3887 8.35406 56.3976 8.34404C56.6398 8.09946 56.7885 7.77749 56.7885 7.42403V2.8333C56.7885 2.07148 56.1041 1.45183 55.2626 1.45183H50.9363V1.37513C50.9363 0.616869 50.319 0 49.5602 0H38.9414C38.1826 0 37.5651 0.616869 37.5651 1.37513V1.45183H26.6968C26.6958 1.45183 26.695 1.45183 26.6939 1.45183H14.0484C13.2053 1.45183 12.5194 2.07148 12.5194 2.8333V7.42392C12.5194 8.18562 13.2053 8.80528 14.0484 8.80528H18.0214V11.6837L14.9326 14.9666H14.1695C13.4388 14.9666 12.8443 15.5607 12.8443 16.2909V20.1954C12.8443 20.9272 13.4388 21.5227 14.1695 21.5227H23.5402C24.2728 21.5227 24.8687 20.9272 24.8687 20.1954V16.2909C24.8687 15.5607 24.2728 14.9666 23.5402 14.9666H22.7803L19.6914 11.6837V8.80539H37.5653V8.8822C37.5653 9.64046 38.1827 10.2573 38.9415 10.2573H40.5677V43.6228H37.951C36.7936 43.6228 35.852 44.5632 35.852 45.7191V51.165H34.9359C33.3238 51.165 32.0121 52.4745 32.0121 54.0841V55.6058C32.0121 56.3746 32.6395 56.9999 33.4107 56.9999H55.3552C56.1245 56.9999 56.7504 56.3746 56.7504 55.6058V54.0841C56.7504 52.4745 55.4402 51.165 53.83 51.165H52.9138V45.7191C52.9138 44.5632 51.9707 43.6228 50.8115 43.6228H47.9338V38.6192C47.9338 38.6188 47.9338 38.6185 47.9338 38.6181ZM55.1187 3.12209V5.99435L52.1602 3.12197L55.1187 3.12209ZM50.9363 4.2612L53.8968 7.13547H50.9363V4.2612ZM14.1893 7.13502V3.12175H14.6523L18.7848 7.13513L14.1893 7.13502ZM23.1987 16.6367V19.8529H14.5141V16.6367H23.1987ZM20.4873 14.9667H17.2254L18.8563 13.2332L20.4873 14.9667ZM17.0491 3.12175H24.6373L20.8432 6.80649L17.0491 3.12175ZM22.9016 7.13535L26.6955 3.45073L30.4896 7.13547L22.9016 7.13535ZM28.7536 3.12175H36.3419L32.5477 6.80649L28.7536 3.12175ZM34.6059 7.13547L37.5651 4.26164V7.13547H34.6059ZM50.8114 45.2929C51.0499 45.2929 51.2438 45.4841 51.2438 45.7192V51.1651H46.3824C45.9212 51.1651 45.5475 51.5388 45.5475 52C45.5475 52.4613 45.9212 52.835 46.3824 52.835H53.8299C54.5194 52.835 55.0804 53.3953 55.0804 54.0842V55.3301H33.682V54.0842C33.682 53.3953 34.2446 52.835 34.9359 52.835H42.3388C42.8 52.835 43.1737 52.4613 43.1737 52C43.1737 51.5388 42.8 51.1651 42.3388 51.1651H37.5219V45.7192C37.5219 45.4881 37.7186 45.2929 37.951 45.2929H50.8114ZM45.9325 15.2616L42.2376 19.0492V11.4739L45.9325 15.2616ZM43.3835 10.2573H46.2639V13.2101L43.3835 10.2573ZM46.2639 17.3132V24.8884L42.5689 21.1007L46.2639 17.3132ZM45.9325 26.9401L42.2376 30.7278V23.1524L45.9325 26.9401ZM46.2639 28.9917V36.5671L42.569 32.7793L46.2639 28.9917ZM45.9325 38.6187L42.2376 42.4063V34.831L45.9325 38.6187ZM46.2639 40.6703V43.6229H43.3835L46.2639 40.6703ZM41.4135 8.58741C41.413 8.58741 41.4123 8.58741 41.4116 8.58741H39.235V1.66992H49.2663V8.58741H41.4135Z" fill="#383E41"/>
<path d="M16.625 40.3183C16.625 39.63 16.0661 39.0703 15.3793 39.0703H5.12668C4.438 39.0703 3.8778 39.63 3.8778 40.3183V43.724C3.8778 44.4122 4.438 44.972 5.12668 44.972H15.3793C16.0662 44.972 16.625 44.4122 16.625 43.724V40.3183ZM9.41793 43.3021H5.54772V40.7402H9.41804L9.41793 43.3021ZM14.9551 43.3021H11.0879V40.7402H14.9549L14.9551 43.3021Z" fill="#383E41"/>
<path d="M15.3792 47.4671H5.12668C4.438 47.4671 3.8778 48.0269 3.8778 48.7151V52.1208C3.8778 52.809 4.438 53.3687 5.12668 53.3687H15.3793C16.0662 53.3687 16.625 52.809 16.625 52.1208V48.7151C16.625 48.0269 16.0661 47.4671 15.3792 47.4671ZM9.41793 51.6988H5.54772V49.137H9.41804L9.41793 51.6988ZM14.9551 51.6988H11.0879V49.137H14.9549L14.9551 51.6988Z" fill="#383E41"/>
</g>
<defs>
<clipPath id="clip0">
<rect width="57" height="57" fill="white"/>
</clipPath>
</defs>
</svg>
